<svg id="Layer_1" data-name="Layer 1" xmlns="http://www.w3.org/2000/svg" viewBox="0 0 22 22"><defs><style>.cls-1{fill:#444ce7;}</style></defs><path class="cls-1" d="M2.1126,14.1412H6.9917a27.4987,27.4987,0,0,1,0-6.2824H2.1126a9.4674,9.4674,0,0,0,0,6.2824Zm.4433,1.0471a9.4415,9.4415,0,0,0,6.3793,5.0085A12.1009,12.1009,0,0,1,7.14,15.1883Zm17.3315-1.0471a9.4674,9.4674,0,0,0,0-6.2824H15.0083A26.7705,26.7705,0,0,1,15.1883,11a26.7705,26.7705,0,0,1-.18,3.1412Zm-.4433,1.0471H14.86a12.1009,12.1009,0,0,1-1.795,5.0085,9.4415,9.4415,0,0,0,6.3793-5.0085ZM8.0519,14.1412h5.8962A25.1754,25.1754,0,0,0,14.1412,11a25.1754,25.1754,0,0,0-.1931-3.1412H8.0519a25.6458,25.6458,0,0,0,0,6.2824ZM8.21,15.1883c.5468,3.1075,1.6576,5.2354,2.79,5.2354s2.2437-2.1279,2.79-5.2354ZM2.5559,6.8117H7.14a12.1009,12.1009,0,0,1,1.795-5.0085A9.4415,9.4415,0,0,0,2.5559,6.8117Zm16.8882,0a9.4415,9.4415,0,0,0-6.3793-5.0085A12.1009,12.1009,0,0,1,14.86,6.8117Zm-11.2346,0h5.581C13.2437,3.7042,12.1329,1.5763,11,1.5763S8.7563,3.7042,8.21,6.8117ZM11,21.4707A10.4707,10.4707,0,1,1,21.4707,11,10.4707,10.4707,0,0,1,11,21.4707Z"/></svg>