<svg id="Layer_1" data-name="Layer 1" xmlns="http://www.w3.org/2000/svg" viewBox="0 0 22 22"><defs><style>.cls-1{fill:#444ce7;}</style></defs><rect class="cls-1" x="3.2278" y="15.6029" width="7.0514" height="1.4103"/><rect class="cls-1" x="3.2278" y="11.372" width="7.0514" height="1.4103"/><path class="cls-1" d="M18.7409,8.5514H4.6381a1.41,1.41,0,0,1-1.41-1.41V2.91a1.41,1.41,0,0,1,1.41-1.41H18.7409a1.41,1.41,0,0,1,1.41,1.41V7.1411A1.41,1.41,0,0,1,18.7409,8.5514ZM4.6381,2.91V7.1411H18.7409V2.91Z"/><path class="cls-1" d="M18.7409,18.4234H14.51a1.41,1.41,0,0,1-1.41-1.41V12.7823a1.41,1.41,0,0,1,1.41-1.41h4.2308a1.41,1.41,0,0,1,1.41,1.41v4.2308A1.41,1.41,0,0,1,18.7409,18.4234ZM14.51,12.7823v4.2308h4.2308V12.7823Z"/><path class="cls-1" d="M2.8931,19.0573H2.57a.7214.7214,0,0,0,0,1.4427h.323a.7214.7214,0,0,0,0-1.4427Z"/><path class="cls-1" d="M12.2332,19.0573H5.2267a.7214.7214,0,1,0,0,1.4427h7.0065a.7214.7214,0,1,0,0-1.4427Z"/></svg>