<svg id="Layer_1" data-name="Layer 1" xmlns="http://www.w3.org/2000/svg" viewBox="0 0 22 22"><defs><style>.cls-1{fill:#444ce7;}</style></defs><path class="cls-1" d="M11.72,10.64V9.92A.72.72,0,0,0,11,9.2H6.68a.72.72,0,0,0-.72.72v.72a.72.72,0,0,0,.72.72H11A.72.72,0,0,0,11.72,10.64ZM6.68,9.92H11v.72H6.68ZM8.84,7.76V7.04a.72.72,0,0,0-.72-.72H3.8a.72.72,0,0,0-.72.72v.72a.72.72,0,0,0,.72.72H8.12A.72.72,0,0,0,8.84,7.76ZM3.8,7.04H8.12v.72H3.8Zm12.24,6.48V12.8a.72.72,0,0,0-.72-.72H11a.72.72,0,0,0-.72.72v.72a.72.72,0,0,0,.72.72h4.32A.72.72,0,0,0,16.04,13.52ZM11,12.8h4.32v.72H11Zm7.92-9.36H17.48V2.36a.36.36,0,1,0-.72,0V3.44h-.72V2.36a.36.36,0,1,0-.72,0V3.44H6.68V2.36a.36.36,0,1,0-.72,0V3.44H5.24V2.36a.36.36,0,0,0-.72,0V3.44H3.08A2.16,2.16,0,0,0,.92,5.6V17.84A2.16,2.16,0,0,0,3.08,20H18.92a2.16,2.16,0,0,0,2.16-2.16V5.6A2.16,2.16,0,0,0,18.92,3.44Zm1.44,14.4a1.44,1.44,0,0,1-1.44,1.44H3.08a1.44,1.44,0,0,1-1.44-1.44V5.6A1.44,1.44,0,0,1,3.08,4.16H18.92A1.44,1.44,0,0,1,20.36,5.6ZM18.2,14.96H16.04a.72.72,0,0,0-.72.72v.72a.72.72,0,0,0,.72.72H18.2a.72.72,0,0,0,.72-.72v-.72A.72.72,0,0,0,18.2,14.96Zm0,1.44H16.04v-.72H18.2Z"/></svg>