<svg id="Layer_1" data-name="Layer 1" xmlns="http://www.w3.org/2000/svg" viewBox="0 0 22 22"><defs><style>.cls-1{fill:#444ce7;}</style></defs><path class="cls-1" d="M18.95,6.064,14.2181,1.3319a.3994.3994,0,0,0-.2825-.117H4.8738A1.9432,1.9432,0,0,0,2.9328,3.156V18.8441a1.9432,1.9432,0,0,0,1.941,1.941H17.1262a1.9432,1.9432,0,0,0,1.941-1.941V6.3464A.3994.3994,0,0,0,18.95,6.064ZM14.3351,2.5786h0L17.7036,5.947H15.4774a1.1421,1.1421,0,0,1-1.1423-1.1422ZM18.2685,18.844a1.1437,1.1437,0,0,1-1.1423,1.1423H4.8738A1.1436,1.1436,0,0,1,3.7315,18.844V3.156A1.1437,1.1437,0,0,1,4.8738,2.0136h8.6626V4.8047a1.9408,1.9408,0,0,0,1.941,1.9411h2.7911Z"/><path class="cls-1" d="M17.3881,9.8253H4.6119a.5522.5522,0,0,0-.5522.5522V17.905a.5521.5521,0,0,0,.5522.5521H17.3881a.5521.5521,0,0,0,.5522-.5521V10.3775A.5523.5523,0,0,0,17.3881,9.8253Zm-6.94,7.5275H5.164V15.9486h5.2838Zm0-2.5086H5.164v-1.406h5.2838Zm0-2.51H5.164V10.93h5.2838Zm6.3881,5.019H11.5522V15.9486h5.2837Zm0-2.5086H11.5522v-1.406h5.2837Zm0-2.51H11.5522V10.93h5.2837Z"/></svg>