<svg id="Layer_1" data-name="Layer 1" xmlns="http://www.w3.org/2000/svg" viewBox="0 0 22 22"><defs><style>.cls-1{fill:#444ce7;}</style></defs><path class="cls-1" d="M21.17.5017H.83A.3281.3281,0,0,0,.5017.83V4.1105A.3281.3281,0,0,0,.83,4.4386H2.7982V16.9053H2.47a.3281.3281,0,1,0,0,.6561h8.2018v2.0249a.9842.9842,0,1,0,.6562,0V17.5614H19.53a.3281.3281,0,0,0,0-.6561h-.3281V4.4386H21.17a.3281.3281,0,0,0,.3281-.3281V.83A.3281.3281,0,0,0,21.17.5017ZM11,20.8422a.3281.3281,0,1,1,.328-.3281A.3285.3285,0,0,1,11,20.8422Zm7.5456-3.9369H3.4544V2.7982H18.5456V16.9053ZM20.8421,3.7824h-1.64V2.7982h.328a.3281.3281,0,1,0,0-.6561H2.47a.3281.3281,0,0,0,0,.6561h.3281v.9842h-1.64V1.1578H20.8421V3.7824Z"/><path class="cls-1" d="M4.7666,11.9842H17.2334a.3281.3281,0,0,0,.328-.328V4.1105a.3279.3279,0,0,0-.328-.328H4.7666a.3281.3281,0,0,0-.3281.328v7.5457A.3281.3281,0,0,0,4.7666,11.9842Zm.3281-7.5456H16.9053v6.8895H5.0947Z"/><path class="cls-1" d="M6.0789,6.0789h.9842a.3281.3281,0,1,0,0-.6561H6.0789a.3281.3281,0,1,0,0,.6561Z"/><path class="cls-1" d="M6.0789,7.3912h.9842a.3281.3281,0,1,0,0-.6561H6.0789a.3281.3281,0,1,0,0,.6561Z"/><path class="cls-1" d="M15.9211,9.6878H8.1832l2.4887-2.4887,1.5725,1.5724a.328.328,0,0,0,.4639,0L15.825,5.6548a.3281.3281,0,0,0-.4639-.464L12.4764,8.0755,10.9039,6.5031a.328.328,0,0,0-.4639,0L7.2554,9.6878H6.079a.3281.3281,0,0,0,0,.6561h9.8422a.3281.3281,0,1,0,0-.6561Z"/><path class="cls-1" d="M4.7666,13.9526h8.858a.3281.3281,0,0,0,0-.6561H4.7666a.3281.3281,0,1,0,0,.6561Z"/><path class="cls-1" d="M4.7666,15.593H8.0474a.3281.3281,0,1,0,0-.6561H4.7666a.3281.3281,0,1,0,0,.6561Z"/><path class="cls-1" d="M17.2334,14.9369H9.36a.3281.3281,0,0,0,0,.6561h7.8738a.3281.3281,0,0,0,0-.6561Z"/><path class="cls-1" d="M17.2334,13.2965H14.9369a.3281.3281,0,1,0,0,.6561h2.2965a.3281.3281,0,0,0,0-.6561Z"/></svg>