<svg id="Layer_1" data-name="Layer 1" xmlns="http://www.w3.org/2000/svg" viewBox="0 0 688 560"><defs><style>.cls-1{fill:#f5f5f5;}.cls-2{fill:#e1e1e1;}.cls-3{fill:#1a2e35;}.cls-4{fill:#fafafa;}.cls-5{fill:#ececec;}.cls-6{opacity:0.2;}.cls-7{fill:#fff;}.cls-8{fill:#98c1d9;}.cls-9{fill:#ffbe9d;}.cls-10{fill:#b4473e;}.cls-11{fill:#f7b192;}.cls-12{fill:#375a64;}.cls-13{fill:#002364;}.cls-14{fill:#f4af90;}.cls-15{fill:#033987;}.cls-16,.cls-20{opacity:0.3;}.cls-17{fill:#eb996e;}.cls-18{fill:#ff735d;}.cls-19{opacity:0.7;}</style></defs><path class="cls-1" d="M80.6794,362.9268v53.2961H71.7806v5.7844h8.8988v35.67H247.0141V425.2208H234.6929v-7.07h12.3212V407.5463H252.49v-4.82h-6.5027v-39.799Z"/><polygon class="cls-2" points="202.843 363.082 202.843 457.084 247.014 457.084 247.014 424.627 234.693 424.627 234.693 418.151 247.014 418.37 247.014 407.766 252.597 407.773 252.49 402.292 245.988 402.132 245.988 362.927 202.843 363.082"/><path class="cls-2" d="M205.99,421.2419c0,.3263-30.0987.5906-67.2186.5906-37.1332,0-67.2255-.2643-67.2255-.5906s30.0923-.5907,67.2255-.5907C175.8916,420.6512,205.99,420.9158,205.99,421.2419Z"/><path class="cls-2" d="M205.99,415.828c0,.3265-30.0987.5909-67.2186.5909-37.1332,0-67.2255-.2644-67.2255-.5909s30.0923-.59,67.2255-.59C175.8916,415.2376,205.99,415.5022,205.99,415.828Z"/><path class="cls-2" d="M214.6247,401.2579c0,.3266-30.0986.5906-67.2188.5906-37.1331,0-67.2253-.264-67.2253-.5906s30.0922-.59,67.2253-.59C184.5261,400.6675,214.6247,400.932,214.6247,401.2579Z"/><path class="cls-2" d="M215.455,440.9618c0,.3266-30.0989.5909-67.2188.5909-37.1331,0-67.2255-.2643-67.2255-.5909s30.0924-.59,67.2255-.59C185.3561,440.3714,215.455,440.6359,215.455,440.9618Z"/><polygon class="cls-2" points="600.764 325.871 597.05 329.354 531.629 244.062 535.343 240.58 600.764 325.871"/><polygon class="cls-2" points="608.229 318.407 604.515 321.89 537.89 237.023 541.605 233.54 608.229 318.407"/><polygon class="cls-2" points="536.039 447.282 531.997 444.422 599.826 324.456 603.869 327.316 536.039 447.282"/><polygon class="cls-2" points="548.404 447.586 544.324 444.702 610.415 327.335 614.495 330.219 548.404 447.586"/><path class="cls-2" d="M606.33,316.3969l-9.9069,7.4867a6.8175,6.8175,0,0,0-2.0722,8.202h0a5.4525,5.4525,0,0,0,5.9375,3.1344l10.5287-1.8819a6.3509,6.3509,0,0,0,4.4165-3.3247l.3-.5629a6.6942,6.6942,0,0,0-.04-6.4839l-3.2079-5.4659A3.9818,3.9818,0,0,0,606.33,316.3969Z"/><path class="cls-2" d="M609.7347,324.7894a1.4772,1.4772,0,1,1-1.4714-1.6092A1.5449,1.5449,0,0,1,609.7347,324.7894Z"/><path class="cls-2" d="M602.0328,327.2662a1.4772,1.4772,0,1,1-1.4714-1.6091A1.5449,1.5449,0,0,1,602.0328,327.2662Z"/><path class="cls-2" d="M521.3084,440.225h40.7349a14.3231,14.3231,0,0,1,14.3231,14.3231v3.735a0,0,0,0,1,0,0H506.9853a0,0,0,0,1,0,0v-3.735a14.3231,14.3231,0,0,1,14.3231-14.3231Z"/><path class="cls-2" d="M529.0767,213.6733h5.1042a9.7866,9.7866,0,0,1,9.7866,9.7866v18.33a0,0,0,0,1,0,0H519.29a0,0,0,0,1,0,0V223.46A9.7869,9.7869,0,0,1,529.0767,213.6733Z" transform="translate(297.4104 -301.0714) rotate(42.9218)"/><path class="cls-2" d="M457.7621,242.3183c.8091-1.0737,33.12-23.9975,55.2574-12.6952l18.0712,16.8056c8.392,17.7655,1.6787,36.56-9.0893,55.63Z"/><path class="cls-3" d="M613.2613,457.7736c0,.1734-122.4091.3138-273.3734.3138-151.0167,0-273.4-.14-273.4-.3138s122.383-.3138,273.4-.3138C490.8522,457.46,613.2613,457.6,613.2613,457.7736Z"/><polygon class="cls-4" points="390.105 547.956 400.662 527.186 342.048 520.775 330.593 541.053 390.105 547.956"/><path class="cls-3" d="M390.1046,547.9558a2.5256,2.5256,0,0,1-.27-.0213l-.8247-.0856-3.2316-.3545c-2.8715-.3227-7.0131-.7884-12.2308-1.375l-42.9909-4.91-.3381-.0387.099-.1759c3.48-6.175,7.3246-12.9971,11.3639-20.1644l.0671-.1188.0761-.1347.26.0285L400.691,527.05l.2914.032-.0783.1516c-3.27,6.3222-5.9558,11.5146-7.8334,15.1446-.9349,1.7812-1.6682,3.1782-2.177,4.1477q-.37.6891-.5779,1.0753c-.1325.2407-.2112.3551-.2112.3551s.05-.139.1684-.3915q.1917-.4.5324-1.109c.4827-.9814,1.1784-2.3957,2.0658-4.1987,1.8093-3.6239,4.3976-8.8072,7.549-15.1185l.2131.1835c-16.196-1.7619-36.5539-3.9762-58.6211-6.3766l.3356-.1061-.0671.1188c-4.0566,7.1638-7.9176,13.9823-11.4127,20.1542l-.2388-.2144,42.7841,5.0384,12.2695,1.4666,3.2752.4.85.1086C390,547.9369,390.1,547.9519,390.1046,547.9558Z"/><polygon class="cls-5" points="343.92 522.076 397.627 528.038 387.743 546.105 334.035 540.142 343.92 522.076"/><g class="cls-6"><polygon points="343.92 522.076 355.361 536.188 368.651 529.605 375.64 534.688 397.627 528.038 343.92 522.076"/></g><g class="cls-6"><path d="M371.6347,539.2523c.2485-1.1714-1.4432-2.3309-3.7788-2.59s-4.43.48-4.6789,1.6514,1.4433,2.331,3.7789,2.59S371.3861,540.4235,371.6347,539.2523Z"/></g><polygon class="cls-5" points="347.463 475.665 475.161 472.017 568.287 526.303 437.251 532.168 347.463 475.665"/><polygon class="cls-1" points="276.369 474.884 404.067 471.236 497.193 525.522 366.158 531.387 276.369 474.884"/><path class="cls-3" d="M276.3694,474.8839l89.9278,56.2815-.1508-.04,130.1669-5.878.8655-.0388-.144.5846-93.1074-54.3172.1479.0378-127.7059,3.37c2.4125-.0742,51.7358-1.591,127.69-3.9265l.0794-.0025.0689.04,93.1432,54.2558.9218.537-1.0658.0477-.8655.0388c-48.1473,2.1356-92.93,4.122-130.1715,5.774l-.0825.0036-.069-.0436C312.1033,497.4942,278.2111,476.0491,276.3694,474.8839Z"/><polygon class="cls-2" points="373.354 513.686 373.323 513.14 288.823 461.524 288.823 467.544 373.802 521.681 513.898 515.241 513.898 509.148 373.354 513.686"/><polygon class="cls-7" points="288.823 461.524 419.269 457.648 513.898 509.148 373.89 515.415 288.823 461.524"/><polygon class="cls-2" points="447.45 504.124 496.477 503.523 498.499 504.52 449.311 505.107 447.45 504.124"/><polygon class="cls-2" points="429.204 500.332 488.384 499.53 490.402 500.526 431.024 501.311 429.204 500.332"/><polygon class="cls-2" points="424.872 498 483.581 497.156 485.596 498.152 426.69 498.979 424.872 498"/><polygon class="cls-2" points="420.548 495.668 478.785 494.783 480.797 495.779 422.362 496.647 420.548 495.668"/><polygon class="cls-2" points="411.919 491.007 469.214 490.039 471.221 491.034 413.728 491.985 411.919 491.007"/><polygon class="cls-2" points="416.23 493.337 473.996 492.411 476.006 493.406 418.042 494.316 416.23 493.337"/><polygon class="cls-2" points="408.359 488.664 464.439 487.668 466.442 488.663 410.167 489.642 408.359 488.664"/><polygon class="cls-2" points="318.036 471.169 370.6 469.864 372.373 470.839 319.614 472.127 318.036 471.169"/><polygon class="cls-2" points="314.284 468.891 366.384 467.544 368.155 468.519 315.86 469.848 314.284 468.891"/><polygon class="cls-2" points="357.453 465.217 362.485 465.217 364.254 466.191 359.118 466.182 357.453 465.217"/><polygon class="cls-2" points="344.395 487.596 460.839 485.46 462.843 486.456 345.992 488.556 344.395 487.596"/><polygon class="cls-2" points="340.441 485.217 455.874 482.992 457.875 483.987 342.034 486.176 340.441 485.217"/><polygon class="cls-2" points="320.644 473.832 433.074 471.137 435.064 472.131 322.22 474.79 320.644 473.832"/><polygon class="cls-2" points="352.736 490.158 398.585 489.375 420.663 501.482 372.846 502.092 352.736 490.158"/><path class="cls-3" d="M375.847,496.8918c1.06.6337,1.76,1.27,2.9429,1.9018a18.3879,18.3879,0,0,0,5.4821,1.7137,21.53,21.53,0,0,0,7.2046.1726l-.532-.5461q-7.61-3.6569-15.1569-7.3083a12.1171,12.1171,0,0,0-2.3963-.9266,14.4241,14.4241,0,0,0-3.7538-.4572c-1.5489.0519-1.8638.495-1.6738.9032C368.6418,493.8236,373.2932,495.3645,375.847,496.8918Z"/><path class="cls-8" d="M387.4528,500.0964c.6327.1521,1.28.3064,2.0212.4207a11.1767,11.1767,0,0,0,2.2423.1414c.3006-.02.5507-.0726.5192-.155a1.3137,1.3137,0,0,0-.7774-.1759l-.0981-.0146q-1.5534-.2378-3.1224-.4631c-.2632-.0377-.5346-.0762-.805-.0916a1.5836,1.5836,0,0,0-.6251.047C386.6721,499.8878,387.0857,500.0082,387.4528,500.0964Z"/><path class="cls-3" d="M384.9733,499.4923a60.2847,60.2847,0,0,0,11.8306,1.1068,36.943,36.943,0,0,0,4.3048-.28,5.2259,5.2259,0,0,0,2.7463-.7266c.3826-.4254.4955-.8978-.19-1.4a14.4679,14.4679,0,0,0-2.4858-1.5466,19.8051,19.8051,0,0,0-4.4316-1.4214l-5.3873-.1516c-2.795.0171-5.6267.0357-8.0214.24-2.3982.2043-4.3555.6195-4.7365,1.2534C378.0639,497.4467,381.1781,498.7536,384.9733,499.4923Z"/><path class="cls-9" d="M387.2769,492.7563c.7775.4584,1.7353,1.0334,1.7319,1.0313A26.479,26.479,0,0,1,396.82,495.19a43.2674,43.2674,0,0,1,5.5194,2.7182c1.4625.83.7531,1.9978-3.211,2.0547l-1.6713.0764-7.9668-.6a6.8277,6.8277,0,0,1-2.5954-.4415l-10.6559-5.9743.9783-1.9245,10.2436,1.42Z"/><path class="cls-10" d="M389.5686,495.6272a3.0825,3.0825,0,0,0,.7.1733,4.042,4.042,0,0,0,1.4139,0c.2842-.0815.25-.2394-.0833-.3816h0a6.5975,6.5975,0,0,0-1.2535-.1351q-.0962-.0007-.1883.0012a1.9723,1.9723,0,0,0-.6826.099C389.3478,495.4454,389.3675,495.5392,389.5686,495.6272Z"/><path class="cls-3" d="M398.3223,496.8738a2.5786,2.5786,0,0,0-.9923-.159c-.3736.0056-.5369.0856-.3636.179a2.5776,2.5776,0,0,0,.9918.1589C398.3331,497.0472,398.4962,496.967,398.3223,496.8738Z"/><path class="cls-3" d="M400.3136,497.4648c-.1282-.0207-.4317.0927-1.1452.1132-.7074.023-1.4253-.0591-1.4561-.0337a1.4968,1.4968,0,0,0,.4649.0878,8.78,8.78,0,0,0,1.2228.0555,2.8856,2.8856,0,0,0,.8544-.1188C400.3837,497.5175,400.3744,497.4738,400.3136,497.4648Z"/><path class="cls-3" d="M392.9736,496.0423c.0178.0108.499.0179,1.2617.021a1.9074,1.9074,0,0,1,.4777.0362.22.22,0,0,1,.165.1469q.0945.1833.1985.3843a3.0328,3.0328,0,0,0,.7127.9987c.0954.0055-.0688-.4328-.3688-.9792-.0788-.1346-.1533-.2629-.2257-.3857-.041-.057-.0477-.1229-.2849-.1926a2.1055,2.1055,0,0,0-.4386-.0619c-.1349-.0059-.2376-.0034-.33-.0022C393.4021,496.019,392.9548,496.0314,392.9736,496.0423Z"/><path class="cls-10" d="M389.0086,493.7876a28.3817,28.3817,0,0,0-5.8667.6989s-.0477-1.0046,5.3005-1.0341Z"/><path class="cls-3" d="M390.6274,495.9737c.1188-.0017-.2869-.207.0818-.3726a6.63,6.63,0,0,1,1.1787-.1965,2.9329,2.9329,0,0,0-.6118-.0265,3.1142,3.1142,0,0,0-1.0072.1525c-.2241.1013-.16.2258-.0193.3108A.9452.9452,0,0,0,390.6274,495.9737Z"/><path class="cls-3" d="M401.2557,498.1344a13.0634,13.0634,0,0,0-1.3644.0085,11.8181,11.8181,0,0,0-1.3427.0208c-.0218.0222.1381.0653.4526.1055a9.5508,9.5508,0,0,0,1.23.0671,4.2745,4.2745,0,0,0,.952-.0908C401.3478,498.2,401.353,498.1553,401.2557,498.1344Z"/><path class="cls-3" d="M390.1011,497.04c-.183-.093-.0378-.178.3238-.19a2.534,2.534,0,0,1,.9857.1457c.1834.0929.0383.1781-.3227.19A2.5336,2.5336,0,0,1,390.1011,497.04Z"/><path class="cls-3" d="M390.5482,497.6791c.0417-.0245.7342.0646,1.46.05.73-.0114,1.0841-.1193,1.2056-.0975.0577.01.0485.0527-.1023.1013a3.5349,3.5349,0,0,1-.9133.1065,8.6426,8.6426,0,0,1-1.2154-.0689C390.6776,497.73,390.526,497.69,390.5482,497.6791Z"/><path class="cls-3" d="M392.0586,498.2806a12.6755,12.6755,0,0,1,1.3876-.0219,13.9482,13.9482,0,0,1,1.4088-.01c.0981.0209.0874.0657-.0876.1113a4.7208,4.7208,0,0,1-.9933.0914,9.921,9.921,0,0,1-1.2606-.0661C392.1934,498.3458,392.0339,498.3028,392.0586,498.2806Z"/><path class="cls-11" d="M383.7853,496.68c.1989.1019.2262.3551-.1225.382a8.5521,8.5521,0,0,1-4.147-.5774c-1.838-.93,2.0435-.85,2.1027-.8234C381.6647,495.6819,383.0988,496.3282,383.7853,496.68Z"/><path class="cls-10" d="M381.3307,496.032c-.0094.0035-.0834-.0094-.211-.0188a2.186,2.186,0,0,0-.46.0119c-.2974.0479-.2991.2138.0161.3822a3.02,3.02,0,0,0,.6305.2269,3.086,3.086,0,0,0,.7057.11c.2078.0057.2808-.0282.2719-.0557-.0048-.0275-.0641-.0454-.0486-.0476a.3274.3274,0,0,1,.1542.0526c.0223.019.025.0423-.022.0628a.8915.8915,0,0,1-.29.0342,3.94,3.94,0,0,1-.9233-.1244,3.2818,3.2818,0,0,1-.7251-.2529c-.3489-.1883-.3359-.3752.0922-.43a2.7529,2.7529,0,0,1,.6052.0071A.6267.6267,0,0,1,381.3307,496.032Z"/><path class="cls-3" d="M383.5112,497.0614l.486-.26c5.6789.926,17.8212,3.2841,17.1233,3.1429a34.5207,34.5207,0,0,1-5.4266.2358c-3.2019-.0905-9.5044-.3969-10.9815-1.2974S383.5112,497.0614,383.5112,497.0614Z"/><path class="cls-12" d="M378.6267,497.3428a1.2747,1.2747,0,0,0,.1485.0533c.1036.0342.268.0836.5.1436a20.2588,20.2588,0,0,0,2.27.4177c1.0343.143,2.3175.2538,3.7023.3355,1.3891.085,2.8934.1451,4.4951.2751,1.6022.1245,3.1318.2926,4.4954.4689,1.365.1783,2.5652.3664,3.5444.5369s1.7428.3227,2.2644.4291c.2427.0509.44.0921.5953.1246.137.0283.2109.0427.2147.0417s-.0626-.0172-.1929-.0475-.3216-.0752-.5776-.13c-.5113-.1106-1.268-.2667-2.2489-.4421-.9793-.175-2.1856-.3675-3.5617-.55-1.3744-.18-2.92-.3511-4.5393-.4769-1.6222-.1316-3.1344-.1906-4.51-.2727-1.3746-.0789-2.6309-.1842-3.65-.321a21.5975,21.5975,0,0,1-2.254-.3994C378.8519,497.4143,378.6424,497.3407,378.6267,497.3428Z"/><path class="cls-12" d="M379.423,497.1808a1.7992,1.7992,0,0,0,.493.2021,13.0241,13.0241,0,0,0,2.1193.42c1.0079.1351,2.2427.21,3.55.2632,1.3087.0512,2.7526.12,4.292.2553,1.5363.1343,3,.3026,4.2912.488,1.2949.184,2.4213.378,3.3341.5525.9193.1734,1.61.3313,2.0937.4382l.542.1272c.1255.0289.1937.0436.1979.0428s-.0553-.0172-.1731-.0478l-.5216-.1327c-.4724-.1106-1.1562-.2727-2.0751-.4506-.9123-.179-2.0445-.3776-3.3509-.5654-1.3021-.1894-2.7829-.3611-4.3377-.4969s-3.028-.2057-4.3289-.2541c-1.3007-.0508-2.5042-.1209-3.4855-.2483a13.6852,13.6852,0,0,1-2.0915-.3995C379.5676,497.2559,379.4457,497.1794,379.423,497.1808Z"/><path class="cls-12" d="M380.8741,495.4771c.0143.0062-.2749.0212-.743.0653a5.7926,5.7926,0,0,0-1.5013.3221c-.4521.1781-.6623.4479-.5842.77.08.3222.44.697,1.0776,1.088a7.9652,7.9652,0,0,0,1.1524.5637c.4528.1782.9551.3449,1.4758.4975,1.0576.3041,2.1864.5478,3.1878.7279,2.0159.3622,3.4126.5,3.3948.514-.0012.0019-.0868-.0065-.2488-.0242s-.4025-.0428-.7061-.0821c-.61-.0752-1.4869-.1965-2.5138-.3766a33.1563,33.1563,0,0,1-3.2778-.7338c-.537-.1554-1.0551-.3256-1.5214-.5079a8.05,8.05,0,0,1-1.1837-.5765c-.6489-.398-1.0082-.7791-1.0764-1.1076-.0665-.3282.1687-.6038.6566-.7836a6.2808,6.2808,0,0,1,1.6047-.3139c.2357-.0235.4562-.0274.5893-.0358C380.7951,495.4773,380.87,495.4749,380.8741,495.4771Z"/><path class="cls-8" d="M395.8746,491.0651l-.0347.0313c-1.9273,1.16-8.4686,1.6421-8.4686,1.6421a17.2629,17.2629,0,0,0-5.8726-.723c-4.1659-.0143-5.2463,1.1155-5.2463,1.1155l-5.7352-.1128s-2.8577-.0409-4.9918-.2745a51.5,51.5,0,0,1-10.2157-2.5115l41.0319-.7447Z"/><path class="cls-5" d="M336.5475,483.5485l-.0359-.0212-10.448-6.3219.4948-.0106,109.6084-2.4632.0318.0165,13.0666,6.5492-.5837.01Zm-9.4872-6.0771,9.5648,5.7877,111.4679-2.2278-11.9922-6.01Z"/><polygon class="cls-5" points="328.232 478.493 328.227 478.206 438.218 475.78 438.225 476.067 328.232 478.493"/><polygon class="cls-5" points="329.901 479.504 329.895 479.217 440.307 476.829 440.314 477.116 329.901 479.504"/><rect class="cls-5" x="331.5558" y="479.0518" width="110.8573" height="0.2872" transform="translate(-9.7736 8.0603) rotate(-1.1785)"/><rect class="cls-5" x="333.2273" y="480.0815" width="111.2765" height="0.2872" transform="translate(-9.7903 8.0958) rotate(-1.178)"/><rect class="cls-5" x="334.9007" y="481.1107" width="111.6946" height="0.2872" transform="translate(-9.811 8.1347) rotate(-1.178)"/><polygon class="cls-8" points="429.754 475.023 432.253 474.966 438.388 478.061 435.86 478.116 429.754 475.023"/><polygon class="cls-13" points="425.878 475.112 428.378 475.055 438.773 480.328 436.224 480.381 425.878 475.112"/><polygon class="cls-8" points="421.014 475.223 423.515 475.166 426.61 476.75 424.095 476.806 421.014 475.223"/><polygon class="cls-8" points="417.135 475.311 419.637 475.254 431.129 481.163 428.572 481.215 417.135 475.311"/><polygon class="cls-12" points="412.267 475.422 414.77 475.365 424.178 480.242 421.63 480.295 412.267 475.422"/><polygon class="cls-13" points="408.386 475.511 410.889 475.454 417.83 479.075 415.293 479.129 408.386 475.511"/><polygon class="cls-8" points="403.514 475.621 406.019 475.564 407.504 476.346 404.992 476.402 403.514 475.621"/><polygon class="cls-13" points="399.629 475.709 402.135 475.652 409.494 479.546 406.952 479.6 399.629 475.709"/><polygon class="cls-8" points="394.754 475.819 397.261 475.763 404.126 479.424 401.585 479.478 394.754 475.819"/><polygon class="cls-13" points="390.867 475.907 393.375 475.851 397.031 477.814 394.505 477.869 390.867 475.907"/><polygon class="cls-8" points="385.989 476.017 388.497 475.961 396.807 480.457 394.256 480.51 385.989 476.017"/><polygon class="cls-13" points="382.099 476.105 384.608 476.048 395.648 482.059 393.082 482.11 382.099 476.105"/><polygon class="cls-8" points="377.216 476.214 379.727 476.158 381.136 476.933 378.618 476.988 377.216 476.214"/><polygon class="cls-13" points="373.323 476.301 375.835 476.245 383.627 480.554 381.076 480.607 373.323 476.301"/><polygon class="cls-8" points="368.437 476.411 370.95 476.354 380.274 481.554 377.713 481.605 368.437 476.411"/><polygon class="cls-13" points="364.542 476.498 367.055 476.441 372.712 479.619 370.169 479.673 364.542 476.498"/><polygon class="cls-8" points="359.652 476.607 362.167 476.551 364.215 477.712 361.69 477.767 359.652 476.607"/><polygon class="cls-13" points="355.754 476.693 358.269 476.637 368.328 482.373 365.759 482.424 355.754 476.693"/><polygon class="cls-8" points="350.861 476.802 353.377 476.746 363.331 482.472 360.761 482.523 350.861 476.802"/><polygon class="cls-13" points="346.96 476.888 349.476 476.833 355.885 480.548 353.333 480.601 346.96 476.888"/><polygon class="cls-8" points="342.063 476.997 344.581 476.941 349.72 479.949 347.174 480.002 342.063 476.997"/><polygon class="cls-13" points="338.159 477.083 340.678 477.027 349.376 482.152 346.809 482.203 338.159 477.083"/><polygon class="cls-8" points="333.259 477.191 335.778 477.136 343.115 481.499 340.554 481.551 333.259 477.191"/><polygon class="cls-13" points="329.352 477.277 331.872 477.222 334.435 478.759 331.899 478.813 329.352 477.277"/><path class="cls-2" d="M449.78,480.8376c-.3228-.1613-.1227-.3015.4471-.3134a4.249,4.249,0,0,1,1.6186.2708c.3241.1614.1241.3017-.4469.3134A4.2473,4.2473,0,0,1,449.78,480.8376Z"/><path class="cls-2" d="M447.6973,479.7711c-.3227-.1613-.1241-.3017.4435-.3136a4.2289,4.2289,0,0,1,1.6142.27c.3241.1614.1256.3017-.4432.3137A4.2283,4.2283,0,0,1,447.6973,479.7711Z"/><path class="cls-2" d="M445.6163,478.7047c-.3226-.1613-.1257-.3018.44-.314a4.2119,4.2119,0,0,1,1.61.27c.3238.1613.127.3019-.44.3139A4.2079,4.2079,0,0,1,445.6163,478.7047Z"/><path class="cls-2" d="M443.536,477.6383c-.3223-.1611-.127-.3019.4363-.3142a4.1879,4.1879,0,0,1,1.6056.27c.3236.1612.1284.302-.436.3142A4.1871,4.1871,0,0,1,443.536,477.6383Z"/><path class="cls-2" d="M441.457,476.572c-.3224-.1611-.1287-.3019.4324-.3145a4.1724,4.1724,0,0,1,1.6014.2692c.3235.1612.13.3021-.4322.3146A4.1637,4.1637,0,0,1,441.457,476.572Z"/><path class="cls-2" d="M439.3787,475.5059c-.322-.1612-.13-.3022.4289-.3149a4.1532,4.1532,0,0,1,1.5971.2688c.3232.1613.1313.3023-.4288.3149A4.149,4.149,0,0,1,439.3787,475.5059Z"/><path class="cls-2" d="M428.9421,474.26l1.5464-.036a1.8876,1.8876,0,0,1,.7187.1131l.137.0693c.1358.0685.0337.1289-.2278.1349l-1.5483.0358a1.8818,1.8818,0,0,1-.7182-.113l-.1364-.0692C428.5784,474.3261,428.6807,474.2656,428.9421,474.26Z"/><path class="cls-2" d="M419.9574,474.4679l1.5477-.0359a1.8633,1.8633,0,0,1,.715.1128l.1347.0691c.1335.0683.0295.1285-.2322.1346l-1.5495.0356a1.8577,1.8577,0,0,1-.7146-.1126l-.1341-.0691C419.5917,474.5342,419.696,474.4739,419.9574,474.4679Z"/><path class="cls-2" d="M410.966,474.6756l1.5488-.0357a1.8369,1.8369,0,0,1,.7113.1124l.1324.0688c.1312.0681.0252.1282-.2367.1343l-1.5507.0355a1.83,1.83,0,0,1-.7106-.1124l-.1319-.0687C410.5981,474.7417,410.7044,474.6816,410.966,474.6756Z"/><path class="cls-2" d="M401.9678,474.8827l1.55-.0357a1.811,1.811,0,0,1,.7075.1121l.13.0687c.1289.0678.0209.1279-.2412.1338l-1.5518.0355a1.8085,1.8085,0,0,1-.707-.1121l-.13-.0685C401.5976,474.9486,401.706,474.8886,401.9678,474.8827Z"/><path class="cls-2" d="M392.9629,475.0891l1.5512-.0355a1.79,1.79,0,0,1,.7036.1118l.1279.0685c.1266.0677.0166.1275-.2456.1334l-1.553.0353a1.7825,1.7825,0,0,1-.7033-.1117l-.1273-.0684C392.5905,475.1548,392.7008,475.0952,392.9629,475.0891Z"/><path class="cls-2" d="M383.951,475.2951l1.5523-.0354a1.7614,1.7614,0,0,1,.7.1114l.1255.0682c.1244.0675.0123.1271-.25.1331l-1.5541.0352a1.7589,1.7589,0,0,1-.7-.1114l-.125-.0682C383.5764,475.3605,383.6887,475.301,383.951,475.2951Z"/><path class="cls-2" d="M374.9324,475.5l1.5534-.0353a1.7411,1.7411,0,0,1,.6962.1111l.1234.0681c.1221.0673.0081.1267-.2546.1327l-1.5554.0351a1.7363,1.7363,0,0,1-.6957-.111l-.1227-.068C374.5555,475.5656,374.67,475.5063,374.9324,475.5Z"/><path class="cls-2" d="M365.9069,475.7051l1.5548-.0352a1.7157,1.7157,0,0,1,.6924.1107l.1211.0679c.12.0671.0037.1263-.2591.1322l-1.5567.035a1.7115,1.7115,0,0,1-.6919-.1107l-.12-.0677C365.5279,475.77,365.6442,475.711,365.9069,475.7051Z"/><path class="cls-2" d="M356.8746,475.9091l1.5559-.0351a1.6913,1.6913,0,0,1,.6887.1105l.1187.0676c.1175.0669-.0005.126-.2635.1319l-1.5578.0349a1.6877,1.6877,0,0,1-.6882-.11l-.1181-.0676C356.4934,475.974,356.6118,475.9151,356.8746,475.9091Z"/><path class="cls-2" d="M347.8355,476.1126l1.557-.0349a1.6711,1.6711,0,0,1,.685.11l.1164.0675c.1153.0668-.0047.1256-.268.1315l-1.5589.0348a1.6654,1.6654,0,0,1-.6844-.11l-.1158-.0674C347.4523,476.1773,347.5725,476.1185,347.8355,476.1126Z"/><path class="cls-2" d="M338.79,476.3156l1.5582-.035a1.6475,1.6475,0,0,1,.6814.11l.114.0672c.113.0666-.0091.1253-.2725.1312l-1.56.0347a1.64,1.64,0,0,1-.6808-.11l-.1134-.0671C338.404,476.38,338.5263,476.3215,338.79,476.3156Z"/><path class="cls-2" d="M329.7368,476.5178l1.5595-.0347a1.6224,1.6224,0,0,1,.6774.1094l.1118.067c.1108.0663-.0132.1248-.2769.1308l-1.5612.0345a1.6168,1.6168,0,0,1-.677-.1094l-.1112-.0669C329.3491,476.5823,329.4735,476.5237,329.7368,476.5178Z"/><path class="cls-5" d="M378.6459,471.0669l-.0354-.02-11.95-6.5115,46.84-1.2934.0343.0177,13.1194,6.6115-.6.0153Zm-10.86-6.2608,10.9329,5.9571,46.728-1.1627-12.0143-6.0548Z"/><polygon class="cls-5" points="369.133 465.862 369.126 465.56 415.557 464.3 415.564 464.601 369.133 465.862"/><polygon class="cls-5" points="371.041 466.902 371.034 466.601 417.653 465.357 417.66 465.658 371.041 466.902"/><polygon class="cls-5" points="372.95 467.944 372.943 467.642 419.749 466.414 419.756 466.715 372.95 467.944"/><polygon class="cls-5" points="374.861 468.984 374.854 468.683 421.847 467.47 421.854 467.772 374.861 468.984"/><polygon class="cls-5" points="376.772 470.024 376.765 469.723 423.946 468.528 423.953 468.83 376.772 470.024"/><polygon class="cls-13" points="403.73 463.664 409.092 463.515 417.52 467.795 412.07 467.937 403.73 463.664"/><polygon class="cls-8" points="393.792 463.94 399.159 463.791 410.993 469.896 405.499 470.033 393.792 463.94"/><polygon class="cls-3" points="383.846 464.214 389.217 464.066 392.171 465.617 386.767 465.762 383.846 464.214"/><polygon class="cls-13" points="373.89 464.488 379.267 464.34 388.391 469.209 382.912 469.348 373.89 464.488"/><path class="cls-2" d="M425.2173,468.7092c-.32-.161-.1383-.3028.4067-.3168a4.025,4.025,0,0,1,1.5688.2664c.3215.1611.1395.3029-.4066.3168A4.0239,4.0239,0,0,1,425.2173,468.7092Z"/><path class="cls-2" d="M422.95,467.57c-.32-.161-.14-.303.4029-.3172a4.0037,4.0037,0,0,1,1.5641.266c.3214.161.1411.3031-.4025.3172A4.0038,4.0038,0,0,1,422.95,467.57Z"/><path class="cls-2" d="M420.6845,466.43c-.32-.161-.1412-.3032.3991-.3175a3.9844,3.9844,0,0,1,1.5594.2655c.3212.1611.1426.3032-.3988.3175A3.9817,3.9817,0,0,1,420.6845,466.43Z"/><path class="cls-2" d="M418.4205,465.2906c-.32-.161-.1427-.3032.3953-.3179a3.9662,3.9662,0,0,1,1.5548.2651c.3209.1612.1442.3035-.395.318A3.9649,3.9649,0,0,1,418.4205,465.2906Z"/><path class="cls-2" d="M416.1582,464.1513c-.32-.1608-.1441-.3033.3914-.3181a3.9457,3.9457,0,0,1,1.55.2646c.3207.1611.1455.3036-.3913.3183A3.9427,3.9427,0,0,1,416.1582,464.1513Z"/><path class="cls-3" d="M288.8229,467.544s-.02-.4571-.031-1.442c-.0077-1.0035-.0192-2.5084-.035-4.5783l0-.0643.0648-.0017,132.2117-3.4205.0755-.002.0669.0367c27.785,15.1981,59.4255,32.5054,92.8733,50.8011l.1632.0893v.1862c0,.4625,0,.9649,0,1.4677,0,1.5573,0,3.1111,0,4.6247v.3l-.2995.0136-140.0985,6.3793-.08.0038-.0675-.0432c-25.8315-16.5151-47.0651-30.09-61.8546-39.5458-7.3615-4.7241-13.1164-8.4172-17.0446-10.9383-1.9423-1.2545-3.43-2.2157-4.4462-2.872-1-.6505-1.4977-.9942-1.4977-.9942s.5426.3189,1.5645.9566l4.5087,2.8327,17.1469,10.844,61.8949,39.29-.1473-.0393,140.093-6.5006-.2992.3132v-6.0924l.1629.275-92.8427-50.8569.1419.0345L288.8246,461.59l.0642-.0658c-.0158,2.0586-.0273,3.5554-.0348,4.5533C288.8426,467.0651,288.8229,467.544,288.8229,467.544Z"/><rect class="cls-1" x="119.5404" y="32.6319" width="191.7225" height="244.7266" transform="translate(-16.5658 26.1059) rotate(-6.6793)"/><path class="cls-3" d="M324.8447,265.3781s-.0572-.3952-.1521-1.1581q-.1407-1.1544-.4138-3.3936c-.3584-2.9949-.8879-7.42-1.5772-13.18-1.3671-11.5238-3.3666-28.38-5.9011-49.7462-5.0355-42.7048-12.196-103.4309-20.7-175.5543l.3123.2469L106.0159,44.9215l-.0206.0024.275-.348c10.5327,90.1122,20.3137,173.793,28.4112,243.0715l-.2881-.2277,138.25-16.0544,38.5534-4.4475,10.1493-1.1588c2.2981-.26,3.4985-.3809,3.4985-.3809s-1.1583.1547-3.4365.4311c-2.29.2751-5.6756.6814-10.0937,1.2119-8.8713,1.0543-21.8826,2.6008-38.48,4.5736L134.4537,287.9359l-.2581.0305-.03-.2585c-8.1282-69.2751-17.9459-152.9513-28.5184-243.059l-.0366-.3119.3119-.0365.0207-.0024C174.6,36.27,239.5312,28.6767,296.347,22.0328l.28-.0328.0325.28c8.3982,72.2115,15.47,133.0117,20.442,175.7686,2.4676,21.3467,4.4142,38.1872,5.745,49.7.6575,5.7394,1.1624,10.1491,1.5043,13.1332q.2489,2.2187.3778,3.3664C324.8116,265.002,324.8447,265.3781,324.8447,265.3781Z"/><rect class="cls-7" x="120.4052" y="30.2682" width="188.0496" height="244.7266"/><path class="cls-3" d="M308.4548,274.9947s-.0109-.4-.0164-1.1694q-.0055-1.1645-.0164-3.4227c-.0075-3.02-.0189-7.4816-.0336-13.288-.0174-11.6151-.0429-28.6018-.0752-50.1264-.0343-43.0173-.083-104.1639-.1408-176.72l.2823.2823-188.0286.0314h-.0208l.3137-.3137c-.02,90.9231-.0394,175.2873-.055,244.7263l-.2587-.2586,136.5686.1345,38.03.0665,10.0046.0294c2.2647.01,3.4458.0283,3.4458.0283s-1.1434.0189-3.39.0285l-9.9558.0293-37.9723.0666c-32.8311.0322-79.8684.0784-136.7309.1344l-.2587,0v-.2591c-.0156-69.439-.0346-153.8032-.0551-244.7263v-.3139h.3347l188.0286.0314h.2827l0,.2825c-.0579,72.6313-.1065,133.8414-.1409,176.9034-.0322,21.4971-.0576,38.4622-.0751,50.0626-.0147,5.7819-.026,10.225-.0336,13.232q-.0108,2.235-.0164,3.3915C308.4658,274.6169,308.4548,274.9947,308.4548,274.9947Z"/><path class="cls-2" d="M198.4438,56.9909H143.0187a2.3851,2.3851,0,0,1-2.385-2.3851h0a2.3851,2.3851,0,0,1,2.385-2.385h55.4251a2.3849,2.3849,0,0,1,2.385,2.385h0A2.385,2.385,0,0,1,198.4438,56.9909Z"/><path class="cls-2" d="M211.8541,76.1026H143.0187a2.3851,2.3851,0,0,1-2.385-2.385h0a2.3851,2.3851,0,0,1,2.385-2.3851h68.8354a2.3851,2.3851,0,0,1,2.3852,2.3851h0A2.3851,2.3851,0,0,1,211.8541,76.1026Z"/><path class="cls-2" d="M211.8541,87.4662H143.0187a2.3851,2.3851,0,0,1-2.385-2.385h0a2.3851,2.3851,0,0,1,2.385-2.3851h68.8354a2.3851,2.3851,0,0,1,2.3852,2.3851h0A2.3851,2.3851,0,0,1,211.8541,87.4662Z"/><path class="cls-2" d="M211.8541,98.83H143.0187a2.3851,2.3851,0,0,1-2.385-2.385h0a2.3852,2.3852,0,0,1,2.385-2.3852h68.8354a2.3852,2.3852,0,0,1,2.3852,2.3852h0A2.3852,2.3852,0,0,1,211.8541,98.83Z"/><path class="cls-2" d="M211.8541,121.5569H143.0187a2.3851,2.3851,0,0,1-2.385-2.385h0a2.3851,2.3851,0,0,1,2.385-2.3851h68.8354a2.3851,2.3851,0,0,1,2.3852,2.3851h0A2.3851,2.3851,0,0,1,211.8541,121.5569Z"/><path class="cls-2" d="M211.8541,110.1933H143.0187a2.3851,2.3851,0,0,1-2.385-2.385h0a2.3851,2.3851,0,0,1,2.385-2.3851h68.8354a2.3852,2.3852,0,0,1,2.3852,2.3851h0A2.3851,2.3851,0,0,1,211.8541,110.1933Z"/><path class="cls-2" d="M210.8923,132.9205H143.0187a2.3851,2.3851,0,0,1-2.385-2.385h0a2.3851,2.3851,0,0,1,2.385-2.3851h67.8736a2.3851,2.3851,0,0,1,2.3852,2.3851h0A2.3852,2.3852,0,0,1,210.8923,132.9205Z"/><path class="cls-2" d="M287.7673,225.0821H219.8937a2.385,2.385,0,0,1-2.385-2.3851h0a2.3849,2.3849,0,0,1,2.385-2.385h67.8736a2.385,2.385,0,0,1,2.3851,2.385h0A2.3851,2.3851,0,0,1,287.7673,225.0821Z"/><path class="cls-2" d="M219.4879,231.6617h68.6855a1.9791,1.9791,0,0,1,1.9791,1.9791v.8119a1.9791,1.9791,0,0,1-1.9791,1.9791H219.4878a1.9791,1.9791,0,0,1-1.9791-1.9791v-.8118a1.9792,1.9792,0,0,1,1.9792-1.9792Z"/><path class="cls-2" d="M253.3815,247.7815H219.4561a2.3851,2.3851,0,0,1-2.385-2.385h0a2.3851,2.3851,0,0,1,2.385-2.3851h33.9254a2.385,2.385,0,0,1,2.3851,2.3851h0A2.385,2.385,0,0,1,253.3815,247.7815Z"/><path class="cls-2" d="M288.8439,143.4279H141.9594a2.3851,2.3851,0,0,1-2.3851-2.385h0a2.3851,2.3851,0,0,1,2.3851-2.385H288.8439a2.3851,2.3851,0,0,1,2.3851,2.385h0A2.3851,2.3851,0,0,1,288.8439,143.4279Z"/><path class="cls-2" d="M288.8439,155.26H141.9594a2.385,2.385,0,0,1-2.3851-2.385h0a2.3851,2.3851,0,0,1,2.3851-2.385H288.8439a2.3851,2.3851,0,0,1,2.3851,2.385h0A2.385,2.385,0,0,1,288.8439,155.26Z"/><path class="cls-2" d="M290.1092,212.0244H140.6942a2.385,2.385,0,0,1-2.3851-2.3851h0a2.385,2.385,0,0,1,2.3851-2.385h149.415a2.385,2.385,0,0,1,2.385,2.385h0A2.385,2.385,0,0,1,290.1092,212.0244Z"/><rect class="cls-2" x="227.1333" y="71.1575" width="59.0038" height="59.2028"/><path class="cls-3" d="M271.7092,96.1237c.0369-3.13.52-6.249.4027-9.3767s-.9251-6.3854-3.0655-8.6291-5.8575-3.1-8.3617-1.2894l-.5138,2.6635q1.4788,18.1024,2.9575,36.2047a12.58,12.58,0,0,0,.9784,4.6343,4.1291,4.1291,0,0,0,3.6835,2.4908c2.0378-.1275,3.375-2.2337,4.0085-4.2123C274.0957,111.4368,271.62,103.6685,271.7092,96.1237Z"/><path class="cls-8" d="M264.3262,79.8964a8.71,8.71,0,0,0-1.5606-2.1569,2.891,2.891,0,0,0-2.4166-.8229,1.2152,1.2152,0,0,0-.9576.7133c-.1366.3985.1556.931.5685.8963l.0878.0769q1.3786,1.2435,2.8051,2.4305a2.3938,2.3938,0,0,0,.7832.4939.82.82,0,0,0,.858-.1861C264.8329,80.9519,264.5851,80.3452,264.3262,79.8964Z"/><path class="cls-3" d="M266.0608,82.9688A15.39,15.39,0,0,0,254.0624,76.88a16.3454,16.3454,0,0,0-5.8159,1.0713,8.594,8.594,0,0,0-4.9043,3.3076,14.8586,14.8586,0,0,0-2.8219,6.713,42.0316,42.0316,0,0,0-.3544,7.5657,14,14,0,0,0,2.314,7.1079l6.2931,1.1146a38.8382,38.8382,0,0,0,10.385-.5713,13.3235,13.3235,0,0,0,8.489-5.6908C270.1663,93.2951,269.12,86.7811,266.0608,82.9688Z"/><path class="cls-9" d="M248.7485,115.1494c.0421-2.2515.1164-5.0738.1163-5.0634,0,0-5.1314-.5763-6.5491-7.2815-.7051-3.3346-.8362-8.8593-.8-13.3833.0323-4.0721,3.4335-9.617,8.3649-9.6348l2.1916-.26,8.3895,3.4a2.3611,2.3611,0,0,1,2.2176,2.2964l.3171,29.4857-5.376,9.1538-9.6184-7.5973Z"/><path class="cls-10" d="M252.1806,101.2353a1.4351,1.4351,0,0,0-.4841-.8806,1.4093,1.4093,0,0,0-1.7357-.1009,1.9724,1.9724,0,0,0-.728,1.8343h0a1.7344,1.7344,0,0,0,1.2468.7372,2.054,2.054,0,0,0,.2342.0077,1.5475,1.5475,0,0,0,1.0543-.4257A1.4374,1.4374,0,0,0,252.1806,101.2353Z"/><path class="cls-3" d="M244.1619,94.6481a.8594.8594,0,0,0,.8675.8295.823.823,0,0,0,.8352-.8312.86.86,0,0,0-.8666-.83A.8232.8232,0,0,0,244.1619,94.6481Z"/><path class="cls-3" d="M243.0185,91.683c.1116.1071.73-.4152,1.6458-.4641.9141-.0622,1.6118.38,1.7051.2606.0462-.0533-.0726-.2515-.3766-.4522a2.3051,2.3051,0,0,0-1.3726-.3487,2.2231,2.2231,0,0,0-1.3023.5106C243.0483,91.4252,242.9639,91.6352,243.0185,91.683Z"/><path class="cls-3" d="M248.9025,99.004a5.9741,5.9741,0,0,0-1.5018-.19c-.2351-.0115-.459-.0465-.5071-.2069a1.2358,1.2358,0,0,1,.1179-.7151q.2832-.8838.5938-1.854a31.786,31.786,0,0,0,1.2973-4.8345,31.67,31.67,0,0,0-1.676,4.7169q-.295.9751-.564,1.8628a1.4062,1.4062,0,0,0-.0709.9424.5906.5906,0,0,0,.4033.3272,1.5645,1.5645,0,0,0,.4.0339A5.8487,5.8487,0,0,0,248.9025,99.004Z"/><path class="cls-10" d="M248.8649,110.0859a16.6654,16.6654,0,0,0,8.7551-2.9137s-2.1145,4.8211-8.7889,4.56Z"/><path class="cls-3" d="M251.6318,99.499c-.1493,0-.0966,1.0128-.9087,1.78-.81.7689-1.8757.7145-1.8759.8565-.01.0644.2466.1837.6942.171a2.452,2.452,0,0,0,1.5691-.6578,2.2175,2.2175,0,0,0,.6982-1.4886C251.8238,99.7342,251.7,99.4892,251.6318,99.499Z"/><path class="cls-3" d="M243.33,88.4137c.1661.2193.8591.0277,1.682.0513.8235-.0034,1.5135.2055,1.6825-.01.0748-.1047-.0267-.3219-.323-.5353a2.5641,2.5641,0,0,0-2.7107-.0335C243.3616,88.0925,243.2575,88.3069,243.33,88.4137Z"/><path class="cls-3" d="M254.581,94.4211a.8621.8621,0,0,1-.8065.891.82.82,0,0,1-.8918-.7675.8629.8629,0,0,1,.8056-.8914A.82.82,0,0,1,254.581,94.4211Z"/><path class="cls-3" d="M255.41,91.3217c-.1037.1152-.7576-.36-1.6744-.3417-.916.0053-1.5808.4983-1.6821.3854-.05-.05.0546-.2561.3435-.4788a2.3109,2.3109,0,0,1,1.3443-.4487,2.2174,2.2174,0,0,1,1.3351.4133C255.3617,91.0669,255.4608,91.27,255.41,91.3217Z"/><path class="cls-3" d="M254.8591,88.3307c-.1768.2154-.8882.0079-1.7388.0125-.8508-.0225-1.5685.1705-1.7379-.0486-.0748-.1065.0351-.3212.3465-.5278a2.5861,2.5861,0,0,1,1.4073-.373,2.5583,2.5583,0,0,1,1.394.4021C254.8346,88.0087,254.9369,88.2257,254.8591,88.3307Z"/><path class="cls-14" d="M261.5394,96.59c-.0259-.5038.4812-1.7234.965-1.8284,1.2919-.28,3.6462-.3048,3.85,3.0678.278,4.61-4.3192,3.9439-4.3352,3.8122C262.0065,101.5386,261.6289,98.3294,261.5394,96.59Z"/><path class="cls-9" d="M263.1648,99.8792c.0189-.0161.0822.0512.219.1051a.7758.7758,0,0,0,.59-.0245,2.0058,2.0058,0,0,0,.7942-1.84,2.6979,2.6979,0,0,0-.29-1.1363.9163.9163,0,0,0-.63-.5789.4008.4008,0,0,0-.4516.2489c-.053.1329-.0185.2233-.042.2324-.0119.0124-.1018-.071-.0769-.2635a.5156.5156,0,0,1,.1608-.3.5884.5884,0,0,1,.4284-.1447,1.1118,1.1118,0,0,1,.866.6632,2.7735,2.7735,0,0,1,.3505,1.268,2.0988,2.0988,0,0,1-1.0291,2.0629.8317.8317,0,0,1-.7278-.0769C263.18,99.99,263.15,99.8885,263.1648,99.8792Z"/><path class="cls-3" d="M262.6889,94.7748,261.54,95.99c-4.9614-4.8417-14.6574-16.9642-14.116-16.2419a14.1929,14.1929,0,0,1,7.0879-.7845c3.689.6407,10.6863,2.5232,10.5789,6.9592A23.47,23.47,0,0,1,262.6889,94.7748Z"/><path class="cls-12" d="M269.26,93.7567a1.2232,1.2232,0,0,0-.0693-.2667,4.7078,4.7078,0,0,0-.3084-.7268,6.6752,6.6752,0,0,0-1.89-2.168,12.2632,12.2632,0,0,0-3.8049-1.8659c-1.5125-.5024-3.2177-.8923-4.8913-1.625a22.0392,22.0392,0,0,1-4.4677-2.5512,23.2483,23.2483,0,0,1-3.1531-2.81,25,25,0,0,1-1.8234-2.2061c-.1852-.2593-.3353-.47-.4536-.6357a1.2128,1.2128,0,0,0-.17-.2143,1.2,1.2,0,0,0,.1312.24c.0945.1522.2279.3813.4192.663a21.1511,21.1511,0,0,0,1.7771,2.2668,22.2809,22.2809,0,0,0,3.1471,2.8722,21.5878,21.5878,0,0,0,4.5043,2.5932,49.172,49.172,0,0,0,4.9158,1.6145,12.43,12.43,0,0,1,3.7721,1.7926,6.8852,6.8852,0,0,1,1.9085,2.0788C269.1349,93.3971,269.2358,93.7657,269.26,93.7567Z"/><path class="cls-12" d="M267.9433,94.4826a2.4692,2.4692,0,0,0-.1755-1.0075,4.6987,4.6987,0,0,0-1.6992-2.1707,10.1264,10.1264,0,0,0-3.7733-1.508,22.0122,22.0122,0,0,1-4.689-1.5171,19.8092,19.8092,0,0,1-4.18-2.631,20.6185,20.6185,0,0,1-2.8659-2.8717,22.1032,22.1032,0,0,1-1.5978-2.2392l-.3832-.6457a1.1329,1.1329,0,0,0-.1477-.218,1.114,1.114,0,0,0,.1068.2409c.0911.1762.206.3979.3468.67a18.843,18.843,0,0,0,1.5483,2.2975,19.7971,19.7971,0,0,0,2.8584,2.9352,19.4416,19.4416,0,0,0,4.2183,2.6767,21.499,21.499,0,0,0,4.737,1.5142,10.21,10.21,0,0,1,3.7268,1.4321,4.7394,4.7394,0,0,1,1.71,2.0675A5.56,5.56,0,0,1,267.9433,94.4826Z"/><path class="cls-12" d="M262.54,102.58c-.0043-.0311.3831-.0824,1.0527-.2607a6.44,6.44,0,0,0,2.5306-1.4421,9.287,9.287,0,0,0,2.3505-3.667,16.43,16.43,0,0,0,.9806-5.3187,12.6977,12.6977,0,0,0-.9683-5.2945,13.3914,13.3914,0,0,0-2.3427-3.7193,21.3562,21.3562,0,0,0-3.0352-2.6975.99.99,0,0,1,.2506.1327c.1563.1.3977.2322.683.4413a13.92,13.92,0,0,1,2.257,1.9781,13.1583,13.1583,0,0,1,2.44,3.7543,12.7371,12.7371,0,0,1,1.0138,5.412A16.292,16.292,0,0,1,268.73,97.312a9.2979,9.2979,0,0,1-2.4675,3.727,6.2324,6.2324,0,0,1-2.64,1.395,5.5439,5.5439,0,0,1-.8008.13A.9845.9845,0,0,1,262.54,102.58Z"/><path class="cls-8" d="M234.327,122.5486l.1134-.1464c4.982-5.3748,14.1518-7.1743,14.1518-7.1743s.5607,3.5189,5.7009,3.9118,8.9164-4.9454,8.9164-4.9454l6.8579.979a17.1155,17.1155,0,0,1,5.601,1.7039c4.8406,2.9029,7.41,12.9156,7.41,12.9156l-52.8857.217Z"/><path class="cls-5" d="M292.4514,194.6909H143.9246V164.2122H292.4514Zm-148.2385-.2884h147.95V164.5006h-147.95Z"/><rect class="cls-5" x="144.0687" y="189.371" width="148.2386" height="0.2883"/><rect class="cls-5" x="144.0687" y="184.3394" width="148.2386" height="0.2883"/><rect class="cls-5" x="144.0687" y="179.3077" width="148.2386" height="0.2883"/><rect class="cls-5" x="144.0687" y="174.2755" width="148.2386" height="0.2883"/><rect class="cls-5" x="144.0687" y="169.2439" width="148.2386" height="0.2884"/><rect class="cls-8" x="149.3421" y="179.663" width="3.3956" height="14.8837"/><rect class="cls-13" x="154.606" y="169.1595" width="3.3955" height="25.3871"/><rect class="cls-8" x="161.2102" y="186.9083" width="3.3955" height="7.6384"/><rect class="cls-13" x="166.4741" y="166.0214" width="3.3955" height="28.5252"/><rect class="cls-8" x="173.0783" y="170.9682" width="3.3956" height="23.5784"/><rect class="cls-13" x="178.3422" y="177.0144" width="3.3955" height="17.5322"/><rect class="cls-8" x="184.9464" y="190.7558" width="3.3956" height="3.7909"/><rect class="cls-13" x="190.2103" y="175.6404" width="3.3956" height="18.9063"/><rect class="cls-8" x="196.8144" y="176.7397" width="3.3956" height="17.807"/><rect class="cls-13" x="202.0783" y="184.9845" width="3.3955" height="9.5622"/><rect class="cls-8" x="208.6824" y="172.6173" width="3.3955" height="21.9294"/><rect class="cls-13" x="213.9463" y="165.1969" width="3.3955" height="29.3497"/><rect class="cls-8" x="220.5507" y="190.7558" width="3.3955" height="3.7909"/><rect class="cls-13" x="225.8146" y="173.4418" width="3.3955" height="21.1048"/><rect class="cls-8" x="232.4187" y="169.0445" width="3.3956" height="25.5021"/><rect class="cls-13" x="237.6826" y="178.9383" width="3.3956" height="15.6084"/><rect class="cls-8" x="244.2867" y="188.832" width="3.3955" height="5.7147"/><rect class="cls-13" x="249.5506" y="166.2962" width="3.3956" height="28.2505"/><rect class="cls-8" x="256.1549" y="166.2962" width="3.3955" height="28.2505"/><rect class="cls-13" x="261.4186" y="176.19" width="3.3956" height="18.3566"/><rect class="cls-8" x="268.0226" y="179.663" width="3.3956" height="14.8837"/><rect class="cls-13" x="273.2864" y="169.1595" width="3.3956" height="25.3871"/><rect class="cls-8" x="279.8908" y="172.8921" width="3.3956" height="21.6546"/><rect class="cls-13" x="285.1547" y="186.9083" width="3.3956" height="7.6384"/><ellipse class="cls-2" cx="140.4555" cy="165.757" rx="1.3737" ry="1.4006"/><ellipse class="cls-2" cx="140.3868" cy="170.8691" rx="1.3737" ry="1.4006"/><path class="cls-2" d="M141.6918,175.9811a1.374,1.374,0,1,1-1.3737-1.4006A1.3872,1.3872,0,0,1,141.6918,175.9811Z"/><ellipse class="cls-2" cx="140.2494" cy="181.093" rx="1.3737" ry="1.4006"/><ellipse class="cls-2" cx="140.1807" cy="186.205" rx="1.3737" ry="1.4006"/><ellipse class="cls-2" cx="140.112" cy="191.317" rx="1.3737" ry="1.4006"/><path class="cls-2" d="M149.6179,196.6215h2.3243a.5357.5357,0,0,1,.5357.5357v.4552a.5356.5356,0,0,1-.5356.5356h-2.3244a.5356.5356,0,0,1-.5356-.5356v-.4553A.5356.5356,0,0,1,149.6179,196.6215Z"/><path class="cls-2" d="M161.852,196.6215h2.3243a.5357.5357,0,0,1,.5357.5357v.4552a.5356.5356,0,0,1-.5356.5356h-2.3243a.5357.5357,0,0,1-.5357-.5357v-.4552A.5356.5356,0,0,1,161.852,196.6215Z"/><path class="cls-2" d="M174.0861,196.6215h2.3244a.5356.5356,0,0,1,.5356.5356v.4553a.5356.5356,0,0,1-.5356.5356h-2.3243a.5357.5357,0,0,1-.5357-.5357v-.4552A.5356.5356,0,0,1,174.0861,196.6215Z"/><rect class="cls-2" x="185.7847" y="196.6215" width="3.3955" height="1.5265" rx="0.5356"/><rect class="cls-2" x="198.0188" y="196.6215" width="3.3955" height="1.5265" rx="0.5356"/><path class="cls-2" d="M210.7884,196.6215h2.3243a.5357.5357,0,0,1,.5357.5357v.4552a.5356.5356,0,0,1-.5356.5356h-2.3244a.5356.5356,0,0,1-.5356-.5356v-.4553A.5356.5356,0,0,1,210.7884,196.6215Z"/><path class="cls-2" d="M223.0225,196.6215h2.3243a.5357.5357,0,0,1,.5357.5357v.4551a.5357.5357,0,0,1-.5357.5357h-2.3242a.5357.5357,0,0,1-.5357-.5357v-.4552A.5356.5356,0,0,1,223.0225,196.6215Z"/><path class="cls-2" d="M235.2567,196.6215h2.3244a.5356.5356,0,0,1,.5356.5356v.4553a.5356.5356,0,0,1-.5356.5356h-2.3243a.5357.5357,0,0,1-.5357-.5357v-.4552A.5356.5356,0,0,1,235.2567,196.6215Z"/><path class="cls-2" d="M247.4908,196.6215h2.3244a.5356.5356,0,0,1,.5356.5356v.4553a.5356.5356,0,0,1-.5356.5356h-2.3243a.5357.5357,0,0,1-.5357-.5357v-.4552A.5356.5356,0,0,1,247.4908,196.6215Z"/><rect class="cls-2" x="259.1893" y="196.6215" width="3.3955" height="1.5265" rx="0.5356"/><path class="cls-2" d="M271.9589,196.6215h2.3243a.5357.5357,0,0,1,.5357.5357v.4552a.5356.5356,0,0,1-.5356.5356h-2.3244a.5356.5356,0,0,1-.5356-.5356v-.4553A.5356.5356,0,0,1,271.9589,196.6215Z"/><path class="cls-2" d="M284.1931,196.6215h2.3243a.5357.5357,0,0,1,.5357.5357v.4552a.5356.5356,0,0,1-.5356.5356h-2.3244a.5356.5356,0,0,1-.5356-.5356v-.4553A.5356.5356,0,0,1,284.1931,196.6215Z"/><path class="cls-5" d="M209.5129,249.8717H143.7286V219.0782h65.7843Zm-65.483-.3012h65.1817V219.38H144.03Z"/><rect class="cls-5" x="143.8793" y="244.4888" width="65.483" height="0.3013"/><rect class="cls-5" x="143.8793" y="239.4066" width="65.483" height="0.3013"/><rect class="cls-5" x="143.8793" y="234.3243" width="65.483" height="0.3013"/><rect class="cls-5" x="143.8793" y="229.2427" width="65.483" height="0.3013"/><rect class="cls-5" x="143.8793" y="224.1604" width="65.483" height="0.3013"/><rect class="cls-8" x="150.0854" y="229.1124" width="7.604" height="20.6094"/><rect class="cls-13" x="164.1683" y="220.2305" width="7.604" height="29.4913"/><rect class="cls-15" x="178.251" y="242.2023" width="7.6042" height="7.5196"/><rect class="cls-8" x="192.3339" y="226.0382" width="7.604" height="23.6836"/><path class="cls-2" d="M142.2818,224.0241a1.374,1.374,0,1,1-1.3738-1.4A1.3874,1.3874,0,0,1,142.2818,224.0241Z"/><path class="cls-2" d="M142.2818,229.5A1.374,1.374,0,1,1,140.908,228.1,1.3875,1.3875,0,0,1,142.2818,229.5Z"/><path class="cls-2" d="M142.2818,234.9762a1.374,1.374,0,1,1-1.3738-1.4006A1.3873,1.3873,0,0,1,142.2818,234.9762Z"/><path class="cls-2" d="M142.2818,240.4522a1.374,1.374,0,1,1-1.3738-1.4A1.3874,1.3874,0,0,1,142.2818,240.4522Z"/><path class="cls-2" d="M142.2818,245.9282a1.374,1.374,0,1,1-1.3738-1.4006A1.3873,1.3873,0,0,1,142.2818,245.9282Z"/><polygon class="cls-13" points="285.848 263.251 310.563 260.592 331.252 243.383 334.669 248.792 351.094 245.028 397.58 257.109 405.079 270.366 444.761 281.222 444.94 336.869 437.732 438.92 437.405 457.266 261.051 458.253 256.164 410.07 250.647 340.745 285.848 263.251"/><path class="cls-3" d="M373.5309,309.0571c-.01.0083-.1012-.0811-.2693-.2628-.194-.2169-.4341-.4857-.73-.8167-.6661-.7714-1.581-1.8312-2.7332-3.1658-2.3774-2.8055-5.7281-6.7594-9.7926-11.5559l.3889-.0019c-3.9365,4.8328-8.6291,10.5936-13.7267,16.8515l-.264.3243-.2337-.35c-1.4981-2.2418-3.0787-4.5738-4.7279-6.9266-8.0764-11.5045-15.8328-21.61-21.1876-29.1156-2.6934-3.7412-4.8174-6.8089-6.26-8.9452l-1.6323-2.48a6.391,6.391,0,0,1-.5324-.8891,6.4222,6.4222,0,0,1,.6369.8179q.6415.8951,1.7285,2.4116c1.5036,2.0923,3.6807,5.1179,6.4182,8.8232,5.4428,7.4335,13.2534,17.4941,21.3433,29.0175,1.6518,2.3566,3.2333,4.6948,4.73,6.9446l-.4975-.0253c5.13-6.2312,9.8531-11.9673,13.8149-16.7794l.1955-.2374.1939.2356,9.6254,11.6955,2.628,3.2536c.273.35.4945.6345.6735.8639A1.4185,1.4185,0,0,1,373.5309,309.0571Z"/><path class="cls-3" d="M405.0785,270.3662a3.6957,3.6957,0,0,1,.2144.759c.1167.5035.2953,1.2468.4887,2.2116a37.1578,37.1578,0,0,1,.3753,8.3187c-.4064,7.0257-3.54,16.6739-10.1537,25.212-.5648.75-1.175,1.455-1.7516,2.1732l-1.8207,2.0359-.2294.2566-.231-.2657a58.7768,58.7768,0,0,1-9.5132-15.107l.4355.04c-2.6492,3.82-4.835,6.9711-6.4067,9.2373q-1.1177,1.57-1.7965,2.5233a6.03,6.03,0,0,1-.6719.8573,6.0368,6.0368,0,0,1,.55-.94l1.6842-2.6c1.5279-2.2959,3.6526-5.4887,6.2279-9.3588l.25-.3759.1857.4157a60.1592,60.1592,0,0,0,9.5239,14.9l-.46-.0092q.8866-.9946,1.796-2.0151c.569-.7109,1.1719-1.408,1.73-2.15,6.539-8.4441,9.6936-17.9309,10.2094-24.8651a40.5208,40.5208,0,0,0-.1744-8.2472c-.1523-.9125-.2753-1.6491-.3707-2.2213A3.7733,3.7733,0,0,1,405.0785,270.3662Z"/><path class="cls-3" d="M389.3908,391.2356a2.9571,2.9571,0,0,1,.4206.1893l1.179.5893,4.4765,2.2949,16.3338,8.4915-.2-.0057c5.6878-2.61,12.3786-5.6809,19.7281-9.0538l-.1665.25c.3045-10.1357.647-21.5294,1.0079-33.5392.0329-1.0633.0657-2.1217.0979-3.1591l.3624.3194-5.8592.9267c-1.9346.2979-3.8337.6492-5.7594.7909a84.6636,84.6636,0,0,1-11.1774.1654,141.3127,141.3127,0,0,1-19.9164-2.4063l.3079-.2349c-.6975,10.3905-.8417,18.9951-.8659,24.99.0142,2.9677.0255,5.3056.0333,6.9432.0059.7645.0108,1.3644.0141,1.8083a4.9553,4.9553,0,0,1-.0164.6393,4.0378,4.0378,0,0,1-.0556-.608c-.0237-.4506-.0555-1.0595-.0962-1.8355-.0653-1.5974-.1388-3.9456-.1735-6.9463-.0637-6,.0052-14.6143.6471-25.0251l.0177-.2867.29.0516c11.91,2.1111,26.835,3.9356,42.5112.4077l.3752-.0844-.0126.4039c-.0319,1.0373-.0645,2.0957-.0973,3.159-.3816,12.0091-.7434,23.4023-1.0653,33.5373l-.0057.1779-.1612.073-19.7759,8.9489-.1029.0465-.0979-.0523-16.3142-8.732-4.392-2.3836c-.4716-.2626-.844-.47-1.1265-.6269A2.2877,2.2877,0,0,1,389.3908,391.2356Z"/><path class="cls-3" d="M365.4207,352.1053a1.9938,1.9938,0,0,1,.5586-.24,15.96,15.96,0,0,1,1.6733-.4685,19.7054,19.7054,0,0,1,6.3628-.3535l-.2613.2591a147.038,147.038,0,0,1-.9283-16.7835c-.026-7.0422.2278-13.4056.371-18.01.0783-2.22.1431-4.0572.1923-5.4524a12.2657,12.2657,0,0,1,.1418-1.9993,12.2249,12.2249,0,0,1,.1025,2.002c.0237,1.2892.0273,3.1546.0071,5.4591-.03,4.6091-.2132,10.9733-.187,17.9973.0143,6.4563.331,12.3417.7682,16.7353l.0295.2961-.2909-.0368a21.267,21.267,0,0,0-6.257.1436C366.2337,351.9092,365.4372,352.16,365.4207,352.1053Z"/><path class="cls-7" d="M364.4285,323.6377a2.6851,2.6851,0,1,0,1.0349-.18"/><path class="cls-7" d="M364.4285,337.1863a2.6852,2.6852,0,1,0,1.0349-.18"/><g class="cls-16"><path d="M315.6813,267.2907s29.0264,53.2571,32.1124,50.4608,11.5445-17.2859,11.5445-17.2859l11.8861,5.83L360.2,293.0939,346.4286,309.91Z"/></g><g class="cls-16"><path d="M255.478,401.45s21.2346-31.3492,21.43-44.6122L254.1889,385.25Z"/></g><path class="cls-9" d="M550.8672,403.4551c-1.9362-3.8543-58.2813-72.4977-86.795-104.1781-8.5587-9.5092-6.6068-4.3728-6.6068-4.3728l-7.8383,57.9916s1.4292,15.798,3.3939,27.1811c.424,2.4578,34.0041,33.2136,34.0041,33.2136h0l-62.1946,14.988,8.3705,28.8657,96.1109,2.6741C544.5276,458.6134,565.5981,432.7787,550.8672,403.4551Z"/><path class="cls-17" d="M528.3847,425.1365a32.895,32.895,0,0,0-4.4857-5.0929,30.6673,30.6673,0,0,0-14.6383-6.8567,52.7211,52.7211,0,0,0-16.3543-.06c-2.0888.2819-3.7728.57-4.9366.7709a10.89,10.89,0,0,1-1.82.2588,9.7924,9.7924,0,0,1,1.7716-.4981c1.1514-.2748,2.8283-.6309,4.9207-.9706a49.2853,49.2853,0,0,1,16.5326-.1184,29.8407,29.8407,0,0,1,14.8222,7.1446,21.1976,21.1976,0,0,1,3.28,3.8175,12.6329,12.6329,0,0,1,.7067,1.171C528.3338,424.9768,528.4034,425.1254,528.3847,425.1365Z"/><path class="cls-9" d="M379.711,457.7736s3.5965-9.0423,6.7489-12.2488l13.4278-13.6581,52.9944-10.3482-5.1551,36.0037Z"/><path class="cls-13" d="M444.7608,281.2219s6.7648,2.7639,14.7514,12.0239c7.1519,8.292,54.4106,61.0383,54.4106,61.0383l-50.7941,48.3745-25.7234-25.8792Z"/><path class="cls-3" d="M447.1825,311.8138a3.3725,3.3725,0,0,1,.0493.7522c.0206.4952.0039,1.2233-.0331,2.16-.0675,1.8738-.2472,4.5784-.5054,7.9168-.5176,6.6765-1.36,15.8863-2.2821,26.0574-.893,10.1408-1.7011,19.3166-2.2945,26.0557-.2762,3.275-.502,5.9535-.666,7.8988-.0836.878-.1512,1.5891-.2042,2.1463a3.4042,3.4042,0,0,1-.1139.7457,3.406,3.406,0,0,1-.0123-.7538c.0225-.5594.0512-1.2733.0866-2.1545.0831-1.871.2462-4.5752.4673-7.916.4488-6.6808,1.1832-15.9028,2.1119-26.0788.9592-10.1323,1.8273-19.303,2.465-26.0389.3148-3.3314.5615-6.0281.7038-7.8925C447.1164,312.8474,447.1246,311.8158,447.1825,311.8138Z"/><path class="cls-17" d="M384.2391,442.4383a3.64,3.64,0,0,0-1.0961-1.35l-6.6654-5.9322-3.859,11.4969a7.7731,7.7731,0,0,0,10.9164-1.4785A2.9959,2.9959,0,0,0,384.2391,442.4383Z"/><path class="cls-8" d="M294.7923,378.2867l84.6258,78.6272,7.99,3.787,4.42,2.264-2.0634-3.81-4.1827-7.723-85.673-78.6848a3.7705,3.7705,0,0,0-5.1279.0248h0A3.7706,3.7706,0,0,0,294.7923,378.2867Z"/><path class="cls-9" d="M291.8913,423.861l11.11-.1924s34.3761-12.6861,39.287-13.3266c3.7954-.495,21.8751,3.7552,29.8922,5.7116a7.0275,7.0275,0,0,1,5.4466,7.0229q-.0033.0756-.008.1516a7.036,7.036,0,0,1-4.4275,5.9972h0s6.7531,2.0951,3.6982,9.2322c-2.2617,5.2841-9.3884,4.4669-9.3884,4.4669l-11.892.2273s3.033.9118,7.6055,1.982c4.9028,1.1475,6.2163,2.0341,6.2163,2.0341s7.1775,6.9006.2444,9.78a14.6842,14.6842,0,0,1-7.2536,1.2809s2.0718,7.4134-3.48,8.6946-42.2245-1.5109-42.2245-1.5109-1.9437-1.0887-9.4168-1.7292l-10.3442-.7187Z"/><path class="cls-17" d="M372.6186,429.2251c-.0159.1727-4.2392-.0743-9.4318-.5513-5.1946-.4772-9.3913-1.0038-9.3754-1.1765s4.2383.0743,9.4327.5515C368.4368,428.5259,372.6344,429.0527,372.6186,429.2251Z"/><path class="cls-17" d="M335.5092,462.9649c-.037.0641-.5373-.1215-1.1237-.7314a4.6125,4.6125,0,0,1-.221-6.0783c.5407-.6508,1.0261-.8722,1.0677-.8109.0615.0759-.3059.4139-.7065,1.0688a4.8522,4.8522,0,0,0,.2013,5.5371C335.1741,462.5742,335.5651,462.8848,335.5092,462.9649Z"/><path class="cls-17" d="M334.9585,450.5216c-.0123.0682-.6417.0234-1.4624-.53a4.4749,4.4749,0,0,1-.74-6.7865c.6824-.717,1.2873-.8962,1.314-.8322.0536.0868-.4429.3979-.9734,1.1168a4.4243,4.4243,0,0,0,.67,6.1508C334.44,450.2283,334.9922,450.4253,334.9585,450.5216Z"/><path class="cls-17" d="M334.7442,436.0336c-.0414.0559-.6346-.2906-1.2353-1.1959a5.647,5.647,0,0,1,1.329-7.6166c.8718-.6483,1.5472-.7736,1.5672-.7068.0417.093-.5491.3626-1.282,1.0467a5.7785,5.7785,0,0,0-1.2308,7.0533C334.35,435.5062,334.815,435.96,334.7442,436.0336Z"/><path class="cls-17" d="M339.1113,417.4423c-.0583.0474-.3335-.1488-.56-.6307a3.1,3.1,0,0,1,1.0433-3.69c.4454-.2919.7825-.3149.8073-.2441.0739.1541-1.01.7237-1.3642,2.0795A5.9584,5.9584,0,0,0,339.1113,417.4423Z"/><path class="cls-17" d="M356.5449,442.9244c-.0033.1733-2.3.272-5.13.22s-5.1219-.2338-5.1188-.407,2.3-.272,5.13-.2205S356.548,442.7511,356.5449,442.9244Z"/><path class="cls-17" d="M362.1063,458.2291c-.0362.17-4.1895-.572-9.2758-1.6561-5.0879-1.0844-9.1818-2.1006-9.1457-2.27s4.1886.5719,9.2766,1.6564C358.0475,457.0433,362.1423,458.06,362.1063,458.2291Z"/><path class="cls-9" d="M305.5719,424.1725l-85.3761-9.0261L247.64,382.774l-60.3962-26.8755c-10.765,15.6546-33.4013,51.1077-36.8429,65.9152-2.7847,11.9809-.2607,32.7159,18.5144,42.5159,17.3193,9.04,140.5031-1.3068,140.5031-1.3068Z"/><path class="cls-17" d="M183.874,415.0243a6.68,6.68,0,0,1,1.2845-.74,14.2063,14.2063,0,0,1,1.5764-.7355c.6268-.26,1.3332-.5795,2.1506-.8324a36.8684,36.8684,0,0,1,5.8155-1.4955,44.3811,44.3811,0,0,1,7.3329-.5749,45.9343,45.9343,0,0,1,7.32.7223,40.9342,40.9342,0,0,1,5.8032,1.5333c.8162.2538,1.5253.5653,2.1544.8179a16.2482,16.2482,0,0,1,1.5859.7122,6.6811,6.6811,0,0,1,1.2984.715c-.05.1095-1.946-.8171-5.1764-1.8232a46.4,46.4,0,0,0-5.7674-1.386,49.6662,49.6662,0,0,0-7.2252-.6639,47.816,47.816,0,0,0-7.2322.518,41.1342,41.1342,0,0,0-5.7706,1.3463C185.798,414.1511,183.9288,415.1378,183.874,415.0243Z"/><path class="cls-13" d="M182.2668,352.3621l60.9616,46.5945,40.287-51.723L304.19,261.8844s-49.45.2959-64.8186,20.0936C217.9918,309.52,182.2668,352.3621,182.2668,352.3621Z"/><path class="cls-3" d="M284.0361,311.8138a10.9661,10.9661,0,0,1-.4943-1.8283c-.2456-1.1906-.7163-2.8844-1.33-4.9616a38.1063,38.1063,0,0,0-8.247-14.5584,51.1815,51.1815,0,0,0-13.6958-9.7737c-1.9385-.9761-3.518-1.7513-4.6244-2.2563a10.97,10.97,0,0,1-1.6845-.8655,10.9025,10.9025,0,0,1,1.7824.6417c1.1384.4369,2.7512,1.1528,4.725,2.0833a48.17,48.17,0,0,1,13.9549,9.741,36.6646,36.6646,0,0,1,8.2141,14.859,47.9209,47.9209,0,0,1,1.1448,5.0414A10.9026,10.9026,0,0,1,284.0361,311.8138Z"/><path class="cls-3" d="M280.4866,352.3621a1.17,1.17,0,0,1-.1642.2528l-.5284.7069q-.7532.9738-2.0826,2.6923l-7.8034,9.911c-6.6906,8.4089-15.966,20.0665-26.4364,33.2258l-.1895.2384-.2427-.1854c-2.1695-1.6571-4.4577-3.405-6.78-5.179L198,364.6668l-11.55-8.9537c-1.3276-1.0461-2.372-1.8693-3.121-2.4595l-.802-.6523a.1774.1774,0,1,1,.039-.0508l.84.6026,3.1924,2.366c2.793,2.1046,6.7709,5.1022,11.6715,8.7953,9.85,7.4989,23.4,17.8145,38.3707,29.2118l6.777,5.1829-.432.053c10.5339-13.1084,19.866-24.7208,26.5973-33.0972l7.9517-9.7922q1.3819-1.6725,2.1683-2.6239c.234-.2739.4226-.4944.5734-.6709A1.17,1.17,0,0,1,280.4866,352.3621Z"/><path class="cls-13" d="M319.02,402.8094h0a2.1373,2.1373,0,0,1-3.0208.11l-19.5781-18.2069a4.2749,4.2749,0,0,1-.2192-6.0418h0l22.7085,21.1182A2.1374,2.1374,0,0,1,319.02,402.8094Z"/><path class="cls-8" d="M319.0205,402.81a6.7316,6.7316,0,0,0,.3348-.6281,2.0885,2.0885,0,0,0-.1938-1.8964,6.77,6.77,0,0,0-1.04-1.0261q-.6156-.5564-1.3229-1.1951l-3.2138-2.9251-8.3288-7.6537-4.9036-4.5353-2.59-2.4024-1.324-1.23-.3338-.31-.0835-.0777-.021-.0194-.01-.01c.8828-.0314.24-.0028.4347-.0072l-.034.0406-.1363.1626a3.963,3.963,0,0,0,.33,5.3379q.6426.6024,1.275,1.1946l4.88,4.5629,8.2378,7.7527c1.1591,1.1013,2.2133,2.1028,3.15,2.9933q.6878.6582,1.2876,1.2326a6.7566,6.7566,0,0,0,1.0988.9626,2.088,2.088,0,0,0,1.9051.0555,6.7731,6.7731,0,0,0,.6021-.3792,1.4177,1.4177,0,0,1-.5433.4913,2.1885,2.1885,0,0,1-2.0783.0483,6.6026,6.6026,0,0,1-1.1881-.9594l-1.3229-1.1948-3.2136-2.9252-8.3294-7.6541L297.44,386.08l-1.2867-1.198a4.5848,4.5848,0,0,1-.9224-5.3537,4.6017,4.6017,0,0,1,.5346-.8256l.158-.1877.0395-.0468c.201-.01-.436.0068.4531-.0263l.0105.01.0209.0194.0835.0777.3336.31,1.3223,1.2313q1.3121,1.2237,2.584,2.4095c1.69,1.5807,3.3219,3.1064,4.8787,4.562l8.2372,7.7522,3.15,2.9932,1.2878,1.2328a6.6218,6.6218,0,0,1,1.043,1.1155,2.188,2.188,0,0,1,.1028,2.0765A1.4194,1.4194,0,0,1,319.0205,402.81Z"/><polygon class="cls-7" points="379.418 456.914 385.582 451.432 389.195 458.102 386.561 460.212 379.418 456.914"/><path class="cls-3" d="M333.7875,201.8119c-2.31-11.6091-4.5645-23.2976-4.8428-35.1315s1.5119-23.9234,6.9121-34.4574c.818-1.5967,7.4381-12.1761,9.191-11.7907,1.2522.2751-3.2464,10.3426-2.7355,11.5189,4.8728,11.2283,5.0394,24.0579,2.6285,36.058a160.2957,160.2957,0,0,1-11.1533,33.8027"/><path class="cls-9" d="M389.2931,107.416l2.7079.4684a53.071,53.071,0,0,1,43.81,57.1056c-2.3371,25.6254-5.2477,53.9086-7.7623,67.438-5.206,28.008-32.4736,27.4618-32.4736,27.4618-.0631-.0077.8424,10.1284.8424,10.1284l-22.329,31.9361-43.2568-53.1276,7.1079-92.0007C340.4716,127.2471,359.7954,104.0663,389.2931,107.416Z"/><path class="cls-17" d="M395.5749,259.89a70.47,70.47,0,0,1-36.2367-17.0793s3.5619,23.1316,36.8379,24.48Z"/><path class="cls-3" d="M419.71,188.8545a4.067,4.067,0,0,1-4.5647,3.3754,3.8905,3.8905,0,0,1-3.5058-4.33,4.0693,4.0693,0,0,1,4.561-3.3786A3.8942,3.8942,0,0,1,419.71,188.8545Z"/><path class="cls-3" d="M427.6966,176.3521c-.5872.4365-3.2346-2.3364-7.5508-3.0716-4.3-.7966-7.85.8746-8.2256.2653-.1889-.2731.48-1.13,2.0322-1.895a11.1619,11.1619,0,0,1,6.6973-.8586,10.7243,10.7243,0,0,1,5.8971,3.0975C427.6964,175.1373,427.9822,176.16,427.6966,176.3521Z"/><path class="cls-3" d="M382.1947,184.9712a4.0675,4.0675,0,0,1-4.5652,3.3748,3.89,3.89,0,0,1-3.5064-4.3295,4.07,4.07,0,0,1,4.5623-3.3775A3.8937,3.8937,0,0,1,382.1947,184.9712Z"/><path class="cls-3" d="M385.2427,170.0324c-.5888.4366-3.2407-2.3361-7.5527-3.0716-4.2985-.7954-7.8492.8749-8.2259.2656-.1881-.2735.4755-1.13,2.0334-1.894a11.1653,11.1653,0,0,1,6.6964-.86,10.7412,10.7412,0,0,1,5.8978,3.0975C385.2383,168.8174,385.526,169.8409,385.2427,170.0324Z"/><path class="cls-3" d="M394.9775,205.8549c.0227-.2485,2.7838-.2479,7.2245-.0515,1.1216.0773,2.2019.0393,2.5172-.6808.3969-.7506.1418-2.018-.17-3.392q-.8618-4.2675-1.8052-8.951c-2.4564-12.7243-4.0312-23.1093-3.5181-23.2043s2.921,10.1427,5.3769,22.8667q.8684,4.7007,1.66,8.9774c.2,1.3241.6709,2.8679-.1765,4.4219a2.805,2.805,0,0,1-2.09,1.2966,7.5722,7.5722,0,0,1-1.9163-.0636C397.6674,206.5524,394.9521,206.1027,394.9775,205.8549Z"/><path class="cls-3" d="M388.974,156.7822c-.7768,1-4.7616-.8827-9.8383-1.8737-5.0574-1.0944-9.4607-.9387-9.78-2.163-.1316-.58.9-1.4235,2.8478-2.0039a17.4091,17.4091,0,0,1,14.9464,3.0755C388.71,155.12,389.3254,156.3022,388.974,156.7822Z"/><path class="cls-3" d="M430.09,163.7044c-1.0539.84-4.4141-.7349-8.64-1.4509-4.2031-.8407-7.9222-.5735-8.5852-1.7312-.2825-.555.4364-1.45,2.1494-2.1327a13.791,13.791,0,0,1,7.2887-.4992,13.58,13.58,0,0,1,6.591,3.0629C430.23,162.1988,430.562,163.2874,430.09,163.7044Z"/><path class="cls-9" d="M336.6339,178.0064c-.4427-.29-18.2987-9.0425-21.0073,10.2523s18.9778,18.9425,19.0891,18.3942S336.6339,178.0064,336.6339,178.0064Z"/><path class="cls-17" d="M328.0914,197.6078c-.0756-.0738-.3689.1877-.9737.3684a3.3925,3.3925,0,0,1-2.52-.3012c-1.9329-1.0339-3.1953-4.5114-2.8006-8.0025a11.22,11.22,0,0,1,1.616-4.68,3.9232,3.9232,0,0,1,2.8909-2.2253,1.7275,1.7275,0,0,1,1.8545,1.2c.1825.5755.0059.9432.1042.991.0464.0559.459-.2655.4155-1.0838a2.1642,2.1642,0,0,0-.5893-1.3155,2.5609,2.5609,0,0,0-1.7893-.7524c-1.5024-.1065-3.0343,1.0749-3.9321,2.4984a11.5213,11.5213,0,0,0-1.92,5.2141c-.4223,3.906,1.0571,7.8235,3.7333,9.0214a3.6341,3.6341,0,0,0,3.1462-.0791C327.9915,198.0687,328.1538,197.6523,328.0914,197.6078Z"/><path d="M427.5179,131.3451c3.3533-1.3144-4.6988-12.6723-11.9243-17.1684-10.92-6.794-28.2255-12.369-39.3312-10.74-13.3712,1.9615-24.9238,6.9673-32.9369,17.85s-12.2431,24.2319-13.6279,37.6753c-.4221,4.1019-.558,8.4173,1.1712,12.16,2.1364,4.6259,6.96,7.9965,5.9594,13.858a8.1577,8.1577,0,0,0,1.2314,6.1609c3.0405,4.2256,7.8287,1.2608,10.2824-2.02,5.241-7.0086,6.9014-15.98,8.4132-24.5994,1.0749-6.1267,2.1522-12.3874,1.1928-18.533-.5217-3.3443-1.64-6.5865-1.9758-9.9546s.25-7.0631,2.636-9.4645a12.1771,12.1771,0,0,1,1.7778-1.3814,20.318,20.318,0,0,1,20.4874-1.1778c10.3729,5.2785,28.1953,13.4671,33.5327,10.4137,7.6781-4.3944,9.8028-7.6384,9.8028-7.6384Z"/><path class="cls-3" d="M381.0043,206.7576c.67.0456.1179,4.4852,3.519,8.1159,3.3942,3.64,8.1888,3.7392,8.1453,4.3645.0267.2862-1.1623.7287-3.167.5308a11.1409,11.1409,0,0,1-6.8308-3.391,9.7075,9.7075,0,0,1-2.6661-6.7695C380.07,207.7305,380.7038,206.6933,381.0043,206.7576Z"/><path class="cls-18" d="M118.7993,493.5191a4.6559,4.6559,0,1,1,.9631,6.5136A4.6559,4.6559,0,0,1,118.7993,493.5191Z"/><polygon class="cls-8" points="113.05 418.733 109.773 430.013 117.73 495.161 126.992 493.802 119.011 429.076 113.05 418.733"/><g class="cls-19"><path class="cls-7" d="M119.0113,429.0763a.6946.6946,0,0,1-1.0966-.1023,2.09,2.09,0,0,1-3.8736.8274,2.4384,2.4384,0,0,1-4.2428.1268l3.2521-11.1947Z"/></g><path class="cls-3" d="M111.7325,423.2693s1.3691,1.7851,3.76-.2984l-2.4423-4.2374Z"/><path class="cls-20" d="M114.0411,429.8014l8.1471,64.2887-4.4842.7716-7.9307-64.8492.025-.0843a2.3444,2.3444,0,0,0,.7454.7709,2.5339,2.5339,0,0,0,1.343.4032,2.4093,2.4093,0,0,0,1.5865-.5867A2.4553,2.4553,0,0,0,114.0411,429.8014Z"/><path class="cls-20" d="M117.9147,428.974l7.9312,64.9752,1.1874-.2027-8.022-64.67a.7391.7391,0,0,1-.9938.0382A.8079.8079,0,0,1,117.9147,428.974Z"/><path class="cls-7" d="M112.54,427.6938a.1853.1853,0,0,0,.0282.1257.2544.2544,0,0,0,.3314.0771.978.978,0,0,0,.3825-.4514.6034.6034,0,0,0,.0495-.3612.4.4,0,0,0-.2379-.3077.5385.5385,0,0,0-.4345.0547,1.7422,1.7422,0,0,0-.3993.3038,2.6882,2.6882,0,0,0-.63.91.6878.6878,0,0,0-.0007.5661.6106.6106,0,0,0,.5013.2913,1.631,1.631,0,0,0,1.1354-.5761,2.327,2.327,0,0,0,.5373-2.36.6038.6038,0,0,0-.4018-.3544,1.1133,1.1133,0,0,0-.5286.0074,3.2463,3.2463,0,0,0-.8959.3745,3.5648,3.5648,0,0,0-1.0368.95c-.0968.1366-.1653.2474-.2092.324s-.0688.1161-.0688.1161a2.593,2.593,0,0,1,.2573-.4548,3.4917,3.4917,0,0,1,1.0335-.9751,3.266,3.266,0,0,1,.908-.3877,1.1632,1.1632,0,0,1,.5557-.01.6636.6636,0,0,1,.4413.3846,2.3794,2.3794,0,0,1-.5447,2.43,2.3344,2.3344,0,0,1-.541.422,1.1961,1.1961,0,0,1-.6459.173.6729.6729,0,0,1-.5521-.3254.7481.7481,0,0,1-.0007-.6167,2.7258,2.7258,0,0,1,.6488-.9285,1.7909,1.7909,0,0,1,.4142-.31.5847.5847,0,0,1,.4741-.0525.4431.4431,0,0,1,.2618.3429.6409.6409,0,0,1-.057.3839.9934.9934,0,0,1-.4052.4595.2708.2708,0,0,1-.3533-.0933A.1436.1436,0,0,1,112.54,427.6938Z"/><path class="cls-7" d="M116.4618,424.8509c.0037.0071-.1214.0566-.3139.1979a2.5329,2.5329,0,0,0-.6575.757,6.4285,6.4285,0,0,0-.5684,1.3862,5.6178,5.6178,0,0,1-.7569,1.6853,3.1891,3.1891,0,0,1-1.483,1.0866,3.1079,3.1079,0,0,1-2.4658-.1857,2.0821,2.0821,0,0,1-.3158-.2.52.52,0,0,1,.0848.0463c.0538.0326.1352.0781.2425.13a3.2326,3.2326,0,0,0,.9616.2971,3.08,3.08,0,0,0,1.4726-.1455,3.1558,3.1558,0,0,0,1.4508-1.0689,5.6579,5.6579,0,0,0,.7521-1.6649,6.2826,6.2826,0,0,1,.5859-1.3915,2.4723,2.4723,0,0,1,.6821-.7538A1.4055,1.4055,0,0,1,116.4618,424.8509Z"/><path class="cls-7" d="M117.9384,427.1347a.97.97,0,0,0-.679.1006,5.4724,5.4724,0,0,0-1.2581,1.1449,9.3537,9.3537,0,0,0-.9966,1.3919c-.1118.189-.1952.3461-.2535.4543a1.0694,1.0694,0,0,1-.0944.1666,1.0868,1.0868,0,0,1,.0716-.1779c.0514-.1119.1289-.2729.2362-.4659a8.396,8.396,0,0,1,1.6482-2.0936,2.7447,2.7447,0,0,1,.6259-.4617.9569.9569,0,0,1,.5131-.1073A.5821.5821,0,0,1,117.9384,427.1347Z"/><path class="cls-7" d="M115.9008,430.8132a1.7906,1.7906,0,0,1,.114-.37,2.129,2.129,0,0,1,.4952-.7959,1.0815,1.0815,0,0,1,.87-.32.7738.7738,0,0,1,.2745.0852.24.24,0,0,1,.085.0621,1.1716,1.1716,0,0,0-.3639-.1013,1.08,1.08,0,0,0-.82.3211,2.3237,2.3237,0,0,0-.4972.7659A3.1394,3.1394,0,0,1,115.9008,430.8132Z"/><path class="cls-7" d="M115.7532,423.3786a.1861.1861,0,0,1-.0157.054c-.0124.0345-.0307.0853-.0582.15a.6984.6984,0,0,1-.1363.2182.7529.7529,0,0,1-.2939.1731c-.2346.0918-.53.1423-.8449.2256a6.229,6.229,0,0,0-.9977.3628,12.2439,12.2439,0,0,0-1.6728.9718l-.488.3283a1.378,1.378,0,0,1-.1833.1145,1.3659,1.3659,0,0,1,.1686-.1353c.1112-.0833.2732-.2026.4767-.3456a10.7543,10.7543,0,0,1,1.6716-.993,5.9546,5.9546,0,0,1,1.01-.3619c.32-.0809.6125-.1261.8441-.2106a.6261.6261,0,0,0,.423-.3586A1.5935,1.5935,0,0,1,115.7532,423.3786Z"/><rect class="cls-2" x="117.5356" y="494.0597" width="9.8679" height="3.3727" rx="0.2399" transform="translate(-48.2451 14.4775) rotate(-5.6539)"/><path class="cls-3" d="M117.6322,494.53c.0005.0032-.0229.005-.0627.0223a.2376.2376,0,0,0-.1251.135.8592.8592,0,0,0,.0127.3115l.0492.4357c.0359.3314.0792.7317.1294,1.1948q.037.35.0789.7462l.0211.2009a.3683.3683,0,0,0,.0418.1793.1972.1972,0,0,0,.1444.0856c.0543.0018.1392-.0124.2086-.018l9.1693-.9271a.1752.1752,0,0,0,.1572-.161c-.0033-.0895-.02-.2161-.0291-.3218q-.0327-.3318-.0649-.6589-.0644-.6543-.1266-1.2882-.0311-.3167-.0614-.6277a.1778.1778,0,0,0-.137-.1669.1917.1917,0,0,0-.0566-.004l-.0765.0074-.1528.015-1.192.1157-4.1245.3943-2.7817.2545-.757.0625-.1971.0131a.256.256,0,0,1-.0676,0,.2723.2723,0,0,1,.0663-.0132l.1958-.0259.7546-.087,2.7775-.296c1.1766-.12,2.5725-.2636,4.1218-.4221l1.1916-.12.1527-.0153.0769-.0077a.3128.3128,0,0,1,.0969.0064.3059.3059,0,0,1,.235.2772q.0311.3108.0629.6275.063.6335.1284,1.288.0326.327.0656.6589c.0093.1155.0254.21.0294.3439a.3066.3066,0,0,1-.2749.2822l-9.173.8889a2.1117,2.1117,0,0,1-.2265.0158.2871.2871,0,0,1-.2091-.1269.4436.4436,0,0,1-.0536-.22l-.0188-.2011q-.0365-.3962-.0688-.7471c-.0417-.464-.0776-.8652-.1074-1.1972l-.0372-.4367a.8307.8307,0,0,1,.0015-.3248.2433.2433,0,0,1,.1448-.138A.1561.1561,0,0,1,117.6322,494.53Z"/><path class="cls-3" d="M126.2432,497a20.6718,20.6718,0,0,1-.39-3.2636,20.6481,20.6481,0,0,1,.39,3.2636Z"/><path class="cls-3" d="M122.6931,497.4649a43.1335,43.1335,0,0,1-.5636-3.3563,14.9085,14.9085,0,0,1,.5636,3.3563Z"/><path class="cls-3" d="M118.1435,494.5a21.2435,21.2435,0,0,1,.4388,3.3045,21.2521,21.2521,0,0,1-.4388-3.3045Z"/><path class="cls-12" d="M114.45,477.271l8.7361-.63,2.0621,28.6014a4.38,4.38,0,0,1-4.0531,4.683h0a4.3792,4.3792,0,0,1-4.683-4.0533Z"/><rect class="cls-12" x="113.1396" y="464.0961" width="1.6999" height="37.2106" transform="translate(262.4151 955.9499) rotate(175.8739)"/><path class="cls-3" d="M123.1863,476.6412c.0181.1892-3.5758.6945-8.8,1.2652l.3879-.4583c.1578,1.9972.3288,4.1617.5089,6.4435.3047,4.2273.5276,8.0574.642,10.8334a21.3047,21.3047,0,0,1-.0112,4.5065,21.2631,21.2631,0,0,1-.6575-4.4583c-.2851-2.7634-.614-6.5861-.9188-10.8132-.1488-2.2843-.29-4.4508-.4206-6.45l-.0276-.4254.4159-.0333C119.5437,476.6306,123.1686,476.4519,123.1863,476.6412Z"/><rect class="cls-2" x="123.8441" y="417.6766" width="6.1433" height="69.33"/><path class="cls-8" d="M131.1714,444.7616h-8.7587V416.086a4.3793,4.3793,0,0,1,4.3793-4.3793h0a4.38,4.38,0,0,1,4.3794,4.3793Z"/><rect class="cls-8" x="131.1714" y="420.7733" width="1.6999" height="37.2103"/><path class="cls-3" d="M122.4127,444.7617c-.0045-.19,3.6165-.4356,8.868-.6294l-.42.4294c-.0138-2.0035-.0287-4.1746-.0444-6.4634,0-4.2382.0531-8.0745.139-10.8514a21.2827,21.2827,0,0,1,.3351-4.4941,21.2944,21.2944,0,0,1,.3352,4.4941c.0856,2.7769.1387,6.6132.1387,10.8514-.0158,2.2888-.03,4.46-.0444,6.4634l-.0029.4264-.4172.0033C126.0451,445.0342,122.4168,444.9518,122.4127,444.7617Z"/><rect class="cls-2" x="136.2234" y="433.9467" width="6.1433" height="69.33"/><path class="cls-13" d="M143.5508,461.0318H134.792V432.3561a4.3794,4.3794,0,0,1,4.38-4.3793h0a4.3793,4.3793,0,0,1,4.3793,4.3793Z"/><rect class="cls-12" x="143.5508" y="437.0433" width="1.7" height="37.2103"/><path class="cls-3" d="M134.792,461.0319c-.0043-.19,3.6165-.4357,8.8681-.63l-.42.4293c-.0136-2.0033-.0284-4.1744-.0442-6.4636,0-4.2379.053-8.0742.1387-10.8511a21.2833,21.2833,0,0,1,.3354-4.4941,21.3034,21.3034,0,0,1,.335,4.4941c.0858,2.7769.1388,6.6132.1388,10.8511-.0158,2.2892-.0307,4.46-.0443,6.4636l-.003.4263-.4171.0034C138.4244,461.3042,134.7962,461.222,134.792,461.0319Z"/><rect class="cls-2" x="147.8956" y="415.1364" width="6.1433" height="69.3301"/><path class="cls-13" d="M155.223,442.2215h-8.759V413.546a4.3794,4.3794,0,0,1,4.3794-4.3794h0a4.38,4.38,0,0,1,4.38,4.3794Z"/><rect class="cls-13" x="155.223" y="418.2331" width="1.6999" height="37.2107"/><path class="cls-3" d="M146.464,442.2217c-.0042-.19,3.6167-.4357,8.868-.6294l-.42.4294c-.0138-2.0035-.0288-4.1746-.0443-6.4637,0-4.2382.053-8.0743.1388-10.8511a21.2888,21.2888,0,0,1,.335-4.4941,21.2921,21.2921,0,0,1,.3351,4.4941c.0857,2.7768.139,6.6129.139,10.8511-.0158,2.2891-.0307,4.46-.0445,6.4637l-.0027.4262-.4174.0036C150.0965,442.4942,146.4683,442.4118,146.464,442.2217Z"/><path class="cls-13" d="M156.1491,520.087c-13.0252,6.1419-26.1546,6.047-39.3834,0L111.5851,462.56c15.8525,4.6456,32.6719,4.2,50.2041,0Z"/></svg>