<svg id="Layer_1" data-name="Layer 1" xmlns="http://www.w3.org/2000/svg" viewBox="0 0 120 40"><path d="M40.1333,20V40H79.8667V0H40.1333Zm32.64-.04-.04,12.7733H47.2667l-.04-12.7733L47.2,7.2H72.8Z"/><path d="M48.8933,8.8933c-.0533.04-.0933,5.0534-.0933,11.1334v11.04H71.2L71.1733,19.96l-.04-11.0933-11.08-.04C53.96,8.8133,48.9333,8.84,48.8933,8.8933ZM56.6667,17.4v.5867l-1.6934.04-1.7066.04-.04.6533c-.04.5867-.0134.64.16.4933a4.5019,4.5019,0,0,1,2.4533-.16c.7333.2.96.68.96,2.0134,0,1.9066-.4,2.2-2.9067,2.12-1.8266-.0667-2.04-.2134-2.1333-1.3867l-.0667-.7467.72.04c.68.04.72.0667.7867.44.0667.3867.0933.4.9067.44a2.0809,2.0809,0,0,0,1.04-.12,1.8723,1.8723,0,0,0,.0266-1.56,2.6776,2.6776,0,0,0-1.7866,0,1.2951,1.2951,0,0,1-.9734-.0133c-.5333-.1467-.5466-.1733-.5466-.72,0-.3067.04-1.0533.0933-1.6667L52.04,16.8h4.6267Zm5.24-.2267c.5066.48.6666,1.2667.6,3.12-.08,2.6267-.4134,2.96-2.8534,2.88-1.5866-.0533-1.9733-.24-2.28-1.1066A11.97,11.97,0,0,1,57.32,18.04a1.9617,1.9617,0,0,1,.5733-.9067c.4134-.3466.4534-.3466,2.0534-.3066C61.44,16.8667,61.6133,16.8933,61.9067,17.1733ZM67.68,17.24c.48.5733.6267,1.32.56,3.0933-.0933,2.6-.4267,2.9334-2.92,2.84-1.2933-.04-1.4667-.08-1.7733-.36-.5067-.48-.6667-1.12-.6667-2.8133a5.6225,5.6225,0,0,1,.2267-2.1733c.36-.9334.64-1.04,2.6-1C67.32,16.8667,67.36,16.88,67.68,17.24Z"/><path d="M58.8267,18.2267a11.1248,11.1248,0,0,0,.0933,3.5466A2.0766,2.0766,0,0,0,60.8,21.8a8.5634,8.5634,0,0,0,.1733-3.2l-.12-.5333-.96-.04C59.0667,18,58.92,18.0267,58.8267,18.2267Z"/><path d="M64.52,18.36a8.5233,8.5233,0,0,0,.1467,3.5067,2.6139,2.6139,0,0,0,1.8666-.08,10.1833,10.1833,0,0,0,.0934-3.4267c-.0934-.3467-.12-.36-1.0267-.36S64.6533,18.0133,64.52,18.36Z"/></svg>