<svg id="Layer_1" data-name="Layer 1" xmlns="http://www.w3.org/2000/svg" viewBox="0 0 120 40"><defs><style>.cls-1{fill:#2aa9e0;}</style></defs><path class="cls-1" d="M59.3548,12.6425A57.12,57.12,0,0,1,53.45,11.5579a30.1017,30.1017,0,0,1-7.9493-3.7662A30.7588,30.7588,0,0,1,41.19,4.1044c-.5672-.5472-1.0462-1.4618-1.8368-1.6775C39.0661,3.5444,38.426,4.5,38.1982,5.6711c-.61,3.1353.5923,7.7278,3.5212,9.4447v.1075L38.0632,14.148c0,3.9236,2.4364,9.3056,6.99,9.678-.8389.7295-2.6321.259-3.6561.215.5608,4.2166,5.0493,6.4176,8.71,7.0972v.1076c-1.6887.4977-3.2333,1.97-4.9562,2.5836-3.0092,1.0712-5.885,1.0725-9.0231,1.0725.4441,1.1426,3.2009,2.08,4.3014,2.492a29.0482,29.0482,0,0,0,13.7684,1.9307,29.4532,29.4532,0,0,0,6.2145-1.1924A28.01,28.01,0,0,0,77.64,20.4742a32.1029,32.1029,0,0,0,1.38-6.551c.12-.9973-.2663-2.2626.0772-3.212.2108-.5827.9529-.95,1.3976-1.34C81.5672,8.43,83.64,6.6991,83.8724,5.2227l-4.7315,1.29c1.34-1.5559,3.2175-2.9191,3.4411-5.1616-2.0069.32-3.7685,2.2733-5.9144,2.23-.7-.0142-1.7079-1.1647-2.3039-1.5529A10.8117,10.8117,0,0,0,70.4124.6267c-4.47-.81-9.2123,2.3713-10.63,6.55A15.8984,15.8984,0,0,0,59.3548,12.6425Z"/></svg>