<svg id="Layer_1" data-name="Layer 1" xmlns="http://www.w3.org/2000/svg" viewBox="0 0 120 40"><defs><style>.cls-1{fill:#fff;}</style></defs><path d="M12.9,6.2933a11.267,11.267,0,0,0-6.431,2.66,10.487,10.487,0,0,0,4.3024,17.9318A10.5013,10.5013,0,0,0,23.95,16.8263,10.6,10.6,0,0,0,16.0247,6.5968,8.7508,8.7508,0,0,0,12.9,6.2933M30.5624,9.1725V30.5488h3.0343V21.0381c1.48,0,2.9622.0212,4.4383-.0435a9.2355,9.2355,0,0,0,4.2118-.8816c3.6159-2.0683,3.986-7.7528.3623-10.06-1.4457-.9206-3.1973-.88-4.8458-.88H30.5624m28.8941,0V30.5488h2.8079V9.1725H59.4565m44.1112,0v3.1249h3.3514V9.1725Z"/><path class="cls-1" d="M13.0356,9.554a7.5806,7.5806,0,0,0-4.8834,2.29A7.3354,7.3354,0,0,0,9.2767,22.6492a7.22,7.22,0,0,0,2.4456,1.112,7.0066,7.0066,0,0,0,2.5361.1625A7.4343,7.4343,0,0,0,20.6859,16.69C20.6859,12.8173,17.0592,9.0257,13.0356,9.554Z"/><path d="M95.5063,15.6941H92.88v1.9927h2.6267v7.8349c0,1.2461-.2146,2.75.3741,3.8949.7649,1.4873,2.7336,1.3754,4.1548,1.3584.3306-.0039,1.3663.02,1.5837-.2592.1047-.1343.0467-.4406.0467-.6011V28.33c-.9343.0193-2.0656.3975-2.8514-.3254-.7382-.6794-.5-1.99-.5-2.89V17.6868h3.3514V15.6035H98.3142V11.5728l-2.038.6491-.7232.2885-.0467.874Z"/><path class="cls-1" d="M33.5967,11.6181v6.9745c1.3293,0,2.66.0145,3.9854-.0436a5.9123,5.9123,0,0,0,2.8532-.611c1.8894-1.1263,2.1013-4.6937.0906-5.8273a5.9407,5.9407,0,0,0-2.9438-.4926Z"/><path d="M45.4623,19.77H48.27c.0209-2.528,3.4275-3.2461,5.1629-1.8787,1.0553.8315.86,2.3633.86,3.5543a14.3568,14.3568,0,0,0-4.3024-.0127,7.2064,7.2064,0,0,0-3.1249,1.0093,5.0732,5.0732,0,0,0-1.7309,1.8566,4.4237,4.4237,0,0,0,1.4592,5.9576,6.3762,6.3762,0,0,0,3.306.7452,4.9074,4.9074,0,0,0,3.6684-1.404,3.1638,3.1638,0,0,0,.8152-1.1322H54.43l.2264,2.2191h2.5815a23.0429,23.0429,0,0,1-.2265-4.2118c0-1.5355-.02-3.0853.0471-4.6195.0653-1.4887.3225-3.3244-.5923-4.6194a5.503,5.503,0,0,0-3.9836-1.8149c-2.1988-.2045-5.2868.02-6.4617,2.2225a5.5861,5.5861,0,0,0-.5581,2.1286m19.52,0H67.79c.0072-2.5521,3.4269-3.2214,5.1629-1.8714,1.0525.8186.86,2.368.86,3.547a14.3568,14.3568,0,0,0-4.3024-.0127,7.1742,7.1742,0,0,0-3.1249.9977,5.0635,5.0635,0,0,0-1.7318,1.8682,4.4871,4.4871,0,0,0,.8713,5.55c2.2332,1.8385,7.2014,1.7226,8.3784-1.3829h.0453l.2265,2.2191h2.5814a16.9525,16.9525,0,0,1-.2264-4.0307c.0172-1.6918.0045-3.3809.0457-5.0723.034-1.3857.2917-3.0311-.5326-4.2571a5.4479,5.4479,0,0,0-4.042-1.9055c-2.2368-.208-5.3685.0314-6.5093,2.3131a5.5878,5.5878,0,0,0-.51,2.038M81.965,17.9585H81.92V15.6941H79.1118v1.721H78.976v13.27h2.8079V23.8913a8.8084,8.8084,0,0,1,.5552-4.1665c1.1413-2.2128,4.705-2.88,6.2218-.6341.7214,1.0681.5144,2.4925.5144,3.7137v7.88h2.9438V22.4874c0-1.6287.1417-3.3451-.7251-4.8006-1.7812-2.99-7.86-3.1328-9.329.2717m30.0264.4076h-.0453l-.0906-2.672h-2.8079L109.2732,19l.0009,11.6843h2.8079V22.85c0-1.3489.1743-2.93,1.3133-3.8261,1.1871-.9339,2.6916-.7179,4.076-.6575V15.6035c-2.254,0-4.6479.3041-5.48,2.7626m-8.1973-2.672V30.5488h2.8079V15.6941Z"/><path class="cls-1" d="M54.2936,23.212a8.8794,8.8794,0,0,1-1.63,0,11.0889,11.0889,0,0,0-2.8532.3118,3.759,3.759,0,0,0-1.8491,1.0018,2.4952,2.4952,0,0,0,.1286,3.3922c1.8333,1.73,5.1652.54,5.9088-1.6715a9.4551,9.4551,0,0,0,.2953-3.0343m19.6553,0c-1.3419.17-2.6784-.0712-4.0307.1993a5.221,5.221,0,0,0-1.5851.5447,2.4872,2.4872,0,0,0-.543,4.0286,3.8547,3.8547,0,0,0,5.84-1.7383A10.0719,10.0719,0,0,0,73.9489,23.212Z"/><path d="M4.1591,26.2463a15.4085,15.4085,0,0,0-1.63,2.9438l7.9255,3.3334,2.0833.8785.951.348.9964-.3842,2.355-.9928L24.4031,29.19a15.4711,15.4711,0,0,0-1.63-2.9438L16.387,29.0026l-1.9927.8668-.9058.3613-.8152-.3032-1.7662-.7636Z"/></svg>