<svg id="Layer_1" data-name="Layer 1" xmlns="http://www.w3.org/2000/svg" viewBox="0 0 120 40"><defs><style>.cls-1{fill:#ea4335;}.cls-2{fill:#fbbc05;}.cls-3{fill:#4285f4;}.cls-4{fill:#34a853;}</style></defs><path class="cls-1" d="M51.6558,21.0006a9.5553,9.5553,0,0,1-19.1106,0,9.5553,9.5553,0,0,1,19.1106,0Zm-4.1829,0a5.3863,5.3863,0,1,0-10.7449,0,5.3863,5.3863,0,1,0,10.7449,0Z"/><path class="cls-2" d="M72.2694,21.0006a9.5553,9.5553,0,0,1-19.1106,0,9.5553,9.5553,0,0,1,19.1106,0Zm-4.1828,0a5.3863,5.3863,0,1,0-10.7449,0,5.3863,5.3863,0,1,0,10.7449,0Z"/><path class="cls-3" d="M92.0242,12.0509V29.1516c0,7.0344-4.1485,9.9074-9.0529,9.9074a9.0707,9.0707,0,0,1-8.443-5.6129L78.17,31.93a5.2613,5.2613,0,0,0,4.7969,3.38c3.1393,0,5.0847-1.9368,5.0847-5.5828v-1.37h-.146a6.4854,6.4854,0,0,1-5.016,2.1645,9.5317,9.5317,0,0,1,0-19.0462,6.6007,6.6007,0,0,1,5.016,2.13h.146v-1.55h3.9725ZM88.3481,21.035c0-3.354-2.2375-5.8062-5.0847-5.8062A5.5079,5.5079,0,0,0,77.96,21.035a5.4669,5.4669,0,0,0,5.3038,5.7374C86.1106,26.7724,88.3481,24.3546,88.3481,21.035Z"/><path class="cls-4" d="M98.5733,2.0275V29.9418h-4.08V2.0275Z"/><path class="cls-1" d="M114.4716,24.1356,117.7182,26.3a9.4807,9.4807,0,0,1-7.9362,4.2216,9.32,9.32,0,0,1-9.4522-9.5253c0-5.6644,4.0755-9.5252,8.9841-9.5252,4.943,0,7.3608,3.9338,8.151,6.06l.4337,1.0822-12.7332,5.2736a4.8476,4.8476,0,0,0,4.6166,2.8859,5.4361,5.4361,0,0,0,4.69-2.6368Zm-9.9933-3.427,8.5117-3.5344a3.6878,3.6878,0,0,0-3.5344-2.0184A5.2247,5.2247,0,0,0,104.4783,20.7086Z"/><path class="cls-3" d="M17.1021,18.5227V14.4816H30.72a13.3917,13.3917,0,0,1,.2019,2.4392,13.3456,13.3456,0,0,1-3.5,9.4523,13.5248,13.5248,0,0,1-10.3154,4.1485,14.998,14.998,0,0,1-15.005-14.79A14.9979,14.9979,0,0,1,17.1064.941,14.0937,14.0937,0,0,1,27.2415,5.0164L24.39,7.868a10.3011,10.3011,0,0,0-7.2878-2.8859A10.61,10.61,0,0,0,6.4947,15.7313,10.61,10.61,0,0,0,17.1021,26.48,9.8947,9.8947,0,0,0,24.57,23.5215a8.3762,8.3762,0,0,0,2.19-5.0031Z"/></svg>