<svg id="Layer_1" data-name="Layer 1" xmlns="http://www.w3.org/2000/svg" viewBox="0 0 120 40"><defs><style>.cls-1{fill:#e23744;}</style></defs><path class="cls-1" d="M19.3735,13.9617l-.1052,3.3811L10.45,26.9284c3.6836,0,6.0194-.036,7.3663-.1108-.39,1.8192-.7078,3.3063-1.0276,5.536-1.7714-.15-4.5331-.187-7.2961-.187-3.08,0-5.7721.0369-7.9325.187l.072-3.4195L10.45,19.3868c-3.86,0-5.2773.0365-6.87.0739.353-1.7092.6012-3.6032.849-5.499,2.7977.1113,3.8954.1478,7.5435.1478,3.3647,0,5.276-.0365,7.4013-.1478Zm10.0232-1.0042c-5.7388,0-10.1284,5.1273-10.1284,11.26,0,4.6065,2.6556,8.1363,7.8259,8.1363,5.7729,0,10.1288-5.1283,10.1288-11.2968.0005-4.5677-2.5858-8.0993-7.8263-8.0993ZM27.6608,27.4254c-1.2754,0-2.0183-1.1534-2.0183-3.4194,0-3.3812,1.3811-6.0928,3.0819-6.0928,1.2385,0,1.9823,1.1155,1.9823,3.4176C30.7063,24.6745,29.3617,27.4254,27.6608,27.4254Zm82.85-14.7222c-5.8122,0-10.2607,5.1951-10.2607,11.4047,0,4.6691,2.6906,8.2457,7.9287,8.2457,5.8483,0,10.2617-5.1956,10.2617-11.444,0-4.6294-2.6177-8.2064-7.93-8.2064Zm-1.8677,14.7026c-1.2759,0-2.0183-1.1534-2.0183-3.4195,0-3.3811,1.3815-6.0923,3.0819-6.0923,1.238,0,1.9832,1.1146,1.9832,3.4172C111.6885,24.6563,110.3425,27.4058,108.6426,27.4058ZM67.006,19.6463c.461-3.1572.2132-6.0189-3.2922-6.0189-2.55,0-5.3125,2.1553-7.26,5.7594.4254-2.9734.1767-5.7594-3.2937-5.7594-2.62,0-5.4536,2.2661-7.4023,6.0189a19.2713,19.2713,0,0,0,.2483-5.8337,43.5807,43.5807,0,0,1-6.2681.5942,33.5672,33.5672,0,0,1-.3543,6.0572l-.8145,5.5724c-.3188,2.1932-.6732,4.72-1.0276,6.3176h6.5874c.036-.9673.2843-2.49.461-3.8276L45.1564,24.7c.46-2.4909,2.4428-5.4246,3.9655-5.4246.8855,0,.8509.8541.6027,2.4517l-.6377,4.3086c-.32,2.1932-.6728,4.72-1.0277,6.3177h6.658c.036-.9673.2483-2.49.425-3.8276L55.7084,24.7c.4609-2.491,2.4451-5.4247,3.9669-5.4247.8864,0,.8513.8163.7083,1.9318l-1.59,11.1462H64.87ZM98.8214,26.52l-.7083,4.3849a12.0406,12.0406,0,0,1-5.5252,1.4493c-4.0375,0-4.851-2.1553-4.2147-6.7253l1.0276-7.3569h-1.987l.5611-4.7622,2.1693-.1047L90.9591,9.95,97.085,7.6455l-.7784,5.7594h4.2147c-.1412.5942-.6387,3.865-.778,4.8669h-4.11l-.921,6.8c-.2478,1.7462-.1052,2.3783,1.0972,2.3783a8.1516,8.1516,0,0,0,3.0123-.9294ZM75.5837,28.8888c2.23-.2763,3.764-2.4255,4.1329-4.57l.0621-.5746a11.3767,11.3767,0,0,0-3.6854-.2131,4.2286,4.2286,0,0,0-2.915,1.4568,2.62,2.62,0,0,0-.5522,2.0019A2.5278,2.5278,0,0,0,75.5837,28.8888Zm-1.8977,3.396c-3.1469.3867-5.2194-.8625-5.8417-3.7037a6.4629,6.4629,0,0,1,1.0992-5.0394,8.6656,8.6656,0,0,1,5.8617-2.9173A16.8036,16.8036,0,0,1,80.149,20.8l.0664-.2744a5.8857,5.8857,0,0,0,.0281-1.4017c-.166-1.3469-1.2282-2.1492-3.851-1.8266a13.4127,13.4127,0,0,0-4.76,1.584l-1.2717-3.8426a17.5157,17.5157,0,0,1,6.5612-2.1052c4.8823-.5989,8.313.9579,8.7525,4.5373a11.71,11.71,0,0,1,.01,2.8762Q84.744,26.985,84.48,30.3343a17.4362,17.4362,0,0,0,.0046,1.7808l-6.0586-.0056a8.35,8.35,0,0,0,.3474-1.4152,12.55,12.55,0,0,0,.1473-1.4792,7.3606,7.3606,0,0,1-5.2344,3.07Z"/></svg>