<?xml version="1.0" encoding="iso-8859-1"?>
<!-- Generator: Adobe Illustrator 19.0.0, SVG Export Plug-In . SVG Version: 6.00 Build 0)  -->
<svg version="1.1" id="Layer_1" xmlns="http://www.w3.org/2000/svg" xmlns:xlink="http://www.w3.org/1999/xlink" x="0px" y="0px"
	 viewBox="0 0 512 512" style="enable-background:new 0 0 512 512;" xml:space="preserve">
<g>
	<g>
		<g>
			<path d="M32,352c-17.643,0-32,14.357-32,32c0,17.643,14.357,32,32,32s32-14.357,32-32C64,366.357,49.643,352,32,352z M32,394.667
				c-5.867,0-10.667-4.779-10.667-10.667c0-5.888,4.8-10.667,10.667-10.667S42.667,378.112,42.667,384
				C42.667,389.888,37.867,394.667,32,394.667z"/>
			<path d="M106.667,288C83.136,288,64,307.136,64,330.667s19.136,42.667,42.667,42.667c23.531,0,42.667-19.136,42.667-42.667
				S130.197,288,106.667,288z M106.667,352c-11.776,0-21.333-9.579-21.333-21.333s9.557-21.333,21.333-21.333
				S128,318.912,128,330.667S118.443,352,106.667,352z"/>
			<path d="M405.333,373.333c-23.531,0-42.667,19.136-42.667,42.667c0,23.531,19.136,42.667,42.667,42.667
				C428.864,458.667,448,439.531,448,416C448,392.469,428.864,373.333,405.333,373.333z M405.333,437.333
				C393.557,437.333,384,427.755,384,416c0-11.755,9.557-21.333,21.333-21.333s21.333,9.579,21.333,21.333
				C426.667,427.755,417.109,437.333,405.333,437.333z"/>
			<path d="M480,437.333c-17.643,0-32,14.357-32,32c0,17.643,14.357,32,32,32c17.643,0,32-14.357,32-32
				C512,451.691,497.643,437.333,480,437.333z M480,480c-5.867,0-10.667-4.779-10.667-10.667c0-5.888,4.8-10.667,10.667-10.667
				c5.867,0,10.667,4.779,10.667,10.667C490.667,475.221,485.867,480,480,480z"/>
			<path d="M212.267,245.333h54.4C331.349,245.333,384,192.704,384,128S331.349,10.667,266.667,10.667
				c-45.675,0-86.976,27.2-105.963,68.011C143.147,62.4,120.384,53.333,96,53.333c-52.928,0-96,43.072-96,96
				c0,52.928,43.072,96,96,96h11.733C112.683,269.653,134.251,288,160,288S207.317,269.653,212.267,245.333z M192,234.667
				c0,17.643-14.357,32-32,32s-32-14.357-32-32c0-5.888-4.779-10.667-10.667-10.667H96c-41.173,0-74.667-33.493-74.667-74.667
				S54.827,74.667,96,74.667c23.765,0,45.611,11.136,59.925,30.592c2.389,3.264,6.464,4.928,10.475,4.16
				c4.011-0.725,7.253-3.669,8.363-7.573C186.496,60.715,224.277,32,266.667,32c52.928,0,96,43.072,96,96s-43.072,96-96,96h-64
				C196.779,224,192,228.779,192,234.667z"/>
			<path d="M404.267,330.645H416c52.928,0,96-43.072,96-96c0-52.864-42.965-95.893-97.707-95.893h-0.213
				c-5.845,0.107-9.664,4.864-9.6,10.709c0.043,5.845,5.675,10.517,11.52,10.517c41.173,0,74.667,33.493,74.667,74.667
				S457.173,309.312,416,309.312h-21.333c-5.888,0-10.667,4.779-10.667,10.667c0,17.643-14.357,32-32,32c-17.643,0-32-14.357-32-32
				c0-5.888-4.779-10.667-10.667-10.667h-64c-13.717,0-27.349-3.115-40.512-9.28c-5.291-2.496-11.691-0.213-14.187,5.141
				c-2.496,5.333-0.192,11.691,5.141,14.187c16.021,7.509,32.683,11.307,49.557,11.307h54.4
				c4.949,24.32,26.517,42.667,52.267,42.667C377.749,373.333,399.317,354.987,404.267,330.645z"/>
		</g>
	</g>
</g>
<g>
</g>
<g>
</g>
<g>
</g>
<g>
</g>
<g>
</g>
<g>
</g>
<g>
</g>
<g>
</g>
<g>
</g>
<g>
</g>
<g>
</g>
<g>
</g>
<g>
</g>
<g>
</g>
<g>
</g>
</svg>
