<svg xmlns="http://www.w3.org/2000/svg" viewBox="0 0 56 56" fill="#444ce7" style="enable-background:new 0 0 56 56" xml:space="preserve"><path d="M12 24c3.309 0 6-2.691 6-6s-2.691-6-6-6-6 2.691-6 6 2.691 6 6 6zm0-10c2.206 0 4 1.794 4 4s-1.794 4-4 4-4-1.794-4-4 1.794-4 4-4zM44 24c3.309 0 6-2.691 6-6s-2.691-6-6-6-6 2.691-6 6 2.691 6 6 6zm0-10c2.206 0 4 1.794 4 4s-1.794 4-4 4-4-1.794-4-4 1.794-4 4-4zM54 26v13c0 1.654-1.346 3-3 3V31c0-2.757-2.243-5-5-5h-5a1 1 0 0 0-1 1v6h-8a1 1 0 0 0-1 1v3h-6v-3a1 1 0 0 0-1-1h-8v-6a1 1 0 0 0-1-1h-5c-2.757 0-5 2.243-5 5v11c-1.654 0-3-1.346-3-3V26H0v13a5.003 5.003 0 0 0 3 4.576V56h2V44h10v11a1 1 0 0 0 1 1h5V39h14v17h5a1 1 0 0 0 1-1V44h10v12h2V43.576A5.003 5.003 0 0 0 56 39V26h-2zM20 37h-8v-6h-2v7a1 1 0 0 0 1 1h7c.551 0 1 .449 1 1v14h-2V43a1 1 0 0 0-1-1H7V31c0-1.654 1.346-3 3-3h4v6a1 1 0 0 0 1 1h8v2h-3zm20 5a1 1 0 0 0-1 1v11h-2V40c0-.551.449-1 1-1h7a1 1 0 0 0 1-1v-7h-2v6H33v-2h8a1 1 0 0 0 1-1v-6h4c1.654 0 3 1.346 3 3v11h-9zM19 10v3a1 1 0 0 0 1.8.6l2.7-3.6H31c1.654 0 3-1.346 3-3V3c0-1.654-1.346-3-3-3H19c-1.654 0-3 1.346-3 3v4c0 1.654 1.346 3 3 3zm-1-7c0-.551.449-1 1-1h12c.551 0 1 .449 1 1v4c0 .551-.449 1-1 1h-8a1 1 0 0 0-.8.4L21 10V9a1 1 0 0 0-1-1h-1c-.551 0-1-.449-1-1V3z"/><path d="M20 4h10v2H20zM27 25h6v2h-6z"/><path d="M26 21c-1.654 0-3 1.346-3 3v4c0 1.654 1.346 3 3 3h8c1.654 0 3-1.346 3-3v-.697l1.832-2.748A.998.998 0 0 0 38 23h-1.171A3.006 3.006 0 0 0 34 21h-8zm9 3a1 1 0 0 0 1 1h.131l-.963 1.445A1.006 1.006 0 0 0 35 27v1c0 .551-.449 1-1 1h-8c-.551 0-1-.449-1-1v-4c0-.551.449-1 1-1h8c.551 0 1 .449 1 1zM23 16h2v2h-2zM27 16h2v2h-2zM31 16h2v2h-2z"/></svg>