<svg id="Layer_1" data-name="Layer 1" xmlns="http://www.w3.org/2000/svg" viewBox="0 0 22 22"><defs><style>.cls-1{fill:#444ce7;}</style></defs><path class="cls-1" d="M9.6494,19.364a.7725.7725,0,1,0,.772.7709A.7721.7721,0,0,0,9.6494,19.364Z"/><path class="cls-1" d="M11,1.0911a6.167,6.167,0,0,0-6.16,6.16.7343.7343,0,0,0,1.4685,0A4.6914,4.6914,0,1,1,11,11.943a.7218.7218,0,0,0-.0753.0038A2.0841,2.0841,0,0,0,8.919,13.9525a.72.72,0,0,0-.0038.0753v3.0273a.7343.7343,0,1,0,1.4685,0V14.0278A.6171.6171,0,0,1,11,13.4115a6.16,6.16,0,0,0,0-12.32Z"/></svg>