<svg xmlns="http://www.w3.org/2000/svg" width="24" height="24" viewBox="0 0 496 496" fill="#444ce7"><path d="m407.312 348 14.344-14.344-11.312-11.312L396 336.688l-15.096-15.096C393.032 299.76 400 274.688 400 248c0-2.28-.24-4.496-.344-6.752C437.248 232.408 464 199.128 464 160h-16c0 30.896-20.624 57.32-49.904 65.192C387.032 152.184 324.04 96 248 96c-2.28 0-4.496.24-6.752.344C232.408 58.752 199.128 32 160 32v16c30.896 0 57.32 20.624 65.192 49.904C152.184 108.968 96 171.96 96 248c0 2.28.24 4.496.344 6.752C58.752 263.592 32 296.872 32 336h16c0-30.896 20.624-57.32 49.904-65.192C108.968 343.816 171.96 400 248 400c26.688 0 51.76-6.968 73.584-19.096L336.68 396l-14.344 14.344 11.312 11.312 14.344-14.344L424.4 483.72c7.92 7.92 18.456 12.28 29.656 12.28C477.184 496 496 477.184 496 454.064c0-11.2-4.36-21.736-12.28-29.656L407.312 348zM248 112c68.24 0 124.728 50.56 134.384 116.16l-15.768 2.624C358.232 172.76 308.312 128 248 128c-.408 0-.808.056-1.216.064l-2.64-15.864c1.296-.04 2.552-.2 3.856-.2zm0 32c57.344 0 104 46.656 104 104s-46.656 104-104 104-104-46.656-104-104 46.656-104 104-104zM112 248c0-68.24 50.56-124.728 116.16-134.384l2.624 15.768C172.76 137.768 128 187.688 128 248c0 .408.056.808.064 1.216l-15.864 2.64c-.04-1.296-.2-2.552-.2-3.856zm136 136c-68.24 0-124.728-50.56-134.384-116.16l15.768-2.624C137.768 323.24 187.688 368 248 368c66.168 0 120-53.832 120-120 0-.408-.056-.808-.064-1.216l15.864-2.64c.04 1.296.2 2.552.2 3.856 0 74.992-61.008 136-136 136zm87.44-11.872a153.05 153.05 0 0 0 36.688-36.688l12.56 12.56L348 384.688l-12.56-12.56zM454.064 480c-6.928 0-13.448-2.696-18.344-7.592L359.312 396 396 359.312l76.408 76.408c4.896 4.896 7.592 11.416 7.592 18.344C480 468.368 468.368 480 454.064 480z"/><path d="M424 144c39.704 0 72-32.296 72-72S463.704 0 424 0s-72 32.296-72 72 32.296 72 72 72zm24-21.48c-7.288 3.472-15.408 5.48-24 5.48s-16.712-2.008-24-5.48V112c0-13.232 10.768-24 24-24s24 10.768 24 24v10.52zM408 56c0-8.824 7.176-16 16-16s16 7.176 16 16-7.176 16-16 16-16-7.176-16-16zm16-40c30.872 0 56 25.128 56 56 0 15.256-6.152 29.088-16.08 39.2a39.975 39.975 0 0 0-17.568-32.36C452.288 73.032 456 64.952 456 56c0-17.648-14.352-32-32-32s-32 14.352-32 32c0 8.952 3.712 17.032 9.648 22.84a39.945 39.945 0 0 0-17.568 32.36C374.152 101.088 368 87.256 368 72c0-30.872 25.128-56 56-56zM72 144c39.704 0 72-32.296 72-72S111.704 0 72 0 0 32.296 0 72s32.296 72 72 72zm24-21.48c-7.288 3.472-15.408 5.48-24 5.48s-16.712-2.008-24-5.48V112c0-13.232 10.768-24 24-24s24 10.768 24 24v10.52zM56 56c0-8.824 7.176-16 16-16s16 7.176 16 16-7.176 16-16 16-16-7.176-16-16zm16-40c30.872 0 56 25.128 56 56 0 15.256-6.152 29.088-16.08 39.2a39.975 39.975 0 0 0-17.568-32.36C100.288 73.032 104 64.952 104 56c0-17.648-14.352-32-32-32S40 38.352 40 56c0 8.952 3.712 17.032 9.648 22.84A39.987 39.987 0 0 0 32.08 111.2C22.152 101.088 16 87.256 16 72c0-30.872 25.128-56 56-56zm0 336c-39.704 0-72 32.296-72 72s32.296 72 72 72 72-32.296 72-72-32.296-72-72-72zm24 122.52c-7.288 3.472-15.408 5.48-24 5.48s-16.712-2.008-24-5.48V464c0-13.232 10.768-24 24-24s24 10.768 24 24v10.52zM56 408c0-8.824 7.176-16 16-16s16 7.176 16 16-7.176 16-16 16-16-7.176-16-16zm55.92 55.2a39.975 39.975 0 0 0-17.568-32.36C100.288 425.032 104 416.952 104 408c0-17.648-14.352-32-32-32s-32 14.352-32 32c0 8.952 3.712 17.032 9.648 22.84A39.987 39.987 0 0 0 32.08 463.2C22.152 453.088 16 439.256 16 424c0-30.872 25.128-56 56-56s56 25.128 56 56c0 15.256-6.152 29.088-16.08 39.2zM160 232v56h176v-88h-48v72h-16V168h-48v104h-16v-40h-48zm144-16h16v56h-16v-56zm-64-32h16v88h-16v-88zm-48 88h-16v-24h16v24z"/></svg>