<svg id="Layer_1" data-name="Layer 1" xmlns="http://www.w3.org/2000/svg" viewBox="0 0 22 22"><defs><style>.cls-1{fill:#444ce7;}</style></defs><path class="cls-1" d="M10.5162,10.5733a.3088.3088,0,1,0-.6175,0,1.7014,1.7014,0,0,0,1.39,1.67v.3639a.3088.3088,0,1,0,.6175,0v-.3639a1.6985,1.6985,0,0,0,0-3.3406V6.7567a1.0832,1.0832,0,0,1,.7727,1.0362.3087.3087,0,1,0,.6174,0,1.7014,1.7014,0,0,0-1.39-1.67V5.7587a.3088.3088,0,1,0-.6175,0v.3639a1.6985,1.6985,0,0,0,0,3.3406V11.61A1.0832,1.0832,0,0,1,10.5162,10.5733Zm1.39-1.0363a1.0813,1.0813,0,0,1,0,2.0726V9.537Zm-1.39-1.7441a1.083,1.083,0,0,1,.7727-1.0362V8.8292A1.0831,1.0831,0,0,1,10.5162,7.7929Z"/><path class="cls-1" d="M15.3979,18.0439a.3121.3121,0,0,0,.0667-.3363.3209.3209,0,0,0-.0667-.1.3089.3089,0,1,0,0,.4367Z"/><path class="cls-1" d="M16.8045,1.5112H6.3907A1.5056,1.5056,0,0,0,4.8868,3.0151V17.8258A1.5034,1.5034,0,0,0,6.3906,19.33h.5751V20.18a.3088.3088,0,0,0,.494.247l.8027-.6021.8028.6021a.3088.3088,0,0,0,.494-.247V19.33h7.2453a.3087.3087,0,0,0,.3087-.3087V1.82A.3087.3087,0,0,0,16.8045,1.5112Zm-11.3,1.5039a.8869.8869,0,0,1,.5777-.83V16.3536a1.4969,1.4969,0,0,0-.5777.2581ZM8.9416,19.5626l-.494-.37a.3089.3089,0,0,0-.37,0l-.494.37V18.1343H8.9416Zm7.5541-2.0456h-.34a.3088.3088,0,1,0,0,.6175h.34v.5776H9.5591v-.5778H14.171a.3088.3088,0,1,0,0-.6175h-7.78a.3088.3088,0,0,0,0,.6175h.5751v.5778H6.3906a.8865.8865,0,0,1,0-1.773H16.4957Zm0-1.1954H6.7V2.1286h9.7962Z"/></svg>