<svg xmlns="http://www.w3.org/2000/svg" width="24" height="24" viewBox="0 0 512 512" fill="#444ce7"><path d="M495.974 61.608a8.529 8.529 0 0 0-6.887-5.808l-40.425-5.884-18.075-36.625c-2.883-5.833-12.425-5.833-15.308 0l-18.075 36.625-40.426 5.884a8.535 8.535 0 0 0-6.888 5.808 8.52 8.52 0 0 0 2.163 8.742l29.246 28.517-6.904 40.258a8.54 8.54 0 0 0 3.396 8.342 8.51 8.51 0 0 0 8.988.65l36.154-19.008 36.154 19.008a8.514 8.514 0 0 0 8.988-.65 8.54 8.54 0 0 0 3.396-8.342l-6.904-40.258 29.246-28.517a8.52 8.52 0 0 0 2.161-8.742zm-46.537 28.167a8.545 8.545 0 0 0-2.454 7.55l4.742 27.642-24.821-13.05c-1.242-.658-2.608-.983-3.971-.983s-2.729.325-3.971.983l-24.821 13.05 4.742-27.642a8.545 8.545 0 0 0-2.454-7.55L376.345 70.2l27.754-4.042a8.532 8.532 0 0 0 6.425-4.667l12.408-25.142 12.408 25.142a8.532 8.532 0 0 0 6.425 4.667L469.52 70.2l-20.083 19.575z"/><path d="M467.874 165.025a8.53 8.53 0 0 0-8.533 8.533v142.2c0 4.692-2.787 9.575-7.525 9.575H42.333c-4.737 0-9.658-4.9-9.658-9.617v-238.9c0-4.717 4.888-7.483 9.587-7.483h281.613a8.53 8.53 0 0 0 8.533-8.533 8.53 8.53 0 0 0-8.533-8.533h-60.8V8.533A8.53 8.53 0 0 0 254.542 0a8.53 8.53 0 0 0-8.533 8.533v43.733H42.262c-14.108 0-26.654 10.425-26.654 24.55v238.9c0 14.125 12.575 26.683 26.725 26.683h192.675L121.574 455.3c-3.333 3.333-3.333 8.467 0 11.8 1.667 1.667 3.85 2.367 6.033 2.367 2.183 0 3.833-.9 5.5-2.567l112.9-113.5v150.067A8.53 8.53 0 0 0 254.54 512a8.53 8.53 0 0 0 8.533-8.533V353.4L377.04 466.833c1.667 1.667 4.117 2.5 6.3 2.5s4.5-.833 6.167-2.5c3.333-3.333 3.4-8.2.067-11.533L276.208 342.4h175.609c14.15 0 24.592-12.542 24.592-26.642v-142.2a8.533 8.533 0 0 0-8.535-8.533z"/><path d="M323.874 103.467h-93.867a8.53 8.53 0 0 0-8.533 8.533 8.53 8.53 0 0 0 8.533 8.533h93.867a8.53 8.53 0 0 0 8.533-8.533 8.53 8.53 0 0 0-8.533-8.533zm93.867 85.333h-51.2a8.53 8.53 0 0 0-8.533 8.533 8.53 8.53 0 0 0 8.533 8.533h51.2a8.53 8.53 0 0 0 8.533-8.533 8.531 8.531 0 0 0-8.533-8.533zm0 42.667h-51.2a8.53 8.53 0 0 0-8.533 8.533 8.53 8.53 0 0 0 8.533 8.533h51.2a8.53 8.53 0 0 0 8.533-8.533 8.53 8.53 0 0 0-8.533-8.533zm0 42.666h-51.2c-4.713 0-8.533 3.817-8.533 8.533s3.821 8.533 8.533 8.533h51.2c4.713 0 8.533-3.817 8.533-8.533s-3.821-8.533-8.533-8.533zm-93.867-128h-93.867a8.53 8.53 0 0 0-8.533 8.533 8.53 8.53 0 0 0 8.533 8.533h93.867a8.53 8.53 0 0 0 8.533-8.533 8.53 8.53 0 0 0-8.533-8.533zm0 42.667h-93.867a8.53 8.53 0 0 0-8.533 8.533 8.53 8.53 0 0 0 8.533 8.533h93.867a8.53 8.53 0 0 0 8.533-8.533 8.53 8.53 0 0 0-8.533-8.533zm0 42.667h-93.867a8.53 8.53 0 0 0-8.533 8.533 8.53 8.53 0 0 0 8.533 8.533h93.867a8.53 8.53 0 0 0 8.533-8.533 8.53 8.53 0 0 0-8.533-8.533zm0 42.666h-93.867c-4.713 0-8.533 3.817-8.533 8.533s3.821 8.533 8.533 8.533h93.867c4.713 0 8.533-3.817 8.533-8.533s-3.82-8.533-8.533-8.533zm-186.808-90.6c-18.487-2.308-26.592-4.067-26.592-21.4 0-9.25 2.567-15.508 7.779-19.133 12.875-8.925 39.75-1.917 49.017 1.525 4.421 1.658 9.337-.592 10.983-5.008 1.65-4.408-1.113-9.317-5.521-10.975-2.294-.858-14.192-5.171-29.125-6.542v-18.533H126.54v18.635c-6.4.892-12.864 2.964-18.492 6.864-6.891 4.775-14.842 14.408-14.842 33.167 0 33.133 25.171 36.267 41.742 38.333 18.487 2.308 26.725 4.067 26.725 21.4 0 9.25-2.5 15.508-7.712 19.133-12.867 8.95-39.708 1.925-48.983-1.525-4.413-1.633-9.321.592-10.967 5.008-1.65 4.408.054 9.317 4.462 10.975 2.294.86 15.267 5.154 28.067 6.527v20.681h17.067v-20.846c8.533-.892 13.935-2.89 19.558-6.787 6.892-4.775 15.375-14.408 15.375-33.167.001-33.132-24.903-36.265-41.474-38.332z"/></svg>