<svg xmlns="http://www.w3.org/2000/svg" width="24" height="24" viewBox="0 0 87.953 87.953" fill="#444ce7"><path d="M86.648 80.072 84.179 65.12c-.659-4.012-4.28-7.856-8.256-8.736l-16.649-3.733c2.308-3.013 4.166-6.531 5.551-10.067 2.462-.848 4.946-3.006 5.69-5.837.991-3.765.043-7.136-2.287-8.625l.072-5.404C68.461 9.726 58.669.17 45.012.002s-23.674 9.14-23.835 22.135l-.068 5.404c-2.358 1.421-3.4 4.781-2.498 8.568.673 2.86 3.131 5.082 5.576 5.991 1.27 3.557 3.028 7.122 5.236 10.189l-2.061.404c-1.714-5.075-6.463-8.765-12.107-8.765-7.079 0-12.827 5.751-12.827 12.823 0 2.462.734 4.746 1.943 6.703-.068.222-.147.447-.197.676L1.336 79.02c-.397 2.083.075 4.083 1.328 5.615s3.117 2.398 5.243 2.43l71.978.888h.093c2.104 0 3.955-.823 5.229-2.326 1.273-1.504 1.788-3.479 1.441-5.555zM5.995 56.745c0-5.096 4.148-9.248 9.248-9.248 3.908 0 7.24 2.448 8.589 5.887.064.147.089.301.143.455.115.361.254.712.329 1.095.104.523.15 1.063.165 1.603 0 .075.021.14.021.215 0 .483-.072.956-.14 1.417-.686 4.42-4.494 7.831-9.107 7.831-2.852 0-5.375-1.321-7.075-3.361a8.86 8.86 0 0 1-.97-1.417 8.966 8.966 0 0 1-.734-1.711c-.283-.884-.469-1.8-.469-2.766zm21.982-.902 3.747-.741c2.462 2.648 5.368 4.663 8.686 5.587l-.501.44 2.766 2.598-2.115 8.375-12.573-14.638c.014-.236.075-.472.075-.712.008-.315-.064-.608-.085-.909zm19.69 16.688-1.986-8.772 2.838-2.523-.476-.447c3.335-.83 6.292-2.774 8.836-5.368l4.846 1.084-14.058 16.026zm-20.9-33.412c-1.306.258-4.291-1.414-4.857-3.801-.58-2.434.029-4.692 1.356-5.046.39-.093.798-.014 1.195.215l.104-8.303c.147-11.739 9.262-18.911 20.396-18.771 11.141.129 20.074 7.53 19.927 19.272l-.097 8.299c.404-.211.82-.283 1.202-.175 1.313.379 1.865 2.663 1.231 5.075-.623 2.355-3.629 3.951-4.921 3.683-1.335 3.901-3.636 8.593-6.768 12.258-.404.476-.823.931-1.267 1.371a21.01 21.01 0 0 1-1.453 1.321c-2.319 1.929-4.985 3.192-7.952 3.307-.2.007-.379.039-.58.039-.222 0-.422-.047-.644-.061-2.985-.208-5.612-1.517-7.877-3.5-.494-.422-.97-.87-1.421-1.356a25.847 25.847 0 0 1-1.224-1.406c-2.979-3.699-5.115-8.416-6.35-12.421zM79.92 84.728l-13.918-.175.089-7.548a1.602 1.602 0 0 0-1.585-1.628h-.021c-.88 0-1.6.705-1.61 1.585l-.093 7.551-37.703-.469.089-7.551a1.61 1.61 0 0 0-1.585-1.628c-.984-.021-1.621.701-1.636 1.589l-.089 7.548-13.912-.172c-1.16-.014-2.151-.455-2.788-1.245-.644-.784-.873-1.84-.659-2.978L6.997 66.48c2.237 1.886 5.093 3.074 8.246 3.074 5.418 0 10.039-3.382 11.91-8.135L43.036 79.9a1.62 1.62 0 0 0 1.217.565h.007c.465 0 .905-.204 1.21-.551l19.841-22.618 9.913 2.215c2.691.601 5.332 3.403 5.773 6.116L83.47 80.59c.19 1.127-.072 2.169-.719 2.938-.651.773-1.632 1.188-2.766 1.188v1.6l-.065-1.588zM9.896 58.534H7.785v-3.578h5.669v-5.669h3.578v5.669h5.669v3.579h-5.669v5.669h-3.578v-5.669H9.896z"/></svg>