<svg id="Layer_1" data-name="Layer 1" xmlns="http://www.w3.org/2000/svg" viewBox="0 0 1634.2379 248.6448"><defs><style>.cls-1{font-size:222.8755px;font-family:Optima-Regular, Optima;}.cls-1,.cls-2{fill:#fff;}</style></defs><text class="cls-1" transform="translate(463.7651 176.068)">AlphaValley</text><path class="cls-2" d="M270.6472,192.9658q-15.9782-40.9745-32.1259-81.9565-16.14-40.9744-35.2475-82.997,4.509.6936,8.6866,1.21a69.931,69.931,0,0,0,8.679.5241,56.625,56.625,0,0,0,7.6383-.5241c2.5436-.3469,5.0949-.7477,7.6384-1.21q10.7639,34.3727,23.447,67.543,12.6715,33.17,28.3028,67.89,6.937-14.2323,13.7121-30.7308,6.7752-16.4868,13.55-34.207,6.7636-17.7123,13.1957-35.5943,6.4167-17.8858,12.6715-34.9007a41.2468,41.2468,0,0,0,10.7678,1.7342,41.2951,41.2951,0,0,0,10.7677-1.7342q-18.753,42.0148-36.8122,82.997-18.0593,40.986-32.9892,81.9565a81.6194,81.6194,0,0,0-10.7677-.6937A89.5492,89.5492,0,0,0,270.6472,192.9658Z"/><path class="cls-2" d="M146.629,31.2035h28.7471v9.5824l-32.1967,68.2264c2.039,38.7155,10.9769,65.5894,23.7642,67.46,3.0483.4459,7.9813-.2854,14.9485-7.2826l8.8039,10.7322c-17.558,14.3585-37.77,19.2107-49.8164,11.4989-7.7667-4.9722-12.1878-15.1987-14.5652-20.6979a67.3619,67.3619,0,0,1-5.3662-22.6144,78.4465,78.4465,0,0,1-16.4816,26.064c-6.7789,7.0655-22.0587,23.0294-42.929,21.8478-22.4963-1.2737-36.08-21.59-39.9017-27.3065C7.9769,148.2842,9.7068,126.4246,10.973,110.423c1.4786-18.6836,5.2815-40.1311,21.8175-60.4381,14.8177-18.1968,38.8262-26.03,60.9438-19.9313a58.6182,58.6182,0,0,1,40.9288,42.3383Q140.646,51.7976,146.629,31.2035Z"/><path class="cls-2" d="M54.227,58.3276C60.19,48.75,68.9341,42.2563,81.7042,42.8911c19.1426.9518,27.1966,18.7661,32.18,34.7517,7.3855,23.69,6.3049,48.7253-6.1866,70.4766-4.4308,7.7152-11.9837,19.2436-20.3066,23.4375-16.425,8.2765-33.2194-.662-39.86-16.5734-5.8255-13.9574-6.1673-30.0176-5.6354-44.916C42.4173,95.457,44.9783,73.1823,54.227,58.3276Z"/></svg>