<svg id="Layer_1" data-name="Layer 1" xmlns="http://www.w3.org/2000/svg" viewBox="0 0 1634.2379 248.6448"><defs><style>.cls-1{font-size:222.8755px;font-family:Optima-Regular, Optima;}.cls-1,.cls-2{fill:#fff;}</style></defs><text class="cls-1" transform="translate(461.6734 188.343)">AlphaValley</text><path class="cls-2" d="M268.5556,205.2408q-15.9782-40.9743-32.1259-81.9565Q220.29,82.31,201.1821,40.2873q4.5092.6937,8.6867,1.21a69.9109,69.9109,0,0,0,8.6789.5242,56.6114,56.6114,0,0,0,7.6384-.5242c2.5435-.3468,5.0948-.7476,7.6383-1.21q10.764,34.3726,23.447,67.543,12.6715,33.17,28.3029,67.89,6.9369-14.2323,13.712-30.7307,6.7752-16.4869,13.55-34.207Q319.6,93.07,326.0322,75.188q6.4167-17.8859,12.6716-34.9007a41.2431,41.2431,0,0,0,10.7677,1.7343,41.2915,41.2915,0,0,0,10.7677-1.7343q-18.753,42.015-36.8122,82.997-18.0593,40.986-32.9891,81.9565a81.6209,81.6209,0,0,0-10.7678-.6937A89.5464,89.5464,0,0,0,268.5556,205.2408Z"/><path class="cls-2" d="M144.5373,43.4785h28.7471v9.5824l-32.1967,68.2265c2.039,38.7154,10.9769,65.5894,23.7642,67.46,3.0484.4459,7.9813-.2854,14.9485-7.2826l8.8039,10.7323c-17.558,14.3584-37.77,19.2107-49.8164,11.4988-7.7667-4.9722-12.1878-15.1986-14.5652-20.6979a67.3583,67.3583,0,0,1-5.3661-22.6144,78.448,78.448,0,0,1-16.4817,26.0641c-6.7789,7.0655-22.0586,23.0294-42.929,21.8478-22.4963-1.2737-36.08-21.59-39.9016-27.3065C5.8852,160.5592,7.6151,138.7,8.8814,122.6981,10.36,104.0144,14.1628,82.567,30.6988,62.26,45.5165,44.0631,69.5251,36.23,91.6426,42.3286a58.6185,58.6185,0,0,1,40.9288,42.3383Q138.5543,64.0728,144.5373,43.4785ZM39.8039,122.3425c-.532,14.8984-.19,30.9586,5.6353,44.916C52.08,183.17,68.8747,192.1084,85.3,183.8319c8.3229-4.1939,15.8758-15.7223,20.3066-23.4374,12.4916-21.7513,13.5721-46.7867,6.1866-70.4766-4.9838-15.9857-13.0378-33.8-32.18-34.7517-12.77-.6349-21.5138,5.8584-27.4771,15.4364C42.8866,85.4574,40.3256,107.7321,39.8039,122.3425Z"/></svg>