<svg id="Layer_1" data-name="Layer 1" xmlns="http://www.w3.org/2000/svg" viewBox="0 0 22 22"><defs><style>.cls-1{fill:#444ce7;}</style></defs><path class="cls-1" d="M18.35,5.4874H14.6751V3.9561h2.7563a.2893.2893,0,0,0,.3062-.3063A1.8047,1.8047,0,0,0,15.9,1.8123H3.65A1.7769,1.7769,0,0,0,1.8123,3.65V19.8814a.2894.2894,0,0,0,.3063.3063h14.7a.2893.2893,0,0,0,.3062-.3063V7.6312h2.7563a.2894.2894,0,0,0,.3063-.3063A1.8048,1.8048,0,0,0,18.35,5.4874ZM17.0945,3.3436H14.7057a1.8747,1.8747,0,0,1,.1531-.3675l.0307-.0306a.2386.2386,0,0,1,.1225-.1225l.0612-.0613a.4249.4249,0,0,1,.1225-.0919c.0306,0,.0306-.0306.0613-.0306a.2338.2338,0,0,1,.1531-.0613c.0306,0,.0306-.0306.0612-.0306.0613-.0306.1225-.0306.1532-.0612h.0612c.0613,0,.1532-.0307.245-.0307A1.154,1.154,0,0,1,17.0945,3.3436ZM2.4248,3.65A1.1722,1.1722,0,0,1,3.65,2.4248H14.5219a1.8262,1.8262,0,0,0-.4593,1.225V5.4874H6.1A1.7769,1.7769,0,0,0,4.2624,7.3249v12.25H2.4248ZM16.5126,19.5752H4.8749V7.3249A1.1722,1.1722,0,0,1,6.1,6.1H16.972a1.8263,1.8263,0,0,0-.4594,1.225Zm.6432-12.5565a1.8687,1.8687,0,0,1,.1531-.3675l.0306-.0307a.24.24,0,0,1,.1225-.1225l.0613-.0612a.4217.4217,0,0,1,.1225-.0919c.0306,0,.0306-.0306.0612-.0306A.2341.2341,0,0,1,17.86,6.253c.0307,0,.0307-.0306.0613-.0306.0612-.0306.1225-.0306.1531-.0613h.0613c.0612,0,.1531-.0306.245-.0306a1.2221,1.2221,0,0,1,1.1944.9188H17.1558Z"/><path class="cls-1" d="M15.2876,12.5313H13.7563v.6125h1.225v2.45h-3.675A.2894.2894,0,0,0,11,15.9v2.1438h-.9188V16.5126a.2893.2893,0,0,0-.3062-.3062H6.4062v-.6126H5.7936V18.35a.2893.2893,0,0,0,.3063.3062h9.1877a.2893.2893,0,0,0,.3062-.3062V12.8375A.2893.2893,0,0,0,15.2876,12.5313ZM6.4062,16.8189H9.4687v1.225H6.4062Zm5.2063,1.225V16.2064h3.3688v1.8375Z"/><path class="cls-1" d="M6.4062,13.1438h5.5126v-.6125H6.1a.2893.2893,0,0,0-.3063.3062v.9188h.6126Z"/><path class="cls-1" d="M13.1438,14.6751V11.4288l.3981.3981.4288-.4288-.9188-.9187a.296.296,0,0,0-.4287,0l-.9188.9187.4287.4288.3982-.3981v2.94H5.4874v.6125h7.35A.2893.2893,0,0,0,13.1438,14.6751Z"/><rect class="cls-1" x="12.225" y="16.8189" width="0.6125" height="0.6125"/><rect class="cls-1" x="13.7563" y="16.8189" width="0.6125" height="0.6125"/><rect class="cls-1" x="6.0999" y="7.3249" width="1.8375" height="0.6125"/><rect class="cls-1" x="6.0999" y="8.5499" width="4.9001" height="0.6125"/><rect class="cls-1" x="10.3875" y="3.0373" width="2.4501" height="0.6125"/><rect class="cls-1" x="9.1625" y="4.2624" width="3.6751" height="0.6125"/><rect class="cls-1" x="13.7563" y="7.3249" width="0.6125" height="0.6125"/><rect class="cls-1" x="14.9813" y="7.3249" width="0.6125" height="0.6125"/><rect class="cls-1" x="13.7563" y="8.5499" width="0.6125" height="0.6125"/><rect class="cls-1" x="14.9813" y="8.5499" width="0.6125" height="0.6125"/></svg>