<svg id="Layer_1" data-name="Layer 1" xmlns="http://www.w3.org/2000/svg" viewBox="0 0 22 22"><defs><style>.cls-1{fill:#444ce7;}</style></defs><path class="cls-1" d="M20.6641,3.913V1.3359H1.3359V3.913H1.98V16.7985H1.658a.3221.3221,0,1,0,0,.6442h9.02v.6443a.3208.3208,0,0,0,.0087.0432,1.2885,1.2885,0,1,0,.6268,0,.3208.3208,0,0,0,.0087-.0432v-.6443h9.02a.3221.3221,0,0,0,0-.6442H20.02V3.913Zm-9.02,15.4625A.6443.6443,0,1,1,11,18.7313.6449.6449,0,0,1,11.6443,19.3755ZM1.98,1.98H20.02V3.2687H1.98ZM19.3755,16.7985H2.6245V3.913h16.751Z"/><path class="cls-1" d="M12.9328,15.832a.3218.3218,0,0,0,.3222-.3221v-.9664a.3222.3222,0,0,0-.6443,0V15.51A.3218.3218,0,0,0,12.9328,15.832Z"/><path class="cls-1" d="M14.2214,12.9328a.3219.3219,0,0,0-.3222.3222V15.51a.3222.3222,0,0,0,.6443,0V13.255A.3219.3219,0,0,0,14.2214,12.9328Z"/><path class="cls-1" d="M15.51,13.5771a.3218.3218,0,0,0-.3221.3221V15.51a.3221.3221,0,0,0,.6442,0V13.8992A.3218.3218,0,0,0,15.51,13.5771Z"/><path class="cls-1" d="M16.7985,11.3221a.3219.3219,0,0,0-.3222.3222V15.51a.3222.3222,0,0,0,.6443,0V11.6443A.3219.3219,0,0,0,16.7985,11.3221Z"/><path class="cls-1" d="M18.087,12.6107a.3218.3218,0,0,0-.3221.3221V15.51a.3221.3221,0,1,0,.6442,0V12.9328A.3218.3218,0,0,0,18.087,12.6107Z"/><path class="cls-1" d="M4.5573,14.2214H7.7786a.3222.3222,0,1,0,0-.6443H4.5573a.3222.3222,0,1,0,0,.6443Z"/><path class="cls-1" d="M9.3893,14.8656H4.5573a.3222.3222,0,1,0,0,.6443h4.832a.3222.3222,0,1,0,0-.6443Z"/><path class="cls-1" d="M7.6176,12.2885a3.685,3.685,0,0,0,2.425-.9106.2725.2725,0,0,0,.0284-.0187c.0051-.0052.0067-.0119.0116-.0174a3.6934,3.6934,0,0,0,1.2238-2.44l.0061-.0051.0064-.1418c.0013-.0283-.0013-.056-.0006-.0844s.0038-.0573.0038-.0866c0-.0393-.0048-.0777-.0058-.1166-.0019-.0571-.0041-.1141-.0087-.1708-.0058-.077-.0151-.1527-.0257-.228-.0065-.0458-.0129-.0915-.021-.1369-.0151-.0848-.0341-.1679-.0547-.2507-.0094-.037-.0181-.0744-.0287-.1111-.0245-.0854-.0528-.1691-.0831-.2519-.0129-.0355-.0251-.0712-.039-.1063-.0309-.0777-.066-.153-.1021-.2278-.0193-.04-.0374-.08-.058-.12-.0332-.0628-.07-.1231-.1063-.1836-.0293-.049-.0573-.0986-.0889-.1463-.0284-.0422-.06-.0821-.09-.1234-.0444-.0612-.0876-.123-.1359-.1816l-.0006-.0007c-.0751-.0911-.1534-.18-.2375-.2638-.08-.08-.1646-.154-.2509-.2258L9.9711,5.726c-.0548-.0451-.1128-.0854-.17-.1269-.0457-.0335-.09-.0683-.1378-.1-.0419-.0277-.0851-.0519-.1279-.078C9.4679,5.38,9.4,5.3394,9.33,5.3027c-.0309-.0161-.0624-.03-.0937-.0454-.0844-.0413-.17-.08-.2577-.115-.0245-.01-.0493-.0181-.0738-.0271-.094-.0351-.1891-.067-.2864-.0944-.0254-.0071-.0509-.0132-.0766-.02-.0938-.0242-.1885-.0454-.2848-.0622-.0354-.0061-.0712-.0109-.1069-.0164C8.066,4.91,7.9816,4.9,7.8956,4.8939c-.0512-.0039-.1025-.0058-.1537-.0077-.0412-.002-.0821-.0068-.1243-.0068-.03,0-.059.0039-.0886.0045-.0277.0007-.0551-.0019-.0825-.0006l-.1272.0077-.0033.0035a3.7031,3.7031,0,0,0,.3016,7.394Zm2.2263-1.6116-1.61-1.61H10.636A3.0467,3.0467,0,0,1,9.8439,10.6769Zm-1.9693-5.14c.0335.0025.067.0058.1.01q.11.0131.2168.0332c.0216.0042.0432.0077.0648.0123.0876.0186.1742.04.259.0666l.0157.0045A3.0734,3.0734,0,0,1,10.5387,7.67l.0045.0158c.0261.0847.048.171.0667.259.0045.0216.008.0431.0122.0647.0136.0715.0245.1437.0332.2168.0039.0332.0068.0667.01.1.0026.0316.0032.0641.0048.096H7.7786V5.5317C7.8105,5.5337,7.8427,5.534,7.8746,5.5366Zm-.74.029V8.7331l0,.01,0,.0045.0113.32h.1768L9.3558,11.1A3.058,3.058,0,1,1,7.1344,5.5656Z"/><path class="cls-1" d="M13.8992,7.4565h2.5771a.3222.3222,0,1,0,0-.6443H13.8992a.3222.3222,0,0,0,0,.6443Z"/><path class="cls-1" d="M17.8583,6.9056a.3221.3221,0,1,0,.4574,0A.3368.3368,0,0,0,17.8583,6.9056Z"/><path class="cls-1" d="M17.1206,5.8458h.9664a.3222.3222,0,0,0,0-.6443h-.9664a.3222.3222,0,0,0,0,.6443Z"/><path class="cls-1" d="M13.8992,5.8458h.6443a.3222.3222,0,0,0,0-.6443h-.6443a.3222.3222,0,0,0,0,.6443Z"/><path class="cls-1" d="M15.832,5.8458a.3189.3189,0,0,0,.3222-.3221.3317.3317,0,0,0-.0934-.2287.3235.3235,0,1,0-.2288.5508Z"/></svg>