<svg id="Layer_1" data-name="Layer 1" xmlns="http://www.w3.org/2000/svg" viewBox="0 0 22 22"><defs><style>.cls-1{fill:#444ce7;}</style></defs><path class="cls-1" d="M21.1829,8.6219,14.7222,2.1611a1.0527,1.0527,0,0,0-1.4874.0015l-.9944.9942a1.05,1.05,0,0,0-.0014,1.4874l.291.291a11.9167,11.9167,0,0,0-1.4.6659c-.5756-.4385-1.0439-.7861-1.335-1a1.0506,1.0506,0,0,0-.0367-1.4443l-.9944-.9945a1.0539,1.0539,0,0,0-1.4873-.0012L.8159,8.622a1.053,1.053,0,0,0,.0015,1.4874l.9944.9946a1.0454,1.0454,0,0,0,1.4426.0374c.2313.3182.6109.8346,1.0627,1.429l-1.016,1.0158a.3511.3511,0,0,0,0,.4967l1.2418,1.2418h0l.4966.4966h0l.745.745.4966.4966.9935.9935h0l.4968.4966,1.49,1.49a.3511.3511,0,0,0,.4967,0l1.0857-1.0855c.66.4929,1.1417.8376,1.1936.8746a.3509.3509,0,0,0,.4524-.0374l4.7177-4.7178,0,0,0,0,1.2414-1.2414a.3512.3512,0,0,0,.0375-.4524c-.04-.0554-.4273-.5968-.9721-1.3236l.7109-1.4278.474.4741a1.0528,1.0528,0,0,0,1.4874-.0014l.9944-.9942a1.05,1.05,0,0,0,.0014-1.4874ZM2.8022,10.6084a.3452.3452,0,0,1-.4939-.0014L1.314,9.6127a.35.35,0,0,1-.0015-.4942L7.7732,2.6578h0a.3452.3452,0,0,1,.2455-.1032.3509.3509,0,0,1,.2484.1046l.9943.9943a.35.35,0,0,1,.0015.4942Zm1.2439,3.2262.7023-.7022c.2837.3658.5817.7416.88,1.1064l-.5892.5893ZM6.281,16.07l-.745-.7452.5439-.5439c.2434.2857.48.5517.7024.7878Zm1.49,1.49-.9933-.9933.5012-.5012c.3088.2912.6712.6071,1.0574.929Zm1.7383,1.7384L8.2678,18.0563l.6145-.6148c.4721.38.9527.753,1.3947,1.0888Zm8.2319-5.7486-.7821.782-3.2281-3.2285a.3511.3511,0,0,0-.4966.4966l3.2281,3.2285-.9933.9932-3.2282-3.2282a.3511.3511,0,0,0-.4966.4966l3.2283,3.2282-.9933.9933-3.2283-3.2284a.3511.3511,0,0,0-.4966.4966l3.2283,3.2283-1.2786,1.2786a50.37,50.37,0,0,1-4.6814-3.7616,33.2392,33.2392,0,0,1-2.4206-2.8854.3453.3453,0,0,0-.0628-.0945c-.0057-.0057-.0133-.0075-.0193-.0128-.5512-.72-1.0189-1.3578-1.2592-1.6886L9.2971,5.1069c.2439.1786.6607.4866,1.184.8832a10.1713,10.1713,0,0,0-1.688,1.3481A16.8905,16.8905,0,0,0,7.0972,9.2166c-.1478.2082-.4937.6959-.1632,1.0258.0771.0771.2208.2208,1.5913.35l.0329.0014a.3528.3528,0,0,0,.1494-.0332,7.7955,7.7955,0,0,1,2.59-.807,5.54,5.54,0,0,0,2.6442-.9417.3317.3317,0,0,0,.0375.0565A50.41,50.41,0,0,1,17.7413,13.5493Zm-.7-2.1156A34.6013,34.6013,0,0,0,14.476,8.3715a.3433.3433,0,0,0-.1531-.0844.3344.3344,0,0,0-.0219-.0721.3512.3512,0,0,0-.4756-.143c-.0579.0312-.1322.0731-.22.1224a5.438,5.438,0,0,1-2.228.8612,7.8868,7.8868,0,0,0-2.88.8279c-.3287-.0337-.6921-.0827-.92-.1276A13.1668,13.1668,0,0,1,9.29,7.8347a10.8009,10.8009,0,0,1,3.786-2.354l4.6263,4.6263Zm3.6432-1.821-.9943.9943a.35.35,0,0,1-.4941.0014L13.4475,4.86c-.0066-.0084-.0147-.0143-.022-.022l-.69-.69a.3454.3454,0,0,1-.1022-.2459.35.35,0,0,1,.1037-.2484l.9943-.9943a.35.35,0,0,1,.4942-.0014l6.4607,6.4607a.3454.3454,0,0,1,.1022.2459A.35.35,0,0,1,20.6848,9.6127Z"/></svg>