<svg width="134" height="40" viewBox="0 0 134 40" fill="none" xmlns="http://www.w3.org/2000/svg">
<path d="M18.9166 1.66663C8.79139 1.66663 0.583313 9.87474 0.583313 20C0.583313 30.1252 8.79139 38.3333 18.9166 38.3333C28.0008 38.3333 35.5418 31.7263 36.9965 23.0555H36.8649C35.5081 28.327 30.7228 32.2222 25.0278 32.2222C18.2776 32.2222 12.8055 26.7501 12.8055 20C12.8055 13.2498 18.2776 7.77774 25.0278 7.77774C30.7228 7.77774 35.5081 11.6729 36.8649 16.9444H36.9965C35.5418 8.27361 28.0008 1.66663 18.9166 1.66663Z" fill="#A4BCFD"/>
<path d="M0.583313 20C0.583313 9.87474 8.79143 1.66663 18.9166 1.66663C28.0008 1.66663 35.5418 8.27361 36.9965 16.9444H24.6427C23.2859 11.6729 18.5006 7.77774 12.8055 7.77774C6.05539 7.77774 0.583313 13.2498 0.583313 20Z" fill="#3538CD"/>
<path d="M0.583313 19.9999C0.583313 30.1251 8.79143 38.3333 18.9166 38.3333C28.0008 38.3333 35.5418 31.7263 36.9965 23.0555H24.6427C23.2859 28.327 18.5006 32.2221 12.8055 32.2221C6.05539 32.2221 0.583313 26.7501 0.583313 19.9999Z" fill="#3538CD"/>
<path d="M63.4491 17.0892C62.9271 13.3191 60.027 11.1316 56.2651 11.1316C51.8321 11.1316 48.4929 14.3631 48.4929 19.8484C48.4929 25.3255 51.7907 28.5653 56.2651 28.5653C60.3004 28.5653 62.9768 25.9552 63.4491 22.7154L60.3501 22.6988C59.9607 24.6875 58.3366 25.8061 56.3066 25.8061C53.5556 25.8061 51.5835 23.7429 51.5835 19.8484C51.5835 16.0203 53.539 13.8908 56.3148 13.8908C58.3781 13.8908 59.9938 15.0591 60.3501 17.0892H63.4491Z" fill="#101828"/>
<path d="M69.7941 28.5902C71.791 28.5902 72.9842 27.6538 73.531 26.585H73.6305V28.3333H76.514V19.8153C76.514 16.4512 73.7713 15.4403 71.3435 15.4403C68.6672 15.4403 66.6122 16.6335 65.9494 18.9536L68.75 19.3513C69.0483 18.4813 69.8935 17.7355 71.3601 17.7355C72.7522 17.7355 73.5145 18.4481 73.5145 19.6993V19.749C73.5145 20.6108 72.6113 20.6522 70.3658 20.8925C67.8966 21.1576 65.5351 21.8951 65.5351 24.762C65.5351 27.2644 67.3663 28.5902 69.7941 28.5902ZM70.5729 26.3861C69.3218 26.3861 68.4269 25.8144 68.4269 24.7123C68.4269 23.5606 69.4295 23.08 70.7718 22.8894C71.559 22.7817 73.1333 22.5828 73.5228 22.268V23.7677C73.5228 25.1846 72.3793 26.3861 70.5729 26.3861Z" fill="#101828"/>
<path d="M85.8854 15.606H83.3748V12.5568H80.3753V15.606H78.5689V17.9261H80.3753V25.0023C80.3587 27.397 82.0987 28.5736 84.3525 28.5073C85.206 28.4824 85.7943 28.3167 86.1175 28.209L85.612 25.8641C85.4463 25.9055 85.1066 25.9801 84.7337 25.9801C83.9797 25.9801 83.3748 25.7149 83.3748 24.5052V17.9261H85.8854V15.606Z" fill="#101828"/>
<path d="M92.0564 28.5902C94.0534 28.5902 95.2465 27.6538 95.7934 26.585H95.8928V28.3333H98.7764V19.8153C98.7764 16.4512 96.0337 15.4403 93.6059 15.4403C90.9295 15.4403 88.8746 16.6335 88.2117 18.9536L91.0124 19.3513C91.3107 18.4813 92.1559 17.7355 93.6225 17.7355C95.0145 17.7355 95.7768 18.4481 95.7768 19.6993V19.749C95.7768 20.6108 94.8737 20.6522 92.6282 20.8925C90.1589 21.1576 87.7974 21.8951 87.7974 24.762C87.7974 27.2644 89.6286 28.5902 92.0564 28.5902ZM92.8353 26.3861C91.5841 26.3861 90.6892 25.8144 90.6892 24.7123C90.6892 23.5606 91.6918 23.08 93.0342 22.8894C93.8213 22.7817 95.3957 22.5828 95.7851 22.268V23.7677C95.7851 25.1846 94.6417 26.3861 92.8353 26.3861Z" fill="#101828"/>
<path d="M104.792 11.3636H101.792V28.3333H104.792V11.3636Z" fill="#101828"/>
<path d="M113.428 28.5819C117.157 28.5819 119.527 25.9552 119.527 22.0194C119.527 18.0752 117.157 15.4403 113.428 15.4403C109.699 15.4403 107.33 18.0752 107.33 22.0194C107.33 25.9552 109.699 28.5819 113.428 28.5819ZM113.445 26.1789C111.381 26.1789 110.371 24.3395 110.371 22.0111C110.371 19.6827 111.381 17.8184 113.445 17.8184C115.475 17.8184 116.486 19.6827 116.486 22.0111C116.486 24.3395 115.475 26.1789 113.445 26.1789Z" fill="#101828"/>
<path d="M127.607 33.3712C131.046 33.3712 133.582 31.7968 133.582 28.5404V15.606H130.624V17.7107H130.458C130.002 16.7909 129.049 15.4403 126.804 15.4403C123.862 15.4403 121.55 17.7438 121.55 21.9282C121.55 26.0795 123.862 28.151 126.795 28.151C128.975 28.151 129.994 26.9827 130.458 26.0464H130.607V28.4576C130.607 30.3302 129.364 31.1008 127.657 31.1008C125.851 31.1008 125.055 30.2474 124.691 29.5016L121.99 30.1562C122.536 31.9377 124.368 33.3712 127.607 33.3712ZM127.632 25.7978C125.652 25.7978 124.608 24.2566 124.608 21.9117C124.608 19.5999 125.635 17.9012 127.632 17.9012C129.563 17.9012 130.624 19.5004 130.624 21.9117C130.624 24.3395 129.546 25.7978 127.632 25.7978Z" fill="#101828"/>
</svg>
