<svg width="126" height="32" viewBox="0 0 126 32" fill="none" xmlns="http://www.w3.org/2000/svg">
<path fillRule="evenodd" clip-rule="evenodd" d="M15.5834 24.3111C20.1735 24.3111 23.8945 20.5901 23.8945 16C23.8945 11.4099 20.1735 7.68893 15.5834 7.68893C10.9933 7.68893 7.27224 11.4099 7.27224 16C7.27224 20.5901 10.9933 24.3111 15.5834 24.3111ZM15.5834 30.6667C23.6835 30.6667 30.25 24.1002 30.25 16C30.25 7.89986 23.6835 1.33337 15.5834 1.33337C7.48318 1.33337 0.916687 7.89986 0.916687 16C0.916687 24.1002 7.48318 30.6667 15.5834 30.6667Z" fill="#6938EF"/>
<path d="M15.7511 16.3211C17.2785 14.7937 19.7549 14.7937 21.2823 16.3211L28.8876 23.9264C30.415 25.4538 30.415 27.9302 28.8876 29.4576C27.3602 30.985 24.8838 30.985 23.3564 29.4576L15.7511 21.8523C14.2237 20.3249 14.2237 17.8485 15.7511 16.3211Z" fill="#F670C7"/>
<path d="M17.8866 23.9879L22.7168 28.8181C25.0336 27.526 26.9638 25.624 28.2902 23.3292L23.4996 18.5386C22.6581 21.1648 20.5459 23.2224 17.8866 23.9879Z" fill="#6519BA"/>
<path d="M53.93 24.0666C53.5069 24.5893 52.9905 24.9875 52.3807 25.2613C51.7834 25.5351 51.1238 25.672 50.402 25.672C49.4314 25.672 48.554 25.4604 47.77 25.0373C46.986 24.6266 46.09 23.8924 45.082 22.8346C43.8998 22.6853 42.842 22.3057 41.9087 21.696C40.9878 21.0862 40.266 20.3022 39.7434 19.344C39.2331 18.3733 38.978 17.3031 38.978 16.1333C38.978 14.8515 39.2829 13.7004 39.8927 12.68C40.5149 11.6471 41.3674 10.8382 42.45 10.2533C43.5451 9.6684 44.7709 9.37595 46.1274 9.37595C47.4838 9.37595 48.7034 9.6684 49.786 10.2533C50.8687 10.8382 51.7211 11.6471 52.3434 12.68C52.9656 13.7004 53.2767 14.8515 53.2767 16.1333C53.2767 17.6515 52.8474 18.9831 51.9887 20.128C51.1425 21.2728 50.0162 22.0693 48.61 22.5173C48.9211 22.8408 49.2198 23.0711 49.506 23.208C49.8047 23.3573 50.122 23.432 50.458 23.432C51.2669 23.432 51.9762 23.1084 52.586 22.4613L53.93 24.0666ZM42.0394 16.1333C42.0394 16.9422 42.2136 17.664 42.562 18.2986C42.9229 18.9333 43.4145 19.4311 44.0367 19.792C44.6589 20.1404 45.3558 20.3146 46.1274 20.3146C46.8989 20.3146 47.5958 20.1404 48.218 19.792C48.8403 19.4311 49.3256 18.9333 49.674 18.2986C50.0349 17.664 50.2154 16.9422 50.2154 16.1333C50.2154 15.3244 50.0349 14.6026 49.674 13.968C49.3256 13.3333 48.8403 12.8417 48.218 12.4933C47.5958 12.1324 46.8989 11.952 46.1274 11.952C45.3558 11.952 44.6589 12.1324 44.0367 12.4933C43.4145 12.8417 42.9229 13.3333 42.562 13.968C42.2136 14.6026 42.0394 15.3244 42.0394 16.1333Z" fill="#101828"/>
<path d="M65.4614 12.624V22.6666H62.6987V21.472C62.3129 21.9075 61.8525 22.2435 61.3174 22.48C60.7822 22.704 60.2036 22.816 59.5814 22.816C58.2622 22.816 57.2169 22.4364 56.4454 21.6773C55.6738 20.9182 55.288 19.792 55.288 18.2986V12.624H58.2V17.8693C58.2 19.4871 58.8783 20.296 60.2347 20.296C60.9316 20.296 61.4916 20.072 61.9147 19.624C62.3378 19.1635 62.5494 18.4853 62.5494 17.5893V12.624H65.4614Z" fill="#101828"/>
<path d="M72.9378 22.816C71.88 22.816 70.928 22.5982 70.0818 22.1626C69.248 21.7146 68.5947 21.0986 68.1218 20.3146C67.6489 19.5306 67.4125 18.6408 67.4125 17.6453C67.4125 16.6497 67.6489 15.76 68.1218 14.976C68.5947 14.192 69.248 13.5822 70.0818 13.1466C70.928 12.6986 71.88 12.4746 72.9378 12.4746C73.9956 12.4746 74.9414 12.6986 75.7751 13.1466C76.6089 13.5822 77.2622 14.192 77.7351 14.976C78.208 15.76 78.4445 16.6497 78.4445 17.6453C78.4445 18.6408 78.208 19.5306 77.7351 20.3146C77.2622 21.0986 76.6089 21.7146 75.7751 22.1626C74.9414 22.5982 73.9956 22.816 72.9378 22.816ZM72.9378 20.4266C73.6845 20.4266 74.2942 20.1777 74.7671 19.68C75.2525 19.1697 75.4951 18.4915 75.4951 17.6453C75.4951 16.7991 75.2525 16.1271 74.7671 15.6293C74.2942 15.1191 73.6845 14.864 72.9378 14.864C72.1911 14.864 71.5751 15.1191 71.0898 15.6293C70.6045 16.1271 70.3618 16.7991 70.3618 17.6453C70.3618 18.4915 70.6045 19.1697 71.0898 19.68C71.5751 20.1777 72.1911 20.4266 72.9378 20.4266Z" fill="#101828"/>
<path d="M86.8682 22.1813C86.582 22.3928 86.2273 22.5546 85.8042 22.6666C85.3936 22.7662 84.958 22.816 84.4976 22.816C83.3029 22.816 82.3758 22.5111 81.7162 21.9013C81.0691 21.2915 80.7456 20.3955 80.7456 19.2133V15.088H79.1962V12.848H80.7456V10.4026H83.6576V12.848H86.1589V15.088H83.6576V19.176C83.6576 19.5991 83.7633 19.9288 83.9749 20.1653C84.1989 20.3893 84.51 20.5013 84.9082 20.5013C85.3687 20.5013 85.7607 20.3768 86.0842 20.128L86.8682 22.1813Z" fill="#101828"/>
<path d="M88.5029 12.624H91.4149V22.6666H88.5029V12.624ZM89.9589 11.224C89.4238 11.224 88.9882 11.0684 88.6522 10.7573C88.3162 10.4462 88.1482 10.0604 88.1482 9.59995C88.1482 9.13951 88.3162 8.75373 88.6522 8.44262C88.9882 8.13151 89.4238 7.97595 89.9589 7.97595C90.494 7.97595 90.9295 8.12529 91.2655 8.42395C91.6015 8.72262 91.7695 9.09595 91.7695 9.54395C91.7695 10.0293 91.6015 10.4337 91.2655 10.7573C90.9295 11.0684 90.494 11.224 89.9589 11.224Z" fill="#101828"/>
<path d="M103.955 17.6826C103.955 17.72 103.936 17.9813 103.899 18.4666H96.3015C96.4383 19.0888 96.7619 19.5804 97.2721 19.9413C97.7823 20.3022 98.417 20.4826 99.1761 20.4826C99.6988 20.4826 100.159 20.408 100.557 20.2586C100.968 20.0968 101.348 19.848 101.696 19.512L103.245 21.192C102.3 22.2746 100.918 22.816 99.1015 22.816C97.969 22.816 96.9672 22.5982 96.0961 22.1626C95.225 21.7146 94.553 21.0986 94.0801 20.3146C93.6072 19.5306 93.3708 18.6408 93.3708 17.6453C93.3708 16.6622 93.601 15.7786 94.0615 14.9946C94.5343 14.1982 95.1752 13.5822 95.9841 13.1466C96.8055 12.6986 97.7201 12.4746 98.7281 12.4746C99.7112 12.4746 100.601 12.6862 101.397 13.1093C102.194 13.5324 102.816 14.1422 103.264 14.9386C103.725 15.7226 103.955 16.6373 103.955 17.6826ZM98.7468 14.6773C98.0872 14.6773 97.5335 14.864 97.0855 15.2373C96.6375 15.6106 96.3637 16.1208 96.2641 16.768H101.211C101.111 16.1333 100.837 15.6293 100.389 15.256C99.9415 14.8702 99.3939 14.6773 98.7468 14.6773Z" fill="#101828"/>
<path d="M111.997 12.4746C113.242 12.4746 114.244 12.848 115.003 13.5946C115.774 14.3413 116.16 15.4488 116.16 16.9173V22.6666H113.248V17.3653C113.248 16.5688 113.074 15.9777 112.726 15.592C112.377 15.1937 111.873 14.9946 111.214 14.9946C110.479 14.9946 109.894 15.2248 109.459 15.6853C109.023 16.1333 108.806 16.8053 108.806 17.7013V22.6666H105.894V12.624H108.675V13.8C109.061 13.3768 109.54 13.0533 110.112 12.8293C110.685 12.5928 111.313 12.4746 111.997 12.4746Z" fill="#101828"/>
<path d="M125.277 22.1813C124.991 22.3928 124.636 22.5546 124.213 22.6666C123.802 22.7662 123.367 22.816 122.906 22.816C121.712 22.816 120.785 22.5111 120.125 21.9013C119.478 21.2915 119.154 20.3955 119.154 19.2133V15.088H117.605V12.848H119.154V10.4026H122.066V12.848H124.568V15.088H122.066V19.176C122.066 19.5991 122.172 19.9288 122.384 20.1653C122.608 20.3893 122.919 20.5013 123.317 20.5013C123.778 20.5013 124.17 20.3768 124.493 20.128L125.277 22.1813Z" fill="#101828"/>
</svg>
