<svg width="142" height="40" viewBox="0 0 142 40" fill="none" xmlns="http://www.w3.org/2000/svg">
<rect x="0.750031" y="16" width="7.99999" height="7.99999" fill="#039855"/>
<rect x="24.75" y="24" width="8" height="7.99999" transform="rotate(180 24.75 24)" fill="#027A48"/>
<path d="M8.75012 16L16.7501 8V16L8.75012 24V16Z" fill="#A6F4C5"/>
<path d="M16.75 24L8.75002 32L8.75002 24L16.75 16L16.75 24Z" fill="#6CE9A6"/>
<path d="M0.750031 16L16.75 0V7.99999L8.75002 16H0.750031Z" fill="#32D583"/>
<path d="M24.75 24L8.75002 40L8.75002 32L16.75 24L24.75 24Z" fill="#12B76A"/>
<path d="M42.1734 28.5666C40.9134 28.5666 39.6923 28.3877 38.51 28.0299C37.3434 27.6722 36.4178 27.1977 35.7334 26.6066L36.7834 24.2499C37.4523 24.7788 38.2689 25.2144 39.2334 25.5566C40.2134 25.8833 41.1934 26.0466 42.1734 26.0466C43.3867 26.0466 44.2889 25.8522 44.88 25.4633C45.4867 25.0744 45.79 24.5611 45.79 23.9233C45.79 23.4566 45.6189 23.0755 45.2767 22.7799C44.95 22.4688 44.53 22.2277 44.0167 22.0566C43.5034 21.8855 42.8034 21.6911 41.9167 21.4733C40.6723 21.1777 39.6611 20.8822 38.8834 20.5866C38.1211 20.2911 37.46 19.8322 36.9 19.2099C36.3556 18.5722 36.0834 17.7166 36.0834 16.6433C36.0834 15.7411 36.3245 14.9244 36.8067 14.1933C37.3045 13.4466 38.0434 12.8555 39.0234 12.4199C40.0189 11.9844 41.2323 11.7666 42.6634 11.7666C43.6589 11.7666 44.6389 11.8911 45.6034 12.1399C46.5678 12.3888 47.4 12.7466 48.1 13.2133L47.1434 15.5699C46.4278 15.1499 45.6811 14.8311 44.9034 14.6133C44.1256 14.3955 43.3711 14.2866 42.64 14.2866C41.4423 14.2866 40.5478 14.4888 39.9567 14.8933C39.3811 15.2977 39.0934 15.8344 39.0934 16.5033C39.0934 16.9699 39.2567 17.3511 39.5834 17.6466C39.9256 17.9422 40.3534 18.1755 40.8667 18.3466C41.38 18.5177 42.08 18.7122 42.9667 18.9299C44.18 19.2099 45.1756 19.5055 45.9534 19.8166C46.7311 20.1122 47.3923 20.5711 47.9367 21.1933C48.4967 21.8155 48.7767 22.6555 48.7767 23.7133C48.7767 24.6155 48.5278 25.4322 48.03 26.1633C47.5478 26.8944 46.8089 27.4777 45.8134 27.9133C44.8178 28.3488 43.6045 28.5666 42.1734 28.5666Z" fill="#101828"/>
<path d="M51.5045 15.8733H54.4212V28.3333H51.5045V15.8733ZM52.9745 13.8199C52.4456 13.8199 52.0023 13.6566 51.6445 13.3299C51.2867 12.9877 51.1078 12.5677 51.1078 12.0699C51.1078 11.5722 51.2867 11.1599 51.6445 10.8333C52.0023 10.4911 52.4456 10.3199 52.9745 10.3199C53.5034 10.3199 53.9467 10.4833 54.3045 10.8099C54.6623 11.1211 54.8412 11.5177 54.8412 11.9999C54.8412 12.5133 54.6623 12.9488 54.3045 13.3066C53.9623 13.6488 53.5189 13.8199 52.9745 13.8199Z" fill="#101828"/>
<path d="M62.0993 28.4966C61.0882 28.4966 60.1004 28.3644 59.136 28.0999C58.1715 27.8355 57.4015 27.5011 56.826 27.0966L57.946 24.8799C58.506 25.2533 59.1749 25.5566 59.9526 25.7899C60.746 26.0077 61.5237 26.1166 62.286 26.1166C64.0282 26.1166 64.8993 25.6577 64.8993 24.7399C64.8993 24.3044 64.6737 24.0011 64.2226 23.8299C63.7871 23.6588 63.0793 23.4955 62.0993 23.3399C61.0726 23.1844 60.2326 23.0055 59.5793 22.8033C58.9415 22.6011 58.3815 22.2511 57.8993 21.7533C57.4326 21.2399 57.1993 20.5322 57.1993 19.6299C57.1993 18.4477 57.6893 17.5066 58.6693 16.8066C59.6649 16.0911 61.0026 15.7333 62.6826 15.7333C63.5382 15.7333 64.3937 15.8344 65.2493 16.0366C66.1048 16.2233 66.8048 16.4799 67.3493 16.8066L66.2293 19.0233C65.1715 18.4011 63.9815 18.0899 62.6593 18.0899C61.8037 18.0899 61.1504 18.2222 60.6993 18.4866C60.2637 18.7355 60.046 19.0699 60.046 19.4899C60.046 19.9566 60.2793 20.2911 60.746 20.4933C61.2282 20.6799 61.9671 20.8588 62.9626 21.0299C63.9582 21.1855 64.7748 21.3644 65.4126 21.5666C66.0504 21.7688 66.5948 22.1111 67.046 22.5933C67.5126 23.0755 67.746 23.7599 67.746 24.6466C67.746 25.8133 67.2404 26.7466 66.2293 27.4466C65.2182 28.1466 63.8415 28.4966 62.0993 28.4966Z" fill="#101828"/>
<path d="M81.6966 15.8733L75.8632 29.3366C75.3188 30.6899 74.6577 31.6388 73.8799 32.1833C73.1021 32.7433 72.161 33.0233 71.0566 33.0233C70.4343 33.0233 69.8199 32.9222 69.2132 32.7199C68.6066 32.5177 68.1088 32.2377 67.7199 31.8799L68.8866 29.7333C69.1666 29.9977 69.4932 30.2077 69.8666 30.3633C70.2554 30.5188 70.6443 30.5966 71.0332 30.5966C71.5466 30.5966 71.9666 30.4644 72.2932 30.1999C72.6354 29.9355 72.9466 29.4922 73.2266 28.8699L73.4366 28.3799L67.9999 15.8733H71.0332L74.9532 25.0899L78.8966 15.8733H81.6966Z" fill="#101828"/>
<path d="M90.4261 15.7333C91.6395 15.7333 92.7206 15.9977 93.6695 16.5266C94.6339 17.0555 95.3883 17.8022 95.9328 18.7666C96.4772 19.7311 96.7495 20.8433 96.7495 22.1033C96.7495 23.3633 96.4772 24.4833 95.9328 25.4633C95.3883 26.4277 94.6339 27.1744 93.6695 27.7033C92.7206 28.2322 91.6395 28.4966 90.4261 28.4966C88.7461 28.4966 87.4161 27.9366 86.4361 26.8166V32.8599H83.5195V15.8733H86.2961V17.5066C86.7784 16.9155 87.3695 16.4722 88.0695 16.1766C88.785 15.8811 89.5706 15.7333 90.4261 15.7333ZM90.0995 25.9999C91.1728 25.9999 92.0517 25.6422 92.7361 24.9266C93.4361 24.2111 93.7861 23.2699 93.7861 22.1033C93.7861 20.9366 93.4361 19.9955 92.7361 19.2799C92.0517 18.5644 91.1728 18.2066 90.0995 18.2066C89.3995 18.2066 88.7695 18.3699 88.2095 18.6966C87.6495 19.0077 87.2061 19.4588 86.8795 20.0499C86.5528 20.6411 86.3895 21.3255 86.3895 22.1033C86.3895 22.8811 86.5528 23.5655 86.8795 24.1566C87.2061 24.7477 87.6495 25.2066 88.2095 25.5333C88.7695 25.8444 89.3995 25.9999 90.0995 25.9999Z" fill="#101828"/>
<path d="M106.586 15.7333C108.157 15.7333 109.417 16.1922 110.366 17.1099C111.314 18.0277 111.789 19.3888 111.789 21.1933V28.3333H108.872V21.5666C108.872 20.4777 108.616 19.6611 108.102 19.1166C107.589 18.5566 106.858 18.2766 105.909 18.2766C104.836 18.2766 103.988 18.6033 103.366 19.2566C102.743 19.8944 102.432 20.8199 102.432 22.0333V28.3333H99.5155V11.0199H102.432V17.3199C102.914 16.8066 103.506 16.4177 104.206 16.1533C104.921 15.8733 105.714 15.7333 106.586 15.7333Z" fill="#101828"/>
<path d="M127.552 15.8733V28.3333H124.776V26.7466C124.309 27.3066 123.726 27.7422 123.026 28.0533C122.326 28.3488 121.571 28.4966 120.762 28.4966C119.098 28.4966 117.783 28.0377 116.819 27.1199C115.87 26.1866 115.396 24.8099 115.396 22.9899V15.8733H118.312V22.5933C118.312 23.7133 118.561 24.5533 119.059 25.1133C119.572 25.6577 120.296 25.9299 121.229 25.9299C122.271 25.9299 123.096 25.6111 123.702 24.9733C124.324 24.3199 124.636 23.3866 124.636 22.1733V15.8733H127.552Z" fill="#101828"/>
<path d="M135.221 28.4966C134.21 28.4966 133.222 28.3644 132.258 28.0999C131.293 27.8355 130.523 27.5011 129.948 27.0966L131.068 24.8799C131.628 25.2533 132.297 25.5566 133.074 25.7899C133.868 26.0077 134.645 26.1166 135.408 26.1166C137.15 26.1166 138.021 25.6577 138.021 24.7399C138.021 24.3044 137.795 24.0011 137.344 23.8299C136.909 23.6588 136.201 23.4955 135.221 23.3399C134.194 23.1844 133.354 23.0055 132.701 22.8033C132.063 22.6011 131.503 22.2511 131.021 21.7533C130.554 21.2399 130.321 20.5322 130.321 19.6299C130.321 18.4477 130.811 17.5066 131.791 16.8066C132.787 16.0911 134.124 15.7333 135.804 15.7333C136.66 15.7333 137.515 15.8344 138.371 16.0366C139.227 16.2233 139.927 16.4799 140.471 16.8066L139.351 19.0233C138.293 18.4011 137.103 18.0899 135.781 18.0899C134.925 18.0899 134.272 18.2222 133.821 18.4866C133.385 18.7355 133.168 19.0699 133.168 19.4899C133.168 19.9566 133.401 20.2911 133.868 20.4933C134.35 20.6799 135.089 20.8588 136.084 21.0299C137.08 21.1855 137.897 21.3644 138.534 21.5666C139.172 21.7688 139.717 22.1111 140.168 22.5933C140.634 23.0755 140.868 23.7599 140.868 24.6466C140.868 25.8133 140.362 26.7466 139.351 27.4466C138.34 28.1466 136.963 28.4966 135.221 28.4966Z" fill="#101828"/>
</svg>
