<svg width="184" height="48" viewBox="0 0 184 48" fill="none" xmlns="http://www.w3.org/2000/svg">
<path d="M16.2977 33.4286C24.9765 33.4286 32.012 26.393 32.012 17.7143C32.012 16.7307 31.9216 15.7682 31.7487 14.8347C30.8152 14.6618 29.8527 14.5714 28.8691 14.5714C20.1904 14.5714 13.1548 21.6069 13.1548 30.2857C13.1548 31.2693 13.2452 32.2318 13.4181 33.1653C14.3516 33.3382 15.3141 33.4286 16.2977 33.4286Z" fill="#175CD3"/>
<path fillRule="evenodd" clip-rule="evenodd" d="M13.418 33.1653C6.11449 31.8127 0.583313 25.4095 0.583313 17.7143C0.583313 9.03553 7.61884 2 16.2976 2C23.9928 2 30.3961 7.53118 31.7486 14.8347C30.8151 14.6618 29.8526 14.5714 28.869 14.5714C20.1903 14.5714 13.1547 21.607 13.1547 30.2857C13.1547 31.2693 13.2451 32.2318 13.418 33.1653Z" fill="#1570EF"/>
<path fillRule="evenodd" clip-rule="evenodd" d="M16.2976 33.4285C24.9764 33.4285 32.0119 26.393 32.0119 17.7142C32.0119 16.7306 31.9216 15.7681 31.7487 14.8346C39.0522 16.1872 44.5834 22.5905 44.5834 30.2856C44.5834 38.9644 37.5478 45.9999 28.8691 45.9999C21.1739 45.9999 14.7706 40.4687 13.418 33.1652C14.3516 33.3381 15.314 33.4285 16.2976 33.4285Z" fill="#2E90FA"/>
<path d="M74.8114 28.9039C74.2514 30.7146 73.2714 32.0679 71.8714 32.9639C70.4714 33.8413 68.8381 34.2799 66.9714 34.2799C65.1421 34.2799 63.5554 33.8973 62.2114 33.1319C60.8861 32.3666 59.8594 31.2746 59.1314 29.8559C58.4221 28.4373 58.0674 26.7386 58.0674 24.7599C58.0674 22.7813 58.4314 21.0826 59.1594 19.6639C59.8874 18.2453 60.9141 17.1533 62.2394 16.3879C63.5648 15.6226 65.1234 15.2399 66.9154 15.2399C68.8008 15.2399 70.4154 15.6413 71.7594 16.4439C73.1221 17.2279 74.0554 18.4226 74.5594 20.0279L71.0594 21.5119C70.7421 20.3919 70.2568 19.5986 69.6034 19.1319C68.9501 18.6466 68.1101 18.4039 67.0834 18.4039C65.5528 18.4039 64.3301 18.9546 63.4154 20.0559C62.5194 21.1386 62.0714 22.7066 62.0714 24.7599C62.0714 26.7946 62.5008 28.3626 63.3594 29.4639C64.2181 30.5653 65.4594 31.1159 67.0834 31.1159C68.0914 31.1159 68.9594 30.8453 69.6874 30.3039C70.4341 29.7626 70.9568 28.9413 71.2554 27.8399L74.8114 28.9039Z" fill="#101828"/>
<path d="M79.6447 17.9839C78.0581 17.9839 77.2647 17.3026 77.2647 15.9399C77.2647 14.5586 78.0581 13.8679 79.6447 13.8679C81.2314 13.8679 82.0247 14.5586 82.0247 15.9399C82.0247 17.3026 81.2314 17.9839 79.6447 17.9839ZM81.5487 19.9999V33.9999H77.7127V19.9999H81.5487Z" fill="#101828"/>
<path d="M85.6151 33.9999V19.9999H88.9471L89.1991 22.7439C89.5537 21.7919 90.0857 21.0546 90.7951 20.5319C91.5231 19.9906 92.4377 19.7199 93.5391 19.7199C94.1924 19.7199 94.6964 19.8226 95.0511 20.0279L94.6031 23.2479C94.4164 23.1919 94.1831 23.1453 93.9031 23.1079C93.6417 23.0519 93.2964 23.0239 92.8671 23.0239C92.2884 23.0239 91.7377 23.1639 91.2151 23.4439C90.7111 23.7053 90.2911 24.1159 89.9551 24.6759C89.6191 25.2173 89.4511 25.9079 89.4511 26.7479V33.9999H85.6151Z" fill="#101828"/>
<path d="M103.51 19.7199C105.377 19.7199 106.823 20.1213 107.85 20.9239C108.895 21.7266 109.586 22.6973 109.922 23.8359L106.338 25.1239C105.965 23.4253 105.041 22.5759 103.566 22.5759C102.502 22.5759 101.671 22.9493 101.074 23.6959C100.495 24.4426 100.206 25.5533 100.206 27.0279C100.206 28.5213 100.505 29.6319 101.102 30.3599C101.718 31.0693 102.549 31.4239 103.594 31.4239C105.218 31.4239 106.189 30.5933 106.506 28.9319L109.978 30.0519C109.661 31.3026 108.951 32.3199 107.85 33.1039C106.767 33.8879 105.358 34.2799 103.622 34.2799C102.166 34.2799 100.887 33.9906 99.7861 33.4119C98.7035 32.8333 97.8635 32.0026 97.2661 30.9199C96.6688 29.8373 96.3701 28.5306 96.3701 26.9999C96.3701 25.4693 96.6688 24.1626 97.2661 23.0799C97.8821 21.9973 98.7221 21.1666 99.7861 20.5879C100.869 20.0093 102.11 19.7199 103.51 19.7199Z" fill="#101828"/>
<path d="M119.343 19.7199C120.743 19.7199 121.984 20.0093 123.067 20.5879C124.149 21.1666 124.989 21.9973 125.587 23.0799C126.203 24.1626 126.511 25.4693 126.511 26.9999C126.511 28.5306 126.203 29.8373 125.587 30.9199C124.989 32.0026 124.149 32.8333 123.067 33.4119C121.984 33.9906 120.743 34.2799 119.343 34.2799C117.924 34.2799 116.673 33.9906 115.591 33.4119C114.527 32.8333 113.687 32.0026 113.071 30.9199C112.473 29.8373 112.175 28.5306 112.175 26.9999C112.175 25.4693 112.473 24.1626 113.071 23.0799C113.687 21.9973 114.527 21.1666 115.591 20.5879C116.673 20.0093 117.924 19.7199 119.343 19.7199ZM119.343 22.5759C118.297 22.5759 117.476 22.9493 116.879 23.6959C116.3 24.4239 116.011 25.5253 116.011 26.9999C116.011 28.4746 116.3 29.5853 116.879 30.3319C117.476 31.0599 118.297 31.4239 119.343 31.4239C120.369 31.4239 121.172 31.0599 121.751 30.3319C122.348 29.5853 122.647 28.4746 122.647 26.9999C122.647 25.5253 122.348 24.4239 121.751 23.6959C121.172 22.9493 120.369 22.5759 119.343 22.5759Z" fill="#101828"/>
<path d="M136.105 19.7199C137.505 19.7199 138.746 20.0093 139.829 20.5879C140.911 21.1666 141.751 21.9973 142.349 23.0799C142.965 24.1626 143.273 25.4693 143.273 26.9999C143.273 28.5306 142.965 29.8373 142.349 30.9199C141.751 32.0026 140.911 32.8333 139.829 33.4119C138.746 33.9906 137.505 34.2799 136.105 34.2799C134.686 34.2799 133.435 33.9906 132.353 33.4119C131.289 32.8333 130.449 32.0026 129.833 30.9199C129.235 29.8373 128.937 28.5306 128.937 26.9999C128.937 25.4693 129.235 24.1626 129.833 23.0799C130.449 21.9973 131.289 21.1666 132.353 20.5879C133.435 20.0093 134.686 19.7199 136.105 19.7199ZM136.105 22.5759C135.059 22.5759 134.238 22.9493 133.641 23.6959C133.062 24.4239 132.773 25.5253 132.773 26.9999C132.773 28.4746 133.062 29.5853 133.641 30.3319C134.238 31.0599 135.059 31.4239 136.105 31.4239C137.131 31.4239 137.934 31.0599 138.513 30.3319C139.11 29.5853 139.409 28.4746 139.409 26.9999C139.409 25.5253 139.11 24.4239 138.513 23.6959C137.934 22.9493 137.131 22.5759 136.105 22.5759Z" fill="#101828"/>
<path d="M150.262 13.8679V29.6879C150.262 30.3413 150.374 30.7986 150.598 31.0599C150.822 31.3213 151.196 31.4519 151.718 31.4519C152.036 31.4519 152.297 31.4333 152.502 31.3959C152.708 31.3586 152.969 31.2839 153.286 31.1719L152.95 33.6919C152.633 33.8786 152.232 34.0186 151.746 34.1119C151.28 34.2239 150.813 34.2799 150.346 34.2799C148.984 34.2799 147.985 33.9533 147.35 33.2999C146.734 32.6279 146.426 31.5639 146.426 30.1079V13.8679H150.262Z" fill="#101828"/>
<path d="M161.92 34.2799C159.717 34.2799 157.953 33.6453 156.628 32.3759C155.302 31.0879 154.64 29.2959 154.64 26.9999C154.64 25.4693 154.938 24.1626 155.536 23.0799C156.133 21.9973 156.964 21.1666 158.028 20.5879C159.11 20.0093 160.342 19.7199 161.724 19.7199C163.142 19.7199 164.346 20.0093 165.336 20.5879C166.325 21.1479 167.081 21.9226 167.604 22.9119C168.126 23.8826 168.388 24.9933 168.388 26.2439C168.388 26.6173 168.378 26.9719 168.36 27.3079C168.341 27.6439 168.313 27.9426 168.276 28.2039H158.392C158.541 29.2866 158.914 30.0986 159.512 30.6399C160.128 31.1626 160.921 31.4239 161.892 31.4239C162.713 31.4239 163.376 31.2653 163.88 30.9479C164.384 30.6306 164.776 30.1919 165.056 29.6319L168.108 30.8079C167.66 31.9093 166.876 32.7679 165.756 33.3839C164.636 33.9813 163.357 34.2799 161.92 34.2799ZM161.696 22.5479C159.885 22.5479 158.793 23.5466 158.42 25.5439H164.72C164.608 24.5733 164.29 23.8359 163.768 23.3319C163.264 22.8093 162.573 22.5479 161.696 22.5479Z" fill="#101828"/>
<path d="M177.238 34.2799C175.82 34.2799 174.522 34.0279 173.346 33.5239C172.189 33.0199 171.246 32.3106 170.518 31.3959L172.73 29.1559C173.178 29.8279 173.776 30.3786 174.522 30.8079C175.269 31.2373 176.156 31.4519 177.182 31.4519C177.91 31.4519 178.489 31.3493 178.918 31.1439C179.366 30.9199 179.59 30.5746 179.59 30.1079C179.59 29.8093 179.488 29.5573 179.282 29.3519C179.077 29.1279 178.666 28.9506 178.05 28.8199L175.586 28.3159C173.962 27.9799 172.805 27.4759 172.114 26.8039C171.442 26.1133 171.106 25.2266 171.106 24.1439C171.106 23.3786 171.33 22.6599 171.778 21.9879C172.245 21.3159 172.936 20.7746 173.85 20.3639C174.765 19.9346 175.904 19.7199 177.266 19.7199C180.104 19.7199 182.138 20.5879 183.37 22.3239L181.074 24.5639C180.664 23.9106 180.122 23.4159 179.45 23.0799C178.797 22.7253 178.106 22.5479 177.378 22.5479C175.736 22.5479 174.914 23.0053 174.914 23.9199C174.914 24.2186 175.045 24.4799 175.306 24.7039C175.568 24.9093 176.044 25.0866 176.734 25.2359L179.59 25.8239C180.972 26.1039 181.961 26.5799 182.558 27.2519C183.156 27.9053 183.454 28.6986 183.454 29.6319C183.454 30.9759 182.913 32.0866 181.83 32.9639C180.766 33.8413 179.236 34.2799 177.238 34.2799Z" fill="#101828"/>
</svg>
