<svg width="98" height="32" viewBox="0 0 98 32" fill="none" xmlns="http://www.w3.org/2000/svg">
<path d="M9.26836 14.8789C9.81654 12.8334 11.9191 10.7308 13.9647 10.1826L26.7173 6.76503C28.7628 6.21686 29.9767 7.43069 29.4285 9.4762L26.0109 22.2289C25.4627 24.2744 23.3601 26.377 21.3146 26.9251L8.56195 30.3427C6.51644 30.8909 5.30261 29.6771 5.85079 27.6315L9.26836 14.8789Z" fill="#6172F3"/>
<path d="M4.15591 9.76623C4.70408 7.72071 6.80668 5.61812 8.8522 5.06994L21.6049 1.65236C23.6504 1.10418 24.8642 2.31802 24.316 4.36353L20.8985 17.1162C20.3503 19.1617 18.2477 21.2643 16.2022 21.8125L3.4495 25.23C1.40399 25.7782 0.190153 24.5644 0.73833 22.5189L4.15591 9.76623Z" fill="#3538CD"/>
<path d="M41.278 20.9494H45.6647V22.6667H39.15V9.69336H41.278V20.9494Z" fill="#101828"/>
<path d="M46.735 17.4774C46.735 16.4445 46.9465 15.5298 47.3696 14.7334C47.8052 13.9369 48.3901 13.3209 49.1243 12.8854C49.871 12.4374 50.6923 12.2134 51.5883 12.2134C52.3972 12.2134 53.1003 12.3751 53.6976 12.6987C54.3074 13.0098 54.7927 13.4018 55.1536 13.8747V12.3814H57.3003V22.6667H55.1536V21.136C54.7927 21.6214 54.3012 22.0258 53.679 22.3494C53.0567 22.6729 52.3474 22.8347 51.551 22.8347C50.6674 22.8347 49.8585 22.6107 49.1243 22.1627C48.3901 21.7022 47.8052 21.0676 47.3696 20.2587C46.9465 19.4374 46.735 18.5102 46.735 17.4774ZM55.1536 17.5147C55.1536 16.8054 55.0043 16.1894 54.7056 15.6667C54.4194 15.144 54.0398 14.7458 53.567 14.472C53.0941 14.1982 52.5838 14.0614 52.0363 14.0614C51.4887 14.0614 50.9785 14.1982 50.5056 14.472C50.0327 14.7334 49.647 15.1254 49.3483 15.648C49.0621 16.1582 48.919 16.768 48.919 17.4774C48.919 18.1867 49.0621 18.8089 49.3483 19.344C49.647 19.8791 50.0327 20.2898 50.5056 20.576C50.991 20.8498 51.5012 20.9867 52.0363 20.9867C52.5838 20.9867 53.0941 20.8498 53.567 20.576C54.0398 20.3022 54.4194 19.904 54.7056 19.3814C55.0043 18.8462 55.1536 18.224 55.1536 17.5147Z" fill="#101828"/>
<path d="M69.354 12.3814L63.0447 27.5014H60.842L62.9327 22.4987L58.882 12.3814H61.2527L64.146 20.2214L67.1513 12.3814H69.354Z" fill="#101828"/>
<path d="M80.3866 17.272C80.3866 17.6578 80.3617 18.0062 80.3119 18.3174H72.4532C72.5155 19.1387 72.8204 19.7982 73.3679 20.296C73.9155 20.7938 74.5875 21.0427 75.3839 21.0427C76.5288 21.0427 77.3377 20.5636 77.8106 19.6054H80.1066C79.7955 20.5511 79.2292 21.3289 78.4079 21.9387C77.599 22.536 76.591 22.8347 75.3839 22.8347C74.4008 22.8347 73.5172 22.6169 72.7332 22.1814C71.9617 21.7334 71.3519 21.1111 70.9039 20.3147C70.4684 19.5058 70.2506 18.5725 70.2506 17.5147C70.2506 16.4569 70.4621 15.5298 70.8852 14.7334C71.3208 13.9245 71.9244 13.3022 72.6959 12.8667C73.4799 12.4311 74.3759 12.2134 75.3839 12.2134C76.3546 12.2134 77.2195 12.4249 77.9786 12.848C78.7377 13.2711 79.3288 13.8685 79.7519 14.64C80.175 15.3991 80.3866 16.2765 80.3866 17.272ZM78.1652 16.6C78.1528 15.816 77.8728 15.1876 77.3252 14.7147C76.7777 14.2418 76.0995 14.0054 75.2906 14.0054C74.5564 14.0054 73.9279 14.2418 73.4052 14.7147C72.8826 15.1751 72.5715 15.8036 72.4719 16.6H78.1652Z" fill="#101828"/>
<path d="M84.6087 13.8747C84.9198 13.352 85.3305 12.9476 85.8407 12.6614C86.3634 12.3627 86.9794 12.2134 87.6887 12.2134V14.416H87.1474C86.3136 14.416 85.679 14.6276 85.2434 15.0507C84.8203 15.4738 84.6087 16.208 84.6087 17.2534V22.6667H82.4807V12.3814H84.6087V13.8747Z" fill="#101828"/>
<path d="M93.3781 22.8347C92.5692 22.8347 91.8412 22.6916 91.1941 22.4054C90.5595 22.1067 90.0555 21.7085 89.6821 21.2107C89.3088 20.7005 89.1097 20.1342 89.0848 19.512H91.2875C91.3248 19.9476 91.5301 20.3147 91.9035 20.6134C92.2892 20.8996 92.7684 21.0427 93.3408 21.0427C93.9381 21.0427 94.3986 20.9307 94.7221 20.7067C95.0581 20.4702 95.2261 20.1716 95.2261 19.8107C95.2261 19.4249 95.0395 19.1387 94.6661 18.952C94.3052 18.7654 93.7266 18.56 92.9301 18.336C92.1586 18.1245 91.5301 17.9191 91.0448 17.72C90.5595 17.5209 90.1364 17.216 89.7755 16.8054C89.427 16.3947 89.2528 15.8534 89.2528 15.1814C89.2528 14.6338 89.4146 14.136 89.7381 13.688C90.0617 13.2276 90.5221 12.8667 91.1195 12.6054C91.7292 12.344 92.4261 12.2134 93.2101 12.2134C94.3799 12.2134 95.3195 12.512 96.0288 13.1094C96.7506 13.6942 97.1364 14.4969 97.1861 15.5174H95.0581C95.0208 15.0569 94.8341 14.6898 94.4981 14.416C94.1621 14.1422 93.7079 14.0054 93.1355 14.0054C92.5755 14.0054 92.1461 14.1111 91.8475 14.3227C91.5488 14.5342 91.3995 14.8142 91.3995 15.1627C91.3995 15.4365 91.499 15.6667 91.6981 15.8534C91.8972 16.04 92.1399 16.1894 92.4261 16.3014C92.7124 16.4009 93.1355 16.5316 93.6955 16.6934C94.4421 16.8925 95.0519 17.0978 95.5248 17.3094C96.0101 17.5085 96.427 17.8071 96.7755 18.2054C97.1239 18.6036 97.3044 19.1325 97.3168 19.792C97.3168 20.3769 97.155 20.8996 96.8315 21.36C96.5079 21.8205 96.0475 22.1814 95.4501 22.4427C94.8652 22.704 94.1746 22.8347 93.3781 22.8347Z" fill="#101828"/>
</svg>
