<svg id="Layer_1" data-name="Layer 1" xmlns="http://www.w3.org/2000/svg" viewBox="0 0 688 560"><defs><style>.cls-1{fill:#e1e1e1;}.cls-2{fill:#f5f5f5;}.cls-3{fill:#1a2e35;}.cls-4{fill:#002364;}.cls-5{fill:#98c1d9;}.cls-6{fill:#ececec;}.cls-7{fill:#fff;}.cls-8{fill:#c27460;}.cls-9{fill:#7c4235;}.cls-10{fill:#444;}.cls-11{opacity:0.2;}.cls-12{fill:#fafafa;}.cls-13{fill:#ff735d;}.cls-14{fill:#ffbe9d;}.cls-15{fill:#eb996e;}.cls-16{fill:#033987;}.cls-17{opacity:0.3;}.cls-18{fill:#063875;}.cls-19{fill:none;stroke:#063875;stroke-miterlimit:10;}.cls-20{fill:#02060c;}</style></defs><path class="cls-1" d="M232.2685,106.4951a52.6411,52.6411,0,0,1,12.8441-5.5823l2.6458-12.7137,21.48-.3766,3.0912,12.6116a52.6007,52.6007,0,0,1,13.0336,5.1274L296.22,98.4454l15.4554,14.9231-6.7287,11.0973a52.5964,52.5964,0,0,1,5.5816,12.8473l12.7124,2.6455.3774,21.48-12.6118,3.0921a52.6368,52.6368,0,0,1-5.1271,13.0319l7.1147,10.857-14.9209,15.4558-11.0987-6.7294a52.6146,52.6146,0,0,1-12.8463,5.5814l-2.6463,12.7138-21.4795.3768L246.91,203.2055a52.6591,52.6591,0,0,1-13.0325-5.1274l-10.8561,7.1161-15.4557-14.9226,6.729-11.0978a52.605,52.605,0,0,1-5.5825-12.8463L196,163.6818l-.377-21.48,12.6125-3.0926a52.6773,52.6773,0,0,1,5.1271-13.032l-7.1153-10.8565L221.168,99.7652l11.1,6.73ZM243.719,135.11a23.0462,23.0462,0,1,0,32.5872-.573A23.0458,23.0458,0,0,0,243.719,135.11Z"/><path class="cls-2" d="M134.8546,81.0843a33.4027,33.4027,0,0,1,8.151-3.5426l1.679-8.0682,13.6316-.2389,1.9618,8.0033a33.3858,33.3858,0,0,1,8.2711,3.2539l6.8894-4.5159,9.8082,9.47-4.27,7.0423a33.3809,33.3809,0,0,1,3.5421,8.1531l8.0674,1.6788.24,13.6315-8.0036,1.9623a33.4014,33.4014,0,0,1-3.2537,8.27l4.5151,6.89-9.469,9.8083-7.0432-4.27a33.395,33.395,0,0,1-8.1523,3.5419l-1.6794,8.0683-13.6311.2391-1.962-8.004a33.4212,33.4212,0,0,1-8.2706-3.2539l-6.8894,4.5159-9.8082-9.47,4.27-7.0427a33.3828,33.3828,0,0,1-3.5427-8.1523l-8.0678-1.6791-.2391-13.6312,8.0039-1.9626a33.4287,33.4287,0,0,1,3.2537-8.27l-4.5155-6.89,9.4691-9.8082,7.0445,4.2708Zm7.2665,18.1592a14.6253,14.6253,0,1,0,20.68-.3636A14.6251,14.6251,0,0,0,142.1211,99.2435Z"/><path class="cls-2" d="M607.649,255.1284a35.1187,35.1187,0,0,1,8.5705-3.7247l1.7654-8.4835,14.3332-.2514,2.0626,8.4154a35.1052,35.1052,0,0,1,8.6969,3.4213l7.244-4.7484,10.3129,9.9578-4.49,7.4047a35.0951,35.0951,0,0,1,3.7245,8.5726l8.4825,1.7654.2519,14.3328-8.4154,2.0633a35.1265,35.1265,0,0,1-3.4212,8.6959l4.7474,7.2444-9.9562,10.3131-7.4058-4.49a35.1106,35.1106,0,0,1-8.5719,3.7242l-1.7658,8.4835-14.3325.2515-2.0631-8.4161a35.1307,35.1307,0,0,1-8.6961-3.4213l-7.244,4.7484L591.1657,311.03l4.49-7.4051a35.1087,35.1087,0,0,1-3.725-8.5718l-8.4829-1.7655-.2515-14.3328,8.4158-2.0636a35.15,35.15,0,0,1,3.4212-8.6957l-4.7479-7.2442,9.9565-10.3131,7.407,4.4906Zm7.64,19.0938a15.378,15.378,0,1,0,21.7443-.3823A15.3778,15.3778,0,0,0,615.29,274.2222Z"/><path class="cls-1" d="M68.8264,186.6447a38.19,38.19,0,0,1,9.3181-4.05l1.9194-9.2236,15.5836-.2732,2.2427,9.15a38.1625,38.1625,0,0,1,9.4557,3.72l7.8759-5.1627,11.2127,10.8265-4.8816,8.0509a38.1586,38.1586,0,0,1,4.0493,9.3205l9.2226,1.9193.2738,15.5834-9.15,2.2433a38.1947,38.1947,0,0,1-3.72,9.4544l5.1616,7.8765-10.8249,11.2129-8.0518-4.882a38.1739,38.1739,0,0,1-9.32,4.0491l-1.92,9.2237-15.583.2734-2.243-9.15a38.2021,38.2021,0,0,1-9.4548-3.72l-7.876,5.1626L50.905,247.423l4.8818-8.0512a38.1652,38.1652,0,0,1-4.05-9.32l-9.223-1.9195L42.24,212.5494l9.15-2.2437a38.2162,38.2162,0,0,1,3.72-9.4544l-5.1621-7.8762,10.8252-11.2128,8.0532,4.8824Zm8.3071,20.76a16.72,16.72,0,1,0,23.6413-.4157A16.7193,16.7193,0,0,0,77.1335,207.4043Z"/><path class="cls-3" d="M666.4358,460.6948c0,.1412-144.9451.2558-323.7023.2558C163.914,460.9506,19,460.836,19,460.6948s144.914-.2559,323.7335-.2559C521.4907,460.4389,666.4358,460.5535,666.4358,460.6948Z"/><path class="cls-2" d="M600.0871,354.1865c-1.8859-6.43-6.8726-9.7433-12.5127-9.8419-5.0991,1.1076-6.8872,6.2442-7.2883,11.4468s1.4147,10.292,3.203,15.1942l17.2239,47.2193,14.3908-2.1614C609.6671,394.8646,606.241,375.1683,600.0871,354.1865Z"/><path class="cls-1" d="M587.7672,343.9246a19.3345,19.3345,0,0,0-1.6519,2.4177,16.5162,16.5162,0,0,0-1.895,7.6523,35,35,0,0,0,2.2577,11.5647c1.443,4.2512,3.026,8.9145,4.6883,13.8114,3.2822,9.7914,6.2523,18.652,8.4244,25.1317,1.04,3.1823,1.8878,5.7767,2.4951,7.6354.2712.8656.4883,1.5585.6529,2.0845a4.1144,4.1144,0,0,1,.1934.7383,4.08,4.08,0,0,1-.2949-.7039c-.1887-.5179-.4371-1.2-.7474-2.0526-.6465-1.8454-1.5487-4.4212-2.6555-7.5811l-8.572-25.0818c-1.6489-4.9032-3.219-9.5727-4.65-13.8293a34.6132,34.6132,0,0,1-2.1679-11.7271,16.2226,16.2226,0,0,1,2.0914-7.745A8.9223,8.9223,0,0,1,587.7672,343.9246Z"/><path class="cls-1" d="M611.8894,414.626a4.1074,4.1074,0,0,1-.3542-.6795c-.2086-.456-.5433-1.1181-.9054-2-.7613-1.7486-1.75-4.3292-2.7956-7.5759-1.051-3.2452-2.1138-7.1671-3.1644-11.5484-1.0163-4.3919-2.1312-9.21-3.302-14.269-1.2108-5.0477-2.5239-9.8172-3.9963-14.0617a79.0858,79.0858,0,0,0-4.6634-10.9673,59.1269,59.1269,0,0,0-4.18-6.8649c-.5295-.79-1.0051-1.3561-1.2911-1.7681a4.1421,4.1421,0,0,1-.43-.6344,4.12,4.12,0,0,1,.5144.5674c.3135.3911.817.9387,1.3744,1.7129a52.5593,52.5593,0,0,1,4.345,6.81,75.5479,75.5479,0,0,1,4.7941,10.9824,142.79,142.79,0,0,1,4.0509,14.0994c1.1564,5.0631,2.2577,9.8847,3.2617,14.28,1.0227,4.3806,2.0447,8.3,3.0463,11.5492.9963,3.25,1.9276,5.8415,2.6281,7.61.3318.8919.6352,1.5657.8119,2.0352A4.1444,4.1444,0,0,1,611.8894,414.626Z"/><path class="cls-3" d="M583.6511,368.5883c.04.1414-.7331.4864-1.7279.7706s-1.8337.4-1.8741.259.7332-.4861,1.728-.7706S583.6109,368.4471,583.6511,368.5883Z"/><path class="cls-3" d="M581.7216,358.7849a17.9048,17.9048,0,0,1-4.8812.3889,8.4182,8.4182,0,0,1,4.8812-.3889Z"/><path class="cls-3" d="M582.987,349.7092c-.0906.1159-.8963-.3626-1.8-1.0682s-1.5626-1.372-1.4721-1.4878.896.3625,1.8,1.0685S583.0774,349.5935,582.987,349.7092Z"/><path class="cls-3" d="M587.0594,341.1906c.1478.0275.1358.7311.1482,1.5819.007.8512.0349,1.5543-.1123,1.585-.14.0319-.4113-.6684-.42-1.579C586.6632,341.8685,586.9188,341.162,587.0594,341.1906Z"/><path class="cls-3" d="M596.2291,344.7569c.1237.08-.2008.8057-.7246,1.6221s-1.049,1.4142-1.1726,1.3348.2007-.8054.7247-1.622S596.1054,344.6778,596.2291,344.7569Z"/><path class="cls-1" d="M602.4859,354.68c.0609.1337-.67.5976-1.6326,1.036s-1.7923.6855-1.8532.5516.67-.5974,1.6326-1.0359S602.425,354.5459,602.4859,354.68Z"/><path class="cls-1" d="M606.4553,364.9879a6.6778,6.6778,0,0,1-4.7471,1.2795,47.82,47.82,0,0,1,4.7471-1.2795Z"/><path class="cls-3" d="M590.0484,362.6764c-.142-.0383-.07-.7646.1617-1.6219s.5335-1.5219.6755-1.4837.07.7644-.1618,1.6222S590.19,362.7147,590.0484,362.6764Z"/><path class="cls-1" d="M592.85,375.7062a5.0071,5.0071,0,0,1,.5659-2.1989c.45-1.1616.9254-2.06,1.0624-2.0069a5.0074,5.0074,0,0,1-.566,2.199C593.4625,374.8606,592.9869,375.7591,592.85,375.7062Z"/><path class="cls-1" d="M587.3823,379.525a5.249,5.249,0,0,1-2.1-.3735c-1.1221-.3033-2.03-.5839-2.0042-.7307a3.9185,3.9185,0,0,1,2.1424.2169C586.5683,378.9452,587.4327,379.3893,587.3823,379.525Z"/><path class="cls-1" d="M591.0493,390.093c.09.1161-.5055.7291-1.33,1.3692s-1.5664,1.0649-1.6565.9489.5054-.7291,1.33-1.3693S590.9592,389.9769,591.0493,390.093Z"/><path class="cls-1" d="M594.0744,400.6551c.04.1412-.7129.481-1.6826.7586s-1.7888.3885-1.8293.2472.7128-.4809,1.6827-.7587S594.0339,400.5138,594.0744,400.6551Z"/><path class="cls-1" d="M607.1,373.8876c.0789.12-.5548.6689-1.4944,1.0648-.9387.4-1.7736.473-1.8049.3328-.0348-.146.7056-.4423,1.5973-.8227C606.2915,374.0868,607.02,373.761,607.1,373.8876Z"/><path class="cls-1" d="M609.7817,390.4007c-.057.1354-.8469-.0688-1.7639-.456s-1.6142-.8109-1.557-.9464.8468.0689,1.7641.4562S609.8389,390.2654,609.7817,390.4007Z"/><path class="cls-1" d="M613.8127,402.1322a10.6773,10.6773,0,0,1-4.4783-1.55,10.6871,10.6871,0,0,1,4.4783,1.55Z"/><path class="cls-1" d="M595.11,412.2052c-.0776-.1308.8447-.8062,1.9046-1.715,1.065-.9038,1.8771-1.7079,1.9939-1.6108.1113.0881-.5435,1.0768-1.6486,2.0156A4.767,4.767,0,0,1,595.11,412.2052Z"/><path class="cls-1" d="M604.2566,405.7878c-.15.0237-.3866-.7656-.7866-1.6784-.3927-.9163-.807-1.6283-.687-1.7216.1084-.0915.75.5221,1.1751,1.51C604.3883,404.8833,604.3975,405.7711,604.2566,405.7878Z"/><path class="cls-1" d="M601.1909,391.6065c-.0808.1227-.6989-.1417-1.38-.59s-1.1687-.9124-1.0878-1.0351.6987.1415,1.38.5905S601.2718,391.4838,601.1909,391.6065Z"/><path class="cls-1" d="M611.74,379.8215c.0373.1387-.8066.48-1.91.5968-1.1039.12-2.0007-.0343-1.9937-.178.0055-.15.8765-.235,1.937-.351C610.8338,379.7778,611.7034,379.676,611.74,379.8215Z"/><path class="cls-1" d="M612.6145,371.2469c-.0047.1414-.87.1992-1.834-.201-.9672-.3947-1.5407-1.0443-1.4445-1.148.0976-.1171.767.2992,1.6471.6558C611.8589,370.92,612.6275,371.0951,612.6145,371.2469Z"/><path class="cls-1" d="M614.2794,394.7166c-.02.1456-.7479.1675-1.6264.0487s-1.5748-.3332-1.5553-.4788.7478-.1674,1.6266-.0486S614.2991,394.5711,614.2794,394.7166Z"/><path class="cls-1" d="M640.7209,378.9594c-.1022.1057-.8225-.4254-1.6085-1.186s-1.3408-1.4632-1.2385-1.5688.8223.4254,1.6085,1.1863S640.823,378.8538,640.7209,378.9594Z"/><path class="cls-2" d="M667.18,346.4742c.4452-3.2262.8493-6.5393.1164-9.7125s-2.8387-6.2258-5.9517-7.1825c-3.5528-1.0917-7.4811.8463-9.8028,3.7487s-3.3735,6.5926-4.317,10.1875a372.492,372.492,0,0,0-11.7223,75.7962l14.6316,3.4755C659.1522,396.7922,663.42,373.7307,667.18,346.4742Z"/><path class="cls-1" d="M659.2972,329.2712a.8654.8654,0,0,1-.0893.23c-.083.1748-.1843.388-.3082.6491q-.4511.906-1.2291,2.4683c-.26.539-.5911,1.1171-.8772,1.7868q-.4311,1.0083-.9311,2.1782l-1.0739,2.5q-.4944,1.3606-1.0423,2.8681a129.5366,129.5366,0,0,0-4.2456,14.4044c-1.3273,5.5-2.4352,11.6272-3.46,18.0775-1.9815,12.92-3.21,24.7015-4.3474,33.1972-.56,4.2493-1.0309,7.686-1.4182,10.0519q-.2807,1.7224-.4439,2.7242c-.0518.284-.0942.5159-.1288.7062a.1238.1238,0,1,1-.0538-.0082c.0206-.1923.0456-.4268.0765-.714q.1267-1.0049.345-2.7375c.3241-2.3735.7379-5.8158,1.25-10.0691,1.0412-8.5038,2.21-20.2914,4.1951-33.2325,1.0264-6.4609,2.1516-12.5994,3.5091-18.11a123.2267,123.2267,0,0,1,4.3692-14.42l1.0813-2.8644,1.1156-2.4935q.5225-1.1623.9741-2.1668c.3006-.6652.6471-1.2386.9216-1.7717q.8349-1.5346,1.32-2.4269c.1427-.2509.2592-.4559.3547-.624A.8347.8347,0,0,1,659.2972,329.2712Z"/><path class="cls-1" d="M660.67,329.4087a10.6624,10.6624,0,0,1,1.5228,3.2382,22.8055,22.8055,0,0,1,.4489,9.7194c-1.1654,8.156-2.9621,19.3768-5.1108,31.75-2.1548,12.3752-4.302,23.5422-5.9443,31.6063-.8208,4.0324-1.51,7.29-2.0032,9.538q-.3675,1.6306-.5826,2.5851c-.0658.2679-.12.4876-.1647.67a.1189.1189,0,1,1-.0532-.0111l.1129-.68q.1787-.9606.4847-2.605l1.8369-9.569c1.5475-8.0808,3.6353-19.2542,5.7892-31.6251,2.1475-12.3651,4.0041-23.5857,5.2619-31.707a23.309,23.309,0,0,0-.2743-9.6126A20.0272,20.0272,0,0,0,660.67,329.4087Z"/><path class="cls-1" d="M667.3371,368.7523a15.9719,15.9719,0,0,1-5.2582-2.4645,15.9751,15.9751,0,0,1,5.2582,2.4645Z"/><path class="cls-1" d="M670.5459,353.8092a17.7352,17.7352,0,0,1-5.7972,1.9655,17.7353,17.7353,0,0,1,5.7972-1.9655Z"/><path class="cls-1" d="M670.7814,341.3882a9.2836,9.2836,0,0,1-4.356-.7154,9.2892,9.2892,0,0,1,4.356.7154Z"/><path class="cls-1" d="M656.2242,332.045c-.1313.0663-.7043-.8039-1.28-1.9435a5.2515,5.2515,0,0,1-.8049-2.1835c.1311-.0662.7041.8038,1.28,1.9437A5.2556,5.2556,0,0,1,656.2242,332.045Z"/><path class="cls-1" d="M650.466,339.026a4.4124,4.4124,0,0,1-2.1266.0218c-1.1579-.1339-2.0825-.3608-2.0656-.5067a4.4139,4.4139,0,0,1,2.1266-.0219C649.558,338.653,650.4829,338.88,650.466,339.026Z"/><path class="cls-1" d="M645.4306,353.6067a5.1663,5.1663,0,0,1-2.1588-.8166c-1.125-.5817-1.9819-1.1589-1.9145-1.2895a5.17,5.17,0,0,1,2.1589.8169C644.6409,352.899,645.4981,353.4764,645.4306,353.6067Z"/><path class="cls-1" d="M643.8611,366.12c.0165.146-.8563.3647-1.9493.4887s-1.9927.1062-2.0092-.04.856-.3648,1.9493-.4888S643.8445,365.9735,643.8611,366.12Z"/><path class="cls-1" d="M640.22,386.486c.0123.1465-.911.3433-2.0619.44a4.3409,4.3409,0,0,1-2.1066-.0908c-.0123-.1464.9109-.3432,2.0622-.44A4.34,4.34,0,0,1,640.22,386.486Z"/><path class="cls-1" d="M638.0187,397.71c.0562.1359-.7415.595-1.7814,1.0258s-1.9289.67-1.9852.5342.7413-.595,1.7816-1.0258S637.9625,397.5746,638.0187,397.71Z"/><path class="cls-1" d="M646.0608,411.4431a11.6706,11.6706,0,0,1-2.0486-4.5122,11.67,11.67,0,0,1,2.0486,4.5122Z"/><path class="cls-1" d="M650.7428,390.3215c.0926.1141-.716.9236-1.8055,1.8075a6.3,6.3,0,0,1-2.1411,1.3947c-.0926-.1141.7156-.9233,1.8058-1.8078A6.2975,6.2975,0,0,1,650.7428,390.3215Z"/><path class="cls-1" d="M651.208,379.0516c-.1167.0894-.7381-.5264-1.3879-1.3752s-1.0821-1.61-.9654-1.699.7381.5265,1.388,1.3755S651.3247,378.9624,651.208,379.0516Z"/><path class="cls-1" d="M654.3923,364.8959c.1.1078-.5855.9038-1.53,1.7777s-1.7924,1.4951-1.8921,1.3872.5854-.9038,1.5308-1.7779S654.2927,364.788,654.3923,364.8959Z"/><path class="cls-1" d="M656.4051,354.594c-.1124.0948-.8942-.6481-1.746-1.6591s-1.4517-1.9074-1.3393-2.0021.894.648,1.7462,1.6593S656.5175,354.4994,656.4051,354.594Z"/><path class="cls-1" d="M659.7585,340.7281c.1187.0868-.3939.9892-1.1447,2.0153s-1.4558,1.7878-1.5744,1.701.3939-.9889,1.145-2.0153S659.64,340.6414,659.7585,340.7281Z"/><path class="cls-1" d="M664.8039,328.061c.1222.0818-.3416.99-1.0357,2.0279s-1.3559,1.8137-1.4782,1.732.3415-.9894,1.0359-2.0278S664.6818,327.9794,664.8039,328.061Z"/><path class="cls-1" d="M668.58,334.3859c.0508.1379-.5815.4974-1.412.8027s-1.5452.4412-1.596.3033.5816-.4972,1.4124-.8027S668.529,334.248,668.58,334.3859Z"/><path class="cls-1" d="M664.2788,381.1787a9.0912,9.0912,0,0,1-5.1972-2.82,115.1773,115.1773,0,0,1,5.1972,2.82Z"/><path class="cls-1" d="M661.5748,390.9211c.0143.1462-.9063.3553-2.0562.4669a4.3416,4.3416,0,0,1-2.1077-.063c-.0141-.1462.9063-.3552,2.0564-.4667A4.3439,4.3439,0,0,1,661.5748,390.9211Z"/><path class="cls-1" d="M657.7988,407.7062a8.4348,8.4348,0,0,1-3.2375-4.9786,574.9537,574.9537,0,0,0,3.2375,4.9786Z"/><path class="cls-3" d="M633.2333,413.2319c-.0847-.12.581-.7348,1.4866-1.3724s1.7084-1.0575,1.7931-.9374-.5809.7345-1.4868,1.3725S633.3179,413.352,633.2333,413.2319Z"/><path class="cls-2" d="M630.2317,368.45c-.5906-3.5661-2.0557-7.8368-5.6241-8.4124a6.0045,6.0045,0,0,0-5.5215,2.6274,12.5458,12.5458,0,0,0-2.2632,5.9661,162.3863,162.3863,0,0,0,1.1387,45.7654l13.0848,1.9191A157.1393,157.1393,0,0,0,630.2317,368.45Z"/><path class="cls-1" d="M624.6075,360.0374a13.9372,13.9372,0,0,0-1.38,1.6891,12.34,12.34,0,0,0-1.4608,5.6954c-.1114,2.5237-.2655,5.5614-.33,8.9039-.0556,3.3513.0086,7.0379.1924,10.9038.3773,7.7345,1.0543,14.7239,1.3916,19.7958.1756,2.5357.2875,4.59.34,6.0108.0156.6524.0284,1.1926.0391,1.6371a.2884.2884,0,1,1-.1218.0067c-.0414-.4423-.0916-.98-.1524-1.6291-.1338-1.5086-.3132-3.5325-.5312-5.9912-.446-5.0586-1.191-12.0431-1.5695-19.8017-.1843-3.8772-.2319-7.5792-.1454-10.944.0338-1.6828.127-3.28.21-4.7741.0953-1.484.1359-2.878.2517-4.1516a12.0076,12.0076,0,0,1,1.69-5.79A5.235,5.235,0,0,1,624.6075,360.0374Z"/><path class="cls-1" d="M631.4236,364.0049c.0787.1476-.6832.7072-1.7012,1.25s-1.9074.8637-1.9861.7161.6829-.707,1.7014-1.25S631.3449,363.8574,631.4236,364.0049Z"/><path class="cls-1" d="M633.649,374.7058c-.0082.1623-1.082.2287-2.35-.102-1.27-.3258-2.1764-.9046-2.1048-1.05.0724-.1556,1.0484.1555,2.2563.4645C632.6566,374.3333,633.6611,374.5346,633.649,374.7058Z"/><path class="cls-1" d="M633.4205,385.809c-.1085.127-1.0378-.4893-2.0751-1.3764s-1.7908-1.7095-1.6821-1.8364,1.0376.4891,2.0753,1.3765S633.5292,385.682,633.4205,385.809Z"/><rect class="cls-1" x="588.352" y="409.8395" width="75.7088" height="13.4186"/><polygon class="cls-1" points="594.006 420.596 603.212 460.695 648.335 460.695 658.407 420.596 594.006 420.596"/><path class="cls-3" d="M664.019,423.2749c0,.1471-17.0772.2662-38.138.2662-21.0683,0-38.1417-.1191-38.1417-.2662s17.0734-.2661,38.1417-.2661C646.9418,423.0088,664.019,423.1281,664.019,423.2749Z"/><path class="cls-1" d="M626.1748,376.2724c-.1531.0672-.6358-.6968-1.078-1.7061s-.6767-1.882-.5236-1.9492.6356.6968,1.0779,1.7064S626.3278,376.2054,626.1748,376.2724Z"/><path class="cls-1" d="M624.4242,388.4255c-.1494-.0753.2008-1.0724.7821-2.2272s1.1735-2.03,1.3228-1.9552-.2009,1.0722-.7823,2.2274S624.5733,388.5006,624.4242,388.4255Z"/><path class="cls-1" d="M626.712,401.789a12.1615,12.1615,0,0,1-1.5977-5.15,12.1638,12.1638,0,0,1,1.5977,5.15Z"/><path class="cls-1" d="M613.4516,407.3185c-.1037-.1312.55-.82,1.4588-1.54s1.7306-1.1958,1.8344-1.0646-.5494.82-1.459,1.5394S613.5552,407.45,613.4516,407.3185Z"/><path class="cls-4" d="M138.9547,158.421H556.677a14.5673,14.5673,0,0,1,14.5673,14.5673V439.3557A14.5673,14.5673,0,0,1,556.677,453.923H138.9548a14.5673,14.5673,0,0,1-14.5673-14.5673V172.9882A14.5672,14.5672,0,0,1,138.9547,158.421Z"/><path class="cls-4" d="M106.9234,434.8386H591.0588a0,0,0,0,1,0,0v8.0585a17.7976,17.7976,0,0,1-17.7976,17.7976H124.721a17.7976,17.7976,0,0,1-17.7976-17.7976v-8.0585A0,0,0,0,1,106.9234,434.8386Z"/><polygon class="cls-5" points="303.765 432.068 309.773 441.624 394.309 441.624 399.887 432.068 303.765 432.068"/><path class="cls-6" d="M148.3388,178.6095H546.91a3.2734,3.2734,0,0,1,3.2734,3.2734V415.6371A3.2729,3.2729,0,0,1,546.91,418.91H148.3388a3.2725,3.2725,0,0,1-3.2725-3.2725V181.882A3.2725,3.2725,0,0,1,148.3388,178.6095Z"/><polygon class="cls-7" points="549.749 419.262 144.633 419.262 145.066 196.568 549.749 196.568 549.749 419.262"/><path class="cls-3" d="M178.2922,187.89a3.2352,3.2352,0,1,1-3.2355-3.2351A3.2355,3.2355,0,0,1,178.2922,187.89Z"/><path class="cls-3" d="M158.6833,187.89a3.2356,3.2356,0,1,1-3.2357-3.2351A3.2352,3.2352,0,0,1,158.6833,187.89Z"/><path class="cls-3" d="M168.0956,187.89a3.2355,3.2355,0,1,1-3.2355-3.2351A3.2351,3.2351,0,0,1,168.0956,187.89Z"/><path class="cls-5" d="M567.4043,432.0673c0,.16-99.1806.29-221.4977.29-122.36,0-221.5191-.13-221.5191-.29s99.1594-.2891,221.5191-.2891C468.2237,431.7782,567.4043,431.9078,567.4043,432.0673Z"/><path class="cls-1" d="M491.5009,394.674h-5.8945a.4912.4912,0,0,1,0-.9824H491.01v-5.4033a.4913.4913,0,1,1,.9825,0v5.8945A.491.491,0,0,1,491.5009,394.674Z"/><path class="cls-1" d="M474.1463,394.674h-11.46a.4912.4912,0,1,1,0-.9824h11.46a.4912.4912,0,0,1,0,.9824Zm-22.92,0h-11.46a.4912.4912,0,0,1,0-.9824h11.46a.4912.4912,0,0,1,0,.9824Zm-22.92,0h-11.46a.4912.4912,0,1,1,0-.9824h11.46a.4912.4912,0,0,1,0,.9824Zm-22.92,0h-11.46a.4912.4912,0,0,1,0-.9824h11.46a.4912.4912,0,0,1,0,.9824Z"/><path class="cls-1" d="M382.4672,394.674h-5.8945a.4909.4909,0,0,1-.4912-.4912v-5.8945a.4912.4912,0,1,1,.9824,0v5.4033h5.4033a.4912.4912,0,0,1,0,.9824Z"/><path class="cls-1" d="M376.5727,376.4944a.4909.4909,0,0,1-.4912-.4913V363.718a.4912.4912,0,0,1,.9824,0v12.2851A.4909.4909,0,0,1,376.5727,376.4944Zm0-24.5712a.4909.4909,0,0,1-.4912-.4912V339.1469a.4912.4912,0,0,1,.9824,0V351.432A.4909.4909,0,0,1,376.5727,351.9232Zm0-24.57a.4909.4909,0,0,1-.4912-.4912V314.5757a.4912.4912,0,0,1,.9824,0v12.2861A.4909.4909,0,0,1,376.5727,327.353Z"/><path class="cls-1" d="M376.5727,302.7809a.4909.4909,0,0,1-.4912-.4912v-5.8945a.4909.4909,0,0,1,.4912-.4913h5.8945a.4913.4913,0,0,1,0,.9825h-5.4033V302.29A.491.491,0,0,1,376.5727,302.7809Z"/><path class="cls-1" d="M474.1473,296.8864h-11.46a.4913.4913,0,0,1,0-.9825h11.46a.4913.4913,0,0,1,0,.9825Zm-22.92,0h-11.46a.4913.4913,0,0,1,0-.9825h11.46a.4913.4913,0,0,1,0,.9825Zm-22.92,0h-11.46a.4913.4913,0,0,1,0-.9825h11.46a.4913.4913,0,0,1,0,.9825Zm-22.92,0h-11.46a.4913.4913,0,0,1,0-.9825h11.46a.4913.4913,0,0,1,0,.9825Z"/><path class="cls-1" d="M491.5009,302.7809a.491.491,0,0,1-.4912-.4912v-5.4033h-5.4033a.4913.4913,0,0,1,0-.9825h5.8945a.491.491,0,0,1,.4913.4913V302.29A.4911.4911,0,0,1,491.5009,302.7809Z"/><path class="cls-1" d="M491.5009,376.4944a.4909.4909,0,0,1-.4912-.4913V363.717a.4913.4913,0,0,1,.9825,0v12.2861A.491.491,0,0,1,491.5009,376.4944Zm0-24.5712a.4909.4909,0,0,1-.4912-.4912V339.1469a.4913.4913,0,0,1,.9825,0V351.432A.491.491,0,0,1,491.5009,351.9232Zm0-24.5712a.4909.4909,0,0,1-.4912-.4912V314.5757a.4913.4913,0,0,1,.9825,0v12.2851A.4909.4909,0,0,1,491.5009,327.352Z"/><path d="M377.2773,96.0564a17.12,17.12,0,0,0,.3776,15.9005c1.3247,2.3244,3.2918,4.7617,2.576,7.3533-.7085,2.5652-3.8105,3.9688-4.4292,6.5565-.7282,3.0463,2.3,5.6344,2.9615,8.6842a6.2416,6.2416,0,0,1-4.0354,6.9832,24.36,24.36,0,0,0,13.1005-.466q.6107-2.6617,1.2214-5.3239c-.5158,1.9059.81,3.9264,2.583,4.7853a10.1721,10.1721,0,0,0,5.8169.5274,31.1069,31.1069,0,0,0,22.5818-15.502"/><path d="M433.0627,95.7357c-1.48-1.5618-3.31-2.7928-4.6164-4.5026-2.8069-3.6745-2.965-9.2309-6.699-11.9675-2.6582-1.9477-6.2972-1.7951-9.5791-1.314s-6.7112,1.1951-9.8338.1186c-2.29-.79-4.1762-2.4772-6.4637-3.2744-3.26-1.136-6.9-.3215-10.1217.97a20.977,20.977,0,0,0-8.72,5.9832,11.3571,11.3571,0,0,0-2.419,9.9563c.4726,1.6571,1.4216,3.18,1.63,4.8918.2289,1.883-.4646,3.76-.5436,5.6581a8.9934,8.9934,0,0,0,6.69,8.8479l35.395,17.843c5.4568-.4569,15.7068-7.8769,17.693-12.9713S436.8025,99.6829,433.0627,95.7357Z"/><path class="cls-8" d="M381.2786,107.2322c-2.1124-6.8538-.76-16.7746,6.224-18.6431L410.47,85.8146a4.1911,4.1911,0,0,1,5.045,2.624l17.4513,49.09a.9058.9058,0,0,0,1.389-.1436.2956.2956,0,0,1,.5088.248c-.7685,4.5618.1309,15.2028-13.6251,16.1083-3.0733.2022-9.1117.4456-10.827-2.4114l-3.2622-7.8278c-1.5847-4.0343-2.2144-5.6965-2.2029-5.658,0,0-9.15,1.8807-15.1632-8.5889C386.7933,124.0489,383.6255,114.8468,381.2786,107.2322Z"/><path class="cls-3" d="M388.4685,116.1308a1.5292,1.5292,0,0,0,1.9367.9107,1.4779,1.4779,0,0,0,.9966-1.8589,1.53,1.53,0,0,0-1.9355-.912A1.4786,1.4786,0,0,0,388.4685,116.1308Z"/><path class="cls-3" d="M402.3872,110.8868a1.5288,1.5288,0,0,0,1.9365.911,1.4777,1.4777,0,0,0,.9963-1.859,1.53,1.53,0,0,0-1.9353-.9121A1.4785,1.4785,0,0,0,402.3872,110.8868Z"/><path class="cls-3" d="M384.5446,111.6174c.27.1813,1.1827-1.243,2.9129-1.7756,1.72-.5608,3.2891.0776,3.4049-.2265.0606-.1377-.27-.5136-.9586-.8089a4.1115,4.1115,0,0,0-5.0429,1.5975C384.4668,111.0427,384.4149,111.539,384.5446,111.6174Z"/><path class="cls-3" d="M399.7855,106.4568c.3006.1421,1.1429-1.3771,2.92-2.128,1.7651-.7775,3.4729-.3585,3.57-.6722.0515-.143-.3264-.469-1.0793-.667a4.6878,4.6878,0,0,0-2.9751.2537,4.59,4.59,0,0,0-2.2046,1.9806C399.657,105.9026,399.6429,106.3969,399.7855,106.4568Z"/><path class="cls-3" d="M399.1119,119.22a11.0606,11.0606,0,0,0-2.69.5139c-.4117.1112-.8159.1767-.9841-.066a2.125,2.125,0,0,1-.1777-1.2661q.0175-1.6405.0361-3.4416c.01-4.8839-.1414-8.839-.3387-8.8359s-.3663,3.9641-.3766,8.8484q.0111,1.8009.02,3.4405a2.4137,2.4137,0,0,0,.38,1.6214,1.0568,1.0568,0,0,0,.869.3252,2.9046,2.9046,0,0,0,.7077-.1651A10.8911,10.8911,0,0,0,399.1119,119.22Z"/><path class="cls-9" d="M404.9472,137.8444a30.8967,30.8967,0,0,0,13.5369-9.75s-.8142,9.2769-12.4553,12.5426Z"/><path class="cls-9" d="M401.3885,122.7194a3.0175,3.0175,0,0,1,2.5-1.4786,2.7111,2.7111,0,0,1,2.0023.7233,1.7072,1.7072,0,0,1,.4,1.9269,2.0226,2.0226,0,0,1-2.0765.8545,6.2305,6.2305,0,0,1-2.27-.94,1.8072,1.8072,0,0,1-.5355-.4146.547.547,0,0,1-.0818-.6078"/><path class="cls-3" d="M404.4267,119.4472c-.2574.0823.3729,1.7542-.6183,3.4922-.9866,1.7407-2.8523,2.24-2.7766,2.4791.0161.1139.5227.1715,1.2874-.0982a4.527,4.527,0,0,0,2.3537-1.9749,3.88,3.88,0,0,0,.4107-2.8867C404.883,119.7358,404.5381,119.3937,404.4267,119.4472Z"/><path class="cls-3" d="M396.92,101.6236c.3726.2959,1.6738-.7547,3.4537-1.5775,1.7642-.8586,3.3965-1.2,3.4073-1.6784-.002-.2243-.4547-.44-1.2217-.4766a6.6475,6.6475,0,0,0-5.2272,2.48C396.8717,100.99,396.7489,101.4793,396.92,101.6236Z"/><path class="cls-3" d="M382.6741,106.9042c.4509.2655,1.7416-.4845,3.4083-.9535,1.6541-.5147,3.1523-.59,3.3775-1.0565.0941-.222-.2254-.5234-.935-.6988a5.8945,5.8945,0,0,0-2.9354.1579,5.8,5.8,0,0,0-2.532,1.4617C382.5654,106.3457,382.47,106.77,382.6741,106.9042Z"/><path d="M415.5888,85.2845c-1.7208-1.0554-3.8912-.99-5.9149-.8353A111.2474,111.2474,0,0,0,383.9464,89.52c-.2259,2.0638,1.7045,3.814,3.73,4.28s4.14.0282,6.2167-.1526,4.3641-.0278,5.905,1.3547c1.6391,1.4707,2.0091,3.9555,3.5709,5.5064,2.6874,2.6692,7.7109,1.563,10.3828,4.247,2.0207,2.03,1.8181,5.3053,2.6692,8.0407a10.3726,10.3726,0,0,0,6.5946,6.6678,10.5812,10.5812,0,0,0,7.5314-.4654q-5.7212-14.2539-11.4418-28.5082C418.3114,88.5118,417.41,86.4012,415.5888,85.2845Z"/><path d="M445.3668,99.76c-2.0886-.6123-4.4674-.871-5.9358-2.4659-2.1388-2.3237-1.4386-6.5747-4.03-8.3858-2.3634-1.6523-6.1318.2709-8.427-1.4735-1.7925-1.3621-1.464-3.4736-2.5689-4.8919s-4.0322-1.7358-5.5718-.7754l-4.1188,24.3294c1.7068,6.7,2.0554,10.5314,5.0751,13.4948a31.97,31.97,0,0,1,4.7747,5.0407c1.2643,1.9445,1.8374,4.5543.7022,6.5955,7.8913-3.01,13.166-10.3386,17.9611-17.2795q2.5372-3.6731,5.0749-7.3461a5.6477,5.6477,0,0,0,1.1715-2.4915C449.7066,101.9481,447.4549,100.3723,445.3668,99.76Z"/><path class="cls-10" d="M442.5472,112.0076a4.0264,4.0264,0,0,1-.74.54,7.7378,7.7378,0,0,1-2.45.9554,8.1326,8.1326,0,0,1-4.1391-.2011,7.8716,7.8716,0,0,1-4.2545-3.3838,8.0975,8.0975,0,0,1-1.1135-3.0143,13.026,13.026,0,0,1,.0928-3.4755,12.2815,12.2815,0,0,0,.0885-3.602,4.1136,4.1136,0,0,0-1.9147-3.0091c-1.1258-.5927-2.5183-.2088-3.936-.1215a3.8408,3.8408,0,0,1-2.1848-.4243,3.7052,3.7052,0,0,1-1.4553-1.7324,23.6023,23.6023,0,0,1-.9853-4.343,4.7019,4.7019,0,0,0-.8954-1.9347,2.967,2.967,0,0,0-1.8194-1.0115,8.4686,8.4686,0,0,0-4.3317.8015,9.1746,9.1746,0,0,1-4.4625.7114,8.1072,8.1072,0,0,1-4.0442-1.6167,13.2419,13.2419,0,0,1-2.6944-3.15,18.5008,18.5008,0,0,0-2.3437-3.0417,8.3175,8.3175,0,0,0-3.05-1.83,9.518,9.518,0,0,0-10.637,3.3322,11.5515,11.5515,0,0,0-1.89,3.6027,15.1231,15.1231,0,0,0-.6,3.4341.8061.8061,0,0,1-.02-.23c.0006-.1524-.0191-.3809.003-.6786a10.9637,10.9637,0,0,1,.4349-2.5787,11.4761,11.4761,0,0,1,1.8546-3.7131,9.8064,9.8064,0,0,1,10.9855-3.552,8.7059,8.7059,0,0,1,3.2192,1.9038,18.7757,18.7757,0,0,1,2.4177,3.0972,12.8777,12.8777,0,0,0,2.6085,3.0357,7.6538,7.6538,0,0,0,3.8123,1.511,8.7058,8.7058,0,0,0,4.2429-.6923A8.8817,8.8817,0,0,1,416.93,86.77a3.4566,3.4566,0,0,1,2.1054,1.1764,5.1646,5.1646,0,0,1,.9931,2.1292,23.8891,23.8891,0,0,0,.9509,4.2665,3.2453,3.2453,0,0,0,1.2592,1.5219,3.38,3.38,0,0,0,1.9227.3668c.6811-.031,1.3691-.1571,2.0753-.1876a3.9875,3.9875,0,0,1,2.09.3753,4.5273,4.5273,0,0,1,2.1285,3.3292,12.5833,12.5833,0,0,1-.1093,3.7266,12.76,12.76,0,0,0-.1221,3.3735,7.7862,7.7862,0,0,0,1.0361,2.89,7.62,7.62,0,0,0,4.0467,3.3063,8.0426,8.0426,0,0,0,4.0153.2733A9.1885,9.1885,0,0,0,442.5472,112.0076Z"/><path class="cls-10" d="M446.5789,94.189a1.7512,1.7512,0,0,1,.5415.4987,2.9727,2.9727,0,0,1,.5543,2.0272,3.1945,3.1945,0,0,1-.4961,1.4768,3.381,3.381,0,0,1-1.4242,1.1993,4.1989,4.1989,0,0,1-4.3227-.5225,5.5355,5.5355,0,0,1-1.6262-2.0453,7.7309,7.7309,0,0,1-.6387-2.7489c-.1647-1.92.1826-4.0311-.6924-5.9522a3.8263,3.8263,0,0,0-2.1052-2.1782,4.2716,4.2716,0,0,0-3.1709.4521,10.41,10.41,0,0,1-3.4559,1.221,3.1567,3.1567,0,0,1-1.8881-.4912,4.4419,4.4419,0,0,1-1.3407-1.4024,14.64,14.64,0,0,1-1.3049-3.4881,8.0806,8.0806,0,0,0-1.64-3.0282,8.6667,8.6667,0,0,0-5.7138-2.9353,12.4764,12.4764,0,0,0-5.8422,1.3021,17.358,17.358,0,0,1-5.1737,1.5267,11.0943,11.0943,0,0,1-4.4132-.5147A10.8981,10.8981,0,0,1,399.437,77.09a7.8559,7.8559,0,0,1-2.0339-1.9678,15.2124,15.2124,0,0,0,2.143,1.8112,11.0914,11.0914,0,0,0,2.9638,1.3923,10.9639,10.9639,0,0,0,4.2989.4315,17.2615,17.2615,0,0,0,5.0519-1.557,12.79,12.79,0,0,1,6.0358-1.3764,9.0942,9.0942,0,0,1,6.036,3.0694,8.5405,8.5405,0,0,1,1.7408,3.1926,14.4126,14.4126,0,0,0,1.256,3.3764,3.1034,3.1034,0,0,0,2.7919,1.67,10.162,10.162,0,0,0,3.2839-1.1718,4.7183,4.7183,0,0,1,3.5228-.4559,4.2624,4.2624,0,0,1,2.36,2.4333,8.1452,8.1452,0,0,1,.627,3.1431c.0339,1.0305-.0039,2.02.0574,2.9622a7.3934,7.3934,0,0,0,.5772,2.6206,5.2077,5.2077,0,0,0,1.4956,1.931,3.9064,3.9064,0,0,0,3.9986.5479,3.1565,3.1565,0,0,0,1.3418-1.0792,3.0305,3.0305,0,0,0,.5-1.365,2.9583,2.9583,0,0,0-.4454-1.9538C446.7754,94.3552,446.5605,94.21,446.5789,94.189Z"/><path class="cls-10" d="M368.4644,136.6659a3.2758,3.2758,0,0,0,.9544,1.9629,2.88,2.88,0,0,0,2.3315.8431,3.066,3.066,0,0,0,2.4376-2.08,2.7621,2.7621,0,0,0-.0894-1.8914,5.7068,5.7068,0,0,0-1.191-1.7733c-1.006-1.0874-2.4851-2.0885-3.1431-3.8146a6.7338,6.7338,0,0,1,.2618-5.46,8.0215,8.0215,0,0,1,1.79-2.3622,11.8127,11.8127,0,0,1,2.53-1.6695,15.917,15.917,0,0,0,2.5036-1.5184,3.8887,3.8887,0,0,0,1.4545-2.2326,4.6983,4.6983,0,0,0-.3108-2.5848,9.3305,9.3305,0,0,0-1.2932-2.236,19.32,19.32,0,0,1-2.762-4.0952,7.3732,7.3732,0,0,1-.3663-4.3125,9.6354,9.6354,0,0,1,1.5027-3.2527,18.2286,18.2286,0,0,0,1.3437-2.298,5.5959,5.5959,0,0,0,.4993-2.18c.0084-.0008.0186.0491.03.1478a2.3762,2.3762,0,0,1,.022.4422,4.4832,4.4832,0,0,1-.376,1.663,16.7379,16.7379,0,0,1-1.2869,2.3673,9.549,9.549,0,0,0-1.396,3.1776,7.0667,7.0667,0,0,0,.4028,4.0887,19.4032,19.4032,0,0,0,2.7487,3.9815,9.7033,9.7033,0,0,1,1.3671,2.335,5.1432,5.1432,0,0,1,.3453,2.8455,4.3669,4.3669,0,0,1-1.6186,2.5179,16.138,16.138,0,0,1-2.5811,1.573,11.4123,11.4123,0,0,0-2.432,1.5977,7.5593,7.5593,0,0,0-1.6861,2.213,6.2991,6.2991,0,0,0-.2723,5.0845c.5825,1.5879,1.9742,2.5609,3.023,3.7073a6.0338,6.0338,0,0,1,1.2449,1.9129,3.1157,3.1157,0,0,1,.0648,2.1322,3.3556,3.3556,0,0,1-2.7379,2.2449,3.1666,3.1666,0,0,1-3.2934-2.4823A1.753,1.753,0,0,1,368.4644,136.6659Z"/><rect class="cls-2" x="369.6355" y="231.4138" width="120.5343" height="96.7763" rx="4.5126"/><path class="cls-3" d="M485.6572,328.19a7.1126,7.1126,0,0,0,1.084-.1635,4.5076,4.5076,0,0,0,2.5716-1.7967,4.4546,4.4546,0,0,0,.7747-2.1914c.0325-.8661.0021-1.8337.0062-2.8706-.0069-2.08-.0147-4.4787-.0236-7.1774-.0191-10.8113-.0469-26.4362-.0812-45.7412-.01-9.6568-.02-20.2333-.0312-31.5869a6.0934,6.0934,0,0,0-.2082-2.05,4.3043,4.3043,0,0,0-2.8214-2.79,6.731,6.731,0,0,0-2.1077-.19l-8.9374.0062-18.656.0107-83.0687.02a4.2686,4.2686,0,0,0-4.0025,2.7916,7.003,7.003,0,0,0-.2648,2.62v2.7334q0,5.4576-.001,10.8409-.002,10.7643-.0039,21.1951c-.0051,13.8956-.01,27.2992-.0148,40.0678q-.0027,4.7882-.0052,9.4551,0,1.1658,0,2.3238a4.3358,4.3358,0,0,0,.5586,2.0943,4.2825,4.2825,0,0,0,3.5462,2.1639q9.0683.0115,17.589.0221l31.5879.0313,45.7386.0813c5.3924.0207,9.5816.037,12.4354.048l3.2339.0254c.7286.0086,1.1018.0261,1.1018.0261s-.3732.0176-1.1018.0262l-3.2339.0254c-2.8538.011-7.043.0271-12.4354.0481l-45.7386.0812-31.5879.0312-17.6074.0033a4.7368,4.7368,0,0,1-3.9239-2.3881,4.7953,4.7953,0,0,1-.621-2.3175q-.0012-1.159-.0025-2.326-.0026-4.6659-.0051-9.4551c-.0047-12.7686-.01-26.1722-.0148-40.0678q-.002-10.422-.004-21.1951,0-5.3823-.001-10.8409v-2.7334a7.4641,7.4641,0,0,1,.2959-2.7967,4.7816,4.7816,0,0,1,4.4826-3.1269l83.0687.02,18.656.0107q4.536.0033,8.9374.0062a7.141,7.141,0,0,1,2.236.2124,4.7351,4.7351,0,0,1,3.1,3.074,6.5,6.5,0,0,1,.2253,2.181c-.0112,11.3536-.0217,21.93-.0313,31.5869-.0343,19.305-.0621,34.93-.0813,45.7412-.0088,2.6987-.0166,5.0969-.0235,7.1774-.0123,1.0414.0106,1.9943-.0308,2.8809a4.5325,4.5325,0,0,1-3.4611,4.0286A3.6414,3.6414,0,0,1,485.6572,328.19Z"/><rect class="cls-1" x="388.927" y="225.5767" width="82.5618" height="109.8449" transform="translate(147.9144 709.5318) rotate(-89.7607)"/><g class="cls-11"><polygon points="375.114 321.55 413.693 270.391 437.325 302.598 453.516 285.501 484.958 322.009 375.114 321.55"/></g><g class="cls-11"><path d="M447.5739,264.2461a8.6489,8.6489,0,1,1-8.6128-8.6847A8.6491,8.6491,0,0,1,447.5739,264.2461Z"/></g><path class="cls-5" d="M376.4887,159.3685s-.6021-1.21,2.8288-5.0581,27.1243-12.6156,27.1243-12.6156,9.2139,11.1419,17.7768,3.49a22.5216,22.5216,0,0,0,7.2107-12.3176s20.9155-1.173,21.3584.1972l5.5991,26.2955-9.8253.057Z"/><path class="cls-8" d="M426.3391,219.5274l36.4129-36.366L458.11,163.2706l19.5874-5.7621s5.8011,27.7762,5.0253,32.6665c-1.5015,9.4656-46.1843,36.513-46.1843,36.513Z"/><path class="cls-5" d="M451.7773,132.67a26.4554,26.4554,0,0,1,15.9132,7.863c7.5465,7.7716,16.574,28.1478,16.574,28.1478l-25.5775,6.2332Z"/><path class="cls-8" d="M421.6908,223.5018l-10.2212,6.38s-5.1526,8.575-5.8846,10.7242a59.7768,59.7768,0,0,0-1.4493,7.5326s2.2259,2.0333,3.135-1.1027l1.0463-2.403-.8823,5.5816s2.2564,1.7491,3.3633-1.2222a36.0433,36.0433,0,0,0,1.5874-5.7937l3.4931-4.8-3.5224,11.4787s-.6692,2.3109,1.3887,2.1074c.814-.0805,2.6336-4.1214,2.6336-4.1214s1.4913,1.94,2.7357.1923c1.2631-1.7735,6.0856-8.5944,6.0856-8.5944s6.5211-8.06,6.5438-8.2733c.0046-.043,4.7951-4.5,4.7951-4.5l-10.1995-7.1606-4.4148,3.7515A.7965.7965,0,0,1,421.6908,223.5018Z"/><path class="cls-9" d="M407.4667,250.0126a3.8925,3.8925,0,0,0,.1507-.6453c.0854-.4562.1972-1.0531.332-1.7732l.4649-2.6341.2673-1.5568a8.3791,8.3791,0,0,1,.5051-1.5939,28.6007,28.6007,0,0,1,2.9689-5.12c.4371-.6221.8083-1.1132,1.0629-1.4546a3.8992,3.8992,0,0,0,.3839-.54,3.8876,3.8876,0,0,0-.45.4875c-.2751.3258-.666.8042-1.1208,1.4173a25.7681,25.7681,0,0,0-3.0447,5.1271,8.3725,8.3725,0,0,0-.5133,1.636c-.0884.54-.1736,1.0616-.2551,1.56-.1565.9856-.2983,1.879-.42,2.6439-.1074.7251-.1963,1.3264-.2645,1.7858A3.8917,3.8917,0,0,0,407.4667,250.0126Z"/><path class="cls-9" d="M421.1265,237.9882a1.5417,1.5417,0,0,0-.2371.3356c-.1409.2231-.3389.55-.5805.9567-.4832.8139-1.14,1.9489-1.8609,3.22l-.0034.006-.0027.0064-.092.2255c-.5721,1.4042-1.0788,2.68-1.4356,3.6072-.1783.4637-.3192.84-.412,1.1025a.2177.2177,0,1,0,.0778.0316c.1168-.2524.2791-.62.4756-1.0765.3931-.9126.9221-2.1792,1.4942-3.5832.0314-.0774.0627-.1543.0918-.2257l-.0061.0124c.7187-1.2717,1.3539-2.4191,1.8033-3.2522.2247-.4165.4029-.7544.5218-.99A1.552,1.552,0,0,0,421.1265,237.9882Z"/><path class="cls-8" d="M363.7977,156.9058q.0708.1563.1292.3178a5.5957,5.5957,0,0,1,.31,1.5246,5.03,5.03,0,0,0,.034.7348,2.7563,2.7563,0,0,0,.2026.4326,7.37,7.37,0,0,1,.2685,3.0358,5.8158,5.8158,0,0,0,.5614,3.2521,2.1446,2.1446,0,0,0,2.857.8816,1.4608,1.4608,0,0,0,1.0929,1.5948,2.1111,2.1111,0,0,0,1.9466-.6042,3.9256,3.9256,0,0,0,.9759-1.8647,1.6129,1.6129,0,0,0,1.6069,1.56,2.4844,2.4844,0,0,0,2.041-1.2515,5.7119,5.7119,0,0,0,.7031-2.3811,28.3163,28.3163,0,0,1,.5045-3.1881s1.0476.1681,1.5252.2138c.6479.0619.14.014.14.014a6.7794,6.7794,0,0,0,1.0023-1.74c.6681-1.374,1.1771-2.2454,1.6879-3.4928.3827-.9344.6306-1.8674.0527-2.4756-1.391-1.4638-4.1108,1.5131-4.1108,1.5131-.3842-1.0364-3.5451-1.2052-4.16.1755-.25-.76-.1549-1.2011-.7709-1.7121a2.5468,2.5468,0,0,0-2.24-.5639,1.8234,1.8234,0,0,0-1.36,1.7554,2.9631,2.9631,0,0,0-4.9849-.1055,3.097,3.097,0,0,0-.4566,1.0021,1.2236,1.2236,0,0,0-.0743.4132.5045.5045,0,0,0,.065.1819C363.4885,156.3941,363.6727,156.6288,363.7977,156.9058Z"/><path class="cls-8" d="M360.46,155.0544a2.3951,2.3951,0,0,0-1.8968.6307,3.9218,3.9218,0,0,0-.5925,2.63c.954.18,1.4475.2159,2.4016.396.2009.0379.3691-.0128.5357.1057.44.3125.3687,1.3648.5457,1.8748a1.8357,1.8357,0,0,0,2.3177.991,2.4623,2.4623,0,0,0,1.4874-2.1937,3.8054,3.8054,0,0,0-.9693-2.5659A5.3186,5.3186,0,0,0,360.46,155.0544Z"/><path class="cls-9" d="M368.624,154.4114c.1787.0092.1778,2.8643-.0017,6.3762s-.47,6.353-.6486,6.3437-.1778-2.8635.0018-6.3768S368.4454,154.4024,368.624,154.4114Z"/><path class="cls-9" d="M373.1949,155.037c.1711-.0078.4038,2.5915.1237,5.7871-.2706,3.1975-.9443,5.7182-1.1114,5.6812-.1829-.0366.2-2.5825.4662-5.7368C372.95,157.6162,373.0085,155.0418,373.1949,155.037Z"/><path class="cls-9" d="M377.48,155.0369c.1822,0,.2584,2.1614-.0776,4.7806-.3336,2.615-.7365,4.7013-.9056,4.6857-.187-.0178-.0694-2.1616.2626-4.7633C377.0923,157.1416,377.3036,155.0354,377.48,155.0369Z"/><path class="cls-9" d="M361.8356,155.591c-.0053-.077.4575-.18,1.1175.1221a3.5841,3.5841,0,0,1,1.7541,2.0517,7.1994,7.1994,0,0,1,.4358,2.6264c-.0783.7905-.6519,1.02-.6653.918-.05-.072.26-.3452.2075-.9318a12.8877,12.8877,0,0,0-.5837-2.3832,3.8913,3.8913,0,0,0-1.3751-1.8831C362.23,155.7613,361.8267,155.69,361.8356,155.591Z"/><rect class="cls-7" x="199.4212" y="309.5481" width="155.6359" height="86.5239" rx="8.498"/><path class="cls-3" d="M346.5591,396.0721c-.0016-.0242.4137-.0039,1.2039-.1214a8.3333,8.3333,0,0,0,3.2905-1.2342,8.42,8.42,0,0,0,3.4735-4.4321,9.8726,9.8726,0,0,0,.4422-3.6171q-.0057-1.9762-.0117-4.2054c-.0192-11.8945-.047-29.0885-.0813-50.3328q-.0041-3.9844-.0085-8.1564-.002-2.0853-.0041-4.216a13.293,13.293,0,0,0-.3873-4.207,8.354,8.354,0,0,0-6.1-5.59,9.6631,9.6631,0,0,0-2.2105-.2044l-2.2918.0018-4.6448.0036-39.8919.0235-91.4073.02a8.32,8.32,0,0,0-5.3936,2.009,8.15,8.15,0,0,0-2.7589,5.0081,21.4056,21.4056,0,0,0-.1014,2.9545l0,2.9875q0,2.9826,0,5.9438-.002,11.8447-.0039,23.3227-.0033,11.4681-.0063,22.51-.0021,5.5161-.004,10.9136c.0123.8919-.0289,1.8126.0271,2.6737a8.0559,8.0559,0,0,0,.5692,2.5237,8.265,8.265,0,0,0,3.242,3.8959,8.414,8.414,0,0,0,4.8555,1.2922l5.1684.0026q5.1341.003,10.1272.0056l19.365.0129,34.7587.0312,50.33.0814c5.935.0207,10.5454.0369,13.6836.048,1.5571.011,2.7468.02,3.5585.0254.8017.0086,1.2124.0261,1.2124.0261s-.4107.0176-1.2124.0262l-3.5585.0254-13.6836.048-50.33.0813-34.7587.0312-19.365.0128-10.1272.0057-5.1684.0026a8.8916,8.8916,0,0,1-5.1082-1.3606,8.7389,8.7389,0,0,1-3.4311-4.1164,8.531,8.531,0,0,1-.6048-2.6694c-.0588-.9244-.0169-1.7994-.03-2.7055q-.002-5.3962-.004-10.9136-.0031-11.0323-.0063-22.51-.002-11.4681-.0039-23.3227l-.0006-5.9438q0-1.4912,0-2.9875a21.7375,21.7375,0,0,1,.1065-3.03,8.66,8.66,0,0,1,2.93-5.32,8.8324,8.8324,0,0,1,5.728-2.1338l91.4073.02,39.8919.0235,4.6448.0035,2.2918.0018a10.0975,10.0975,0,0,1,2.3.2179,8.7556,8.7556,0,0,1,6.3865,5.8719,13.6428,13.6428,0,0,1,.3976,4.3256q-.0018,2.13-.004,4.216-.0042,4.1706-.0084,8.1564c-.0344,21.2443-.0621,38.4383-.0814,50.3328q-.0062,2.2279-.0116,4.2054a10.0109,10.0109,0,0,1-.474,3.6662,8.506,8.506,0,0,1-3.5625,4.47,8.221,8.221,0,0,1-3.3381,1.1986,6.0864,6.0864,0,0,1-.9056.0674C346.6617,396.0757,346.5591,396.0721,346.5591,396.0721Z"/><rect class="cls-4" x="216.0254" y="324.167" width="23.1184" height="4.3605"/><rect class="cls-4" x="216.0254" y="377.601" width="23.1184" height="4.3605"/><rect class="cls-1" x="216.0254" y="334.9784" width="39.8017" height="4.3605"/><rect class="cls-4" x="262.8782" y="334.9784" width="17.5918" height="4.3605"/><rect x="321.3212" y="334.9784" width="11.5666" height="4.3605"/><rect class="cls-5" x="286.6532" y="334.9784" width="30.6317" height="4.3605"/><rect class="cls-1" x="293.0861" y="345.2891" width="39.8017" height="4.3605" transform="translate(625.9739 694.9387) rotate(180)"/><rect class="cls-5" x="268.4433" y="345.2891" width="17.5918" height="4.3605" transform="translate(554.4783 694.9387) rotate(180)"/><rect x="216.0254" y="345.2891" width="11.5666" height="4.3605" transform="translate(443.6174 694.9387) rotate(180)"/><rect class="cls-4" x="231.6284" y="345.2891" width="30.6317" height="4.3605" transform="translate(493.8885 694.9387) rotate(180)"/><rect class="cls-1" x="216.0254" y="355.8785" width="39.8017" height="4.3605"/><rect x="262.8782" y="355.8785" width="17.5918" height="4.3605"/><rect x="321.3212" y="355.8785" width="11.5666" height="4.3604"/><rect class="cls-4" x="253.837" y="366.6682" width="11.5667" height="4.3604"/><rect class="cls-5" x="286.6532" y="355.8785" width="30.6317" height="4.3605"/><rect class="cls-5" x="215.1899" y="366.6682" width="30.6317" height="4.3604"/><rect class="cls-12" x="436.778" y="339.7712" width="64.3747" height="62.5148" rx="7.9592"/><path class="cls-3" d="M493.1935,402.286a10.7411,10.7411,0,0,0,2.3863-.42,8.1675,8.1675,0,0,0,2.5581-1.404,7.8519,7.8519,0,0,0,2.8709-5.4851c.06-.8239.0122-1.7213.022-2.6414q-.01-2.7739-.0212-6.0134c-.0112-4.3176-.0238-9.23-.0378-14.6593-.0095-5.4327-.02-11.3815-.0312-17.7668q-.0033-2.3949-.0067-4.8706a15.9651,15.9651,0,0,0-.1-2.4559,7.3,7.3,0,0,0-.7469-2.3323,7.6967,7.6967,0,0,0-3.5267-3.455,7.4419,7.4419,0,0,0-2.4477-.718c-.8453-.0872-1.75-.05-2.6458-.0574l-46.724.02a7.6983,7.6983,0,0,0-7.6991,7.4828q-.0078,6.0507-.0153,11.9141c-.0052,7.8157-.01,15.3547-.015,22.5371q-.0054,5.3864-.0107,10.495c.0114.8433-.0309,1.7118.03,2.5137a8.15,8.15,0,0,0,.5646,2.3482,7.7954,7.7954,0,0,0,7.3759,4.763l4.5351.0076,8.5253.0166,25.7268.0812,6.9945.048,1.8191.0255c.41.0085.62.0261.62.0261s-.21.0176-.62.0262l-1.8191.0253-6.9945.048-25.7268.0814-8.5253.0165-4.5351.0076a8.2159,8.2159,0,0,1-7.78-5.0037,8.585,8.585,0,0,1-.6033-2.481c-.0656-.8709-.0232-1.693-.0371-2.55q-.0054-5.1037-.0108-10.495c-.0048-7.1824-.01-14.7214-.015-22.5371q.0039-5.8655.0078-11.9285a8.2071,8.2071,0,0,1,8.2079-7.98l46.724.02c.8981.01,1.7821-.0293,2.7007.0655a7.9052,7.9052,0,0,1,2.5942.7663,8.15,8.15,0,0,1,3.7265,3.6663,9.683,9.683,0,0,1,.8831,4.9918q-.0035,2.475-.0067,4.8706c-.0112,6.3853-.0217,12.3341-.0313,17.7668-.014,5.4289-.0267,10.3417-.0378,14.6593q-.0114,3.2346-.0211,6.0134c-.0173.9275.0241,1.8006-.0447,2.66a8.2171,8.2171,0,0,1-.57,2.358,7.8653,7.8653,0,0,1-6.8448,4.9276C493.4031,402.293,493.1935,402.286,493.1935,402.286Z"/><path class="cls-3" d="M451.0159,354.5023h35.1013l.0566,11.7572h-1.68q-.8256-6.3091-4.7254-8.5366a14.5581,14.5581,0,0,0-6.5479-1.3417v30.7126q0,3.2194,1.1244,4.2735t4.6831,1.0541v1.48H458.2471v-1.48q3.4161,0,4.5406-1.0685t1.1244-4.2591V356.3812a14.9292,14.9292,0,0,0-6.5473,1.3417q-4.1853,2.2839-4.7261,8.5366h-1.6794Z"/><path class="cls-7" d="M512.0716,245.23V362.7816a6.32,6.32,0,0,0,6.32,6.32h75.7818a6.32,6.32,0,0,0,6.32-6.32V245.23a6.32,6.32,0,0,0-6.32-6.32H518.3915A6.32,6.32,0,0,0,512.0716,245.23Z"/><path class="cls-3" d="M512.0716,245.23s-.0041-.0931.0008-.2776a4.7485,4.7485,0,0,1,.0745-.8216,6.2767,6.2767,0,0,1,1.3133-2.9339,6.35,6.35,0,0,1,4.5879-2.3456c2.0835-.0425,4.474-.0254,7.1726-.0407l45.6875-.0814,15.1388-.0165,8.0531-.0075a6.5523,6.5523,0,0,1,6.38,4.85,7.463,7.463,0,0,1,.2264,2.17q.0009,1.0724.0017,2.1535.0015,2.1624.0033,4.36.0032,4.3953.0062,8.927.0053,9.0617.0107,18.6342c.0062,25.504.013,53.5416.02,82.9712a6.6236,6.6236,0,0,1-2.3346,5.0313,6.4586,6.4586,0,0,1-2.502,1.3146,9.7423,9.7423,0,0,1-2.7766.24q-5.4513,0-10.8282-.0009l-21.17-.0039-40.0209-.0149-2.3837-.0012a7.23,7.23,0,0,1-2.4072-.3387,6.5218,6.5218,0,0,1-4.4127-5.3039,19.2382,19.2382,0,0,1-.0691-2.3345q.0015-2.2985.0029-4.5641.0066-9.0622.0127-17.5777c.0113-11.341.0217-21.9054.0313-31.5509.0343-19.2824.0621-34.8876.0813-45.685.0208-5.386.037-9.57.048-12.4206.0111-1.4122.02-2.4915.0255-3.23.0085-.7277.0261-1.1005.0261-1.1005s.0176.3728.0262,1.1005c.0058.7387.0143,1.818.0253,3.23.0111,2.85.0272,7.0346.048,12.4206.0193,10.7974.0471,26.4026.0814,45.685.0095,9.6455.02,20.21.0312,31.5509q.0063,8.5065.0128,17.5777.0015,2.2657.0029,4.5641a19.0438,19.0438,0,0,0,.0675,2.2711,6.0606,6.0606,0,0,0,4.1058,4.9247,6.7442,6.7442,0,0,0,2.26.3123l2.3837-.0013,40.0209-.0148,21.17-.0039,10.8282-.001a9.2654,9.2654,0,0,0,2.6415-.2217,5.9491,5.9491,0,0,0,2.3069-1.2122,6.1109,6.1109,0,0,0,2.1532-4.6407c.0072-29.43.0139-57.4672.02-82.9712q.0057-9.5635.0108-18.6342.0033-4.5306.0062-8.927.0016-2.1975.0033-4.36.0009-1.0812.0016-2.1535a7.0242,7.0242,0,0,0-.2087-2.0618A6.134,6.134,0,0,0,594.1,239.115l-8.0531-.0075-15.1388-.0166-45.6875-.0813c-2.695,0-5.0971-.0325-7.1645-.0065a6.25,6.25,0,0,0-4.5162,2.259,6.3306,6.3306,0,0,0-1.3415,2.8776C512.0627,244.853,512.1007,245.232,512.0716,245.23Z"/><path class="cls-1" d="M536.5288,261.5049h.2791a2.409,2.409,0,0,1,2.409,2.409v81.3925a2.4093,2.4093,0,0,1-2.4093,2.4093h-.279a2.409,2.409,0,0,1-2.409-2.409V263.9141A2.4092,2.4092,0,0,1,536.5288,261.5049Z"/><path class="cls-1" d="M536.8079,347.7157a2.6193,2.6193,0,0,0,1.6049-.696c1.0527-.797.6271-2.7262.69-4.943-.0223-4.5474-.0541-11.0736-.0934-19.1249-.0181-8.0839-.0394-17.6951-.0631-28.3643-.0056-5.3387-.0112-10.9415-.0171-16.7492q-.0022-4.357-.0045-8.86-.0006-2.25-.0011-4.5315a4.1133,4.1133,0,0,0-.07-1.0623,2.0545,2.0545,0,0,0-.47-.8778,2.2,2.2,0,0,0-1.851-.7084,2.127,2.127,0,0,0-1.73.8942,2.0745,2.0745,0,0,0-.3669.9256c-.041.3115-.0163.7311-.0235,1.101q0,2.2817-.0012,4.5326-.0021,4.5-.0044,8.8618c-.0059,5.8093-.0117,11.4131-.0171,16.7528-.0237,10.6708-.045,20.2823-.063,28.3663-.0393,8.0513-.0712,14.5769-.0935,19.1237q-.0136,1.6857-.0244,2.9987a2.344,2.344,0,0,0,.9237,1.8383,2.3814,2.3814,0,0,0,1.2165.4827,4.5473,4.5473,0,0,1,.4583.0392,2.413,2.413,0,0,1-.4627.0208,2.35,2.35,0,0,1-1.2827-.4475,2.4652,2.4652,0,0,1-1.0279-1.93c-.0085-.8748-.0186-1.8773-.03-3.0024-.0222-4.5468-.054-11.0724-.0935-19.1237-.0179-8.084-.0392-17.6955-.0629-28.3663-.0054-5.34-.0112-10.9435-.0172-16.7528q-.002-4.3576-.0045-8.8618,0-2.25-.0011-4.5326a11.28,11.28,0,0,1,.0289-1.1822,2.6589,2.6589,0,0,1,.4694-1.1843,2.7162,2.7162,0,0,1,2.2088-1.1421,2.7983,2.7983,0,0,1,2.2893.9046,2.6409,2.6409,0,0,1,.6,1.1228,4.6237,4.6237,0,0,1,.088,1.2089q0,2.2812-.001,4.5315-.0024,4.4991-.0045,8.86c-.0059,5.8077-.0117,11.4105-.0172,16.7492-.0236,10.6692-.0451,20.28-.0629,28.3643-.0393,8.0514-.0712,14.5775-.0934,19.1249-.01,1.1244-.0192,2.1264-.0271,3.0008a2.5282,2.5282,0,0,1-.8105,2.0285A2.1581,2.1581,0,0,1,536.8079,347.7157Z"/><rect class="cls-1" x="553.7337" y="261.5049" width="5.0975" height="86.2108" rx="2.4092"/><path class="cls-1" d="M556.422,347.7157a2.62,2.62,0,0,0,1.605-.696c1.0527-.797.6271-2.7262.69-4.943-.0222-4.5474-.054-11.0736-.0934-19.1249-.0179-8.0839-.0393-17.6951-.063-28.3643-.0054-5.3387-.0112-10.9415-.0172-16.7492q-.0019-4.357-.0043-8.86-.0007-2.25-.0012-4.5315a4.1045,4.1045,0,0,0-.07-1.0623,2.0532,2.0532,0,0,0-.47-.8778,2.2,2.2,0,0,0-1.851-.7084,2.1265,2.1265,0,0,0-1.7294.8942,2.0737,2.0737,0,0,0-.3671.9256c-.041.3115-.0164.7311-.0235,1.101q-.0006,2.2817-.0011,4.5326-.0021,4.5-.0045,8.8618c-.006,5.8093-.0116,11.4131-.0172,16.7528-.0236,10.6708-.045,20.2823-.0628,28.3663-.0395,8.0513-.0714,14.5769-.0936,19.1237q-.0136,1.6857-.0243,2.9987a2.3444,2.3444,0,0,0,.9235,1.8383,2.3826,2.3826,0,0,0,1.2166.4827,4.5384,4.5384,0,0,1,.4582.0392,2.4111,2.4111,0,0,1-.4627.0208,2.35,2.35,0,0,1-1.2826-.4475,2.4649,2.4649,0,0,1-1.0278-1.93c-.0088-.8748-.0185-1.8773-.03-3.0024-.0221-4.5468-.054-11.0724-.0933-19.1237-.018-8.084-.0393-17.6955-.063-28.3663-.0056-5.34-.0113-10.9435-.0172-16.7528q-.0023-4.3576-.0044-8.8618-.0007-2.25-.0012-4.5326a11.333,11.333,0,0,1,.0288-1.1822,2.6579,2.6579,0,0,1,.47-1.1843,2.7158,2.7158,0,0,1,2.2088-1.1421,2.798,2.798,0,0,1,2.2891.9046,2.6415,2.6415,0,0,1,.6005,1.1228,4.6323,4.6323,0,0,1,.088,1.2089q-.0006,2.2812-.0012,4.5315-.0022,4.4991-.0045,8.86c-.0059,5.8077-.0116,11.4105-.0171,16.7492-.0235,10.6692-.045,20.28-.0628,28.3643-.0394,8.0514-.0713,14.5775-.0936,19.1249-.01,1.1244-.0191,2.1264-.027,3.0008a2.5279,2.5279,0,0,1-.8106,2.0285A2.158,2.158,0,0,1,556.422,347.7157Z"/><path class="cls-1" d="M575.7572,261.5049h.2791a2.4092,2.4092,0,0,1,2.4092,2.4092v81.3924a2.4092,2.4092,0,0,1-2.4092,2.4092h-.2791a2.4093,2.4093,0,0,1-2.4093-2.4093V263.9142A2.4093,2.4093,0,0,1,575.7572,261.5049Z"/><path class="cls-1" d="M576.0362,347.7157a2.6193,2.6193,0,0,0,1.605-.696c1.0528-.797.627-2.7262.69-4.943-.0221-4.5474-.054-11.0736-.0935-19.1249-.0179-8.0839-.0393-17.6951-.063-28.3643-.0054-5.3387-.0111-10.9415-.017-16.7492q-.0023-4.357-.0046-8.86,0-2.25-.0011-4.5315a4.1136,4.1136,0,0,0-.07-1.0623,2.0566,2.0566,0,0,0-.47-.8778,2.2,2.2,0,0,0-1.8511-.7084,2.1266,2.1266,0,0,0-1.7293.8942,2.075,2.075,0,0,0-.3672.9256c-.041.3115-.0162.7311-.0233,1.101q-.0007,2.2817-.0012,4.5326-.0023,4.5-.0044,8.8618c-.0059,5.8093-.0117,11.4131-.0171,16.7528-.0237,10.6708-.0452,20.2823-.0631,28.3663-.0393,8.0513-.0711,14.5769-.0933,19.1237q-.0136,1.6857-.0245,2.9987a2.3448,2.3448,0,0,0,.9236,1.8383,2.3816,2.3816,0,0,0,1.2166.4827,4.5421,4.5421,0,0,1,.4581.0392,2.4084,2.4084,0,0,1-.4626.0208,2.35,2.35,0,0,1-1.2826-.4475,2.4646,2.4646,0,0,1-1.0278-1.93c-.0088-.8748-.0187-1.8773-.03-3.0024-.0222-4.5468-.0541-11.0724-.0935-19.1237-.0179-8.084-.0393-17.6955-.063-28.3663-.0054-5.34-.0111-10.9435-.0171-16.7528q-.0023-4.3576-.0044-8.8618,0-2.25-.0012-4.5326a11.28,11.28,0,0,1,.0289-1.1822,2.6578,2.6578,0,0,1,.4694-1.1843,2.716,2.716,0,0,1,2.2087-1.1421,2.7985,2.7985,0,0,1,2.2894.9046,2.6433,2.6433,0,0,1,.6,1.1228,4.632,4.632,0,0,1,.0879,1.2089q0,2.2812-.0011,4.5315-.0021,4.4991-.0044,8.86c-.0059,5.8077-.0117,11.4105-.0171,16.7492-.0238,10.6692-.0451,20.28-.063,28.3643-.0394,8.0514-.0713,14.5775-.0935,19.1249-.01,1.1244-.019,2.1264-.0269,3.0008a2.5286,2.5286,0,0,1-.8107,2.0285A2.158,2.158,0,0,1,576.0362,347.7157Z"/><path class="cls-13" d="M536.3421,301.91h-.9343a4.9579,4.9579,0,0,1-4.9578-4.9578h0a4.9579,4.9579,0,0,1,4.9579-4.9579h.9343a4.9578,4.9578,0,0,1,4.9578,4.9578h0A4.9579,4.9579,0,0,1,536.3421,301.91Z"/><path class="cls-13" d="M557.2373,320.6023h-.9345a4.9576,4.9576,0,0,1-4.9577-4.9576v0a4.9577,4.9577,0,0,1,4.9577-4.9577h.9345a4.9578,4.9578,0,0,1,4.9578,4.9578h0A4.9577,4.9577,0,0,1,557.2373,320.6023Z"/><path class="cls-13" d="M576.14,285.3725h-.9347a4.9576,4.9576,0,0,1-4.9576-4.9577v0a4.9576,4.9576,0,0,1,4.9576-4.9576h.9346a4.9578,4.9578,0,0,1,4.9578,4.9578h0A4.9577,4.9577,0,0,1,576.14,285.3725Z"/><path class="cls-7" d="M508.3253,103.4056h105.05a8.1854,8.1854,0,0,1,8.1854,8.1854v105.05a8.1854,8.1854,0,0,1-8.1854,8.1854h-105.05a8.1854,8.1854,0,0,1-8.1854-8.1854v-105.05A8.1855,8.1855,0,0,1,508.3253,103.4056Z"/><path class="cls-3" d="M613.3749,224.8262c-.0017-.0259.4157,0,1.2082-.1254a8.1308,8.1308,0,0,0,6.59-5.8577,12.4669,12.4669,0,0,0,.299-3.6578q-.0054-1.9841-.0116-4.2223c-.0193-11.9426-.047-29.2061-.0813-50.5364-.01-10.6689-.02-22.3542-.0313-34.8981q-.0032-4.7043-.0067-9.567c-.0127-1.6139.0242-3.2687-.0293-4.8849a7.9449,7.9449,0,0,0-5.7287-7.1258,19.2918,19.2918,0,0,0-5.0252-.3146l-10.4448.0051-91.7769.02a7.9478,7.9478,0,0,0-7.9055,7.2244c-.0717,3.9731-.02,8-.0368,11.9539q-.0018,11.8928-.0038,23.4171c-.0052,15.3523-.01,30.161-.0149,44.2682q-.0057,10.58-.0108,20.6144-.0015,2.5061-.003,4.9753a8.2257,8.2257,0,0,0,1.1146,4.58,7.5479,7.5479,0,0,0,1.48,1.8213,7.4166,7.4166,0,0,0,1.9283,1.3049,9.1361,9.1361,0,0,0,4.5283.7929l34.8993.0312c21.33.0344,38.5925.0622,50.5336.0813l13.7389.0481,3.5729.0254c.8049.0086,1.2173.0262,1.2173.0262s-.4124.0175-1.2173.0261l-3.5729.0254-13.7389.048-50.5336.0813-34.8993.0313a9.5764,9.5764,0,0,1-4.7148-.8286,7.85,7.85,0,0,1-2.0349-1.3729,7.9838,7.9838,0,0,1-1.5633-1.9187,8.6743,8.6743,0,0,1-1.182-4.8034q-.0015-2.469-.0031-4.9753-.0053-10.0243-.0108-20.6144c-.0047-14.1072-.01-28.9159-.0148-44.2682q-.002-11.5146-.004-23.4171c.0165-3.9738-.0384-7.936.0368-11.9989a8.4584,8.4584,0,0,1,8.4145-7.691l91.7769.02,10.4448.0051,2.5683.0014a8.9293,8.9293,0,0,1,2.5832.3365,8.3941,8.3941,0,0,1,6.0453,7.5353c.0533,1.6729.013,3.2867.0241,4.9133q-.0034,4.8615-.0067,9.567c-.0113,12.5439-.0217,24.2292-.0312,34.8981-.0344,21.33-.0622,38.5938-.0814,50.5364q-.0062,2.237-.0115,4.2223a12.5833,12.5833,0,0,1-.3286,3.6991,8.2859,8.2859,0,0,1-3.3941,4.62,8.1437,8.1437,0,0,1-3.3347,1.2483,5.9286,5.9286,0,0,1-.909.0713C613.4778,224.83,613.3749,224.8262,613.3749,224.8262Z"/><path class="cls-1" d="M566.5353,162.9626H553.8172a11.1909,11.1909,0,0,1-11.191-11.1909V124.3526h35.1v27.4191A11.1909,11.1909,0,0,1,566.5353,162.9626Z"/><path class="cls-3" d="M566.5353,162.9626a18.4643,18.4643,0,0,0,3.2491-.5991,11.582,11.582,0,0,0,3.4373-1.8379,10.8633,10.8633,0,0,0,3.2292-4.0621,12.8125,12.8125,0,0,0,1.0224-6.3114c-.0114-2.3831-.0235-4.9459-.0366-7.6685-.016-5.46-.034-11.5589-.0532-18.1308l.3426.3424-23.9056.0229-11.1941-.0049.36-.36c-.0153,8.1877-.03,15.8875-.0428,22.8417.0057,1.7305-.0351,3.4395.0075,5.05a10.9032,10.9032,0,0,0,7.1746,9.8286c2.38.9193,4.7577.6257,6.7892.7028l5.2107.0575,3.2735.0625.8477.0329a.9542.9542,0,0,1,.2881.0335.9572.9572,0,0,1-.2881.0337l-.8477.0328-3.2735.0625-5.2107.0575-3.2721.0178a11.4156,11.4156,0,0,1-10.0549-6.2183,11.44,11.44,0,0,1-1.2383-4.678c-.0556-1.6624-.0253-3.3341-.0416-5.0761-.0131-6.9542-.0275-14.654-.0429-22.8417l-.0006-.3608h.3615l11.1941-.0049,23.9056.0227.3439.0005-.001.3426c-.0194,6.5719-.0371,12.6706-.0533,18.1308-.0129,2.7226-.0252,5.2854-.0365,7.6685a13.1915,13.1915,0,0,1-1.1472,6.492,11.1033,11.1033,0,0,1-3.411,4.1418,11.4842,11.4842,0,0,1-3.5706,1.7929A9.1531,9.1531,0,0,1,566.5353,162.9626Z"/><path class="cls-4" d="M542.8049,124.618c5.11,3.719,10.372,6.1681,16.69,6.0388s13.2778-2.1568,18.2311-6.0815Z"/><path class="cls-3" d="M577.7262,129.98a3.2679,3.2679,0,0,1,.2563.7548c.1577.5808.3551,1.3079.5967,2.198l2.0615,8.1154c.427,1.7249.8916,3.6026,1.389,5.6124.2353,1.0259.5335,2.0152.7383,3.1658a6.4663,6.4663,0,0,1-.4673,3.5171,6.6541,6.6541,0,0,1-2.3777,2.8769,6.7372,6.7372,0,0,1-3.7261,1.1209l-7.8744.0432-3.9963.0163a17.8,17.8,0,0,1-3.935-.2344,11.1839,11.1839,0,0,1-8.1393-6.8447c-.4062-1.0565-.7322-2.0627-1.0836-3.0464-.68-1.9557-1.3149-3.7828-1.8983-5.4614-1.1154-3.2739-2.0295-5.9575-2.7-7.9254-.2831-.8777-.5144-1.5945-.6993-2.1672a3.271,3.271,0,0,1-.1967-.7722,3.2712,3.2712,0,0,1,.3356.7228c.2188.56.4929,1.262.8284,2.121l2.919,7.8474c.6092,1.6694,1.2725,3.4866,1.9824,5.4316.74,1.9505,1.2925,4.1209,2.8106,5.8344a10.5086,10.5086,0,0,0,5.985,3.5583,17.304,17.304,0,0,0,3.7921.2088l3.9936-.02,7.87-.0284a5.9017,5.9017,0,0,0,5.4924-3.55,5.83,5.83,0,0,0,.4484-3.16c-.1709-1.0317-.4739-2.1118-.6912-3.1136-.4663-2.0171-.9019-3.9017-1.3021-5.6332-.7582-3.3745-1.38-6.1409-1.8357-8.1694l-.463-2.23A3.2853,3.2853,0,0,1,577.7262,129.98Z"/><path class="cls-3" d="M547.9015,131.499a1.9391,1.9391,0,1,1-1.9391-1.9389A1.9391,1.9391,0,0,1,547.9015,131.499Z"/><path class="cls-4" d="M577.3592,124.7036c.1832.826-.9346,1.6059-.9209,2.4519a3.79,3.79,0,0,1-2.445,3.6093,1.1818,1.1818,0,0,0-.3287.1822,3.6167,3.6167,0,0,0-1.0115,2.4208q-.3225,2.2029-.6449,4.406a7.4566,7.4566,0,0,1-.7313,2.65,2.5351,2.5351,0,0,1-2.2256,1.3895c-1.3281-.0846-2.1542-1.522-2.3551-2.8375-.2519-1.6486.0683-3.4149-1.0573-4.8437a1.9884,1.9884,0,0,0-2.2-.733c-2.0156.7368-.7864,3.9365-2.6912,4.6742a1.7586,1.7586,0,0,1-1.6128-.2353,4.6011,4.6011,0,0,1-1.5672-2.935q-.6426-2.5878-1.2854-5.1756l21.0768-5.024"/><circle class="cls-13" cx="527.2278" cy="187.4885" r="10.8513"/><circle class="cls-4" cx="560.8505" cy="187.4885" r="10.8512"/><circle class="cls-13" cx="594.4731" cy="187.4885" r="10.8512"/><circle class="cls-4" cx="527.2278" cy="187.4885" r="10.8513"/><circle class="cls-4" cx="594.4731" cy="187.4885" r="10.8512"/><path class="cls-4" d="M538.079,187.4885a23.3866,23.3866,0,0,0-.4409-2.6239,10.815,10.815,0,0,0-3.96-5.85,10.6291,10.6291,0,0,0-10.0621-1.4846,10.6358,10.6358,0,0,0-4.9144,3.7007,10.552,10.552,0,0,0-.0008,12.5152,10.6356,10.6356,0,0,0,4.9152,3.7017,10.6291,10.6291,0,0,0,10.0628-1.4851,10.8162,10.8162,0,0,0,3.96-5.85,23.3969,23.3969,0,0,0,.4407-2.6237,8.3863,8.3863,0,0,1-.2378,2.6747,10.802,10.802,0,0,1-3.9322,6.1013,10.9118,10.9118,0,0,1-4.637,2.1019,11.077,11.077,0,0,1-5.8249-.4535,11.0875,11.0875,0,0,1-5.1707-3.8553,11.0336,11.0336,0,0,1,.0008-13.1391,11.0868,11.0868,0,0,1,5.17-3.8543,11.0785,11.0785,0,0,1,5.8242-.4536,10.9126,10.9126,0,0,1,4.6372,2.1015,10.8029,10.8029,0,0,1,3.9326,6.1015A8.3862,8.3862,0,0,1,538.079,187.4885Z"/><path class="cls-4" d="M571.7017,187.4885a23.4269,23.4269,0,0,0-.4408-2.6239,10.8156,10.8156,0,0,0-3.96-5.85,10.629,10.629,0,0,0-10.062-1.4846,10.6353,10.6353,0,0,0-4.9145,3.7007,10.5518,10.5518,0,0,0-.0007,12.5152,10.6369,10.6369,0,0,0,4.9152,3.7017,10.6289,10.6289,0,0,0,10.0627-1.4851,10.8159,10.8159,0,0,0,3.96-5.85,23.4267,23.4267,0,0,0,.4407-2.6237,8.39,8.39,0,0,1-.2378,2.6747,10.8025,10.8025,0,0,1-3.9322,6.1013,10.9123,10.9123,0,0,1-4.637,2.1019,11.0774,11.0774,0,0,1-5.825-.4535,11.0866,11.0866,0,0,1-5.1706-3.8553,11.0338,11.0338,0,0,1,.0007-13.1391,11.0882,11.0882,0,0,1,5.17-3.8543,11.0789,11.0789,0,0,1,5.8243-.4536,10.9107,10.9107,0,0,1,4.637,2.1015,10.8021,10.8021,0,0,1,3.9327,6.1015A8.3887,8.3887,0,0,1,571.7017,187.4885Z"/><path class="cls-3" d="M605.3055,187.4885a23.3866,23.3866,0,0,0-.4409-2.6239,10.8156,10.8156,0,0,0-3.96-5.85,10.6292,10.6292,0,0,0-10.0621-1.4846,10.6353,10.6353,0,0,0-4.9145,3.7007,10.5524,10.5524,0,0,0-.0008,12.5152,10.6365,10.6365,0,0,0,4.9153,3.7017,10.629,10.629,0,0,0,10.0627-1.4851,10.8145,10.8145,0,0,0,3.96-5.85,23.446,23.446,0,0,0,.4408-2.6237,8.39,8.39,0,0,1-.2378,2.6747,10.8025,10.8025,0,0,1-3.9322,6.1013,10.9129,10.9129,0,0,1-4.637,2.1019,11.0774,11.0774,0,0,1-5.825-.4535,11.0888,11.0888,0,0,1-5.1707-3.8553,11.0338,11.0338,0,0,1,.0009-13.1391,11.0872,11.0872,0,0,1,5.17-3.8543,11.0789,11.0789,0,0,1,5.8243-.4536,10.9112,10.9112,0,0,1,4.637,2.1015,10.8023,10.8023,0,0,1,3.9328,6.1015A8.3862,8.3862,0,0,1,605.3055,187.4885Z"/><path class="cls-10" d="M114.05,215.1335c.8764,1.3186,2.2727,2.5573,3.8546,2.4861a11.8037,11.8037,0,0,0,1.7022-.3873c.528.3662.2828,2.2379-.1273,2.7323a10.0562,10.0562,0,0,1-1.2531,1.1459c1.7814,1.1045,3.49.72,5.4991.123a9.6572,9.6572,0,0,1-6.2,7.3724,3.3863,3.3863,0,0,1-3.0985-.1315,3.8957,3.8957,0,0,1-1.2112-2.4972,42.2853,42.2853,0,0,1-.74-10.3912Z"/><path class="cls-14" d="M72.9959,229.8866,70.25,274.4052c-.4668,7.5707.3939,18.787,12.3973,18.98h0c10.4269-.6187,13.6615-10.3012,14.09-17.3666.2031-3.3514.38-6.1458.4232-6.4887,0,0,11.3987-.3672,12.9089-11.5338.73-5.396,1.3282-16.6331,1.7514-26.8052a20.9881,20.9881,0,0,0-18.4222-21.6936l-1.0788-.1324C80.6008,208.6166,73.4191,218.1515,72.9959,229.8866Z"/><path class="cls-15" d="M97.1707,269.5108a27.2184,27.2184,0,0,1-14.033-6.0912s2.55,8.6045,13.8329,8.9663Z"/><path class="cls-3" d="M92.0934,234.1439c-.2341.2161-1.4775-.89-3.3541-1.033-1.8721-.1706-3.3244.71-3.51.4582-.0917-.1123.1607-.5155.7942-.9155a4.71,4.71,0,0,1,2.8323-.6548,4.5414,4.5414,0,0,1,2.647,1.1134C92.0448,233.6112,92.2078,234.0483,92.0934,234.1439Z"/><path class="cls-3" d="M92.1752,239.6486a1.5224,1.5224,0,0,1-1.6437,1.3455,1.4558,1.4558,0,0,1-1.39-1.5531,1.5226,1.5226,0,0,1,1.6423-1.3466A1.4567,1.4567,0,0,1,92.1752,239.6486Z"/><path class="cls-3" d="M96.1565,247.4446a11.4594,11.4594,0,0,1,2.853-.1611c.4443.0084.87-.0276.981-.318a2.25,2.25,0,0,0-.1334-1.3368q-.4236-1.6689-.8878-3.5011c-1.2187-4.9788-2.0432-9.0509-1.8423-9.0984s1.3517,3.95,2.57,8.929q.435,1.8395.831,3.514a2.5615,2.5615,0,0,1,.0161,1.7507,1.11,1.11,0,0,1-.8.5528,3.0008,3.0008,0,0,1-.7583.0123A11.2647,11.2647,0,0,1,96.1565,247.4446Z"/><path class="cls-3" d="M92.8364,228.2479c-.2412.3859-1.684-.1478-3.481-.3234-1.793-.2135-3.322-.0017-3.4692-.4293-.0629-.2034.2715-.5419.9326-.8193a5.6917,5.6917,0,0,1,2.721-.3435,5.6325,5.6325,0,0,1,2.5743.9174C92.6957,227.6617,92.9445,228.0635,92.8364,228.2479Z"/><path class="cls-3" d="M109.6882,231.0011c-.2138.33-1.6613-.1194-3.4352-.2616-1.7724-.1743-3.26.0126-3.43-.3515-.0739-.1734.2339-.4636.8664-.703a6.2137,6.2137,0,0,1,2.6493-.3047,6.4115,6.4115,0,0,1,2.5808.7721C109.5151,230.5012,109.7832,230.8429,109.6882,231.0011Z"/><path class="cls-14" d="M72.5638,237.581c-.1808-.1057-7.4056-3.2153-8.0991,4.46s7.1553,6.7889,7.1886,6.57S72.5638,237.581,72.5638,237.581Z"/><path class="cls-15" d="M69.5716,245.4914c-.0317-.0278-.1424.0815-.3776.1647a1.3443,1.3443,0,0,1-1.0016-.07c-.7838-.3711-1.35-1.72-1.2626-3.1071a4.4409,4.4409,0,0,1,.5472-1.88,1.5517,1.5517,0,0,1,1.099-.9354.683.683,0,0,1,.7557.4377c.0836.2238.021.3726.0606.39.02.0211.1764-.1136.1429-.4363a.8569.8569,0,0,0-.2583-.5083,1.015,1.015,0,0,0-.7218-.2622,1.8866,1.8866,0,0,0-1.5043,1.0638,4.5588,4.5588,0,0,0-.6571,2.0975c-.0906,1.5513.5705,3.07,1.6511,3.4912a1.4379,1.4379,0,0,0,1.2412-.0928C69.5408,245.6757,69.5967,245.5076,69.5716,245.4914Z"/><path d="M62.95,224.6258c1.7365-2.6335,2.2691-5.8519,3.2937-8.8355s2.8654-6.0363,5.8854-6.948l.0653.0324c2.7178-.94,6.0037-.7942,8.1008,1.1634.7392-3.97,4.3988-6.9633,8.3511-7.7952s10.18.0869,13.8483,1.7776c2.8354,1.3068,5.515,3.83,8.7417,7.5021a37.77,37.77,0,0,1,3.69,4.949l2.8772,10.644-3.177,5.3509c-.1922.3653-.39.73-.6262,1.0892l-.0011-.0254-2.8381,11.1686c-.01-3.1655.4076-13.8567.3972-17.0225a17.6291,17.6291,0,0,1-12.2634-6.4138c-1.63-1.9948-2.8685-4.4549-5.1187-5.7095-2.9014-1.6178-6.499-.7215-9.6863.2128l.1385-.1131a14.0823,14.0823,0,0,0-4.4981,2.9215,43.8194,43.8194,0,0,1-2.8071,18.4323c-.3384.881-1.2312,2.686-2.1272,2.9825-1.76.5827-2.1384-1.1989-3.1318-2.1846a4.5778,4.5778,0,0,0-3.1034-.9277,68.8984,68.8984,0,0,1-1.7182-8.0851,7.023,7.023,0,0,1-3.2391.0565q.5549-1.1644,1.11-2.3287a3.6761,3.6761,0,0,1-1.4125.5571,1.2531,1.2531,0,0,1-1.2821-.6351C62.1551,225.8368,62.5868,225.1767,62.95,224.6258Z"/><path class="cls-10" d="M83.7616,211.5a9.6448,9.6448,0,0,0-1.176.9735,8.0541,8.0541,0,0,0-1.905,3.64,14.1636,14.1636,0,0,0-.427,2.8367c-.0554,1.033-.0269,2.1432-.0051,3.3129a29.5387,29.5387,0,0,1-.0969,3.6826,12.9369,12.9369,0,0,1-.3483,1.9283,4.0474,4.0474,0,0,1-.8844,1.8432,1.6944,1.6944,0,0,1-1.6093.4544,2.5233,2.5233,0,0,1-1.3847-.8747,5.819,5.819,0,0,1-.9406-2.9054l.234.04a9.4082,9.4082,0,0,1-1.48,2.2829,3.3448,3.3448,0,0,1-2.2406,1.081,2.1586,2.1586,0,0,1-1.1466-.26,1.8673,1.8673,0,0,1-.7479-.8124,1.9278,1.9278,0,0,1-.189-1.0062,1.3942,1.3942,0,0,1,.403-.8547l.1139.1119a7.2429,7.2429,0,0,1-2.4989,1.6893,6.4723,6.4723,0,0,1-.7609.2533,1.2433,1.2433,0,0,1-.2709.0531,1.3651,1.3651,0,0,1,.2582-.0952c.17-.06.4233-.1482.74-.29a7.4676,7.4676,0,0,0,2.4162-1.72l.1138.112a1.44,1.44,0,0,0-.1563,1.663,1.6834,1.6834,0,0,0,.6766.72,1.9606,1.9606,0,0,0,1.04.2221,3.134,3.134,0,0,0,2.0811-1.03,9.27,9.27,0,0,0,1.4274-2.2349l.1792-.3518.0549.3921a5.6327,5.6327,0,0,0,.8951,2.7759,2.271,2.271,0,0,0,1.24.7825,1.43,1.43,0,0,0,1.3677-.3846,3.83,3.83,0,0,0,.8175-1.7252,12.8091,12.8091,0,0,0,.345-1.8885,30.0321,30.0321,0,0,0,.1106-3.6511c-.0149-1.169-.0358-2.2838.03-3.3294a14.09,14.09,0,0,1,.4652-2.8722,7.9469,7.9469,0,0,1,2.0118-3.6634A4.5593,4.5593,0,0,1,83.7616,211.5Z"/><path class="cls-10" d="M117.9264,224.1224c.0026.0038-.0294.0281-.0938.0723-.0787.0515-.1738.1142-.29.19a3.7434,3.7434,0,0,1-.49.2813,5.96,5.96,0,0,1-.7.3257,9.9617,9.9617,0,0,1-4.8438.6275,12.7283,12.7283,0,0,1-6.6472-2.8333,22.0428,22.0428,0,0,1-5.4861-6.99c-.7489-1.3986-1.3455-2.8237-2.0153-4.1458a14.8856,14.8856,0,0,0-2.3385-3.5383,7.6692,7.6692,0,0,0-3.1357-2.121,5.5,5.5,0,0,0-1.6948-.28,6.05,6.05,0,0,0-1.5754.223,6.5,6.5,0,0,0-3.7547,2.8727,7.7855,7.7855,0,0,0-.6619,1.6535.3974.3974,0,0,1,.0148-.1173c.0192-.0923.0421-.2041.07-.3409a5.6216,5.6216,0,0,1,.4882-1.2457,6.3916,6.3916,0,0,1,1.34-1.6407,6.5723,6.5723,0,0,1,2.4524-1.36,6.1734,6.1734,0,0,1,1.6262-.2472,5.6733,5.6733,0,0,1,1.7639.2759,7.8554,7.8554,0,0,1,3.2442,2.1626,14.9985,14.9985,0,0,1,2.3912,3.5875c.6783,1.3316,1.2753,2.7532,2.0177,4.1388a22.0514,22.0514,0,0,0,5.4059,6.9243,12.6484,12.6484,0,0,0,6.5162,2.8373,10.11,10.11,0,0,0,4.7855-.538A15.8919,15.8919,0,0,0,117.9264,224.1224Z"/><path class="cls-3" d="M109.1863,235.6947c-.2342.2159-1.4774-.89-3.3542-1.0331-1.872-.1708-3.3245.71-3.51.4583-.0918-.1128.16-.5156.794-.9155a4.71,4.71,0,0,1,2.8323-.655,4.5424,4.5424,0,0,1,2.647,1.1134C109.1378,235.1619,109.3006,235.5989,109.1863,235.6947Z"/><path class="cls-3" d="M107.4354,241.1455a1.522,1.522,0,0,1-1.6437,1.3452,1.4555,1.4555,0,0,1-1.39-1.5531,1.5227,1.5227,0,0,1,1.6423-1.3465A1.4566,1.4566,0,0,1,107.4354,241.1455Z"/><path class="cls-3" d="M96.044,253.7389c.0072.0651-.44.195-1.1756.1012a4.4994,4.4994,0,0,1-3.8369-3.8291c-.0951-.7354.0338-1.1829.0989-1.1758.0842.0033.0981.4428.28,1.0986a4.9027,4.9027,0,0,0,3.5345,3.5274C95.6011,253.6417,96.0406,253.6547,96.044,253.7389Z"/><path class="cls-16" d="M157.8875,278.1918,128.34,304.3279,99.816,281.31l-2.1555,30.2384,17.6914,14.1634c7.3192,2.8525,15.2873,4.2649,21.1-1.02l32.7349-33.1751Z"/><path class="cls-16" d="M42.0977,292.7247s.6855-11.3694,10.8607-17.3612c1.485-.8743,13.7659-6.2336,13.7659-6.2336l3.6525-5.231,22.4119,14.2929,2.8265,2.5807,2.3035-5.5393,2.7286,4.1482-1.1531-.1876.3219,2.116,1.3911,9.1873.9863,26.3191c-.0125-.2793.4182,9.2493.15,13.6437-1.0125,16.5893-3.84,58.8675-4.8413,61.8463a5.4164,5.4164,0,0,1-4.736,3.7982L34.1746,379.61c-3.3081-.2811-6.3225-9.2775-1.3771-12.1706Z"/><g class="cls-17"><path d="M46.784,300.7241s24.4018,45.4989,32.7551,49.9812,21.8287,1.63,21.8287,1.63v-3.6889Z"/></g><path class="cls-16" d="M64.1255,281.1211c3.3828,1.5254,34.6925,42.67,34.6925,42.67l44.32-.3667,2.8833,20.7376s-46.4671,6.7231-57.3016,4.3555-42.5256-48.4229-44.4649-51.54c-3.0759-4.9435-.4544-12.7674,4.3019-16.9218"/><path class="cls-16" d="M48.5572,280.0563s-.1569.1728-.4792.49a15.5863,15.5863,0,0,0-1.3378,1.4914,17.4158,17.4158,0,0,0-3.3315,6.8652,11.8827,11.8827,0,0,0-.0716,5.4818c.3886,2.011,1.8894,3.7375,3.1938,5.72,2.718,3.9154,5.8716,8.3346,9.4448,13.1545,3.5757,4.8173,7.557,10.0487,12.0268,15.5044,2.2365,2.7258,4.594,5.5092,7.1207,8.2854a80.4672,80.4672,0,0,0,8.2615,8.0723,16.5107,16.5107,0,0,0,5.0383,3.0482l.3489.1134.3734.0518.7483.1043c.5011.06.9966.1608,1.5062.19l3.08.1367c4.1417.0474,8.3755-.2028,12.6782-.4871,8.6046-.6433,17.493-1.6074,26.5766-2.7407q6.2043-.777,12.2509-1.6273l-.2158.2871c-.9849-7.1015-1.9461-14.0319-2.8763-20.7383l.2472.2134-44.32.3261-.104.0008-.0628-.0825c-10.1311-13.3036-18.6022-24.1513-24.6266-31.5993-3.0138-3.7223-5.419-6.5935-7.1227-8.4852-.8484-.9488-1.5257-1.6492-2.0075-2.091a7.6413,7.6413,0,0,0-.7708-.62,3.1562,3.1562,0,0,1,.8124.573,27.2817,27.2817,0,0,1,2.057,2.0548c1.7361,1.8684,4.1719,4.7175,7.2146,8.4194,6.0823,7.4071,14.6024,18.2185,24.7734,31.4976l-.1665-.0817,44.32-.4072.2175-.0019.03.2156c.9347,6.7059,1.9006,13.6357,2.89,20.7364l.0351.2516-.251.0357q-6.0462.86-12.2605,1.6307c-9.0895,1.1341-17.9846,2.0954-26.604,2.733-4.3122.2814-8.5536.5284-12.7222.4758l-3.1111-.1423c-.5156-.03-1.029-.1328-1.5413-.1958l-.7672-.1087-.3827-.0543-.3768-.1209a16.8752,16.8752,0,0,1-5.2047-3.1445,80.6083,80.6083,0,0,1-8.2972-8.1358c-2.5285-2.79-4.8836-5.5839-7.1165-8.32-4.462-5.4755-8.43-10.7236-11.9893-15.5582-3.5572-4.8369-6.6917-9.273-9.3895-13.2071-.6715-.986-1.3205-1.9358-1.9264-2.8672A8.8839,8.8839,0,0,1,43.1,294.4412a12.05,12.05,0,0,1,.1149-5.5834,17.2233,17.2233,0,0,1,3.4452-6.8849,13.8056,13.8056,0,0,1,1.3818-1.4644C48.3772,280.2027,48.5572,280.0563,48.5572,280.0563Z"/><path class="cls-18" d="M66.7243,269.13c.2185.5034,20.6949,14.2641,20.6949,14.2641l4.9379-4.74,2.6315,2.1128"/><path class="cls-3" d="M94.9886,280.7663a3.7165,3.7165,0,0,1-.741-.4924l-1.984-1.5037.1972-.0088c-1.29,1.2688-2.96,2.91-4.881,4.8l-.1328.13-.1572-.1053-6.1968-4.1529c-4.0436-2.7383-7.6806-5.2518-10.2835-7.1151-2.6025-1.8586-4.1759-3.0815-4.0852-3.1885,2.1489,1.4488,7.225,4.8708,14.6556,9.88,2.2064,1.4994,4.2985,2.9209,6.1684,4.1917l-.29.0251,4.9949-4.681.0988-.0926.0986.0839,1.8969,1.6122A3.7142,3.7142,0,0,1,94.9886,280.7663Z"/><path class="cls-3" d="M100.3039,284.5256a8.9464,8.9464,0,0,1,.25,1.5266c.1289.9864.2914,2.4161.473,4.1849.3635,3.5374.7854,8.4335,1.0924,13.852.305,5.4205.4281,10.3348.4407,13.8914.0067,1.7784-.006,3.2174-.035,4.2117a8.9414,8.9414,0,0,1-.0937,1.544,8.9477,8.9477,0,0,1-.1054-1.543c-.0329-1.0844-.0759-2.5-.1277-4.2064-.1051-3.5514-.2852-8.4557-.59-13.8689-.3064-5.4111-.6708-10.3055-.9419-13.8486-.1261-1.7027-.2307-3.1155-.3109-4.1977A8.9726,8.9726,0,0,1,100.3039,284.5256Z"/><path class="cls-18" d="M36.5752,367.4465a203.61,203.61,0,0,0,40.7332-7.1945"/><path class="cls-19" d="M77.3083,360.2519a9.9034,9.9034,0,0,1-1.5426.5308c-1.0016.313-2.4621.7289-4.2754,1.2111-3.6257.9664-8.68,2.1456-14.32,3.1443-5.6432.9942-10.7956,1.6177-14.533,1.9518-1.8688.1682-3.3832.2777-4.4314.3269a9.9306,9.9306,0,0,1-1.6308.03,9.9546,9.9546,0,0,1,1.6147-.2283l4.41-.4882c3.7216-.4254,8.8525-1.104,14.4812-2.0958,5.626-.9961,10.6784-2.1162,14.32-2.9913l4.311-1.0522A9.9837,9.9837,0,0,1,77.3083,360.2519Z"/><path class="cls-16" d="M94.2729,454.0285,66.296,444.46s-19.1222,25.2234-24.4649,23.9586l16.6054-54.9125L102.64,426.6267Z"/><path class="cls-1" d="M73.81,428.1994a2.3424,2.3424,0,0,0-2.09-2.3246,2.2515,2.2515,0,0,0-2.3219,2.0517,2.47,2.47,0,0,0,2.2261,2.45c1.15-.0511,2.4051-1.2736,2.1791-2.402"/><path class="cls-1" d="M57.2928,413.1173l4.2842,1.2665L45.2726,467.0923s-1.8032,2.123-3.4415,1.326Z"/><path class="cls-3" d="M66.3061,445.434c-.2657-.09.0183-1.4674-.445-3.0474-.422-1.5922-1.3776-2.6237-1.1969-2.838.127-.2317,1.6091.6529,2.1362,2.5758C67.3446,444.0423,66.5344,445.5665,66.3061,445.434Z"/><path class="cls-3" d="M62.1823,450.4731c-.2783-.0171-.3831-1.3162-1.2419-2.57-.8217-1.2787-1.9785-1.8794-1.8864-2.1427.0342-.2649,1.6607.0243,2.6986,1.6035C62.8044,448.9333,62.44,450.5447,62.1823,450.4731Z"/><path class="cls-3" d="M54.3,451.66c.0166-.2608,1.4691-.2291,2.7292.9035,1.2688,1.124,1.4657,2.5635,1.2078,2.61-.2661.0848-.8079-.9677-1.8569-1.882C55.3531,452.353,54.2456,451.9344,54.3,451.66Z"/><path class="cls-3" d="M72.9239,446.9073c-.2106-.1861.5316-1.3045.8869-2.8513.3869-1.54.2347-2.8726.5069-2.9431.2408-.0964.8853,1.3554.441,3.1713C74.3285,446.1028,73.0947,447.1028,72.9239,446.9073Z"/><path d="M97.6745,379.4289c1.0768-.2972,48.4574,50.5292,49.5342,58.9283s-.6461,15.7219-6.2456,20.46-69.3479-10.7684-69.3479-10.7684l6.03-26.7054L54.6012,413.59l20.5944-37.6891Z"/><g class="cls-17"><path d="M108.8829,390.6935l1.5174,1.6306s-27.158,28.49-35.4892,28.0993L61.577,415.9062,106.69,388.2217Z"/></g><path class="cls-20" d="M77.4883,422.0393c-.04.1369,9.8517,3.1642,22.0913,6.7608,12.244,3.5978,22.199,6.4026,22.2392,6.2658s-9.85-3.1636-22.0935-6.7615C87.4857,424.7078,77.5285,421.9025,77.4883,422.0393Z"/><path class="cls-16" d="M130.8149,431.3158l-8.3326,26.4348s24.0707,17.3477,23.0066,22.383l-51.836-14.3159,11.2934-41.7212Z"/><path class="cls-1" d="M107.074,451.0781a2.1959,2.1959,0,0,0-2.1311,2.0113,2.1107,2.1107,0,0,0,1.9754,2.1294,2.316,2.316,0,0,0,2.2454-2.1418,2.1907,2.1907,0,0,0-2.3-1.9875"/><path class="cls-1" d="M93.3148,466.8983l1.09-4.0436,49.7636,14.084s2.03,1.6415,1.3207,3.1949Z"/><path class="cls-3" d="M123.3949,457.719c-.0781.2508-1.3755.016-2.8456.486-1.4825.4316-2.4275,1.3506-2.6326,1.1861-.22-.1139.5755-1.5227,2.3656-2.06C122.0673,456.7774,123.5141,457.5019,123.3949,457.719Z"/><path class="cls-3" d="M128.2108,461.4691c-.01.2612-1.2249.389-2.38,1.2222-1.18.7991-1.7163,1.8967-1.9653,1.8164-.249-.0263-.0148-1.557,1.4415-2.5654C126.7535,460.921,128.2718,461.2265,128.2108,461.4691Z"/><path class="cls-3" d="M129.5017,468.829c-.2448-.01-.248-1.3715.7848-2.578,1.0244-1.2145,2.3691-1.4316,2.4181-1.191.0854.2474-.8886.779-1.7216,1.7828C130.1272,467.8263,129.76,468.8736,129.5017,468.829Z"/><path class="cls-3" d="M124.6255,451.4839c-.17.2015-1.2345-.4687-2.692-.7665-1.4517-.3277-2.6973-.1549-2.77-.4082-.096-.2235,1.25-.86,2.9618-.4852C123.84,450.1859,124.8049,451.3193,124.6255,451.4839Z"/><g class="cls-17"><polygon points="95.179 453.366 98.705 439.512 96.079 438.289 112.103 394.664 115.162 397.325 102.568 437.289 98.063 453.969 95.179 453.366"/></g><path d="M34.1746,379.61s94.728-32.9983,96.451-33.6445A19.0783,19.0783,0,0,1,133,345.3675a22.4886,22.4886,0,0,1,18.032,3.8651c4.3014,3.23,7.8923,8.4055,6.7292,16.5463-2.5844,18.0907-25.7039,79.8436-25.7039,79.8436L100.07,436.0054c-.1825-.0549-.363-.5824-.2621-.4207.2621.4207,16.2307-51.0229,15.8278-50.4184-.4307.646-32.2832,26.345-45.5216,31.0755A29.352,29.352,0,0,1,36.5831,406.231C33.482,401.8927,30.8549,389.6753,34.1746,379.61Z"/><path class="cls-20" d="M34.1746,379.61s-.1132.3313-.3187,1.0041a27.44,27.44,0,0,0-.7389,3.0288,38.0981,38.0981,0,0,0-.1706,11.9459,32.2744,32.2744,0,0,0,2.2433,8.3726,14.1606,14.1606,0,0,0,1.1627,2.1527c.4811.6791,1.0075,1.3437,1.5553,2.0115a27.7013,27.7013,0,0,0,3.8975,3.7021,29.5735,29.5735,0,0,0,10.59,5.3086,29.7353,29.7353,0,0,0,13.2689.4981l1.7331-.3732c.5778-.1375,1.1422-.34,1.7191-.5092a29.9709,29.9709,0,0,0,3.4063-1.3017c1.1213-.5016,2.21-1.0979,3.3348-1.652l3.3038-1.87c4.3957-2.6123,8.8122-5.5791,13.3173-8.747q6.7527-4.76,13.7392-10.1471,3.4959-2.6818,7.0254-5.533l1.7591-1.4491c.1485-.1278.2876-.2337.4442-.38l.2316-.2171.1145-.11c-.177-.0411.4768.0144-.3825-.1059-.0187-.1747-.0073-.0358-.0166-.052-.0844.3482-.1971.7252-.3013,1.0888q-.6593,2.1985-1.327,4.4264c-3.6293,11.8659-7.5058,24.3234-11.6341,37.2227l-1.5824,4.8488c-.2717.807-.5411,1.6253-.84,2.4131-.0227.073-.1114.2459-.0791.208.832.3485.2655-.5066-.111.2244a.704.704,0,0,0,.0389.1273,1.4177,1.4177,0,0,0,.0851.1787.6587.6587,0,0,0,.3788.3433l.3088.0929,1.2364.3721,9.9854,3.0045,20.4277,6.1442.2445.0736.0876-.2383c1.0544-2.8646,2.1889-5.9469,3.3294-9.0453,5.1084-14.0694,9.9631-27.8559,14.3-41.2906,2.1575-6.72,4.2326-13.3388,5.9536-19.9153.4563-1.6363.8029-3.2948,1.2063-4.9273.3834-1.638.6474-3.2982.9367-4.9408a16.8493,16.8493,0,0,0-7.5388-17.0425,22.0375,22.0375,0,0,0-8.68-3.5428,23.4667,23.4667,0,0,0-9.1079.1882l-2.1883.5561q-1.0473.3663-2.086.7295l-4.12,1.4411c-10.8911,3.813-21.0365,7.3648-30.2995,10.6076L50.1858,373.921c-5.1562,1.8207-9.162,3.2353-11.8921,4.2q-2.02.7218-3.0823,1.1011c-.6922.25-1.0368.3881-1.0368.3881s.3712-.1118,1.0763-.3489q1.0713-.365,3.1194-1.0622L50.3255,374.08l43.883-15.2114,30.2773-10.5231q2.04-.71,4.1152-1.4315l2.0832-.725,2.1273-.5342a23.0071,23.0071,0,0,1,8.9233-.1715,21.5647,21.5647,0,0,1,8.486,3.4753,16.3551,16.3551,0,0,1,7.3115,16.5729c-.2883,1.6234-.55,3.2666-.9333,4.8963-.4035,1.6262-.749,3.2748-1.2057,4.9076-1.7213,6.5573-3.799,13.17-5.9581,19.8834-4.3407,13.4222-9.1976,27.2036-14.3041,41.2681-1.14,3.0969-2.2735,6.1776-3.3272,9.0409l.3319-.1644-20.4292-6.1395-9.9867-3-1.2368-.3715-.3086-.0927c-.0323-.0262-.1016.2186-.02.0334.0467-.0561.0087-.02.0109-.0407a.5445.5445,0,0,1-.0588-.0872.9122.9122,0,0,1-.0536-.1118c-.0641-.0057.1139-.0643-.1377-.0033.0185-.0386-.8342.2612.1031.2085a1.5767,1.5767,0,0,0,.1855-.3773c.3094-.8173.5746-1.6266.8478-2.4392q.7943-2.4384,1.5813-4.855c4.1221-12.9074,7.9872-25.3665,11.6041-37.241q.666-2.2314,1.3234-4.4338c.1059-.3725.2133-.7279.3081-1.1216,0-.0628.024.0293.0064-.1929-.8424-.11-.2931-.0277-.48-.032l-.0955.0845-.1884.1707c-.1214.1143-.2837.2419-.4234.3621l-1.7488,1.4442q-3.5177,2.8494-7.008,5.535-6.969,5.3778-13.7074,10.158c-4.4929,3.1714-8.8967,6.142-13.2718,8.7548q-1.66.9447-3.2851,1.87c-1.1152.552-2.1978,1.1486-3.3061,1.6474A29.6555,29.6555,0,0,1,69,416.3852c-.5693.1679-1.1262.37-1.6966.5073q-.86.1877-1.71.3727a29.4092,29.4092,0,0,1-13.11-.4552,29.3034,29.3034,0,0,1-10.4947-5.2158,27.4982,27.4982,0,0,1-3.8722-3.6482c-.5437-.6574-1.07-1.3163-1.5455-1.9808a13.9151,13.9151,0,0,1-1.15-2.1075,32.2231,32.2231,0,0,1-2.27-8.2982,38.6744,38.6744,0,0,1,.0718-11.8983c.2553-1.3412.4763-2.3586.6815-3.0219C34.0881,379.9671,34.1746,379.61,34.1746,379.61Z"/><path class="cls-20" d="M130.2515,371.0042a13.0929,13.0929,0,0,0-2.6372,1.4739,40.1892,40.1892,0,0,0-5.7182,4.53,35.4656,35.4656,0,0,0-4.7525,5.5391,21.0086,21.0086,0,0,0-1.1677,1.8793,2.4847,2.4847,0,0,0-.34.74c.0718.0427.687-.93,1.8043-2.4055a45.5383,45.5383,0,0,1,4.8129-5.3791,53.8581,53.8581,0,0,1,5.5684-4.6025A26.1527,26.1527,0,0,0,130.2515,371.0042Z"/><path class="cls-20" d="M119.3324,367.44a11.0956,11.0956,0,0,0-1.1257,2.4183,43.5942,43.5942,0,0,0-2.7873,12.5352,11.0912,11.0912,0,0,0-.005,2.6672,17.6484,17.6484,0,0,0,.3687-2.6325c.198-1.6242.5307-3.8593,1.07-6.2939.5428-2.433,1.1884-4.5981,1.6972-6.1533A17.6661,17.6661,0,0,0,119.3324,367.44Z"/><path class="cls-4" d="M158.6772,319.1766l12.1216-24.4938a4.9032,4.9032,0,0,1,4.3981-2.718h30.4563a1.4836,1.4836,0,0,1,1.3185,2.1836l-20.6158,38.1665a3.3235,3.3235,0,0,1-2.9261,1.7377H151.842Z"/><path class="cls-3" d="M206.77,294.3264a2.4787,2.4787,0,0,1-.6089.0488l-1.7444.0291-6.4146.0016-21.1437-.1795a6.0778,6.0778,0,0,0-2.8118.6744,5.2494,5.2494,0,0,0-1.8688,2.0512c-.8851,1.6737-1.63,3.4194-2.4013,5.0117-1.5127,3.1974-2.88,6.0875-4.0405,8.5412-1.1429,2.3681-2.08,4.31-2.7691,5.7377l-.7792,1.548a2.43,2.43,0,0,1-.3069.5234,2.4261,2.4261,0,0,1,.2023-.5715c.1808-.4223.4062-.9489.6818-1.5924.6477-1.4461,1.5291-3.4139,2.6039-5.8132,1.1288-2.4684,2.4582-5.3756,3.9293-8.5921.7661-1.614,1.4739-3.3125,2.3914-5.0652a5.7794,5.7794,0,0,1,2.0706-2.2662,6.607,6.607,0,0,1,3.0738-.7536c8.2948.0543,15.7518.2324,21.1738.3452,2.6463.0736,4.817.1341,6.4121.1786l1.743.0772A2.4772,2.4772,0,0,1,206.77,294.3264Z"/><path class="cls-7" d="M188.0034,299.6926a.9912.9912,0,0,1,.4567,1.5152,1.4578,1.4578,0,0,1-1.6121.6061,1.1277,1.1277,0,0,1-.84-.8033,1.39,1.39,0,0,1,.9305-1.3928A2.2,2.2,0,0,1,188.0034,299.6926Z"/><path class="cls-14" d="M140.062,328.6186l2.1008-2.1427s3.0839-4.4483,4.3454-5.8383,8.831-6.2554,8.831-6.2554,3.6476-4.9025,4.2082-4.9025,2.3357.3142,1.8568,2.5935a34.8008,34.8008,0,0,1-2,6.5766l16.1671.3513a3.44,3.44,0,0,1,2.6342,1.25c.4227.5339.5988,1.1227-.1581,1.4981-1.6821.8339-8.5507,2.502-8.5507,2.502l3.0676-.7837s.6577,2.9091-1.2825,4.29a10.4481,10.4481,0,0,0-2.0654,1.6367s-.095,2.7519-.936,3.864-9.9493,5.7594-9.9493,5.7594-5.8206,1.7058-8.7643,1.5667-5.9722,1.516-6.3035,1.6053S140.062,328.6186,140.062,328.6186Z"/><path class="cls-15" d="M160.96,318.72a33.5426,33.5426,0,0,1-4.5414.5045c-2.5.2741-4.5646.3979-4.5779.2238a19.5642,19.5642,0,0,1,4.5211-.7881A13.0313,13.0313,0,0,1,160.96,318.72Z"/><path class="cls-15" d="M158.8015,325.8354c-.05-.1716,2.8988-.97,6.6044-1.3917,1.8487-.2328,3.5223-.3978,4.7305-.5309a8.8452,8.8452,0,0,1,1.9724-.1484,5.72,5.72,0,0,1-1.9116.5448c-1.2023.2358-2.8752.4649-4.719.6969C161.7843,325.4271,158.84,325.9655,158.8015,325.8354Z"/><path class="cls-15" d="M158.8015,331.0814c0-.1675,2.3565-.2387,5.2023-.73,2.8493-.4766,5.0944-1.1874,5.1512-1.0295a19.5329,19.5329,0,0,1-10.3535,1.7594Z"/><path class="cls-15" d="M159.7784,336.9594c-.156.0255-.3906-.6045-.5242-1.4073s-.1157-1.4741.04-1.5.39.6044.524,1.4073S159.9341,336.9338,159.7784,336.9594Z"/><path class="cls-15" d="M158.33,329.9214c-.1622-.0126-.2468-.5342-.5246-1.0838-.264-.5567-.625-.9451-.5346-1.0793.0727-.1347.7045.1233,1.0489.8315C158.6683,329.296,158.4821,329.9481,158.33,329.9214Z"/><path class="cls-15" d="M156.4847,322.8756c-.16.0169-.3252-.3188-.521-.699-.1894-.3835-.3609-.716-.2512-.8328.1019-.1156.5195.0949.7626.5793C156.72,322.4064,156.6393,322.8639,156.4847,322.8756Z"/><path class="cls-14" d="M161.9257,278.2347s.3608-4.5941,2.7446-7.5243c6.25-7.683,4.17-14.5334,4.17-14.5334,2.163-2.3907,5.7594.4671,6.4628,5.94,1.4609,11.3673-.48,24.1663-.5969,24.6332-.1547.6188-6.6272,3.3654-6.6272,3.3654l-8.6368-10.09Z"/><rect class="cls-7" x="171.2571" y="209.3233" width="162.6485" height="79.3542" rx="8.498"/><path class="cls-3" d="M325.4076,288.6775c-.0014-.024.4134-.0041,1.2032-.1213a8.3282,8.3282,0,0,0,3.2886-1.2325,8.42,8.42,0,0,0,3.4737-4.4272,9.8517,9.8517,0,0,0,.4446-3.6143q-.0055-1.9747-.0116-4.2026c-.0193-11.8865-.047-29.069-.0814-50.2991q-.0019-1.9909-.0042-4.0288-.0012-1.0191-.0022-2.05a13.6542,13.6542,0,0,0-.0926-2.0415,8.2975,8.2975,0,0,0-4.7745-6.385,9.03,9.03,0,0,0-4.1961-.7511q-2.2168.002-4.4759.0037l-9.2015.0072-39.8652.0236-91.3463.02a8.3213,8.3213,0,0,0-5.3906,2.0064,8.1519,8.1519,0,0,0-2.7607,5.003,21.1513,21.1513,0,0,0-.1026,2.9521q0,1.4953,0,2.9856l-.0006,5.94q-.002,11.837-.0038,23.3072-.0033,11.46-.0063,22.4951-.001,2.7561-.002,5.4831a8.4981,8.4981,0,0,0,1.3853,5.0074,8.3044,8.3044,0,0,0,4.0269,3.1674c1.6167.6645,3.3936.4868,5.1524.5156l74.6052.0549,50.2963.0812,13.6744.0481,3.5562.0254c.8012.0085,1.2115.0261,1.2115.0261s-.41.0176-1.2115.0262l-3.5562.0254-13.6744.048-50.2963.0813-74.6052.0548c-.8814-.0072-1.7491.0177-2.6495-.0157a8.247,8.247,0,0,1-2.6671-.5244,8.7815,8.7815,0,0,1-4.2623-3.3474,8.9879,8.9879,0,0,1-1.47-5.2743q-.001-2.7269-.002-5.4831-.003-11.025-.0063-22.4951-.0018-11.46-.0039-23.3072l-.0006-5.94q0-1.49,0-2.9856a21.5007,21.5007,0,0,1,.1079-3.0279,8.663,8.663,0,0,1,2.9317-5.3142,8.833,8.833,0,0,1,5.7249-2.131c32.4.0072,63.268.0139,91.3463.02l39.8652.0237,9.2015.0071,4.4759.0037a9.4372,9.4372,0,0,1,4.36.7945,8.6838,8.6838,0,0,1,4.9854,6.6916,14.0029,14.0029,0,0,1,.0921,2.094l-.002,2.05q-.0023,2.0377-.0043,4.0288c-.0343,21.23-.0621,38.4126-.0813,50.2991q-.0061,2.2264-.0116,4.2026a9.996,9.996,0,0,1-.4765,3.6634,8.5046,8.5046,0,0,1-3.5627,4.4652,8.2177,8.2177,0,0,1-3.3362,1.1972,6.131,6.131,0,0,1-.905.0673C325.51,288.6812,325.4076,288.6775,325.4076,288.6775Z"/><polygon class="cls-6" points="210.731 246.439 210.731 256.906 235.389 267.481 235.598 257.461 221.821 251.313 235.598 245.433 235.598 235.725 210.731 246.439"/><polygon class="cls-6" points="294.431 257.609 294.431 247.142 269.558 236.567 269.348 246.586 283.245 252.734 269.348 258.614 269.348 268.322 294.431 257.609"/><path class="cls-6" d="M254.0155,227.0835c0,.26-14.4837,49.125-14.0741,49.0383s10.7864-.0064,10.7864-.0064l14.2849-49.0319Z"/><path class="cls-1" d="M188.1714,219.848a3.4336,3.4336,0,1,1-3.4268-3.2175A3.3272,3.3272,0,0,1,188.1714,219.848Z"/><path class="cls-1" d="M197.5848,219.848a3.4336,3.4336,0,1,1-3.4268-3.2175A3.3271,3.3271,0,0,1,197.5848,219.848Z"/><path class="cls-1" d="M206.9983,219.848a3.4336,3.4336,0,1,1-3.4268-3.2175A3.3272,3.3272,0,0,1,206.9983,219.848Z"/></svg>