<svg id="Layer_1" data-name="Layer 1" xmlns="http://www.w3.org/2000/svg" viewBox="0 0 688 560"><defs><style>.cls-1{fill:#ececec;}.cls-2{fill:#f0f0f0;}.cls-3{fill:#f5f5f5;}.cls-4{fill:#fafafa;}.cls-16,.cls-24,.cls-25,.cls-31,.cls-36,.cls-38,.cls-5{fill:none;}.cls-5{stroke:#e1e1e1;stroke-width:4.0176px;}.cls-16,.cls-24,.cls-36,.cls-5{stroke-miterlimit:10;}.cls-6{fill:#e1e1e1;}.cls-7{fill:#e7e7e7;}.cls-8{fill:#1a2e35;}.cls-10,.cls-13,.cls-19,.cls-21,.cls-22,.cls-23,.cls-26,.cls-27,.cls-33,.cls-34,.cls-37,.cls-9{fill:#fff;}.cls-9{opacity:0.7;}.cls-10,.cls-34{opacity:0.6;}.cls-11,.cls-21,.cls-35{opacity:0.2;}.cls-11,.cls-12,.cls-33,.cls-34,.cls-37{isolation:isolate;}.cls-12,.cls-27,.cls-33{opacity:0.4;}.cls-14{fill:#007cff;}.cls-15{fill:#98c1d9;}.cls-16{stroke:#002364;stroke-width:1.1707px;}.cls-17{fill:#002364;}.cls-18,.cls-22{opacity:0.3;}.cls-19{opacity:0.9;}.cls-20,.cls-23,.cls-37{opacity:0.5;}.cls-24,.cls-25{stroke:#007cff;}.cls-24{stroke-width:3.4775px;}.cls-25,.cls-31,.cls-38{stroke-linecap:round;stroke-linejoin:round;}.cls-25{stroke-width:5.2162px;}.cls-26{opacity:0.8;}.cls-28{fill:#fcc1bb;}.cls-29{fill:#f9c0bb;}.cls-30{fill:#033987;}.cls-31{stroke:#417bfd;stroke-width:0.647px;}.cls-32{fill:#263237;}.cls-36{stroke:#fff;stroke-width:1.3392px;}.cls-38{stroke:#1a2e35;stroke-width:0.742px;}.cls-39{fill:#eb827e;}</style></defs><rect class="cls-1" x="9.1985" y="469.0174" width="669.6031" height="0.3348"/><rect class="cls-1" x="567.3516" y="490.5733" width="44.3573" height="0.3348"/><rect class="cls-1" x="441.1285" y="494.2074" width="11.6421" height="0.3348"/><rect class="cls-1" x="540.3086" y="478.1373" width="25.7026" height="0.3348"/><rect class="cls-1" x="79.4519" y="480.3874" width="57.8449" height="0.3348"/><rect class="cls-1" x="149.2201" y="480.3874" width="8.4812" height="0.3348"/><rect class="cls-1" x="185.2656" y="486.0418" width="125.4512" height="0.3348"/><path class="cls-1" d="M326.6087,409.2907H68.01a7.6528,7.6528,0,0,1-7.6442-7.6442V38.1437A7.6528,7.6528,0,0,1,68.01,30.5h258.599a7.6524,7.6524,0,0,1,7.6428,7.6437V401.6465A7.6523,7.6523,0,0,1,326.6087,409.2907ZM68.01,30.8348A7.3173,7.3173,0,0,0,60.7,38.1437V401.6465a7.3173,7.3173,0,0,0,7.3094,7.3094h258.599a7.3169,7.3169,0,0,0,7.308-7.3094V38.1437a7.3169,7.3169,0,0,0-7.308-7.3089Z"/><path class="cls-1" d="M616.2747,409.2907H357.6758a7.6523,7.6523,0,0,1-7.6428-7.6442V38.1437A7.6524,7.6524,0,0,1,357.6758,30.5H616.2747a7.6528,7.6528,0,0,1,7.6443,7.6437V401.6465A7.6528,7.6528,0,0,1,616.2747,409.2907ZM357.6758,30.8348a7.3169,7.3169,0,0,0-7.308,7.3089V401.6465a7.3169,7.3169,0,0,0,7.308,7.3094H616.2747a7.3173,7.3173,0,0,0,7.3095-7.3094V38.1437a7.3174,7.3174,0,0,0-7.3095-7.3089Z"/><path class="cls-2" d="M326.6424,199.4473V222.97l12.1125,1.142a62.8334,62.8334,0,0,0,9.0334,21.7287l-7.7805,9.3972,16.6339,16.6348,9.3987-7.7816a62.7958,62.7958,0,0,0,21.7286,9.035l1.141,12.1125h23.5244l1.1416-12.1135a62.8011,62.8011,0,0,0,21.728-9.034l9.3983,7.7816,16.6348-16.6348-7.78-9.3983a62.8481,62.8481,0,0,0,9.0335-21.7276l12.1135-1.142V199.4473l-12.1135-1.1421a62.8349,62.8349,0,0,0-9.0335-21.7285l7.78-9.3987-16.6348-16.6349-9.3983,7.78a62.854,62.854,0,0,0-21.728-9.0325l-1.1416-12.1136H388.91L387.769,149.29a62.8566,62.8566,0,0,0-21.7286,9.0325l-9.3987-7.78L340.0078,167.178l7.7805,9.3978a62.8176,62.8176,0,0,0-9.0334,21.7294Zm74.03-20.0854a31.8462,31.8462,0,1,1-31.8464,31.8464A31.8463,31.8463,0,0,1,400.6725,179.3619Z"/><path class="cls-3" d="M286.8977,304.7155l6.7518,5.5917,11.9518-11.953-5.59-6.7523a45.1506,45.1506,0,0,0,6.49-15.6119l8.7034-.8193v-16.902l-8.703-.82a45.1357,45.1357,0,0,0-6.4905-15.6114l5.59-6.7528L293.65,223.1314l-6.7518,5.59a45.2168,45.2168,0,0,0-15.613-6.4906l-.8193-8.7033-16.9024.0024-.8184,8.7005a45.1793,45.1793,0,0,0-15.6128,6.491l-6.7529-5.59-11.9518,11.9528,5.5906,6.7528a45.1159,45.1159,0,0,0-6.4915,15.6114l-8.7015.82v16.902l8.7015.8193a45.1686,45.1686,0,0,0,6.4915,15.6119l-5.5906,6.7523,11.9518,11.953,6.7529-5.5917a45.161,45.161,0,0,0,15.6128,6.4915l.8184,8.7024h16.9024l.8193-8.7039A45.1464,45.1464,0,0,0,286.8977,304.7155Zm-47.7641-37.9968A22.8811,22.8811,0,1,1,262.015,289.6,22.88,22.88,0,0,1,239.1336,266.7187Z"/><path class="cls-4" d="M362.0161,419.2051a53.7792,53.7792,0,0,0,18.588-7.7279l8.0389,6.6556,14.23-14.2286-6.6565-8.0414a53.7265,53.7265,0,0,0,7.7277-18.5865l10.3616-.9756v-20.123l-10.3616-.9756a53.75,53.75,0,0,0-7.7277-18.5874l6.6565-8.04-14.23-14.2277-8.0389,6.6543a53.7869,53.7869,0,0,0-18.588-7.7279l-.9755-10.3612H340.9165l-.9756,10.3612a53.7674,53.7674,0,0,0-18.5865,7.7279l-8.0394-6.6543-14.23,14.2277,6.6547,8.04a53.7728,53.7728,0,0,0-7.7264,18.5874l-10.3612.9756v20.123l10.3612.9756a53.7673,53.7673,0,0,0,7.7264,18.5879l-6.6547,8.04,14.23,14.2286,8.0394-6.6556a53.76,53.76,0,0,0,18.5865,7.7279l.9756,10.3611h20.1241Zm-38.279-52.9667A27.2419,27.2419,0,1,1,350.9787,393.48,27.2422,27.2422,0,0,1,323.7371,366.2384Z"/><rect class="cls-3" x="132.528" y="171.2126" width="62.1802" height="62.1802" transform="matrix(0.9908, 0.1354, -0.1354, 0.9908, 28.9091, -20.2973)"/><line class="cls-5" x1="145.8395" y1="186.1783" x2="185.9514" y2="191.6619"/><line class="cls-5" x1="144.1314" y1="198.6734" x2="184.2433" y2="204.1569"/><line class="cls-5" x1="142.3652" y1="211.5924" x2="165.9864" y2="214.8216"/><rect class="cls-2" x="481.5079" y="107.3139" width="62.1801" height="62.1803" transform="translate(-0.4918 1.8346) rotate(-0.205)"/><line class="cls-5" x1="492.7509" y1="124.9072" x2="533.2356" y2="124.7624"/><line class="cls-5" x1="492.796" y1="137.5184" x2="533.2807" y2="137.3736"/><line class="cls-5" x1="492.8427" y1="150.5576" x2="516.6833" y2="150.4722"/><rect class="cls-3" x="522.8681" y="262.5451" width="62.1802" height="62.1802" transform="translate(-32.5174 71.965) rotate(-7.2215)"/><line class="cls-5" x1="532.611" y1="282.6639" x2="572.7748" y2="277.5747"/><line class="cls-5" x1="534.1963" y1="295.1751" x2="574.3601" y2="290.086"/><line class="cls-5" x1="535.8354" y1="308.1109" x2="559.4871" y2="305.114"/><rect class="cls-2" x="188.1068" y="359.112" width="62.1801" height="62.1803" transform="translate(-1.3945 0.7866) rotate(-0.205)"/><line class="cls-5" x1="199.3497" y1="376.7053" x2="239.8344" y2="376.5605"/><line class="cls-5" x1="199.3948" y1="389.3165" x2="239.8795" y2="389.1717"/><line class="cls-5" x1="199.4415" y1="402.3556" x2="223.2822" y2="402.2703"/><rect class="cls-2" x="462.7335" y="389.523" width="62.1803" height="62.1801" transform="translate(-1.5015 1.7693) rotate(-0.205)"/><line class="cls-5" x1="473.9765" y1="407.1162" x2="514.4613" y2="406.9713"/><line class="cls-5" x1="474.0217" y1="419.7274" x2="514.5064" y2="419.5825"/><line class="cls-5" x1="474.0683" y1="432.7666" x2="497.9089" y2="432.6813"/><rect class="cls-2" x="208.0435" y="109.1891" width="62.1802" height="62.1802" transform="translate(-24.7267 55.186) rotate(-12.5223)"/><line class="cls-5" x1="216.8642" y1="131.327" x2="256.3861" y2="122.549"/><line class="cls-5" x1="219.5986" y1="143.6381" x2="259.1204" y2="134.8602"/><line class="cls-5" x1="222.4257" y1="156.3673" x2="245.6995" y2="151.1981"/><polygon class="cls-6" points="142.101 173.988 140.987 173.988 139.456 166.898 143.633 166.898 142.101 173.988"/><ellipse class="cls-7" cx="141.5444" cy="167.7806" rx="5.6581" ry="4.4542"/><polygon class="cls-6" points="255.711 112.027 254.597 112.027 253.065 104.937 257.243 104.937 255.711 112.027"/><ellipse class="cls-7" cx="255.1543" cy="105.8203" rx="5.6581" ry="4.4542"/><polygon class="cls-6" points="511.584 113.813 510.47 113.813 508.938 106.723 513.116 106.723 511.584 113.813"/><ellipse class="cls-7" cx="511.0273" cy="107.606" rx="5.6581" ry="4.4542"/><polygon class="cls-6" points="575.153 267.809 574.039 267.809 572.507 260.719 576.685 260.719 575.153 267.809"/><ellipse class="cls-7" cx="574.5958" cy="261.6019" rx="5.6581" ry="4.4542"/><polygon class="cls-6" points="494.776 396.523 493.662 396.523 492.13 389.433 496.308 389.433 494.776 396.523"/><ellipse class="cls-7" cx="494.2189" cy="390.3156" rx="5.6581" ry="4.4542"/><polygon class="cls-6" points="217.421 364.649 216.307 364.649 214.775 357.559 218.953 357.559 217.421 364.649"/><ellipse class="cls-7" cx="216.8642" cy="358.4424" rx="5.6581" ry="4.4542"/><ellipse id="_Path_" data-name="&lt;Path&gt;" class="cls-3" cx="344.0004" cy="514.3356" rx="259.6576" ry="15.1644"/><path class="cls-8" d="M201.6,290.1545c0-8.82,5.8048-15.9965,12.94-15.9965s12.94,7.176,12.94,15.9965-5.8048,15.9973-12.94,15.9973S201.6,298.9757,201.6,290.1545Zm2.6784,0c0,7.3441,4.6035,13.3188,10.2618,13.3188s10.2611-5.9747,10.2611-13.3188-4.6028-13.3181-10.2611-13.3181S204.2785,282.8111,204.2785,290.1545Z"/><path class="cls-8" d="M176.1391,290.1545c0-8.82,5.8048-15.9965,12.94-15.9965s12.94,7.176,12.94,15.9965-5.8048,15.9973-12.94,15.9973S176.1391,298.9757,176.1391,290.1545Zm2.6784,0c0,7.3441,4.6035,13.3188,10.2618,13.3188s10.2613-5.9747,10.2613-13.3188-4.603-13.3181-10.2613-13.3181S178.8175,282.8111,178.8175,290.1545Z"/><path class="cls-8" d="M150.6782,290.1545c0-8.82,5.8048-15.9965,12.94-15.9965s12.94,7.176,12.94,15.9965-5.8048,15.9973-12.94,15.9973S150.6782,298.9757,150.6782,290.1545Zm2.6784,0c0,7.3441,4.6036,13.3188,10.2618,13.3188s10.2612-5.9747,10.2612-13.3188-4.6029-13.3181-10.2612-13.3181S153.3566,282.8111,153.3566,290.1545Z"/><path class="cls-8" d="M125.2172,290.1545c0-8.82,5.8048-15.9965,12.94-15.9965s12.94,7.176,12.94,15.9965-5.8048,15.9973-12.94,15.9973S125.2172,298.9757,125.2172,290.1545Zm2.6785,0c0,7.3441,4.6035,13.3188,10.2618,13.3188s10.2611-5.9747,10.2611-13.3188-4.6029-13.3181-10.2611-13.3181S127.8957,282.8111,127.8957,290.1545Z"/><path class="cls-8" d="M227.0611,290.1545c0-8.82,5.8047-15.9965,12.94-15.9965s12.94,7.176,12.94,15.9965-5.8048,15.9973-12.94,15.9973S227.0611,298.9757,227.0611,290.1545Zm2.6784,0c0,7.3441,4.6035,13.3188,10.2618,13.3188s10.2611-5.9747,10.2611-13.3188-4.6029-13.3181-10.2611-13.3181S229.74,282.8111,229.74,290.1545Z"/><rect class="cls-8" x="108.3684" y="290.4609" width="159.4786" height="220.5923" transform="translate(376.2154 801.5142) rotate(180)"/><rect class="cls-9" x="108.3684" y="290.4609" width="159.4786" height="220.5923" transform="translate(376.2154 801.5142) rotate(180)"/><rect class="cls-10" x="122.7502" y="290.4609" width="145.0968" height="220.5923" transform="translate(390.5971 801.5142) rotate(180)"/><polygon class="cls-11" points="113.156 511.053 112.487 304.899 111.817 511.053 113.156 511.053"/><polygon class="cls-11" points="119.834 511.053 119.164 317.741 118.494 511.053 119.834 511.053"/><polygon class="cls-11" points="115.156 290.628 115.825 445.613 116.495 290.628 115.156 290.628"/><path class="cls-8" d="M243.8522,300.9507c0,2.5141,1.6813,4.5522,3.7552,4.5522s3.7554-2.0381,3.7554-4.5522-1.6813-4.5521-3.7554-4.5521S243.8522,298.4366,243.8522,300.9507Z"/><path class="cls-8" d="M247.839,302.3a1.3373,1.3373,0,0,0,1.0148-.4641,18.0467,18.0467,0,0,0,4.087-11.6809c0-8.82-5.8048-15.9965-12.94-15.9965-5.2582,0-9.9526,3.8724-11.9587,9.8662a1.3391,1.3391,0,0,0,2.54.85c1.6347-4.8828,5.3319-8.0378,9.4189-8.0378,5.6582,0,10.2611,5.9747,10.2611,13.3181a15.3378,15.3378,0,0,1-3.4369,9.9309A1.3391,1.3391,0,0,0,247.839,302.3Z"/><g class="cls-12"><path class="cls-13" d="M247.839,302.3a1.3373,1.3373,0,0,0,1.0148-.4641,18.0467,18.0467,0,0,0,4.087-11.6809c0-8.82-5.8048-15.9965-12.94-15.9965-5.2582,0-9.9526,3.8724-11.9587,9.8662a1.3391,1.3391,0,0,0,2.54.85c1.6347-4.8828,5.3319-8.0378,9.4189-8.0378,5.6582,0,10.2611,5.9747,10.2611,13.3181a15.3378,15.3378,0,0,1-3.4369,9.9309A1.3391,1.3391,0,0,0,247.839,302.3Z"/></g><path class="cls-8" d="M218.3912,300.9507c0,2.5141,1.6813,4.5522,3.7554,4.5522s3.7552-2.0381,3.7552-4.5522-1.6813-4.5521-3.7552-4.5521S218.3912,298.4366,218.3912,300.9507Z"/><path class="cls-8" d="M222.3781,302.3a1.3379,1.3379,0,0,0,1.0149-.4641,18.0476,18.0476,0,0,0,4.0868-11.6809c0-8.82-5.8048-15.9965-12.94-15.9965-5.2581,0-9.9525,3.8724-11.9587,9.8662a1.3391,1.3391,0,0,0,2.54.85c1.6347-4.8828,5.332-8.0378,9.4189-8.0378,5.6583,0,10.2611,5.9747,10.2611,13.3181a15.3367,15.3367,0,0,1-3.4369,9.9309,1.3391,1.3391,0,0,0,1.0136,2.2141Z"/><g class="cls-12"><path class="cls-13" d="M222.3781,302.3a1.3379,1.3379,0,0,0,1.0149-.4641,18.0476,18.0476,0,0,0,4.0868-11.6809c0-8.82-5.8048-15.9965-12.94-15.9965-5.2581,0-9.9525,3.8724-11.9587,9.8662a1.3391,1.3391,0,0,0,2.54.85c1.6347-4.8828,5.332-8.0378,9.4189-8.0378,5.6583,0,10.2611,5.9747,10.2611,13.3181a15.3367,15.3367,0,0,1-3.4369,9.9309,1.3391,1.3391,0,0,0,1.0136,2.2141Z"/></g><path class="cls-8" d="M192.93,300.9507c0,2.5141,1.6813,4.5522,3.7553,4.5522s3.7552-2.0381,3.7552-4.5522-1.6812-4.5521-3.7552-4.5521S192.93,298.4366,192.93,300.9507Z"/><path class="cls-8" d="M196.9171,302.3a1.3379,1.3379,0,0,0,1.0149-.4641,18.0477,18.0477,0,0,0,4.087-11.6809c0-8.82-5.8048-15.9965-12.94-15.9965-5.258,0-9.9525,3.8724-11.9586,9.8662a1.3391,1.3391,0,1,0,2.54.85c1.6348-4.8828,5.332-8.0378,9.4189-8.0378,5.6583,0,10.2613,5.9747,10.2613,13.3181a15.3369,15.3369,0,0,1-3.4371,9.9309,1.3392,1.3392,0,0,0,1.0136,2.2141Z"/><g class="cls-12"><path class="cls-13" d="M196.9171,302.3a1.3379,1.3379,0,0,0,1.0149-.4641,18.0477,18.0477,0,0,0,4.087-11.6809c0-8.82-5.8048-15.9965-12.94-15.9965-5.258,0-9.9525,3.8724-11.9586,9.8662a1.3391,1.3391,0,1,0,2.54.85c1.6348-4.8828,5.332-8.0378,9.4189-8.0378,5.6583,0,10.2613,5.9747,10.2613,13.3181a15.3369,15.3369,0,0,1-3.4371,9.9309,1.3392,1.3392,0,0,0,1.0136,2.2141Z"/></g><path class="cls-8" d="M167.4693,300.9507c0,2.5141,1.6814,4.5522,3.7553,4.5522s3.7554-2.0381,3.7554-4.5522-1.6814-4.5521-3.7554-4.5521S167.4693,298.4366,167.4693,300.9507Z"/><path class="cls-8" d="M171.4561,302.3a1.3375,1.3375,0,0,0,1.0149-.4641,18.0467,18.0467,0,0,0,4.087-11.6809c0-8.82-5.8048-15.9965-12.94-15.9965-5.2581,0-9.9525,3.8724-11.9587,9.8662a1.3391,1.3391,0,1,0,2.54.85c1.6348-4.8828,5.3319-8.0378,9.4189-8.0378,5.6583,0,10.2612,5.9747,10.2612,13.3181a15.3373,15.3373,0,0,1-3.437,9.9309,1.3391,1.3391,0,0,0,1.0135,2.2141Z"/><g class="cls-12"><path class="cls-13" d="M171.4561,302.3a1.3375,1.3375,0,0,0,1.0149-.4641,18.0467,18.0467,0,0,0,4.087-11.6809c0-8.82-5.8048-15.9965-12.94-15.9965-5.2581,0-9.9525,3.8724-11.9587,9.8662a1.3391,1.3391,0,1,0,2.54.85c1.6348-4.8828,5.3319-8.0378,9.4189-8.0378,5.6583,0,10.2612,5.9747,10.2612,13.3181a15.3373,15.3373,0,0,1-3.437,9.9309,1.3391,1.3391,0,0,0,1.0135,2.2141Z"/></g><path class="cls-8" d="M142.0083,300.9507c0,2.5141,1.6814,4.5522,3.7554,4.5522s3.7553-2.0381,3.7553-4.5522-1.6814-4.5521-3.7553-4.5521S142.0083,298.4366,142.0083,300.9507Z"/><path class="cls-8" d="M145.9952,302.3a1.3378,1.3378,0,0,0,1.0149-.4641,18.0471,18.0471,0,0,0,4.0869-11.6809c0-8.82-5.8048-15.9965-12.94-15.9965-5.2582,0-9.9525,3.8724-11.9588,9.8662a1.3391,1.3391,0,0,0,2.54.85c1.6348-4.8828,5.332-8.0378,9.419-8.0378,5.6582,0,10.2611,5.9747,10.2611,13.3181a15.3362,15.3362,0,0,1-3.437,9.9309,1.3391,1.3391,0,0,0,1.0136,2.2141Z"/><g class="cls-12"><path class="cls-13" d="M145.9952,302.3a1.3378,1.3378,0,0,0,1.0149-.4641,18.0471,18.0471,0,0,0,4.0869-11.6809c0-8.82-5.8048-15.9965-12.94-15.9965-5.2582,0-9.9525,3.8724-11.9588,9.8662a1.3391,1.3391,0,0,0,2.54.85c1.6348-4.8828,5.332-8.0378,9.419-8.0378,5.6582,0,10.2611,5.9747,10.2611,13.3181a15.3362,15.3362,0,0,1-3.437,9.9309,1.3391,1.3391,0,0,0,1.0136,2.2141Z"/></g><rect class="cls-14" x="153.4283" y="391.9495" width="11.2234" height="19.1356"/><rect class="cls-14" x="171.61" y="378.0232" width="11.2234" height="33.0619"/><rect class="cls-14" x="189.7917" y="383.2456" width="11.2234" height="27.8396"/><rect class="cls-14" x="207.9735" y="369.3192" width="11.2234" height="41.766"/><rect class="cls-14" x="226.1552" y="355.3929" width="11.2232" height="55.6922"/><rect class="cls-15" x="153.4283" y="391.9495" width="11.2234" height="19.1356"/><rect class="cls-15" x="171.61" y="378.0232" width="11.2234" height="33.0619"/><rect class="cls-15" x="189.7917" y="383.2456" width="11.2234" height="27.8396"/><rect class="cls-15" x="207.9735" y="369.3192" width="11.2234" height="41.766"/><rect class="cls-15" x="226.1552" y="355.3929" width="11.2232" height="55.6922"/><rect class="cls-8" x="138.0151" y="408.436" width="114.3278" height="5.2982"/><polyline class="cls-16" points="141.607 394.334 177.222 365.991 195.403 376.544 245.459 333.873"/><polygon class="cls-17" points="248.382 331.41 240.933 332.565 246.182 338.169 248.382 331.41"/><g class="cls-18"><path d="M202.8541,430.9485H138.155a1.3392,1.3392,0,0,1,0-2.6784h64.6991a1.3392,1.3392,0,0,1,0,2.6784Z"/></g><g class="cls-18"><path d="M252.82,442.9188H147.3875a1.3392,1.3392,0,1,1,0-2.6784H252.82a1.3392,1.3392,0,1,1,0,2.6784Z"/><path d="M252.9683,449.6293H138.155a1.3392,1.3392,0,0,1,0-2.6784H252.9683a1.3392,1.3392,0,0,1,0,2.6784Z"/><path d="M253.116,456.341H138.3029a1.3392,1.3392,0,0,1,0-2.6784H253.116a1.3392,1.3392,0,0,1,0,2.6784Z"/><path d="M234.5032,463.0514H138.45a1.3392,1.3392,0,0,1,0-2.6784h96.0533a1.3392,1.3392,0,1,1,0,2.6784Z"/></g><g class="cls-18"><path d="M252.82,475.08H147.3875a1.3393,1.3393,0,0,1,0-2.6785H252.82a1.3393,1.3393,0,0,1,0,2.6785Z"/><path d="M252.9683,481.7905H138.155a1.3392,1.3392,0,0,1,0-2.6784H252.9683a1.3392,1.3392,0,0,1,0,2.6784Z"/><path d="M253.116,488.5022H138.3029a1.3392,1.3392,0,0,1,0-2.6784H253.116a1.3392,1.3392,0,0,1,0,2.6784Z"/><path d="M234.5032,495.2127H138.45a1.3392,1.3392,0,0,1,0-2.6784h96.0533a1.3392,1.3392,0,1,1,0,2.6784Z"/></g><g class="cls-18"><path d="M202.8541,319.7243H138.155a1.3392,1.3392,0,0,1,0-2.6784h64.6991a1.3392,1.3392,0,0,1,0,2.6784Z"/></g><rect class="cls-17" x="400.4509" y="186.2301" width="163.0524" height="263.3147" rx="3.4608"/><path class="cls-8" d="M438.6486,184.97h86.657a.6446.6446,0,0,1,.6446.6446v8.845a0,0,0,0,1,0,0H438.004a0,0,0,0,1,0,0v-8.845A.6446.6446,0,0,1,438.6486,184.97Z"/><rect class="cls-19" x="406.8982" y="194.4593" width="150.1577" height="246.8261"/><path class="cls-8" d="M511.42,205.8172H485.0023l-.3007-.9246a2.8542,2.8542,0,0,0-5.4347-.0006l-.3008.9252h-26.418a3.868,3.868,0,0,1-3.87-3.8568v-9.7223a3.8681,3.8681,0,0,1,3.87-3.8573H511.42a3.8613,3.8613,0,0,1,3.8567,3.8573V201.96A3.8612,3.8612,0,0,1,511.42,205.8172Zm-24.5667-2.6784H511.42a1.1793,1.1793,0,0,0,1.1783-1.1784v-9.7223a1.18,1.18,0,0,0-1.1783-1.1789H452.5481a1.173,1.173,0,0,0-1.192,1.1789V201.96a1.173,1.173,0,0,0,1.192,1.1784h24.5668a5.5322,5.5322,0,0,1,9.7381,0Z"/><g class="cls-20"><path class="cls-13" d="M511.42,205.8172H485.0023l-.3007-.9246a2.8542,2.8542,0,0,0-5.4347-.0006l-.3008.9252h-26.418a3.868,3.868,0,0,1-3.87-3.8568v-9.7223a3.8681,3.8681,0,0,1,3.87-3.8573H511.42a3.8613,3.8613,0,0,1,3.8567,3.8573V201.96A3.8612,3.8612,0,0,1,511.42,205.8172Zm-24.5667-2.6784H511.42a1.1793,1.1793,0,0,0,1.1783-1.1784v-9.7223a1.18,1.18,0,0,0-1.1783-1.1789H452.5481a1.173,1.173,0,0,0-1.192,1.1789V201.96a1.173,1.173,0,0,0,1.192,1.1784h24.5668a5.5322,5.5322,0,0,1,9.7381,0Z"/></g><rect class="cls-8" x="455.3549" y="186.8239" width="53.2444" height="5.8278" rx="0.989"/><rect class="cls-21" x="455.3549" y="186.8239" width="53.2444" height="5.8278" rx="0.989"/><circle class="cls-14" cx="517.5869" cy="394.7148" r="28.4958" transform="translate(14.5139 807.7686) rotate(-76.7174)"/><path class="cls-22" d="M517.587,394.7148h28.4957a28.4958,28.4958,0,1,1-28.4957-28.4959l.1024,0Z"/><path class="cls-22" d="M517.587,394.7148l15.3765,23.9911a28.4959,28.4959,0,1,1-15.3765-52.487l.0991,0Z"/><path class="cls-22" d="M517.587,394.7148l-24.0249,15.324a28.496,28.496,0,0,1,24.0249-43.82l.0991,0Z"/><g class="cls-20"><path d="M417.723,238.6574v67.26H546.2311v-67.26Zm127.5037,10.5044H522.9828v-9.5h22.2439Zm-71.0478,0H451.2835v-9.5h22.8954Zm1.0044-9.5h22.8953v9.5H475.1833Zm-1.0044,10.5044v54.7467H451.2835V250.1662Zm1.0044,0h22.8953v54.7467H475.1833Zm23.9,0h22.8954v54.7467H499.083Zm0-1.0044v-9.5h22.8954v9.5Zm-48.8039-9.5v9.5H418.7274v-9.5Zm-31.5517,10.5044h31.5517v54.7467H418.7274Zm104.2554,54.7467V250.1662h22.2439v54.7467Z"/><path d="M458.5779,259.5642h9.2711a1.3392,1.3392,0,1,0,0-2.6784h-9.2711a1.3392,1.3392,0,0,0,0,2.6784Z"/><path d="M481.9768,271.7165H492.04a1.3392,1.3392,0,0,0,0-2.6784H481.9768a1.3392,1.3392,0,0,0,0,2.6784Z"/><path d="M492.4843,293.3412H481.9768a1.3392,1.3392,0,0,0,0,2.6784h10.5075a1.3392,1.3392,0,1,0,0-2.6784Z"/><path d="M515.78,281.1889H504.6766a1.3393,1.3393,0,0,0,0,2.6785H515.78a1.3393,1.3393,0,0,0,0-2.6785Z"/><path d="M539.7319,256.8858H528.4952a1.3392,1.3392,0,0,0,0,2.6784h11.2367a1.3392,1.3392,0,1,0,0-2.6784Z"/><path d="M538.2966,293.3412h-9.8014a1.3392,1.3392,0,1,0,0,2.6784h9.8014a1.3392,1.3392,0,1,0,0-2.6784Z"/><path d="M458.5779,283.8674h7.947a1.3393,1.3393,0,0,0,0-2.6785h-7.947a1.3393,1.3393,0,0,0,0,2.6785Z"/><path d="M467.849,293.3412h-9.2711a1.3392,1.3392,0,0,0,0,2.6784h9.2711a1.3392,1.3392,0,0,0,0-2.6784Z"/><path d="M423.5571,259.5642H444.749a1.3392,1.3392,0,0,0,0-2.6784H423.5571a1.3392,1.3392,0,0,0,0,2.6784Z"/><path d="M423.5571,271.7165h14.1094a1.3392,1.3392,0,0,0,0-2.6784H423.5571a1.3392,1.3392,0,0,0,0,2.6784Z"/><path d="M444.749,281.1889H423.5571a1.3393,1.3393,0,0,0,0,2.6785H444.749a1.3393,1.3393,0,0,0,0-2.6785Z"/><path d="M434.1531,293.3412h-10.596a1.3392,1.3392,0,0,0,0,2.6784h10.596a1.3392,1.3392,0,0,0,0-2.6784Z"/></g><g class="cls-20"><path d="M469.2033,224.5571H419.0622a1.3392,1.3392,0,1,1,0-2.6784h50.1411a1.3392,1.3392,0,1,1,0,2.6784Z"/></g><g class="cls-20"><path d="M451.6183,232.0777H419.0622a1.3392,1.3392,0,1,1,0-2.6784h32.5561a1.3392,1.3392,0,1,1,0,2.6784Z"/></g><g class="cls-20"><path d="M483.7613,317.5319H419.0622a1.3392,1.3392,0,0,1,0-2.6784h64.6991a1.3392,1.3392,0,0,1,0,2.6784Z"/></g><rect class="cls-14" x="417.723" y="370.6179" width="7.9921" height="7.9921"/><g class="cls-20"><path d="M471.2038,375.9532H431.528a1.3392,1.3392,0,1,1,0-2.6784h39.6758a1.3392,1.3392,0,1,1,0,2.6784Z"/></g><rect class="cls-14" x="417.723" y="384.0184" width="7.9921" height="7.9921"/><g class="cls-20"><path d="M471.2038,389.3537H431.528a1.3392,1.3392,0,0,1,0-2.6784h39.6758a1.3392,1.3392,0,0,1,0,2.6784Z"/></g><rect class="cls-14" x="417.723" y="397.4189" width="7.9921" height="7.9921"/><g class="cls-20"><path d="M471.2038,402.7542H431.528a1.3392,1.3392,0,0,1,0-2.6784h39.6758a1.3392,1.3392,0,0,1,0,2.6784Z"/></g><rect class="cls-14" x="417.723" y="410.8194" width="7.9921" height="7.9921"/><g class="cls-20"><path d="M471.2038,416.1547H431.528a1.3392,1.3392,0,0,1,0-2.6784h39.6758a1.3392,1.3392,0,0,1,0,2.6784Z"/></g><g class="cls-20"><path d="M544.448,329.5024H428.2947a1.3392,1.3392,0,0,1,0-2.6784H544.448a1.3392,1.3392,0,1,1,0,2.6784Z"/><path d="M544.5958,336.2128H419.0622a1.3392,1.3392,0,1,1,0-2.6784H544.5958a1.3392,1.3392,0,1,1,0,2.6784Z"/><path d="M544.7435,342.9245H419.21a1.3392,1.3392,0,1,1,0-2.6784H544.7435a1.3392,1.3392,0,0,1,0,2.6784Z"/><path d="M526.1307,349.635H419.3571a1.3392,1.3392,0,0,1,0-2.6784H526.1307a1.3392,1.3392,0,0,1,0,2.6784Z"/></g><rect class="cls-22" x="417.723" y="384.0184" width="7.9921" height="7.9921"/><rect class="cls-23" x="417.723" y="397.4189" width="7.9921" height="7.9921"/><rect class="cls-9" x="417.723" y="410.8194" width="7.9921" height="7.9921"/><path class="cls-14" d="M554.8091,483.5556s-6.3615-13.88.9069-27.5625,9.3753-16.9057,4.7419-19.7089-6.759,10.9457-6.759,10.9457-3.9056-9.4587-.6807-19.3576,5.2472-26.0217.843-27.7514-.8408,20.1134-4.6621,27.5587a64.1178,64.1178,0,0,1-3.7379-16.2393c-.528-7.9508.2968-20.6467-3.181-23.9033s-5.7058-1.0034-2.288,16.5426a183.5526,183.5526,0,0,1,3.3926,31.809s-7.5487-23.0163-12.6151-23.6877-5.06,6.7825-.7232,13.2477,12.7,18.0468,14.0716,24.0064c0,0-8.2859-17.3208-15.74-12.0122s6.4876,15.7708,12.7011,19.5511,10.5286,27.4776,10.5286,27.4776Z"/><path class="cls-6" d="M554.8091,483.5556s-6.3615-13.88.9069-27.5625,9.3753-16.9057,4.7419-19.7089-6.759,10.9457-6.759,10.9457-3.9056-9.4587-.6807-19.3576,5.2472-26.0217.843-27.7514-.8408,20.1134-4.6621,27.5587a64.1178,64.1178,0,0,1-3.7379-16.2393c-.528-7.9508.2968-20.6467-3.181-23.9033s-5.7058-1.0034-2.288,16.5426a183.5526,183.5526,0,0,1,3.3926,31.809s-7.5487-23.0163-12.6151-23.6877-5.06,6.7825-.7232,13.2477,12.7,18.0468,14.0716,24.0064c0,0-8.2859-17.3208-15.74-12.0122s6.4876,15.7708,12.7011,19.5511,10.5286,27.4776,10.5286,27.4776Z"/><path class="cls-6" d="M549.7874,489.2477s6.1943-13.9732-1.2375-27.5465-9.5772-16.7644-4.9778-19.6365,6.89,10.8441,6.89,10.8441,3.7918-9.5161.4484-19.3661-5.5587-25.9413-1.1759-27.7363,1.0821,20.0989,4.9923,27.4866A64.24,64.24,0,0,0,558.2694,417c.4327-7.958-.5444-20.64,2.894-23.9485s5.6934-1.0885,2.4862,16.5069a183.6872,183.6872,0,0,0-3.0106,31.8569s7.2717-23.127,12.33-23.8738,5.1409,6.7064.882,13.2355-12.4824,18.2347-13.7825,24.2142c0,0,8.0774-17.4427,15.5941-12.2458s-6.2978,15.8661-12.4654,19.7388-10.1981,27.632-10.1981,27.632Z"/><polygon class="cls-8" points="578.358 479.287 527.185 479.287 531.327 515.906 574.216 515.906 578.358 479.287"/><path class="cls-14" d="M269.349,165.2445h38.4729a11.8469,11.8469,0,0,1,11.8469,11.8466v33.4831a11.8467,11.8467,0,0,1-11.8465,11.8464H296.59l4.056,14.5922-12.0245-14.5922H269.3486a11.8463,11.8463,0,0,1-11.8462-11.8464V177.0911A11.8465,11.8465,0,0,1,269.349,165.2445Z"/><path class="cls-9" d="M269.349,165.2445h38.4729a11.8469,11.8469,0,0,1,11.8469,11.8466v33.4831a11.8467,11.8467,0,0,1-11.8465,11.8464H296.59l4.056,14.5922-12.0245-14.5922H269.3486a11.8463,11.8463,0,0,1-11.8462-11.8464V177.0911A11.8465,11.8465,0,0,1,269.349,165.2445Z"/><circle class="cls-9" cx="282.7759" cy="189.1354" r="11.988"/><circle class="cls-24" cx="282.7759" cy="189.1354" r="11.988"/><line class="cls-24" x1="291.2527" y1="197.6122" x2="304.9212" y2="211.2806"/><line class="cls-25" x1="295.9433" y1="202.3027" x2="306.3832" y2="212.7427"/><path class="cls-13" d="M284.6334,183.7186a2.649,2.649,0,1,1-2.649-2.649A2.649,2.649,0,0,1,284.6334,183.7186Z"/><path class="cls-13" d="M288.607,185.6713a1.3246,1.3246,0,1,1-1.3245-1.3245A1.3244,1.3244,0,0,1,288.607,185.6713Z"/><rect class="cls-14" x="196.4753" y="411.5179" width="199.4586" height="32.1013"/><rect class="cls-26" x="196.4753" y="411.5179" width="199.4586" height="32.1013"/><polygon class="cls-11" points="395.934 420.001 395.934 417.386 259.368 418.483 395.934 420.001"/><polygon class="cls-11" points="395.934 431.256 395.934 429.238 334.627 431.431 395.934 431.256"/><polygon class="cls-11" points="395.934 438.775 395.934 436.172 297.087 437.678 395.934 438.775"/><path class="cls-11" d="M241.0669,411.5178l-2.8918,23.9314,3.4111-3.6425a29.36,29.36,0,0,0,6.2771,11.8126,35.0465,35.0465,0,0,0,5.0347-9.2086l93.1488-1.07-92.2737-2.0155a18.9891,18.9891,0,0,0,.4524-3.9656,18.065,18.065,0,0,0-.3286-3.3381l136.6869-.3449L253.58,422.6031a26.0832,26.0832,0,0,0-2.0126-5.2042,10.6678,10.6678,0,0,1,7.14-2.7415H395.934v-3.14Z"/><path class="cls-14" d="M244.1465,427.3782a14.5258,14.5258,0,0,0,14.5292,14.51H398.2381a1.07,1.07,0,0,1,1.07,1.07v1.1489a1.07,1.07,0,0,1-1.07,1.0705H192.0823a17.8206,17.8206,0,0,1-17.8185-17.9525c.0722-9.8642,8.4111-17.6856,18.2757-17.6856H398.2381a1.0705,1.0705,0,0,1,1.07,1.07V411.76a1.07,1.07,0,0,1-1.07,1.07H259.1034C251.1,412.83,244.1365,419.3741,244.1465,427.3782Z"/><path class="cls-17" d="M244.1465,427.3782a14.5258,14.5258,0,0,0,14.5292,14.51H398.2381a1.07,1.07,0,0,1,1.07,1.07v1.1489a1.07,1.07,0,0,1-1.07,1.0705H192.0823a17.8206,17.8206,0,0,1-17.8185-17.9525c.0722-9.8642,8.4111-17.6856,18.2757-17.6856H398.2381a1.0705,1.0705,0,0,1,1.07,1.07V411.76a1.07,1.07,0,0,1-1.07,1.07H259.1034C251.1,412.83,244.1365,419.3741,244.1465,427.3782Z"/><path class="cls-14" d="M244.1465,427.3782a14.5258,14.5258,0,0,0,14.5292,14.51H398.2381a1.07,1.07,0,0,1,1.07,1.07v1.1489a1.07,1.07,0,0,1-1.07,1.0705H257.8754a17.821,17.821,0,0,1-17.8186-17.9525c.0724-9.8642,8.4113-17.6856,18.2758-17.6856H398.2381a1.0705,1.0705,0,0,1,1.07,1.07V411.76a1.07,1.07,0,0,1-1.07,1.07H259.1034C251.1,412.83,244.1365,419.3741,244.1465,427.3782Z"/><polygon class="cls-8" points="270.43 418.732 270.43 431.601 275.089 426.942 279.603 431.456 279.603 418.732 270.43 418.732"/><path class="cls-10" d="M244.1465,427.3782a14.5258,14.5258,0,0,0,14.5292,14.51H398.2381a1.07,1.07,0,0,1,1.07,1.07v1.1489a1.07,1.07,0,0,1-1.07,1.0705H257.8754a17.821,17.821,0,0,1-17.8186-17.9525c.0724-9.8642,8.4113-17.6856,18.2758-17.6856H398.2381a1.0705,1.0705,0,0,1,1.07,1.07V411.76a1.07,1.07,0,0,1-1.07,1.07H259.1034C251.1,412.83,244.1365,419.3741,244.1465,427.3782Z"/><rect class="cls-14" x="206.1062" y="482.2454" width="199.4586" height="32.1013"/><rect class="cls-9" x="206.1062" y="482.2454" width="199.4586" height="32.1013"/><polygon class="cls-11" points="405.565 490.729 405.565 488.114 268.999 489.21 405.565 490.729"/><polygon class="cls-11" points="405.565 501.983 405.565 499.966 344.258 502.159 405.565 501.983"/><polygon class="cls-11" points="405.565 509.503 405.565 506.9 306.718 508.406 405.565 509.503"/><path class="cls-11" d="M250.6978,482.2454l-2.8919,23.9314,3.4112-3.6425a29.3589,29.3589,0,0,0,6.2771,11.8123,35.0472,35.0472,0,0,0,5.0347-9.2082l93.1487-1.07-92.2736-2.0157a19.0031,19.0031,0,0,0,.4524-3.9655,18.047,18.047,0,0,0-.3288-3.3381l136.6869-.345-137.0033-1.0731a26.0762,26.0762,0,0,0-2.0127-5.2041,10.6678,10.6678,0,0,1,7.14-2.7415H405.5649v-3.14Z"/><path class="cls-8" d="M253.7773,498.1057a14.5258,14.5258,0,0,0,14.5293,14.5105H407.869a1.07,1.07,0,0,1,1.07,1.07v1.1487a1.07,1.07,0,0,1-1.07,1.07H190.7475a17.821,17.821,0,0,1-17.8185-17.9525c.0723-9.8641,8.4114-17.6854,18.2759-17.6854H407.869a1.07,1.07,0,0,1,1.07,1.07v1.1488a1.07,1.07,0,0,1-1.07,1.07H268.7343C260.73,483.5576,253.7672,490.1016,253.7773,498.1057Z"/><path class="cls-21" d="M253.7773,498.1057a14.5258,14.5258,0,0,0,14.5293,14.5105H407.869a1.07,1.07,0,0,1,1.07,1.07v1.1487a1.07,1.07,0,0,1-1.07,1.07H190.7475a17.821,17.821,0,0,1-17.8185-17.9525c.0723-9.8641,8.4114-17.6854,18.2759-17.6854H407.869a1.07,1.07,0,0,1,1.07,1.07v1.1488a1.07,1.07,0,0,1-1.07,1.07H268.7343C260.73,483.5576,253.7672,490.1016,253.7773,498.1057Z"/><path class="cls-8" d="M253.7773,498.1057a14.5258,14.5258,0,0,0,14.5293,14.5105H407.869a1.07,1.07,0,0,1,1.07,1.07v1.1487a1.07,1.07,0,0,1-1.07,1.07H267.5062a17.821,17.821,0,0,1-17.8185-17.9525c.0722-9.8641,8.4113-17.6854,18.2758-17.6854H407.869a1.07,1.07,0,0,1,1.07,1.07v1.1488a1.07,1.07,0,0,1-1.07,1.07H268.7343C260.73,483.5576,253.7672,490.1016,253.7773,498.1057Z"/><polygon class="cls-17" points="268.999 494.03 268.999 506.9 273.658 502.241 278.172 506.755 278.172 494.03 268.999 494.03"/><path class="cls-27" d="M253.7773,498.1057a14.5258,14.5258,0,0,0,14.5293,14.5105H407.869a1.07,1.07,0,0,1,1.07,1.07v1.1487a1.07,1.07,0,0,1-1.07,1.07H267.5062a17.821,17.821,0,0,1-17.8185-17.9525c.0722-9.8641,8.4113-17.6854,18.2758-17.6854H407.869a1.07,1.07,0,0,1,1.07,1.07v1.1488a1.07,1.07,0,0,1-1.07,1.07H268.7343C260.73,483.5576,253.7672,490.1016,253.7773,498.1057Z"/><rect class="cls-14" x="188.1563" y="446.8802" width="73.9028" height="32.054" transform="translate(450.2154 925.8145) rotate(180)"/><rect class="cls-26" x="188.1563" y="446.8802" width="73.9028" height="32.054" transform="translate(450.2154 925.8145) rotate(180)"/><polygon class="cls-11" points="256.13 450.016 188.156 450.016 188.156 446.88 256.058 446.88 256.13 450.016"/><polygon class="cls-11" points="256.132 452.75 194.808 454.057 256.132 455.365 256.132 452.75"/><polygon class="cls-11" points="256.132 464.602 191.193 465.698 256.132 466.62 256.132 464.602"/><polygon class="cls-11" points="256.132 471.536 191.771 472.838 256.132 474.139 256.132 471.536"/><polygon class="cls-11" points="188.156 457.317 250.419 459.196 188.156 460.498 188.156 457.317"/><path class="cls-8" d="M353.0924,462.7419a14.5261,14.5261,0,0,1-14.5293,14.5106H184.7456a1.07,1.07,0,0,0-1.07,1.07v1.149a1.07,1.07,0,0,0,1.07,1.07H339.3637A17.821,17.821,0,0,0,357.1821,462.59c-.0722-9.8643-8.4113-17.6857-18.2759-17.6857H184.7456a1.07,1.07,0,0,0-1.07,1.07v1.1488a1.07,1.07,0,0,0,1.07,1.07h153.39C346.1394,448.1938,353.1025,454.7379,353.0924,462.7419Z"/><path class="cls-27" d="M353.0924,462.7419a14.5261,14.5261,0,0,1-14.5293,14.5106H184.7456a1.07,1.07,0,0,0-1.07,1.07v1.149a1.07,1.07,0,0,0,1.07,1.07H339.3637A17.821,17.821,0,0,0,357.1821,462.59c-.0722-9.8643-8.4113-17.6857-18.2759-17.6857H184.7456a1.07,1.07,0,0,0-1.07,1.07v1.1488a1.07,1.07,0,0,0,1.07,1.07h153.39C346.1394,448.1938,353.1025,454.7379,353.0924,462.7419Z"/><path class="cls-14" d="M409.19,462.9322h0a16.0506,16.0506,0,0,1-16.0506,16.0507H256.1327V446.8817H393.1391A16.05,16.05,0,0,1,409.19,462.9322Z"/><path class="cls-9" d="M256.13,446.88v32.107h137.014a16.0535,16.0535,0,0,0,0-32.107Z"/><polygon class="cls-11" points="256.132 455.365 256.132 452.75 392.698 453.847 256.132 455.365"/><polygon class="cls-11" points="256.132 466.62 256.132 464.602 317.439 466.795 256.132 466.62"/><polygon class="cls-11" points="256.132 474.139 256.132 471.536 354.98 473.042 256.132 474.139"/><path class="cls-11" d="M393.3637,450.0164a10.7287,10.7287,0,0,1,7.1385,2.7413,26.6869,26.6869,0,0,0-2.0175,5.2086l-137.0034,1.0746,136.6854.34a18.6739,18.6739,0,0,0-.329,3.3445,18.256,18.256,0,0,0,.46,3.9587l-92.2748,2.0175,93.1411,1.0747a33.2505,33.2505,0,0,0,3.0924,6.3709,16.0564,16.0564,0,0,0-9.1125-29.2669H256.13v3.1362Z"/><path class="cls-8" d="M407.92,462.7419a14.5261,14.5261,0,0,1-14.5293,14.5106H253.8283a1.07,1.07,0,0,0-1.07,1.07v1.149a1.07,1.07,0,0,0,1.07,1.07H394.1912A17.821,17.821,0,0,0,412.01,462.59c-.0721-9.8643-8.4113-17.6857-18.2758-17.6857H253.8283a1.07,1.07,0,0,0-1.07,1.07v1.1488a1.07,1.07,0,0,0,1.07,1.07H392.963C400.967,448.1938,407.93,454.7379,407.92,462.7419Z"/><polygon class="cls-14" points="392.698 458.667 392.698 471.536 388.04 466.877 383.525 471.391 383.525 458.667 392.698 458.667"/><path class="cls-28" d="M428.8927,277.7718l-3.3508.063a3.8993,3.8993,0,0,0-3.1433,1.6949l-3.3286,4.8589a7.2711,7.2711,0,0,0-.8252,6.6193l.5033,1.3681c5.5645.2755,11.781-3.5267,11.781-3.5267l1.8921-.8872a3.2435,3.2435,0,0,0,1.67-4.3018l-1.71-3.7721A3.7374,3.7374,0,0,0,428.8927,277.7718Z"/><path class="cls-29" d="M365.3726,283.7336l1.5576,1.26,1.6557,1.32c1.1136.8779,2.2525,1.7347,3.4009,2.575,2.29,1.6934,4.6289,3.3064,6.9832,4.8648,2.3645,1.5466,4.7732,2.9618,7.1955,4.3a73.2989,73.2989,0,0,0,7.367,3.4236l-1.274-.2675a3.0161,3.0161,0,0,0,1.6065-.1678,18.5887,18.5887,0,0,0,3.09-1.1669,59.4334,59.4334,0,0,0,6.761-3.8237c2.2778-1.4457,4.539-3.0215,6.7946-4.6378,2.2493-1.6049,4.5193-3.3176,6.7137-4.9488l.0813-.0605a3.3968,3.3968,0,0,1,4.7331,4.7785c-1.8266,2.4088-3.7246,4.5886-5.738,6.7672-2.012,2.1613-4.1272,4.2436-6.3848,6.2509a57.1839,57.1839,0,0,1-7.4548,5.653,30.5957,30.5957,0,0,1-4.669,2.4011,17.3462,17.3462,0,0,1-2.9519.9035,13.6093,13.6093,0,0,1-3.8181.2756,4.571,4.571,0,0,1-.94-.1677l-.3345-.1a69.1458,69.1458,0,0,1-9.3152-3.4608,88.74,88.74,0,0,1-8.5691-4.4982c-2.7524-1.6293-5.405-3.3881-7.9763-5.2468-1.2786-.94-2.543-1.8969-3.791-2.8857-.6233-.493-1.25-.989-1.8633-1.5083-.6265-.5332-1.1933-1.0242-1.8926-1.6528a6.8024,6.8024,0,0,1,8.8116-10.3589Z"/><path class="cls-30" d="M347.3873,274.2077c-3.132,8.7266,1.916,17.4155,14.056,27.6263,6.05-.8916,14.1968-13.2844,14.1968-13.2844S358.5633,271.4652,347.3873,274.2077Z"/><path class="cls-8" d="M357.8312,219.9655s-11.9617-12.2406-27.5421,3.1217-18.6242,66.25-18.6242,66.25l40.68,7.905s5.2629-6.0453,7.9669-23.4663,4.1375-34.0786,7.57-37.9673S357.8312,219.9655,357.8312,219.9655Z"/><polygon class="cls-28" points="392.774 477.688 383.962 474.176 387.403 461.328 390.579 449.547 401.719 452.012 396.989 465.608 392.774 477.688"/><polygon class="cls-11" points="396.88 465.88 387.307 461.57 390.532 449.668 401.696 452.073 396.88 465.88"/><path class="cls-8" d="M326.0924,361.9605s73.635-9.9288,94.1205,3.14-19.1663,92.6739-19.1663,92.6739l-12.4-2.7406s9.2921-63.0983,8.5972-65.7432-35.3754,14.5775-82.8468,16.209Z"/><path class="cls-11" d="M326.0924,361.9605s73.635-9.9288,94.1205,3.14-19.1663,92.6739-19.1663,92.6739l-12.4-2.7406s9.2921-63.0983,8.5972-65.7432-35.3754,14.5775-82.8468,16.209Z"/><polygon class="cls-8" points="387.961 451.071 403.568 456.131 400.77 463.247 386.433 458.371 387.961 451.071"/><path class="cls-31" d="M395.8716,476.1075s3.0641-3.9913,4.9841-2.18c2.2092,2.0851-4.9841,2.18-4.9841,2.18s6.018.21,5.8829,2.2682C401.55,481.4928,395.8716,476.1075,395.8716,476.1075Z"/><path class="cls-32" d="M382.3119,468.6927c.3471-.988,12.3137,3.7649,12.3137,3.7649s5.0309,10.0916,11.7752,14.1838,1.2383,7.148-6.9241,4.4945-14.39-4.68-20.19-6.5648S378.7177,478.9233,382.3119,468.6927Z"/><polygon class="cls-33" points="387.961 451.071 403.568 456.131 400.77 463.247 386.433 458.371 387.961 451.071"/><polygon class="cls-28" points="431.204 503.174 422.073 505.745 416.992 493.453 412.349 482.169 422.692 477.352 427.204 491.021 431.204 503.174"/><path class="cls-32" d="M418.0207,499.2874c.0507-1.0458,12.8762.0941,12.8762.0941s7.7014,8.236,15.3333,10.2334,3.2265,6.4975-5.3536,6.2836-15.1274-.3782-21.2243-.5295C413.5561,515.2158,417.4958,510.1182,418.0207,499.2874Z"/><path class="cls-31" d="M432.4429,500.7767s1.7978-4.7,4.1549-3.5117c2.712,1.368-4.1549,3.5117-4.1549,3.5117s5.8274-1.5162,6.2857.495C439.4219,504.3174,432.4429,500.7767,432.4429,500.7767Z"/><polygon class="cls-11" points="427.283 491.303 417.063 493.703 412.385 482.294 422.71 477.414 427.283 491.303"/><path class="cls-8" d="M346.9835,371.4837s-1.06-14.57-1.55-17.5437a68.7424,68.7424,0,0,0-1.8018-8.7248c-3.24-9.7189-46.536,1.7068-46.536,1.7068l-1.2291,6.6583s-19.5365,36.8367-6.4816,50.1064c3.9678,4.0351,11.748,5.85,19.6941,5.7855,0,0,24.2794,1.1749,69.4275-.9289,0,0-3.34,26.2985,33.8787,77.8333l12.45-3.9856s-24.6153-93.5489-26.6794-95.2161C380.1492,372.631,346.9835,371.4837,346.9835,371.4837Z"/><polygon class="cls-8" points="410.134 485.786 425.601 480.312 427.707 487.662 413.36 492.51 410.134 485.786"/><path class="cls-30" d="M361.54,281.1825s-1.5538,3.8034-3.7231,10.4458c-.5225,1.5535-1.058,3.2677-1.6207,5.1158-.7363,2.424-1.5265,5.089-2.3167,7.9817-.5759,2.0891-1.1516,4.272-1.714,6.5755-.5761,2.33-1.1652,4.7943-1.7411,7.3254-.0535.2946-.134.6027-.1873.8973a251.9227,251.9227,0,0,0-5.3035,31.4579L297.3654,346.83a298.4149,298.4149,0,0,1,1.6207-31.2571,151.0792,151.0792,0,0,1,4.9147-26.49c1.8883-6.2674,4.3257-11.6511,7.4593-15.1732C311.36,273.9106,337.1534,265.4468,361.54,281.1825Z"/><path class="cls-14" d="M337.2772,267.0783c-14.31-4.5711-19.8674,6.64-19.8674,6.64l7.6107-.7485,15.4757,19.42,9.0653-11.7382,5.7052,3.06S349.709,271.05,337.2772,267.0783Z"/><path class="cls-34" d="M337.2772,267.0783c-14.31-4.5711-19.8674,6.64-19.8674,6.64l7.6107-.7485,15.4757,19.42,9.0653-11.7382,5.7052,3.06S349.709,271.05,337.2772,267.0783Z"/><path class="cls-28" d="M340.1107,291.3938l-13.1213-19.646c6.195-2.811,10.2934-14.6423,11.1789-21.3155l9.2765,14.0108c-3.0264,4.5-5.0477,9.643,1.8889,13.5213C349.3337,277.9644,340.11,291.3508,340.1107,291.3938Z"/><path class="cls-35" d="M341.9489,256.1478l5.4923,8.2881a20.9092,20.9092,0,0,0-1.865,3.278c-2.7386-1.2293-5.655-5.3253-4.975-8.2182A9.5633,9.5633,0,0,1,341.9489,256.1478Z"/><polygon points="296.585 348.398 311.46 349.377 310.924 353.575 295.125 352.438 296.585 348.398"/><polygon points="346.08 356.092 312.718 353.696 313.253 349.498 345.536 351.619 346.08 356.092"/><path class="cls-36" d="M328.7033,351.1681l-.1107,2.738a1.1713,1.1713,0,0,0,1.092,1.216l4.0815.2737a1.1715,1.1715,0,0,0,1.2466-1.0823l.2049-2.7777a1.1712,1.1712,0,0,0-1.1025-1.2556l-4.1758-.2341A1.1711,1.1711,0,0,0,328.7033,351.1681Z"/><polygon class="cls-37" points="410.134 485.786 425.601 480.312 427.707 487.662 413.36 492.51 410.134 485.786"/><path class="cls-38" d="M370.6845,246.4628s-1.4034-2.7795-4.053-3.0077"/><path class="cls-39" d="M366.2177,252.6331a23.2219,23.2219,0,0,0,1.1046,5.4564,3.0206,3.0206,0,0,1-3.1521-.021Z"/><path class="cls-8" d="M369.172,250.63c-.3426.8357-1.0711,1.328-1.6284,1.1s-.7313-1.09-.3891-1.926,1.0708-1.3283,1.628-1.1S369.5138,249.7943,369.172,250.63Z"/><path class="cls-8" d="M368.5339,248.6493l2.1089.0312S369.112,249.84,368.5339,248.6493Z"/><path class="cls-28" d="M338.3472,257.8375a1.5459,1.5459,0,0,0,.2054.39c.1321.265.28.515.4271.7806a14.6892,14.6892,0,0,0,3.4333,4.3208c4.5708,3.7949,8.5132,5.0026,12.0328,4.0284.1706-.042.3414-.0993.5123-.1565l.015.0157c5.2391-1.978,9.38-8.08,12.8637-16.2a32.5991,32.5991,0,0,0,2.9169-10.0591c.0008-.0308.0493-.1218.05-.1528.0031-.1231.0377-.2761.0408-.3992a12.07,12.07,0,0,0-4.6015-10.54,23.3728,23.3728,0,0,0-4.3935-2.8665C346.5719,219.1008,331.0014,243.1322,338.3472,257.8375Z"/><path class="cls-8" d="M370.816,240.8584s-4.58,11.1946-17.1141,10.6772c0,0-10.0177,8.9777-16.5478,5.8854-8.9029-4.216-10.3479-20.635-.88-31.8443C348.553,211.04,374.269,222.313,370.816,240.8584Z"/><path class="cls-28" d="M360.4274,251.048c.8427-1.6818.9141-5.1832-1.89-6.1161-2.9022-.9654-7.7566,4.9415-1.8654,9.7763C357.5175,255.402,358.669,254.5562,360.4274,251.048Z"/><path class="cls-8" d="M357.8312,219.9655s11.5813,2.5785,15.1783,9.57c4.2,8.1647,4.2008,14.4217-7.5533,18.211,0,0-14.4309-14.2823-20.7606-15.9873a69.3862,69.3862,0,0,0-11.2729-2.1C337.9558,217.6613,353.2681,214.7468,357.8312,219.9655Z"/><path class="cls-8" d="M353.7019,251.5356c-7.2858,14.549-23.3112,39.2856-40.3808,21.8333,0,0,6.1292-19.7284,18.5229-27.8808S353.7019,251.5356,353.7019,251.5356Z"/><path class="cls-8" d="M351.0528,275.8185c6.2361,4.595-1.7406,19.7637,6.1241,23.1409a7.3882,7.3882,0,0,1-.8314-7.1582c1.6445-4.1273,8.33-15.0208,5.671-29.7838Z"/><path class="cls-35" d="M318.7927,307.8193s-10.1777,6.8969-19.8066,7.754a151.0792,151.0792,0,0,1,4.9147-26.49,9.277,9.277,0,0,1,4.031-1.1785c7.1515.134,9.7626,6.8434,9.7626,6.8434A70.9142,70.9142,0,0,1,318.7927,307.8193Z"/><path class="cls-28" d="M355.9429,355.55,353.8,352.9731a3.8987,3.8987,0,0,0-3.2874-1.3948l-5.8735.4378a7.2708,7.2708,0,0,0-5.6833,3.4922l-.7536,1.2479c3.2623,4.5163,10.1153,6.9935,10.1153,6.9935l1.8752.9227a3.2435,3.2435,0,0,0,4.4016-1.3849l1.8766-3.6919A3.7377,3.7377,0,0,0,355.9429,355.55Z"/><path class="cls-29" d="M314.7114,293.989l-.01,2.0032.0039,2.1179c.01,1.4179.0532,2.8424.115,4.2642.1086,2.8456.3112,5.68.5659,8.4919.27,2.8123.6706,5.5773,1.14,8.3046a73.26,73.26,0,0,0,1.9312,7.8909l-.5874-1.1617a27.1508,27.1508,0,0,0,2.2493,3.0974c.9123,1.1282,1.9047,2.2722,2.9321,3.4084,2.0644,2.2689,4.2014,4.5687,6.3957,6.8285,4.36,4.55,8.865,9.0893,13.2432,13.7092l.0151.0159a3.3951,3.3951,0,0,1-4.2793,5.2046c-2.77-1.7522-5.4145-3.5924-8.0586-5.48q-3.9532-2.8354-7.7927-5.8589c-2.5469-2.0373-5.092-4.1018-7.5661-6.3443-1.24-1.1212-2.4729-2.2778-3.7076-3.5216a34.2691,34.2691,0,0,1-3.7473-4.3858,3.9638,3.9638,0,0,1-.4314-.7777l-.156-.3843a69.13,69.13,0,0,1-3.1191-9.4349,88.737,88.737,0,0,1-1.8435-9.5009c-.448-3.167-.7324-6.3368-.8885-9.5059-.0649-1.5857-.1081-3.1705-.1162-4.7628-.0044-.7947-.009-1.594.0132-2.3973.0247-.8223.0537-1.5717.1077-2.51a6.8023,6.8023,0,0,1,13.5935.4056Z"/><path class="cls-30" d="M310.909,273.9951c-8.77,3.0083-12.3989,12.379-12.7839,28.2376,4.4768,4.1659,19.2429,2.7817,19.2429,2.7817S320.034,281.0064,310.909,273.9951Z"/><path class="cls-8" d="M405.4247,367.8759v4.2291c0,1.0854-1.278,1.53-2.3494,1.53h-84.52c-1.0854,0-2.3917-.4442-2.3917-1.53v-4.2291Z"/><path class="cls-33" d="M405.4247,367.8759v4.2291c0,1.0854-1.278,1.53-2.3494,1.53h-84.52c-1.0854,0-2.3917-.4442-2.3917-1.53v-4.2291Z"/><path class="cls-11" d="M405.4247,367.8759v4.2291c0,1.0854-1.278,1.53-2.3494,1.53H347.3294c-1.084,0-2.3719-.4442-2.3719-1.53v-4.2291Z"/><path class="cls-8" d="M419.5658,323.9639l-10.0611,45.637a3.4212,3.4212,0,0,1-3.2674,2.5941H351.2759a2.2157,2.2157,0,0,1-2.0646-2.8682l10.049-45.2885a3.1373,3.1373,0,0,1,3.266-2.2326h54.9629C418.9653,321.8057,419.8933,322.4735,419.5658,323.9639Z"/><path class="cls-33" d="M419.5658,323.9639l-10.0611,45.637a3.4212,3.4212,0,0,1-3.2674,2.5941H353.1445a2.2236,2.2236,0,0,1-2.078-2.8682l10.0622-45.2885a3.1282,3.1282,0,0,1,3.2667-2.2326h53.0938C418.9653,321.8057,419.8933,322.4735,419.5658,323.9639Z"/><path class="cls-11" d="M392.4673,347.1592v.014c0,3.9072-4.19,7.0818-7.26,7.0818s-4.8913-3.1746-4.0161-7.0818c.8759-3.83,3.9319-6.9523,6.937-7.07-.8751,3.907,1,7.07,4.0581,7.07A1.4951,1.4951,0,0,0,392.4673,347.1592Z"/></svg>