<svg xmlns="http://www.w3.org/2000/svg" xmlns:xlink="http://www.w3.org/1999/xlink" viewBox="0 0 688 560"><defs><style>.cls-1{mask:url(#mask);filter:url(#luminosity-noclip-3);}.cls-2,.cls-4,.cls-7{mix-blend-mode:multiply;}.cls-2{fill:url(#radial-gradient);}.cls-3{mask:url(#mask-2);filter:url(#luminosity-noclip-4);}.cls-4{fill:url(#linear-gradient);}.cls-5{isolation:isolate;}.cls-6{mask:url(#mask-3);}.cls-7{opacity:0.4;fill:url(#radial-gradient-2);}.cls-8{fill:url(#linear-gradient-2);}.cls-9{fill:url(#linear-gradient-3);}.cls-10{fill:url(#linear-gradient-4);}.cls-11{fill:url(#linear-gradient-5);}.cls-12{fill:url(#linear-gradient-6);}.cls-13{fill:url(#linear-gradient-7);}.cls-14{fill:url(#linear-gradient-8);}.cls-15{fill:url(#linear-gradient-9);}.cls-16{mask:url(#mask-4);}.cls-17{fill:url(#linear-gradient-10);}.cls-18{fill:url(#linear-gradient-11);}.cls-19{fill:#fff;}.cls-20{fill:#002364;}.cls-21{fill:#043985;}.cls-22{fill:#e1e1e1;}.cls-23{fill:#dfe1e8;}.cls-24{fill:#eef0f7;}.cls-25{fill:#3c4145;}.cls-26{fill:#eea886;}.cls-27{fill:#e55353;}.cls-28{fill:#a77860;}.cls-29{fill:#bd4444;}.cls-30{fill:#323657;}.cls-31{fill:#cf8c6c;}.cls-32{fill:#eb4747;}.cls-33{fill:#db9c7c;}.cls-34{fill:#eddad3;}.cls-35{fill:#414042;}.cls-36{fill:#d9c7c1;}.cls-37{fill:#eea987;}.cls-38{fill:#c78d71;}.cls-39{fill:#5073ab;}.cls-40{fill:#f5f7ff;}.cls-41{fill:#78c2ff;}.cls-42{fill:#2273b5;}.cls-43{fill:#f3f3f3;}.cls-44{fill:#1d2033;}.cls-45{fill:#ccbdb7;}.cls-46{fill:#4667a8;}.cls-47{fill:#424773;}.cls-48{fill:#e2d2ca;}.cls-49{fill:#3a3f47;}.cls-50{fill:#bfb2ac;}.cls-51{fill:#5f8be3;}.cls-52{fill:#cecfd6;}.cls-53{fill:#5c5552;}.cls-54{fill:#2e436e;}.cls-55{fill:#949494;}.cls-56{filter:url(#luminosity-noclip-2);}.cls-57{filter:url(#luminosity-noclip);}</style><filter id="luminosity-noclip" x="59.2223" y="-8449" width="569.5554" height="32766" filterUnits="userSpaceOnUse" color-interpolation-filters="sRGB"><feFlood flood-color="#fff" result="bg"/><feBlend in="SourceGraphic" in2="bg"/></filter><mask id="mask" x="59.2223" y="-8449" width="569.5554" height="32766" maskUnits="userSpaceOnUse"><g class="cls-57"/></mask><radialGradient id="radial-gradient" cx="-730.1648" cy="-23688.0974" r="144.9096" gradientTransform="translate(1914.2194 2100.187) scale(2.1505 0.069)" gradientUnits="userSpaceOnUse"><stop offset="0" stop-color="#fff"/><stop offset="0.0851" stop-color="#f5f5f5"/><stop offset="0.229" stop-color="#dbdbdb"/><stop offset="0.4141" stop-color="#afafaf"/><stop offset="0.6333" stop-color="#747474"/><stop offset="0.8784" stop-color="#282828"/><stop offset="1"/></radialGradient><filter id="luminosity-noclip-2" x="295.6909" y="-8449" width="96.6181" height="32766" filterUnits="userSpaceOnUse" color-interpolation-filters="sRGB"><feFlood flood-color="#fff" result="bg"/><feBlend in="SourceGraphic" in2="bg"/></filter><mask id="mask-2" x="295.6909" y="-8449" width="96.6181" height="32766" maskUnits="userSpaceOnUse"><g class="cls-56"/></mask><linearGradient id="linear-gradient" x1="295.6909" y1="450.2175" x2="392.3091" y2="450.2175" gradientUnits="userSpaceOnUse"><stop offset="0.0004" stop-color="#ccc"/><stop offset="0.5247" stop-color="#b3b3b3"/><stop offset="0.7684" stop-color="#b5b5b5"/><stop offset="0.8931" stop-color="#bdbdbd"/><stop offset="0.9906" stop-color="#cacaca"/><stop offset="1" stop-color="#ccc"/></linearGradient><filter id="luminosity-noclip-3" x="59.2223" y="454.9166" width="569.5554" height="21.5834" filterUnits="userSpaceOnUse" color-interpolation-filters="sRGB"><feFlood flood-color="#fff" result="bg"/><feBlend in="SourceGraphic" in2="bg"/></filter><mask id="mask-3" x="59.2223" y="454.9166" width="569.5554" height="21.5834" maskUnits="userSpaceOnUse"><g class="cls-1"><path class="cls-2" d="M628.7777,465.4617c0,5.96-101.9605,11.0383-287.6441,11.0383S59.2223,471.6684,59.2223,465.7083s96.2278-10.7917,281.9113-10.7917S628.7777,459.5016,628.7777,465.4617Z"/></g></mask><radialGradient id="radial-gradient-2" cx="-730.1648" cy="-23688.0974" r="144.9096" gradientTransform="translate(1914.2194 2100.187) scale(2.1505 0.069)" gradientUnits="userSpaceOnUse"><stop offset="0"/><stop offset="1"/></radialGradient><linearGradient id="linear-gradient-2" x1="346.7471" y1="445.1471" x2="346.7471" y2="85.8462" gradientUnits="userSpaceOnUse"><stop offset="0" stop-color="#9a9a9a"/><stop offset="0.0936" stop-color="#a2a2a2"/><stop offset="0.2383" stop-color="#b8b8b8"/><stop offset="0.415" stop-color="#dbdbdb"/><stop offset="0.447" stop-color="#e2e2e2"/><stop offset="1" stop-color="#c5c5c5"/></linearGradient><linearGradient id="linear-gradient-3" x1="346.7302" y1="102.2526" x2="346.7302" y2="83.5" gradientUnits="userSpaceOnUse"><stop offset="0" stop-color="#3e3e3e"/><stop offset="0.2791" stop-color="#414141"/><stop offset="0.4461" stop-color="#494949"/><stop offset="0.5837" stop-color="#575757"/><stop offset="0.7052" stop-color="#6b6b6b"/><stop offset="0.8161" stop-color="#868686"/><stop offset="0.9178" stop-color="#a5a5a5"/><stop offset="1" stop-color="#c5c5c5"/></linearGradient><linearGradient id="linear-gradient-4" x1="7.2481" y1="451.6296" x2="344" y2="451.6296" gradientUnits="userSpaceOnUse"><stop offset="0" stop-color="#929292"/><stop offset="0.0139" stop-color="#c1c1c1"/><stop offset="0.0271" stop-color="#b2b2b2"/><stop offset="0.0487" stop-color="#9c9c9c"/><stop offset="0.0707" stop-color="#a4a4a4"/><stop offset="0.0909" stop-color="#b0b0b0"/><stop offset="1" stop-color="#cfcfcf"/></linearGradient><linearGradient id="linear-gradient-5" x1="7.2481" y1="446.2791" x2="680.7519" y2="446.2791" gradientUnits="userSpaceOnUse"><stop offset="0.0055" stop-color="#f7f7f7"/><stop offset="0.0639" stop-color="#d0d0d0"/><stop offset="0.5025" stop-color="#f7f7f7"/><stop offset="0.8664" stop-color="#d0d0d0"/><stop offset="0.8728" stop-color="#d2d2d2"/><stop offset="0.9501" stop-color="#e8e8e8"/><stop offset="1" stop-color="#f0f0f0"/></linearGradient><linearGradient id="linear-gradient-6" x1="344" y1="451.6296" x2="680.7519" y2="451.6296" gradientUnits="userSpaceOnUse"><stop offset="0" stop-color="#cfcfcf"/><stop offset="0.9091" stop-color="#b0b0b0"/><stop offset="0.9293" stop-color="#a4a4a4"/><stop offset="0.9513" stop-color="#9c9c9c"/><stop offset="0.9729" stop-color="#b2b2b2"/><stop offset="0.9861" stop-color="#c1c1c1"/><stop offset="1" stop-color="#929292"/></linearGradient><linearGradient id="linear-gradient-7" x1="7.2481" y1="451.3286" x2="344" y2="451.3286" gradientUnits="userSpaceOnUse"><stop offset="0" stop-color="#666"/><stop offset="0.0139" stop-color="#d5d5d5"/><stop offset="0.021" stop-color="#bebebe"/><stop offset="0.0397" stop-color="#878787"/><stop offset="0.0487" stop-color="#717171"/><stop offset="0.0573" stop-color="#797979"/><stop offset="0.0707" stop-color="#8f8f8f"/><stop offset="0.0871" stop-color="#b3b3b3"/><stop offset="0.0909" stop-color="#bcbcbc"/><stop offset="1" stop-color="#f0f0f0"/></linearGradient><linearGradient id="linear-gradient-8" x1="344" y1="451.3286" x2="680.7519" y2="451.3286" gradientUnits="userSpaceOnUse"><stop offset="0" stop-color="#f0f0f0"/><stop offset="0.9091" stop-color="#bcbcbc"/><stop offset="0.9129" stop-color="#b3b3b3"/><stop offset="0.9293" stop-color="#8f8f8f"/><stop offset="0.9427" stop-color="#797979"/><stop offset="0.9513" stop-color="#717171"/><stop offset="0.9603" stop-color="#878787"/><stop offset="0.979" stop-color="#bebebe"/><stop offset="0.9861" stop-color="#d5d5d5"/><stop offset="1" stop-color="#666"/></linearGradient><linearGradient id="linear-gradient-9" x1="296.0689" y1="449.9298" x2="391.9311" y2="449.9298" gradientUnits="userSpaceOnUse"><stop offset="0" stop-color="#9f9f9f"/><stop offset="0.0395" stop-color="#adadad"/><stop offset="0.514" stop-color="#e5e5e5"/><stop offset="0.9628" stop-color="#adadad"/><stop offset="1" stop-color="#9f9f9f"/></linearGradient><filter id="luminosity-noclip-4" x="295.6909" y="446.0273" width="96.6181" height="8.3804" filterUnits="userSpaceOnUse" color-interpolation-filters="sRGB"><feFlood flood-color="#fff" result="bg"/><feBlend in="SourceGraphic" in2="bg"/></filter><mask id="mask-4" x="295.6909" y="446.0273" width="96.6181" height="8.3804" maskUnits="userSpaceOnUse"><g class="cls-3"><path class="cls-4" d="M391.9344,446.0273a7.8093,7.8093,0,0,1-7.8051,7.8051H303.8707a7.8038,7.8038,0,0,1-7.7985-7.8051h-.3813v.582a7.8039,7.8039,0,0,0,7.8052,7.7984h81.0078a7.8,7.8,0,0,0,7.8052-7.7984v-.582Z"/></g></mask><linearGradient id="linear-gradient-10" x1="295.6909" y1="450.2175" x2="392.3091" y2="450.2175" gradientUnits="userSpaceOnUse"><stop offset="0.0004" stop-color="#f6f6f6"/><stop offset="0.5247" stop-color="#f7f7f7"/><stop offset="1" stop-color="#f6f6f6"/></linearGradient><linearGradient id="linear-gradient-11" x1="344" y1="465.7083" x2="344" y2="456.726" gradientUnits="userSpaceOnUse"><stop offset="0" stop-color="#565656"/><stop offset="0.7389" stop-color="#b9b9b9"/><stop offset="0.8472" stop-color="#b6b6b6"/><stop offset="0.9363" stop-color="#acacac"/><stop offset="1" stop-color="#9f9f9f"/></linearGradient></defs><g class="cls-5"><g id="Layer_1" data-name="Layer 1"><g class="cls-6"><path class="cls-7" d="M628.7777,465.4617c0,5.96-101.9605,11.0383-287.6441,11.0383S59.2223,471.6684,59.2223,465.7083s96.2278-10.7917,281.9113-10.7917S628.7777,459.5016,628.7777,465.4617Z"/></g><path class="cls-8" d="M603.0785,85.8462H90.4526a16.5233,16.5233,0,0,0-16.6348,16.407V445.1471h2.3781V99.9048a13.9635,13.9635,0,0,1,.1642-2.133c.0341-.232.0766-.4612.1249-.69.0482-.2265.0991-.4529.1586-.6766s.1219-.4472.1928-.6653a13.9676,13.9676,0,0,1,2.8316-5.01c.1474-.17.3-.3354.459-.4975.0765-.081.156-.1594.2382-.24a14.4714,14.4714,0,0,1,2.3922-1.901c.2891-.1817.5839-.3551.8871-.5172.3-.1622.6093-.3132.9239-.4529l.0029-.0028c.21-.0922.4223-.1789.6348-.2627l.0029-.0029a14.3792,14.3792,0,0,1,5.2095-.9728h512.626a14.32,14.32,0,0,1,6.774,1.6941c.3005.1621.5981.3355.8872.5172.3827.2433.7539.506,1.1139.78l.0028.0027c.1786.14.3543.2824.5244.4278l.0028.0027q.387.3314.7483.6878c.0822.081.1616.1594.238.24.1588.1621.3118.3271.4592.4975a13.8529,13.8529,0,0,1,3.4721,9.175V445.1471h2.4092V101.2216A16.537,16.537,0,0,0,603.0785,85.8462Z"/><path class="cls-9" d="M73.7839,99.9071A16.5233,16.5233,0,0,1,90.4186,83.5h512.626a16.5208,16.5208,0,0,1,16.6318,16.4071v1.314a16.5369,16.5369,0,0,0-16.5978-15.3756H90.4527a16.5233,16.5233,0,0,0-16.6348,16.4071Z"/><rect x="76.1959" y="435.5467" width="541.0712" height="9.6004"/><path d="M617.2667,99.9835V435.5467H76.1953V99.9835A14.18,14.18,0,0,1,90.418,85.878H603.044A14.18,14.18,0,0,1,617.2667,99.9835Z"/><polygon points="619.676 445.147 619.676 446.025 617.267 446.025 617.267 446.022 76.196 446.022 76.196 446.025 73.818 446.025 73.818 445.147 619.676 445.147"/><rect class="cls-10" x="7.2481" y="446.5332" width="336.7519" height="10.1928"/><rect class="cls-11" x="7.2481" y="446.0249" width="673.5038" height="0.5083"/><rect class="cls-12" x="344" y="446.5332" width="336.7519" height="10.1928"/><rect class="cls-13" x="7.2481" y="446.5332" width="336.7519" height="9.5909"/><rect class="cls-14" x="344" y="446.5332" width="336.7519" height="9.5909"/><path class="cls-15" d="M391.9311,446.0273a7.81,7.81,0,0,1-7.8051,7.8051H303.8674a7.8038,7.8038,0,0,1-7.7985-7.8051Z"/><g class="cls-16"><path class="cls-17" d="M391.9344,446.0273a7.8093,7.8093,0,0,1-7.8051,7.8051H303.8707a7.8038,7.8038,0,0,1-7.7985-7.8051h-.3813v.582a7.8039,7.8039,0,0,0,7.8052,7.7984h81.0078a7.8,7.8,0,0,0,7.8052-7.7984v-.582Z"/></g><path class="cls-18" d="M7.2481,456.726a300.53,300.53,0,0,0,73.1472,8.9823H607.6047a300.53,300.53,0,0,0,73.1472-8.9823H7.2481Z"/><rect class="cls-19" x="87.3882" y="106.3194" width="518.6829" height="320.9293"/><rect class="cls-20" x="593.9553" y="106.3194" width="12.1158" height="320.9293"/><rect class="cls-20" x="87.3882" y="106.3194" width="12.1158" height="320.9293"/><path class="cls-21" d="M527.096,142.6975a29.1594,29.1594,0,0,0-3.1178-7.5179l3.1737-4.7738-4.4038-4.4038-4.4037-4.4038-4.7738,3.1741a29.167,29.167,0,0,0-7.5175-3.1182l-1.13-5.6153H492.4668l-1.13,5.6153a29.1692,29.1692,0,0,0-7.5176,3.1182l-4.7737-3.1741-4.4038,4.4038-4.4038,4.4038,3.1737,4.7738a29.1664,29.1664,0,0,0-3.1178,7.5179l-5.6157,1.13v12.4557l5.6157,1.13a29.1693,29.1693,0,0,0,3.1178,7.5179l-3.1737,4.7738,4.4038,4.4038,4.4038,4.4038,4.7737-3.1742a29.1692,29.1692,0,0,0,7.5176,3.1182l1.13,5.6154h12.4558l1.13-5.6154a29.167,29.167,0,0,0,7.5175-3.1182l4.7738,3.1742,4.4037-4.4038,4.4038-4.4038-3.1737-4.7738a29.1623,29.1623,0,0,0,3.1178-7.5179l5.6158-1.13V143.8276Zm-28.4017,29.1812a21.8233,21.8233,0,1,1,21.8232-21.8233A21.8231,21.8231,0,0,1,498.6943,171.8787Z"/><path class="cls-21" d="M535.5928,195.6613a13.3569,13.3569,0,0,0-1.43-3.4463l1.4561-2.1887-2.0193-2.019-2.0185-2.0189-2.1888,1.4553a13.3574,13.3574,0,0,0-3.4467-1.43l-.518-2.5743h-5.71l-.5188,2.5743a13.3623,13.3623,0,0,0-3.4459,1.43l-2.1888-1.4553-2.0185,2.0189-2.0194,2.019,1.4554,2.1887a13.3852,13.3852,0,0,0-1.43,3.4463l-2.5735.518v5.71l2.5735.5184a13.3911,13.3911,0,0,0,1.43,3.4463l-1.4554,2.1887,2.0194,2.0185,2.0185,2.0194,2.1888-1.4553a13.362,13.362,0,0,0,3.4459,1.4294l.5188,2.5744h5.71l.518-2.5744a13.3572,13.3572,0,0,0,3.4467-1.4294l2.1888,1.4553,2.0185-2.0194,2.0193-2.0185-1.4561-2.1887a13.3628,13.3628,0,0,0,1.43-3.4463l2.5744-.5184v-5.71Zm-13.02,13.3779a10.0048,10.0048,0,1,1,10.0048-10.0048A10.0049,10.0049,0,0,1,522.573,209.0392Z"/><rect class="cls-21" x="354.6253" y="301.0199" width="30.6378" height="93.0575" transform="translate(739.8884 695.0973) rotate(180)"/><path class="cls-21" d="M253.6471,159.2149H486.241a15.9814,15.9814,0,0,1,15.9814,15.9814V329.8649a15.9814,15.9814,0,0,1-15.9814,15.9814H253.6471a15.9815,15.9815,0,0,1-15.9815-15.9815V175.1964A15.9815,15.9815,0,0,1,253.6471,159.2149Z" transform="translate(739.8879 505.0613) rotate(180)"/><rect class="cls-19" x="248.0268" y="139.3511" width="243.8349" height="177.2482" transform="translate(739.8884 455.9504) rotate(180)"/><rect class="cls-22" x="248.0268" y="139.3511" width="243.8349" height="21.4084" transform="translate(739.8884 300.1106) rotate(180)"/><path class="cls-20" d="M361.4106,329.9825a8.5334,8.5334,0,1,0,8.5338-8.5338A8.5335,8.5335,0,0,0,361.4106,329.9825Z"/><path class="cls-23" d="M330.3838,175.9861h72.7144a3.0178,3.0178,0,0,1,3.0178,3.0178v.3085a3.0174,3.0174,0,0,1-3.0174,3.0174H330.3838a3.0174,3.0174,0,0,1-3.0174-3.0174v-.3089a3.0174,3.0174,0,0,1,3.0174-3.0174Z" transform="translate(733.4826 358.316) rotate(-180)"/><path class="cls-23" d="M330.3839,187.4276h72.7144a3.0179,3.0179,0,0,1,3.0179,3.0179v.3085a3.0175,3.0175,0,0,1-3.0175,3.0175H330.3839a3.0175,3.0175,0,0,1-3.0175-3.0175v-.3089A3.0175,3.0175,0,0,1,330.3839,187.4276Z" transform="translate(733.4826 381.199) rotate(-180)"/><path class="cls-23" d="M330.3837,198.8688h72.7148a3.0177,3.0177,0,0,1,3.0177,3.0177v.3085a3.0177,3.0177,0,0,1-3.0177,3.0177H330.3837a3.0172,3.0172,0,0,1-3.0172-3.0172v-.3093a3.0172,3.0172,0,0,1,3.0172-3.0172Z" transform="translate(733.4826 404.0813) rotate(-180)"/><path class="cls-23" d="M364.5391,304.128H273.1376a13.8377,13.8377,0,0,1-13.8218-13.8223V234.7075a13.838,13.838,0,0,1,13.8218-13.8223h91.4015a13.8376,13.8376,0,0,1,13.8215,13.8223v55.5982A13.8374,13.8374,0,0,1,364.5391,304.128Zm-91.4015-81.51a12.1032,12.1032,0,0,0-12.0894,12.09v55.5982a12.1033,12.1033,0,0,0,12.0894,12.09h91.4015a12.1033,12.1033,0,0,0,12.0891-12.09V234.7075a12.1032,12.1032,0,0,0-12.0891-12.09Z"/><rect class="cls-23" x="274.2628" y="228.4689" width="89.1507" height="13.3701" rx="6.36" transform="translate(637.6763 470.3078) rotate(180)"/><rect class="cls-21" x="301.0267" y="390.5649" width="137.835" height="7.025"/><path class="cls-24" d="M464.44,239.1528a19.8438,19.8438,0,0,1-13.5878,18.834c-.1185.04-.2385.079-.3585.116a19.8438,19.8438,0,1,1,13.9463-18.95Z"/><path class="cls-25" d="M439.86,237.0582s-1.355-8.7669,5.906-8.6049,7.1639,4.4967,7.034,8.799-2.9114,3.979.227,9.9639-2.7175,5.9849-2.7175,5.9849l-4.5435-6.2435Z"/><path class="cls-26" d="M444.9716,229.2944s-4.9177.7762-5.1118,7.7638,1.3271,8.4758,5.629,7.02,5.6617-8.7669,5.7587-9.8991S451.6035,228.4533,444.9716,229.2944Z"/><path class="cls-27" d="M453.6065,253.5987a4.7546,4.7546,0,0,1-2.7544,4.3881c-.1185.04-.2385.079-.3585.116a19.919,19.919,0,0,1-14.7128-1.1725c-.5986-1.1934.268-2.8872,2.0276-5.4874,1.2079-1.7867,2.3935-3.6108,4.42-4.4975,2.99-.4766,6.1567-.5049,8.3865.7555C452.3928,248.7057,453.5777,250.5294,453.6065,253.5987Z"/><path class="cls-27" d="M438.7712,251.3376l-2.26,3.5631c.0049-.0194.1553-.5587.411-2.121.0486-.2968.1012-.63.1571-1.0038a2.3721,2.3721,0,0,1,.0707-.3286v0c.9678-2.2311,3.9853-3.89,4.0946-3.9458Z"/><path class="cls-26" d="M454.6145,256.2841a19.7929,19.7929,0,0,1-3.7624,1.7027c-.1185.04-.2385.079-.3585.116-.5016-1.2946-.9365-2.4148-1.0311-2.7047-.0271-.0839-.0921-.2417-.18-.4538a15.0448,15.0448,0,0,1-1.3311-4.9178c-.0074-1.1112.3592-2.0226,1.4774-2.2815a2.9088,2.9088,0,0,1,1.1865-.0441,3.4819,3.4819,0,0,1,2.3837,2.3422c.0074.0172.0131.0336.0188.05a7.676,7.676,0,0,1,.4457,1.5853s.02.0781.0559.2183c.07.2775.2039.8037.3783,1.4939C454.0965,254.1825,454.3472,255.1893,454.6145,256.2841Z"/><path class="cls-26" d="M448.2555,240.9308c-.4268.805-.8765,5.8015-.8765,5.8015s-6.0145,2.2731-5.3986.9871a4.9261,4.9261,0,0,0,.3666-1.9934,9.5983,9.5983,0,0,0-.0666-1.2136c-.0155-.1315-.0279-.2072-.0279-.2072S448.6813,240.1259,448.2555,240.9308Z"/><path class="cls-25" d="M442.9662,234.3087s2.5226,4.1082,4.82,5.7259,1.1322,2.9115,1.1322,2.9115,5.9931-12.6169.2952-13.49-9.1916-.9382-9.3536,7.6022C439.86,237.0582,442.4481,234.2437,442.9662,234.3087Z"/><path class="cls-28" d="M445.71,243.9977c-.9233,1.3616-3.362,1.7283-3.362,1.7283h-.0009a9.5983,9.5983,0,0,0-.0666-1.2136A6.8752,6.8752,0,0,0,445.71,243.9977Z"/><path class="cls-29" d="M437.1605,251.4206H437.16a5.0368,5.0368,0,0,0-.2377,1.3591l.8856-1.3368s1.5819-2.2686,2.1246-2.8585a8.3394,8.3394,0,0,1,1.327-1.1079S438.1061,248.9737,437.1605,251.4206Z"/><path class="cls-27" d="M449.1278,254.8033a33.9393,33.9393,0,0,1,5.0024-1.6022s-.7762-6.1987-4.5683-5.5417S449.1278,254.8033,449.1278,254.8033Z"/><path class="cls-26" d="M442.2287,246.9454s-2.8335,4.3576-1.8747,4.7379,6.1518-.5077,8.36-4.6467A7.779,7.779,0,0,0,442.2287,246.9454Z"/><rect class="cls-30" x="202.6032" y="342.8242" width="30.9184" height="2.8318" transform="translate(-2.6026 1.6625) rotate(-0.4342)"/><rect class="cls-30" x="221.2498" y="328.9258" width="30.9182" height="2.8316" transform="translate(-148.4164 460.0919) rotate(-72.9951)"/><rect class="cls-22" x="286.6746" y="349.2322" width="2.4124" height="74.3266"/><rect class="cls-22" x="196.1631" y="345.006" width="106.0345" height="4.2262" transform="translate(498.3606 694.2381) rotate(180)"/><rect class="cls-22" x="209.7296" y="349.2322" width="2.4124" height="74.3283" transform="translate(421.8715 772.7926) rotate(180)"/><rect class="cls-22" x="161.2633" y="374.7562" width="2.9003" height="36.6067"/><path class="cls-20" d="M199.1176,407.0455a15.6026,15.6026,0,0,0,.5535,3.5026c.3847,1.3813,1.1584,6.7323,2.1459,7.4805s4.1719,2.7314,3.7045,4.7688-.8638,3.4591-4.3023,2.252-5.7378-1.8968-6.398-4.9151a18.9365,18.9365,0,0,0-2.5423-5.7654l-2.4856,6.1823-1.311-.5279s1.9824-6.6772,1.8118-7.2725.9085-5.9011,5.0677-7.2149S199.1176,407.0455,199.1176,407.0455Z"/><path class="cls-20" d="M222.0875,408.9958a15.5951,15.5951,0,0,0,1.82,3.0421c.8727,1.1388,3.5861,5.8139,4.7816,6.1395s4.89.9784,5.2161,3.043.4888,3.5323-3.1516,3.6951-6.0309.38-7.7695-2.174a18.9232,18.9232,0,0,0-4.51-4.4v6.6625h-1.4126s-.652-6.9338-1.0323-7.423-1.3587-5.8139,2.01-8.5847S222.0875,408.9958,222.0875,408.9958Z"/><path class="cls-26" d="M185.0717,318.4551s.8092-2.87.8881-3.2446a6.03,6.03,0,0,1,1.7981-1.8927,6.9842,6.9842,0,0,1,2.7919-1.3361,1.0774,1.0774,0,0,1,.77.4621,2.0683,2.0683,0,0,1,.38.9768,1.2569,1.2569,0,0,1,.666,1.0146,1.0938,1.0938,0,0,1,.4879,1.1157s.5834.3537.4494.9061a8.3751,8.3751,0,0,0-.97,1.1035,17.4427,17.4427,0,0,1-3.7472,2.9328S186.2331,322.2306,185.0717,318.4551Z"/><path class="cls-31" d="M188.5929,316.1808a6.1584,6.1584,0,0,1,.275,1.5967c-.074.3881,2.7586.4449,2.7586.4449S190.0721,315.7968,188.5929,316.1808Z"/><path class="cls-20" d="M156.7078,323.3883c1.1437-1.8516,2.6689-2.6853,7.5142.666s3.7074,2.6944,4.8671,3.7567a53.9686,53.9686,0,0,0,6.2439,3.7189,45.4587,45.4587,0,0,0,4.3936-5.05c1.6053-2.363,4.9563-8.6776,4.9563-8.6776l4.6985,3.4977s-9.1282,16.5487-11.0345,17.7722-7.6507-.8231-10.6412-2.0827-6.1563-2.8909-7.5219-3.23S153.7253,328.218,156.7078,323.3883Z"/><rect class="cls-32" x="185.1149" y="308.9873" width="10.6183" height="0.898" transform="translate(-152.6311 429.1249) rotate(-77.6256)"/><path class="cls-33" d="M190.292,312.1757s-2.3684,2.0277-2.0892,2.4494a.7944.7944,0,0,0,.638.407l-.5965,1.2769s.0826,1.0681,1.2218.666c0,0-.0263,1.0065,1.0274.4868,0,0,.2787.6709.8094.5171a10.3819,10.3819,0,0,0,2.0005-1.5219s.18-.4275-.4494-.9061a1.076,1.076,0,0,0-.4879-1.1157,1.1828,1.1828,0,0,0-.666-1.0146s-.028-1.3574-1.15-1.4389C190.55,311.9817,190.3911,312.0894,190.292,312.1757Z"/><path class="cls-26" d="M185.9927,315.2418a10.6049,10.6049,0,0,1,2.7971-1.8384c.2738-.0913.5558-.13.7437.09s.1082.7712-.5476,1.4282a7.83,7.83,0,0,0-1.2021,1.8056S186.9123,317.2053,185.9927,315.2418Z"/><path class="cls-20" d="M179.294,333.44s.9542-3.4574-.17-6.1345a8.0182,8.0182,0,0,1-.786,4.7408C177.4593,333.4744,179.294,333.44,179.294,333.44Z"/><path class="cls-34" d="M196.6046,333.9751s2.5575-18.952,7.0171-27.2153h-6.5579s-7.3453,12.9425-5.9681,26.0141Z"/><path class="cls-26" d="M198.1746,319.787s.7482-1.3945.9283-1.85.9151.3347.8045.9193S198.1746,319.787,198.1746,319.787Z"/><path class="cls-26" d="M203.99,322.9559a3.2457,3.2457,0,0,1-.43.94s-.4579.4332-.7651.7621a3.0637,3.0637,0,0,0-.226.2631,5.9406,5.9406,0,0,1-1.1993,1.4627c-.6545.5271-3.1561,2.1542-3.1561,2.1542l-1.7649-1.8853-1.4125-1.4693s1.1942-4.4876,1.7481-5.0492a1.8049,1.8049,0,0,1,.166-.1513,7.4718,7.4718,0,0,1,1.374-.7285c.1088-.0715,1.2407-.7038,1.6016-.564a1.2659,1.2659,0,0,1,.8485.8921,3.0324,3.0324,0,0,1,1.2872,1.0549,1.8822,1.8822,0,0,1,1.08,1.2621S204.0164,322.3688,203.99,322.9559Z"/><path class="cls-26" d="M215.6,371.8966s-4.3335,9.75-7.4262,16.7073c-.5193,1.1717-1.0048,2.2628-1.4282,3.2149-.4959,1.1166-.9077,2.0407-1.191,2.68-1.9688,4.4293-6.8117,14.0878-6.8117,14.0878s-3.6436.139-3.8549-2.955c0,0,3.4961-6.7035,3.4961-11.414s.6322-18.5869,5.1322-21.5864C209.004,368.9736,212.5674,368.2805,215.6,371.8966Z"/><path class="cls-26" d="M175.5316,353.3654a5.0321,5.0321,0,0,0,1.6876,1.1249c.7733.2112,13.7108,1.1963,19.6876,3.1646s13.9217,3.2346,15.3979,4.9219,3.9377,10.9683,3.8674,12.7262,5.2523,31.3807,5.9154,33.6928c.3515,1.225-4.8137.7564-4.8137.7564s-7.3391-17.5041-8.9062-20.738c-2.88-5.9413-3.0237-13.2187-4.0782-14.3443s-12.797-3.6556-19.5469-3.6556-21.8669.5624-23.4842-.3519-11.742-7.594-7.5232-16.5232S175.5316,353.3654,175.5316,353.3654Z"/><path class="cls-20" d="M204.7293,359.76,194.02,380.3662s-3.2255-7.6466-8.8532-8.9629-28.0873-.61-28.0873-.61-10.306-13.037-1.48-19.8762,19.1322,1.0763,19.1322,1.0763,2.13,2.308,3.1593,2.3589C185.3793,354.7254,193.3646,356.12,204.7293,359.76Z"/><path class="cls-26" d="M228.6891,418.1774s-3.26.8157-4.51,0c-1.2493-.814-5.4981-7.9953-6.9054-8.4252,0,0,1.3637-2.7668,4.8137-.7564C222.0875,408.9958,227.7653,416.9827,228.6891,418.1774Z"/><path class="cls-26" d="M201.817,418.0286s-3.3287-.46-4.1842-1.6831-2.1184-9.4694-3.2638-10.3936c0,0,2.2972-2.0589,4.7486,1.0936C199.1176,407.0455,201.4059,416.5741,201.817,418.0286Z"/><path class="cls-26" d="M167.8044,288.6514a8.7128,8.7128,0,0,1,9.1558,7.9853,21.2235,21.2235,0,0,1-.6516,3.2815c-.4461,1.443.8477,5.7.51,5.9109a9.4287,9.4287,0,0,1-1.7328.4777s-1.5,4.65-3.1331,4.611a13.5374,13.5374,0,0,1-10.7241-7.1023C158.3181,298.03,157.419,289.1537,167.8044,288.6514Z"/><path class="cls-26" d="M169.7473,308.7965s-.2006.652-.4287,1.6189c-.1168.495-.2406,1.0705-.3483,1.6839a11.4706,11.4706,0,0,0-.03,5.0007s-3.6095,1.2506-6.4614-3.8512c0,0,1.2247-5.4957-.3667-8.829C160.52,301.0882,169.7473,308.7965,169.7473,308.7965Z"/><path class="cls-35" d="M176.96,296.6367s-3.9458,3.5421-8.12,3.2617c-4.2389-.2853-6.99,5.0115-6.99,5.0115s-6.3093-7.918-1.2231-14.32C165.7131,284.1868,177.8621,288.6917,176.96,296.6367Z"/><path class="cls-26" d="M166.9185,299.8672a1.2753,1.2753,0,0,0-2.23-.91c-1.3147,1.0968.4531,4.91,1.53,4.5369S166.9419,300.696,166.9185,299.8672Z"/><path class="cls-28" d="M169.3186,310.4154c-.1168.495-.2406,1.0705-.3483,1.6839a17.9038,17.9038,0,0,1-5.0394-4.7129A20.3447,20.3447,0,0,0,169.3186,310.4154Z"/><path class="cls-20" d="M179.1037,329.9126c-.76,3.5216-2.7589,3.7057-2.6377,6.3072s.8979,2.8244-.4472,6.9256a20.2,20.2,0,0,0-.6142,2.43c-.019.1-.0391.2-.0559.3-.088.4736-.1624.95-.2273,1.4208-.12.8708-.2061,1.721-.2661,2.4972a5.1784,5.1784,0,0,0,1.3325,3.5864s-13.1609,7.8851-22.1962,6.7784c0,0,2.3392-9.832,3.6277-13.21s.899-18.9833-.049-22.3323c-1.3986-4.9423,1.3957-12.3521,5.2157-13.3173l5.9232,2.7429s5.9665,7.1253,7.305,8.2007S179.8753,326.3417,179.1037,329.9126Z"/><path class="cls-20" d="M159.5255,315.4852c1.6728-1.3929,4.0934-3.7773,7.624.9389s6.0992,7.7552,6.8622,9.1308,7.4,10.9568,7.4,10.9568,3.5257-3.2733,5.5421-4.8092c2.2726-1.7315,8.4656-8.1843,8.4656-8.1843l4.0938,4.5387s-14.2009,15.7585-16.397,16.3127c-2.1958.5558-8.3464-4.9785-10.7822-7.1237s-9.27-9.9537-10.4569-10.7093S155.1637,319.1178,159.5255,315.4852Z"/><path class="cls-28" d="M208.1736,388.6039c-.5193,1.1717-1.0048,2.2628-1.4282,3.2149-1.5939-5.1248-1.4628-13.689-1.4628-13.689A48.67,48.67,0,0,0,208.1736,388.6039Z"/><rect class="cls-35" x="139.5531" y="370.7931" width="45.6137" height="5.0197"/><path class="cls-35" d="M163.2884,354.7821s-1.15,4.65,4.2644,5.7071,12.0731,2.4058,12.0731,10.7586H160.8476Z"/><polygon class="cls-26" points="191.128 304.155 191.903 302.726 192.006 304.348 191.128 304.155"/><path class="cls-35" d="M139.5531,375.8128l-15.9464-67.02s28.8289-4.5041,32.2632,8.4416,9.0852,51.4008,15.9543,53.7787S139.5531,375.8128,139.5531,375.8128Z"/><path class="cls-20" d="M176.6337,340.9072s-.2939,1.23-.6075,2.248l-7.0139-9.0961Z"/><path class="cls-35" d="M159.05,299.2185s2.7729,7.3251,2.0189,9.3256a6.18,6.18,0,0,0,3.5376-6.6476C163.8171,297.0979,159.05,299.2185,159.05,299.2185Z"/><polygon class="cls-20" points="169.051 314.448 169.051 312.999 162.897 310.002 160.767 312.461 169.051 314.448"/><path class="cls-22" d="M190.8671,420.8134a2.3846,2.3846,0,1,1-2.3848-2.3844A2.3843,2.3843,0,0,1,190.8671,420.8134Z"/><polygon class="cls-22" points="137.169 418.45 137.773 420.149 163.288 412.243 162.065 408.803 137.169 418.45"/><polygon class="cls-22" points="188.482 418.45 187.879 420.149 162.363 412.243 163.484 408.588 188.482 418.45"/><polygon class="cls-22" points="170.505 419.967 170.505 421.944 162.363 412.243 163.484 408.588 170.505 419.967"/><path class="cls-22" d="M170.7077,420.8134a2.3847,2.3847,0,1,1-2.3848-2.3844A2.3843,2.3843,0,0,1,170.7077,420.8134Z"/><circle class="cls-22" cx="137.1687" cy="420.8134" r="2.3844"/><path class="cls-24" d="M471.7683,181.2688a25.7146,25.7146,0,0,1-6.049,16.6075,26.0118,26.0118,0,0,1-2.8851,2.9251c-.296.2557-.5986.5065-.9061.7474q-.5217.4119-1.0632.7971a25.6725,25.6725,0,0,1-11.7412,4.5452q-1.1457.1418-2.3228.18-.4217.0135-.8476.0131-1.2531,0-2.4757-.1171a25.811,25.811,0,0,1-15.845-7.5106c-.1586-.16-.3157-.3223-.4694-.4863a24.9213,24.9213,0,0,1-1.6387-1.9174,25.8159,25.8159,0,1,1,46.2438-15.7841Z"/><path class="cls-36" d="M462.7692,195.5137l-1.9043,6.8322a25.6725,25.6725,0,0,1-11.7412,4.5452q-1.1457.1418-2.3228.18-.4217.0135-.8476.0131-1.2531,0-2.4757-.1171a25.7153,25.7153,0,0,1-13.2385-5.2158c-.365-2.2586-.7573-4.7585-1.1026-7.0969,1.8977-.7063,7.9368-2.76,11.7478-4.0486.0535-.0185.1069-.0357.1587-.0531.0839-.0295.1661-.0575.2475-.0838.2261-.0761.4415-.15.6471-.2187.2088-.0707.4078-.1373.5928-.2015.78-.2622,1.3311-.4476,1.5276-.5126l.0033-.0016c.051-.0173.0773-.0268.0773-.0268l.0445.0029,5.1248.3836.8592.0641.2681.02s.0394.0091.1167.0293c.3092.0784,1.207.3144,2.3959.6766l.0058.0016C455.9884,191.6148,460.9127,193.3788,462.7692,195.5137Z"/><path class="cls-37" d="M447.2968,168.45s6.146,1.0371,5.1034,10.6595-6.4666,8.7739-6.8309,8.76c-.3626-.0135-5.4562.1164-5.725-11.6491C439.8443,176.22,439.7661,167.5214,447.2968,168.45Z"/><path class="cls-37" d="M449.99,185.08s-.2114,3.96.1619,4.8219c.375.862-4.9349,3.5894-8.2337.483a34.0428,34.0428,0,0,0,.46-5.8574C442.17,182.9988,449.99,185.08,449.99,185.08Z"/><path class="cls-37" d="M452.5261,176.3894s.6816-.7129.9208.0189-1.0894,3.975-1.0063,4.1217c0,0-.1258.2817-.2862.1242A35.2484,35.2484,0,0,1,452.5261,176.3894Z"/><path class="cls-37" d="M439.9149,176.13s-.6529-.74-.9217-.0189.7137,3.96.8362,4.16c0,0,.2113.3323.3782.1818A35.563,35.563,0,0,0,439.9149,176.13Z"/><path class="cls-35" d="M452.919,175.5717c-.2129,1.3168-.4118,2.2952-.4118,2.2952l-.8946,1.168a23.6012,23.6012,0,0,0-.0839-2.9888c-.0518-.1538-.1126-.4259-.1751-.7211-.1036-.4867-.208-1.0363-.28-1.2189-.1151-.2927-5.268-1.7974-9.8575.3153,0,0,.0394.3975.0361.8407-.0008.5155-.0575,1.0932-.2943,1.18-.44.1608-.2566,3.0229-.2566,3.0229l-.7153-.8255s-.2072-1.4952-.41-3.2137l-.0016-.0123c-.046-.4008-.0938-.8127-.1381-1.2218-.1028-1.7287.0683-4.867,2.32-6.7109,1.5186-.65,3.9433-1.2025,7.9853.0349a2.7826,2.7826,0,0,1,1.1873.3121C453.4453,170.5986,452.919,175.5717,452.919,175.5717Z"/><path class="cls-38" d="M442.7992,186.5828a3.9144,3.9144,0,0,0,3.26,1.311,4.4358,4.4358,0,0,0,3.2683-1.24s-1.0787,2.257-3.2789,2.2327S442.7992,186.5828,442.7992,186.5828Z"/><path class="cls-37" d="M441.2913,190.4678a6.6934,6.6934,0,0,0,4.7722,3.1379c1.9831.171,3.6991-2.3412,4.5032-3.575A12.0055,12.0055,0,0,0,441.2913,190.4678Z"/><path class="cls-34" d="M449.9969,189.1239a17.0477,17.0477,0,0,1-3.9334,3.4076l1.6649,2.5649,2.8383-5.0657Z"/><path class="cls-34" d="M442.0428,189.5074a11.4326,11.4326,0,0,0,4.0207,3.0241l-1.8271,2.6422-3.1934-4.6216Z"/><path class="cls-39" d="M446.0635,192.5315l1.4265,2.1707a2.9688,2.9688,0,0,1-2.8909-.0539Z"/><path class="cls-30" d="M464.4178,195.11s-.014.0493-.0412.1427c-.157.557-.7588,2.7-1.5424,5.5487-.296.2557-.5986.5065-.9061.7474q-.5217.4119-1.0632.7971a25.6725,25.6725,0,0,1-11.7412,4.5452c.3823-8.9362,1.443-16.8608,1.443-16.8608q1.2555.33,2.3811.6541l.0058.0016a54.7187,54.7187,0,0,1,11.0054,4.1564.2247.2247,0,0,1,.0246.0131C464.28,195.0208,464.4178,195.11,464.4178,195.11Z"/><path class="cls-30" d="M440.7914,206.5672a25.8291,25.8291,0,0,1-13.1588-7.1106c-.1586-.16-.3157-.3223-.4694-.4863-.4522-1.9186-.7523-3.1713-.7721-3.2527l-.0008-.0041s3.1943-2.0987,14.494-5.1142v.0066C440.8843,190.8645,440.8909,198.1135,440.7914,206.5672Z"/><path class="cls-39" d="M446.8808,194.9411c-.1053,2.3531-.116,6.92-.08,12.13q-.4217.0135-.8476.0131-1.2531,0-2.4757-.1171a79.1483,79.1483,0,0,1,1.7151-12.0331c.125-.5209.2014-.7808.2014-.7808l1.5146.25C446.898,194.5677,446.8889,194.7461,446.8808,194.9411Z"/><path class="cls-30" d="M465.7193,197.8763a26.0118,26.0118,0,0,1-2.8851,2.9251c-.296.2557-.5986.5065-.9061.7474l2.0309-6.7064.0008-.0029a.1833.1833,0,0,1,.0238.016,1.6741,1.6741,0,0,1,.393.3972A12.5956,12.5956,0,0,1,465.7193,197.8763Z"/><path class="cls-30" d="M427.6326,199.4566c-.1586-.16-.3157-.3223-.4694-.4863a24.9213,24.9213,0,0,1-1.6387-1.9174,2.9818,2.9818,0,0,1,.8658-1.3394l.0008.0041Z"/><rect class="cls-40" x="258.2107" y="146.0106" width="34.778" height="8.0898" rx="3.4541"/><path class="cls-41" d="M272.5929,207.0815a16.7038,16.7038,0,0,0,22.0592-15.611c.0053-.375-.0024-.7494-.0214-1.1186a16.7048,16.7048,0,1,0-22.0378,16.73Zm-7.1669-15.9868a12.5261,12.5261,0,0,1,24.2978-4.116l.0032.007a12.4978,12.4978,0,0,1,.73,3.5926c.0143.2775.0188.5567.0168.8391a12.5248,12.5248,0,1,1-25.0476-.3227Z"/><path class="cls-21" d="M287.8524,198.9242l3.3053,2.56a16.7284,16.7284,0,0,1-18.5652,5.5977l1.341-3.96a12.5442,12.5442,0,0,0,13.9189-4.1975Z"/><path class="cls-42" d="M290.4555,190.5775l4.1752-.2265c.0194.37.0271.7441.0218,1.1195a16.6262,16.6262,0,0,1-3.4948,10.0137l-3.3053-2.56a12.47,12.47,0,0,0,2.62-7.5072Q290.4777,190.994,290.4555,190.5775Z"/><path class="cls-42" d="M290.4568,190.5783a12.4978,12.4978,0,0,0-.73-3.5926l-.0032-.007,3.93-1.4278a16.6164,16.6164,0,0,1,.9767,4.801Z"/><path class="cls-21" d="M267.9017,177.9113a16.7081,16.7081,0,0,1,25.7523,7.64l-3.927,1.4348-.0032-.007a12.5238,12.5238,0,0,0-19.371-5.6778Z"/><path class="cls-21" d="M392.1322,221.7514h9.3589a4.625,4.625,0,0,1,4.625,4.625v9.3585a4.6245,4.6245,0,0,1-4.6245,4.6245h-9.3589a4.625,4.625,0,0,1-4.625-4.625v-9.3585A4.6245,4.6245,0,0,1,392.1322,221.7514Z"/><path class="cls-43" d="M396.2232,235.154l-4.7047-4.1013a.9266.9266,0,0,1,1.2177-1.3969l3.3267,2.9,4.7433-5.2913a.9267.9267,0,1,1,1.38,1.2374Z"/><path class="cls-21" d="M392.1322,245.5969h9.3589a4.625,4.625,0,0,1,4.625,4.625V259.58a4.6245,4.6245,0,0,1-4.6245,4.6245h-9.3589a4.625,4.625,0,0,1-4.625-4.625v-9.3581A4.6245,4.6245,0,0,1,392.1322,245.5969Z"/><path class="cls-43" d="M396.2232,258.9994l-4.7047-4.1012a.9266.9266,0,0,1,1.2177-1.3969l3.3267,2.9,4.7433-5.291a.9266.9266,0,1,1,1.38,1.2371Z"/><rect class="cls-21" x="387.5077" y="269.442" width="18.6084" height="18.6084" rx="4.625"/><path d="M328.5553,398.2378s.5612,3.7716.9377,5.38,3.8546,6.2225,3.7933,7.0077-1.5334,1.7095-2.2734,1.0772-5.6552-5.6815-6.7055-7.8448-4.5259-4.9834-4.8816-5.9438,4.0992-3.7707,5.2466-4.2188S328.5553,398.2378,328.5553,398.2378Z"/><path class="cls-26" d="M319.8448,331.1319a13.97,13.97,0,0,0,.7983,2.85,20.9459,20.9459,0,0,1,1.3452,2.9961c.0925.3141.6545,2.5727.75,2.858s-.5471.7318-.9871.1283a18.9983,18.9983,0,0,1-.9471-2.3088c-.1949-.4719-.7938-1.9643-.9558-1.6921a17.6245,17.6245,0,0,0-.1493,2.789,16.7716,16.7716,0,0,0,.4539,2.7535c.1533.6553,1.0249,3.4032.6751,3.5512s-.6451.1077-1.0961-.63c0,0-.7149.3995-1.1321-.5049,0,0-.64.2319-1.0356-.9472a1.5887,1.5887,0,0,1-.6311-.6725A25.807,25.807,0,0,1,315.73,336.79c.009-1.4734.3552-2.5011.2922-3.5413a27.8249,27.8249,0,0,0-.5961-3.2666Z"/><polygon class="cls-26" points="326.011 393.104 324.672 393.695 328.555 398.238 329.842 396.814 326.011 393.104"/><path d="M339.5817,402.6227a14.2833,14.2833,0,0,1-1.5931,2.909c-.7289.8264-3.5191,2.3023-3.5339,4.7549-.0164,2.66,4.7035,1.9215,6.5494,1.8245s1.9856-1.5187,2.7626-3.0241,1.5606-1.2506,1.7065-2.4658a15.4627,15.4627,0,0,0-.5953-3.9326Z"/><path class="cls-26" d="M339.5011,401.8532l-.1349,1.2621a9.6012,9.6012,0,0,0,5.6478.1085l-.1529-1.7242Z"/><path d="M355.6025,369.804c0-3.2781-2.3935-31.8871-2.2845-32.98.0723-.7128-.6891-7.5619-1.228-12.2411-.0046-.04-.0094-.0806-.014-.1192,0-.01-.0024-.02-.0024-.0288-.153-1.3139-.2854-2.4477-.3742-3.2075-.0415-.3518-.0736-.6249-.0937-.7975-.0177-.1431-.0258-.2187-.0258-.2187s-15.4409-3.0447-23.446-.1686c-.3338.1209-.6548.2508-.9615.3922l-.0544.3922c-.08.592-.2474,1.8262-.47,3.5035q-.0569.4242-.1184.8847c-1.1392,8.6259-.4075,18,1.5869,27.5968,1.9564,9.4136,3.0339,16.4542,3.235,17.8215.2655,1.7941,1.05,6.73,1.92,12.1425-4.25,5.2416-7.8726,9.698-7.6025,10.14.6712,1.0952,6.6336,7.2684,6.9616,6.1757,0,0,1.0767-1.2194,2.7631-3.1623.5361,3.311.9032,5.5705.9032,5.5705s6.5358,1.56,8.9408.14c0,0-.9452-7.1813-1.9314-14.989C349.306,379.4684,355.6025,371.5216,355.6025,369.804ZM341.11,367.436c-.0814-4.4021-2.04-29.0719-1.8331-29.0719.9641,0,6.3923,23.4932,6.5938,26.7993.0415.6767-.8054,2.192-2.1732,4.1851-.6158.8978-1.3369,1.8911-2.13,2.9493l-.0012.0008C341.2964,369.8813,341.1221,368.1028,341.11,367.436Z"/><path class="cls-36" d="M358.181,279.2905l-4.1523,14.896c-.1422.4827-.312,1.0771-.4928,1.7686l-.007.0263-.005.0181a58.5113,58.5113,0,0,0-1.8055,11.1994c-.1732,3.0652.3954,15.3894.3954,15.3894a41.4189,41.4189,0,0,1-15.6846,1.75s-10.1123-.2359-9.2877-6.4363c2.1822-16.41.0481-23.1758-.2376-24.8235,0,0-1.3722-7.9706-2.3552-14.6486,2.8457-1.059,15.0013-5.1462,15.0013-5.1462l6.2969.4711S355.4163,276.1118,358.181,279.2905Z"/><path class="cls-37" d="M342.7085,252.2264s6.1465,1.0368,5.1039,10.6592-6.4675,8.7739-6.8309,8.76-5.4567.1163-5.7255-11.6492C335.256,259.9967,335.1774,251.2981,342.7085,252.2264Z"/><path class="cls-37" d="M345.4017,268.8566s-.2122,3.9606.1619,4.8222-4.9353,3.589-8.2344.4827a34.0347,34.0347,0,0,0,.46-5.8579C337.582,266.7751,345.4017,268.8566,345.4017,268.8566Z"/><path class="cls-37" d="M347.9374,260.1657s.682-.7125.9213.019-1.0894,3.9754-1.0064,4.1221c0,0-.1262.2816-.2865.1241A35.3165,35.3165,0,0,1,347.9374,260.1657Z"/><path class="cls-37" d="M335.3267,259.9067s-.6524-.74-.9218-.0189.7138,3.96.8363,4.16c0,0,.2117.3326.3782.1817A35.5029,35.5029,0,0,0,335.3267,259.9067Z"/><path class="cls-35" d="M348.33,259.348c-.2121,1.3168-.4119,2.2952-.4119,2.2952l-.8946,1.1684a23.5242,23.5242,0,0,0-.0839-2.9887c-.0517-.1538-.1126-.4264-.1751-.7212-.1028-.4867-.2076-1.0363-.28-1.2193-.1151-.2923-5.268-1.7974-9.8571.3153,0,0,.039.3976.0361.8412-.0016.5155-.0584,1.0931-.2948,1.18-.44.1607-.2561,3.0228-.2561,3.0228l-.7153-.8258s-.2072-1.4948-.4107-3.2133l-.0016-.0123c-.0461-.4009-.0934-.8132-.1382-1.2219-.1024-1.7287.0687-4.867,2.3191-6.7109,1.5186-.65,3.9437-1.2029,7.9862.035a2.7815,2.7815,0,0,1,1.1868.312C348.8567,254.3753,348.33,259.348,348.33,259.348Z"/><path class="cls-38" d="M338.211,270.36a3.9132,3.9132,0,0,0,3.26,1.3107,4.4354,4.4354,0,0,0,3.2683-1.24s-1.0787,2.2566-3.279,2.2327S338.211,270.36,338.211,270.36Z"/><path class="cls-37" d="M336.7026,274.2445a6.6949,6.6949,0,0,0,4.7726,3.1376c1.9828.1719,3.6991-2.3408,4.5033-3.575A12.0074,12.0074,0,0,0,336.7026,274.2445Z"/><path class="cls-34" d="M345.4087,272.9a17.0463,17.0463,0,0,1-3.9335,3.4081l1.665,2.5645,2.8383-5.0657Z"/><path class="cls-34" d="M337.4546,273.2842a11.4231,11.4231,0,0,0,4.0206,3.0241l-1.8269,2.6418-3.194-4.6217Z"/><path d="M341.4752,276.3083l1.4265,2.1706a2.97,2.97,0,0,1-2.8905-.0543Z"/><path class="cls-35" d="M326.797,325.4554s7.712,2.8448,25.1528.1644l-.2319-3.1573s-10.1095,2.983-24.6126.4284Z"/><path class="cls-35" d="M345.9785,273.8071a192.2828,192.2828,0,0,0-1.5561,25.09c.2471,11.62,9.023,32.72,9.023,32.72s3.836-3.71,5.506-5.8106c0,0-5.9721-17.232-5.8624-20.3408s6.74-26.5789,6.74-26.5789S356.1443,276.4834,345.9785,273.8071Z"/><path class="cls-35" d="M336.2965,274.376s.0148,12.9023-.2327,24.521-1.7772,33.25-1.7772,33.25-8.59-1.36-10.2593-3.4607c0,0,3.48-20.1122,3.37-23.221s-5.5952-25.9747-5.5952-25.9747S324.9955,277.3911,336.2965,274.376Z"/><rect x="337.3152" y="323.4352" width="4.738" height="3.5232"/><path d="M340.8059,277.93s-2.1168,7.2232-2.3013,21.57.26,18.4595.26,18.4595l1.6518,3.2692,2.2015-3.4114s-.7059-33.0119-.2972-39.6357Z"/><path class="cls-26" d="M352.9677,331.7387a2.84,2.84,0,0,0,.6594-.59s.2191-.4645.398-.7868a2.3565,2.3565,0,0,1,.15-.2426,4.6445,4.6445,0,0,0,.8526-1.3107,27.4375,27.4375,0,0,0,.43-3.6l-1.8175-.5336-1.6173-.7112a34.993,34.993,0,0,0-3.8373,3.2863,1.4194,1.4194,0,0,0-.0744.167,5.2259,5.2259,0,0,0-.169,1.2251c-.0247.1-.1911,1.119.0473,1.3443a1.2417,1.2417,0,0,0,1.0405.365,2.8423,2.8423,0,0,0,1.3238.6414,1.8455,1.8455,0,0,0,1.4323.4283S352.4752,331.93,352.9677,331.7387Z"/><path class="cls-35" d="M350.65,323.6367a19.0869,19.0869,0,0,0,5.9,3.3217s11.4136-18.5985,11.5574-19.94c.1333-1.2423-5.6625-26.532-8.278-28.132l-4.75,13.9085c.3149-.0921,5.4061,10.5655,5.4259,11.9362C360.5325,306.5691,350.65,323.6367,350.65,323.6367Z"/><path class="cls-35" d="M321.1887,333.6479a28.9163,28.9163,0,0,1-6.2748.2673s1.4455-23.8723,1.3012-25.2149c-.1332-1.2416,2.9727-27.6084,5.5874-29.2093l4.6648,14.0542c-.3149-.0921-3.1269,14.3764-3.147,15.747C323.2932,311.13,321.1887,333.6479,321.1887,333.6479Z"/><polygon points="347.662 326.279 354.996 330.083 352.113 335.42 345.871 328.746 347.662 326.279"/><path class="cls-44" d="M343.6976,369.3485l-.7412,14.5137-1.3891-11.5636v-.0008C342.3607,371.24,343.0818,370.2463,343.6976,369.3485Z"/><rect class="cls-21" x="306.7851" y="192.9315" width="4.2805" height="14.0357"/><path class="cls-24" d="M464.44,286.4347a19.84,19.84,0,1,1-19.84-19.8413A19.8415,19.8415,0,0,1,464.44,286.4347Z"/><rect class="cls-21" x="299.7687" y="196.8683" width="4.2809" height="10.0989"/><rect class="cls-21" x="313.801" y="186.4266" width="4.2805" height="20.5406"/><rect class="cls-22" x="492.142" y="343.2958" width="27.5327" height="1.6345" transform="translate(1011.8168 688.2262) rotate(180)"/><rect class="cls-22" x="513.5722" y="349.1837" width="2.4124" height="74.3274"/><rect class="cls-45" x="477.3134" y="342.8329" width="19.1378" height="2.3342" transform="translate(973.7646 688.0001) rotate(180)"/><rect class="cls-46" x="483.2588" y="322.918" width="7.247" height="22.0124" transform="translate(973.7646 667.8484) rotate(180)"/><rect class="cls-22" x="423.5167" y="344.9575" width="106.0345" height="4.2262" transform="translate(953.0678 694.1412) rotate(180)"/><path class="cls-20" d="M549.9018,319.3776s1.1594,16.2642-2.0185,18.21c-1.9906,1.2193-9.9274,5.3312-9.6923,6.1024s4.4819,6.8623,4.4819,6.8623S557.9184,340.5134,558.41,337.35c.48-3.0907-.7507-23.813-2.8457-24.7676-1.5695-.7153-2.3983-.1234-4.3758,1.3451C548.412,315.9884,549.9018,319.3776,549.9018,319.3776Z"/><path class="cls-47" d="M531.1438,413.3634s.4736,3.2905.5336,3.7846,5.2737-.2911,5.2737-.2911l.4218-3.9178S531.7958,412.8988,531.1438,413.3634Z"/><path class="cls-20" d="M531.6224,416.73a14.0771,14.0771,0,0,1-3.2511,2.8473c-1.5976.8642-4.1086,1.207-5.0542,2.1016-.6815.6454-2.4839,3.4253,4.153,3.3694s9.8362.3922,10.5474-.6733-1.0286-7.8678-1.0286-7.8678S535.4169,417.0723,531.6224,416.73Z"/><path class="cls-47" d="M497.7348,413.3946s.4736,3.29.5328,3.7838c.0591.495,5.2736-.2911,5.2736-.2911l.4226-3.917S498.3868,412.93,497.7348,413.3946Z"/><path class="cls-20" d="M498.2124,416.7607a14.0776,14.0776,0,0,1-3.251,2.8474c-1.5975.8641-7.478,1.5745-8.4228,2.4691-.6816.6446-1.8162,3.2453,7.5217,3.0019,6.6344-.1727,9.8369.3922,10.5473-.6734.7121-1.0656-1.0285-7.8678-1.0285-7.8678S502.0983,417.1422,498.2124,416.7607Z"/><path d="M547.9631,356.52s-18.9587,3.2075-23.24,3.8792-27.5,6.45-30.4031,8.2107c-2.3112,1.401,1.212,35.0568,2.035,47.8965H505.5l.6636-38.5167c10.9741.2746,18.8049-2.5669,26.796-1.3534s14.6527,2.9386,19.7306-3.8726C552.69,372.764,552.8783,358.0069,547.9631,356.52Z"/><path d="M529.2766,416.5379l8.912-.5517.8682-37.9962a54.2067,54.2067,0,0,0,10.1675-.6446l7.1945-16.7256c-6.3057,1.26-26.51,6.3566-29.2044,7.99C524.9032,370.012,528.4535,403.6974,529.2766,416.5379Z"/><path class="cls-26" d="M539.2361,285.4562s-6.9494-1.9207-9.6018,3.4747-1.4488,15.6229,2.0538,16.5849,8.5387-.1455,9.9932-3.5034,2.6139-8.1293,2.2661-11.2191S541.0819,286.1945,539.2361,285.4562Z"/><path class="cls-26" d="M533.5036,304.44s.0764,4.1028-.3758,4.9777,9.6775.6544,9.6775.6544-1.5959-4.9267-.6907-9.1241C543.0108,296.7929,533.5036,304.44,533.5036,304.44Z"/><path class="cls-35" d="M542.66,299.3944s-.5411,1.1-3.1631.9226-6.08-3.3407-7.1927-3.6235c-1.1142-.2821-1.18-.916-1.18-.916l-.5887,1.0466-1.14.1744s.7745-3.17-.9144-4.287.7606-10.1067,9.3108-7.9385c0,0,6.5251,1.1946,6.6123,4.8387S543.9268,297.4638,542.66,299.3944Z"/><path class="cls-48" d="M532.5951,309.312s.0287-1.6716.786-1.8319,7.9631-1.1511,8.8922-.786l.4,2.2068S540.8813,310.0043,532.5951,309.312Z"/><path class="cls-26" d="M530.5107,295.03c.194-1.37,1.7514-2.9427,2.6434-.809s-.6018,5.2408-1.6025,5.0738S530.2468,296.8883,530.5107,295.03Z"/><path class="cls-30" d="M502.4164,329.0583a.0214.0214,0,0,1,.0124-.0016C502.3769,329.08,502.37,329.0813,502.4164,329.0583Z"/><path class="cls-49" d="M541.2628,286.4347s8.4738-.3988,1.4792,12.829Z"/><polygon class="cls-22" points="560.143 421.044 559.513 422.818 532.879 414.566 534.156 410.975 560.143 421.044"/><rect class="cls-22" x="531.9652" y="384.3457" width="3.0274" height="28.9568" transform="translate(1066.9578 797.6482) rotate(180)"/><rect class="cls-22" x="524.5513" y="382.8065" width="17.8553" height="1.7069" transform="translate(1066.9578 767.3199) rotate(180)"/><polygon class="cls-22" points="506.58 421.044 507.211 422.818 533.845 414.566 532.675 410.75 506.58 421.044"/><polygon class="cls-22" points="525.346 422.629 525.346 424.691 533.845 414.566 532.675 410.75 525.346 422.629"/><path class="cls-22" d="M504.0913,423.5111a2.4893,2.4893,0,1,0,2.4888-2.4889A2.4892,2.4892,0,0,0,504.0913,423.5111Z"/><path class="cls-22" d="M525.1342,423.5111a2.4893,2.4893,0,1,0,2.49-2.4889A2.4894,2.4894,0,0,0,525.1342,423.5111Z"/><path class="cls-50" d="M557.6537,423.5111a2.4893,2.4893,0,1,0,2.49-2.4889A2.4894,2.4894,0,0,0,557.6537,423.5111Z"/><rect class="cls-22" x="512.2123" y="376.3439" width="42.2988" height="6.4626" rx="3.0742" transform="translate(1066.7235 759.1504) rotate(-180)"/><rect class="cls-22" x="437.0833" y="349.1837" width="2.4115" height="74.3274" transform="translate(876.578 772.6948) rotate(180)"/><path class="cls-51" d="M459.3732,289.3765h55.0175a3.78,3.78,0,0,1,3.78,3.78v36.5851a3.78,3.78,0,0,1-3.78,3.78H459.3742a3.7813,3.7813,0,0,1-3.7813-3.7813v-36.584A3.78,3.78,0,0,1,459.3732,289.3765Z" transform="translate(973.7638 622.8987) rotate(180)"/><rect class="cls-40" x="458.044" y="291.7626" width="57.6768" height="34.8414" transform="translate(973.7647 618.3666) rotate(180)"/><rect class="cls-52" x="458.044" y="291.7626" width="57.6768" height="2.7725" transform="translate(973.7647 586.2977) rotate(180)"/><path class="cls-52" d="M462.5156,296.6211H464.79a2.34,2.34,0,0,1,2.34,2.34v23.1571a2.34,2.34,0,0,1-2.34,2.34h-2.2737a2.34,2.34,0,0,1-2.34-2.34V298.96A2.3388,2.3388,0,0,1,462.5156,296.6211Z" transform="translate(927.3071 621.079) rotate(180)"/><path class="cls-52" d="M502.63,296.6211h10.233a1.2265,1.2265,0,0,1,1.2265,1.2265v.1254a1.2266,1.2266,0,0,1-1.2266,1.2266H502.6308a1.2264,1.2264,0,0,1-1.2264-1.2264v-.1265a1.2256,1.2256,0,0,1,1.2256-1.2256Z" transform="translate(1015.4938 595.8206) rotate(180)"/><path class="cls-52" d="M504.0137,300.9286h7.4653a2.61,2.61,0,0,1,2.61,2.61V322.56a2.6094,2.6094,0,0,1-2.6094,2.6094h-7.4664a2.6093,2.6093,0,0,1-2.6093-2.6093V303.538A2.6094,2.6094,0,0,1,504.0137,300.9286Z" transform="translate(1015.4938 626.0979) rotate(180)"/><path class="cls-53" d="M484.8638,329.8575a2.0186,2.0186,0,1,0,2.0185-2.0185A2.0184,2.0184,0,0,0,484.8638,329.8575Z"/><path class="cls-54" d="M473.9275,345.0142v-.7852s1.1042-4.8865,8.9161-4.8865,7.654,5.6717,7.654,5.6717Z"/><path class="cls-26" d="M490.5929,340.0686a7.7182,7.7182,0,0,1-2.3194-.5073c-.6216-.3749-4.3421-2.877-5.2153-2.4765s-6.6887,2.1821-6.4873,3.0323.74.768,1.15.6175a29.8678,29.8678,0,0,1,5.0057-.8871s-4.1473,1.5128-4.1637,2.6171.8674,1.3722,1.26,1.79.8658,1.4545,1.9347,1.5334,6.2841-1.734,7.3572-1.8171a26.2113,26.2113,0,0,0,3.1959-.1085A29.5465,29.5465,0,0,0,490.5929,340.0686Z"/><path class="cls-20" d="M521.4886,311.6282c5.4109-.9513,11.1065-2.3162,11.1065-2.3162l10.0778-.4111s9.2491,2.0358,12.8915,3.6811c.3454.1562.347,8.2517,1.295,10.3739l-3.0191,6.3712s-1.7456,12.62-2.1074,18.2327c-.166,2.5769.47,24.9025.47,24.9025s-.9053.4464-7.7831,1.2045-24.0621-.2738-24.1706-1.0853c-.1085-.8132,3.3275-30.2494,3.48-31.7737.2327-2.3392-.6766-13.1506-.6766-13.1506-1.295,1.7407-4.5988,9.6019-8.043,13.3413-2.0251,2.2-12.0553,3.55-13.9456,3.6129-4.1152.1372-11.6228.9562-11.8424.5557-.1742-.24-.6536-6.6631-.1833-6.82.4128-.1374,14.3526-.94,17.9243-2.8351,1.3065-.693,5.212-9.21,5.212-9.21S518.5039,312.9692,521.4886,311.6282Z"/><path class="cls-22" d="M542.4992,331.4164H557.117a7.2763,7.2763,0,0,1,7.2763,7.2763v25.8484a7.2764,7.2764,0,0,1-7.2764,7.2764H542.4992a7.2764,7.2764,0,0,1-7.2764-7.2764V338.6928A7.2764,7.2764,0,0,1,542.4992,331.4164Z" transform="translate(1099.6162 703.234) rotate(180)"/><path class="cls-22" d="M540.3913,381.1982a13.3644,13.3644,0,0,0,10.369-4.2927c5.831-6.438,4.7827-17.7558,4.7359-18.2343a1.6232,1.6232,0,0,0-3.2305.32c.0132.1291.9423,10.387-3.9179,15.7421a10.1192,10.1192,0,0,1-7.9565,3.22,1.6226,1.6226,0,1,0,0,3.2452Z"/><path class="cls-24" d="M487.7194,306.0034a8.1326,8.1326,0,0,1-2.82,6.1633c-.0929.0814-.1883.16-.2852.2369-.11.0863-.2221.1693-.3356.2515a8.1,8.1,0,0,1-3.7048,1.434q-.3627.0444-.7334.0567c-.0888.0024-.1777.0041-.2672.0041-.264,0-.5247-.0132-.7812-.037a8.0953,8.0953,0,0,1-4.1785-1.646,8.01,8.01,0,0,1-.8213-.7244c-.05-.0494-.1-.1012-.148-.1529a7.8891,7.8891,0,0,1-.5181-.6052,8.1468,8.1468,0,1,1,14.5936-4.981Z"/><path class="cls-36" d="M484.8786,310.4985l-.6,2.1566a8.1,8.1,0,0,1-3.7048,1.434q-.3627.0444-.7334.0567c-.0888.0024-.1777.0041-.2672.0041-.264,0-.5247-.0132-.7812-.037a8.0953,8.0953,0,0,1-4.1785-1.646c-.1151-.7121-.2385-1.5015-.347-2.2389.5986-.2237,2.5045-.8716,3.7075-1.2778.0164-.0057.0328-.0115.0493-.0164.0271-.01.0526-.0181.078-.0272.0716-.0238.14-.0468.204-.069l.1875-.0633c.2466-.0831.42-.1415.4817-.162l.0017-.0009.0247-.0081.0131.0008,1.6173.1208.2714.0206.0847.0065.0369.0091c.097.0255.3808.0995.7557.2138l.0016.0008A7.9268,7.9268,0,0,1,484.8786,310.4985Z"/><path class="cls-37" d="M479.9971,301.9581s1.9388.3281,1.61,3.3645-2.0407,2.7676-2.1559,2.7643c-.1134-.005-1.7217.0362-1.8064-3.677C477.6447,304.41,477.62,301.6654,479.9971,301.9581Z"/><path class="cls-37" d="M480.8465,307.2063a7.0237,7.0237,0,0,0,.0509,1.5219c.1184.2722-1.5573,1.1322-2.5982.1521a10.72,10.72,0,0,0,.1448-1.8483C478.379,306.5493,480.8465,307.2063,480.8465,307.2063Z"/><path class="cls-37" d="M481.6465,304.4642s.2154-.2253.291.0058-.3436,1.2546-.3182,1.3007c0,0-.0394.0888-.09.0386A11.0369,11.0369,0,0,1,481.6465,304.4642Z"/><path class="cls-37" d="M477.6669,304.382s-.2055-.2335-.29-.0058a3.8951,3.8951,0,0,0,.264,1.3123s.0666.1053.1192.0575A11.1865,11.1865,0,0,0,477.6669,304.382Z"/><path class="cls-35" d="M481.7706,304.206c-.0674.4153-.13.7236-.13.7236l-.282.3692a7.3683,7.3683,0,0,0-.0272-.9431c-.0156-.0486-.0353-.1349-.055-.2277-.0321-.1539-.065-.3265-.088-.3849a4.1569,4.1569,0,0,0-3.11.0995s.0115.1258.0115.2656c-.0008.1628-.019.3445-.0938.3724-.1381.051-.0806.9538-.0806.9538l-.2253-.2606s-.0657-.4711-.13-1.0138v-.0041c-.0147-.1266-.0295-.2565-.0444-.3857a2.54,2.54,0,0,1,.7319-2.118,3.5,3.5,0,0,1,2.52.0116.87.87,0,0,1,.3749.0986A3.6006,3.6006,0,0,1,481.7706,304.206Z"/><path class="cls-38" d="M478.5772,307.6807a1.2378,1.2378,0,0,0,1.0285.4136,1.4014,1.4014,0,0,0,1.0319-.3914,1.2557,1.2557,0,0,1-1.0352.7047A1.2715,1.2715,0,0,1,478.5772,307.6807Z"/><path class="cls-37" d="M478.101,308.9066a2.1108,2.1108,0,0,0,1.5064.99c.6257.0543,1.1675-.7383,1.4216-1.1281A3.7932,3.7932,0,0,0,478.101,308.9066Z"/><path class="cls-34" d="M480.8481,308.4824a5.4,5.4,0,0,1-1.2407,1.0755l.5253.809.8963-1.5984Z"/><path class="cls-34" d="M478.3387,308.6033a3.6156,3.6156,0,0,0,1.2687.9546l-.5764.8337-1.008-1.4586Z"/><path class="cls-39" d="M479.6074,309.5579l.4505.6848a.938.938,0,0,1-.9126-.0173Z"/><path class="cls-30" d="M485.3991,310.3719c-.0075.0271-.4917,1.7677-.5,1.7948-.0929.0814-.1883.16-.2852.2369-.11.0863-.2221.1693-.3356.2515a8.1,8.1,0,0,1-3.7048,1.434c.12-2.82.4555-5.3206.4555-5.3206q.3958.1037.7507.2064l.0016.0008A18.1775,18.1775,0,0,1,485.3991,310.3719Z"/><path class="cls-30" d="M477.9432,313.9871a8.1219,8.1219,0,0,1-3.33-1.52,8.01,8.01,0,0,1-.8213-.7244c-.05-.0494-.1-.1012-.148-.1529-.1431-.6052-.2376-1.0007-.2443-1.0262v-.0016a18.4,18.4,0,0,1,4.5741-1.614v.0024C477.9737,309.0316,477.9753,311.319,477.9432,313.9871Z"/><path class="cls-39" d="M479.8655,310.3184c-.0328.7417-.0361,2.183-.0254,3.8274-.0888.0024-.1777.0041-.2672.0041-.264,0-.5247-.0132-.7812-.037a25.0876,25.0876,0,0,1,.541-3.7969c.04-.1645.0633-.2467.0633-.2467l.4786.0789C479.8713,310.2,479.868,310.2568,479.8655,310.3184Z"/><path class="cls-30" d="M485.81,311.2442a8.1754,8.1754,0,0,1-.9111.9225c-.0929.0814-.1883.16-.2852.2369l.7852-2.0317C485.6038,310.4885,485.7205,311.028,485.81,311.2442Z"/><path class="cls-30" d="M473.7919,311.7425c-.05-.0494-.1-.1012-.148-.1529a7.8891,7.8891,0,0,1-.5181-.6052.9376.9376,0,0,1,.2738-.4226v.0016Z"/><path class="cls-55" d="M444.5991,294.3444a.9992.9992,0,0,1-.999-1V279.5223a.9994.9994,0,0,1,1.9988,0v13.8222A.9994.9994,0,0,1,444.5991,294.3444Z"/><path class="cls-55" d="M451.5106,287.4329H437.6884a.9995.9995,0,0,1,0-1.9989h13.8222a.9995.9995,0,0,1,0,1.9989Z"/></g></g></svg>