<svg xmlns="http://www.w3.org/2000/svg" xmlns:xlink="http://www.w3.org/1999/xlink" viewBox="0 0 688 404"><defs><style>.cls-1{mask:url(#mask);filter:url(#luminosity-noclip-3);}.cls-2,.cls-4,.cls-7{mix-blend-mode:multiply;}.cls-2{fill:url(#radial-gradient);}.cls-3{mask:url(#mask-2);filter:url(#luminosity-noclip-4);}.cls-4{fill:url(#linear-gradient);}.cls-5{isolation:isolate;}.cls-6{mask:url(#mask-3);}.cls-7{opacity:0.4;fill:url(#radial-gradient-2);}.cls-8{fill:url(#linear-gradient-2);}.cls-9{fill:url(#linear-gradient-3);}.cls-10{fill:url(#linear-gradient-4);}.cls-11{fill:url(#linear-gradient-5);}.cls-12{fill:url(#linear-gradient-6);}.cls-13{fill:url(#linear-gradient-7);}.cls-14{fill:url(#linear-gradient-8);}.cls-15{fill:url(#linear-gradient-9);}.cls-16{mask:url(#mask-4);}.cls-17{fill:url(#linear-gradient-10);}.cls-18{fill:url(#linear-gradient-11);}.cls-19{fill:#fff;}.cls-20{fill:#002364;}.cls-21{fill:#043985;}.cls-22{fill:#e1e1e1;}.cls-23{fill:#dfe1e8;}.cls-24{fill:#eef0f7;}.cls-25{fill:#3c4145;}.cls-26{fill:#eea886;}.cls-27{fill:#e55353;}.cls-28{fill:#a77860;}.cls-29{fill:#bd4444;}.cls-30{fill:#323657;}.cls-31{fill:#cf8c6c;}.cls-32{fill:#eb4747;}.cls-33{fill:#db9c7c;}.cls-34{fill:#eddad3;}.cls-35{fill:#414042;}.cls-36{fill:#d9c7c1;}.cls-37{fill:#eea987;}.cls-38{fill:#c78d71;}.cls-39{fill:#5073ab;}.cls-40{fill:#f5f7ff;}.cls-41{fill:#78c2ff;}.cls-42{fill:#2273b5;}.cls-43{fill:#f3f3f3;}.cls-44{fill:#1d2033;}.cls-45{fill:#ccbdb7;}.cls-46{fill:#4667a8;}.cls-47{fill:#424773;}.cls-48{fill:#e2d2ca;}.cls-49{fill:#3a3f47;}.cls-50{fill:#bfb2ac;}.cls-51{fill:#5f8be3;}.cls-52{fill:#cecfd6;}.cls-53{fill:#5c5552;}.cls-54{fill:#2e436e;}.cls-55{fill:#949494;}.cls-56{filter:url(#luminosity-noclip-2);}.cls-57{filter:url(#luminosity-noclip);}</style><filter id="luminosity-noclip" x="59.2223" y="-8365" width="569.5554" height="32766" filterUnits="userSpaceOnUse" color-interpolation-filters="sRGB"><feFlood flood-color="#fff" result="bg"/><feBlend in="SourceGraphic" in2="bg"/></filter><mask id="mask" x="59.2223" y="-8365" width="569.5554" height="32766" maskUnits="userSpaceOnUse"><g class="cls-57"/></mask><radialGradient id="radial-gradient" cx="-730.1648" cy="-23772.0974" r="144.9096" gradientTransform="translate(1914.2194 2021.983) scale(2.1505 0.069)" gradientUnits="userSpaceOnUse"><stop offset="0" stop-color="#fff"/><stop offset="0.0851" stop-color="#f5f5f5"/><stop offset="0.229" stop-color="#dbdbdb"/><stop offset="0.4141" stop-color="#afafaf"/><stop offset="0.6333" stop-color="#747474"/><stop offset="0.8784" stop-color="#282828"/><stop offset="1"/></radialGradient><filter id="luminosity-noclip-2" x="295.6909" y="-8365" width="96.6181" height="32766" filterUnits="userSpaceOnUse" color-interpolation-filters="sRGB"><feFlood flood-color="#fff" result="bg"/><feBlend in="SourceGraphic" in2="bg"/></filter><mask id="mask-2" x="295.6909" y="-8365" width="96.6181" height="32766" maskUnits="userSpaceOnUse"><g class="cls-56"/></mask><linearGradient id="linear-gradient" x1="295.6909" y1="366.2175" x2="392.3091" y2="366.2175" gradientUnits="userSpaceOnUse"><stop offset="0.0004" stop-color="#ccc"/><stop offset="0.5247" stop-color="#b3b3b3"/><stop offset="0.7684" stop-color="#b5b5b5"/><stop offset="0.8931" stop-color="#bdbdbd"/><stop offset="0.9906" stop-color="#cacaca"/><stop offset="1" stop-color="#ccc"/></linearGradient><filter id="luminosity-noclip-3" x="59.2223" y="370.9166" width="569.5554" height="21.5834" filterUnits="userSpaceOnUse" color-interpolation-filters="sRGB"><feFlood flood-color="#fff" result="bg"/><feBlend in="SourceGraphic" in2="bg"/></filter><mask id="mask-3" x="59.2223" y="370.9166" width="569.5554" height="21.5834" maskUnits="userSpaceOnUse"><g class="cls-1"><path class="cls-2" d="M628.7777,381.4617c0,5.96-101.9605,11.0383-287.6441,11.0383S59.2223,387.6684,59.2223,381.7083s96.2278-10.7917,281.9113-10.7917S628.7777,375.5016,628.7777,381.4617Z"/></g></mask><radialGradient id="radial-gradient-2" cx="-730.1648" cy="-23772.0974" r="144.9096" gradientTransform="translate(1914.2194 2021.983) scale(2.1505 0.069)" gradientUnits="userSpaceOnUse"><stop offset="0"/><stop offset="1"/></radialGradient><linearGradient id="linear-gradient-2" x1="346.7471" y1="361.1471" x2="346.7471" y2="1.8462" gradientUnits="userSpaceOnUse"><stop offset="0" stop-color="#9a9a9a"/><stop offset="0.0936" stop-color="#a2a2a2"/><stop offset="0.2383" stop-color="#b8b8b8"/><stop offset="0.415" stop-color="#dbdbdb"/><stop offset="0.447" stop-color="#e2e2e2"/><stop offset="1" stop-color="#c5c5c5"/></linearGradient><linearGradient id="linear-gradient-3" x1="346.7302" y1="18.2526" x2="346.7302" y2="-0.5" gradientUnits="userSpaceOnUse"><stop offset="0" stop-color="#3e3e3e"/><stop offset="0.2791" stop-color="#414141"/><stop offset="0.4461" stop-color="#494949"/><stop offset="0.5837" stop-color="#575757"/><stop offset="0.7052" stop-color="#6b6b6b"/><stop offset="0.8161" stop-color="#868686"/><stop offset="0.9178" stop-color="#a5a5a5"/><stop offset="1" stop-color="#c5c5c5"/></linearGradient><linearGradient id="linear-gradient-4" x1="7.2481" y1="367.6296" x2="344" y2="367.6296" gradientUnits="userSpaceOnUse"><stop offset="0" stop-color="#929292"/><stop offset="0.0139" stop-color="#c1c1c1"/><stop offset="0.0271" stop-color="#b2b2b2"/><stop offset="0.0487" stop-color="#9c9c9c"/><stop offset="0.0707" stop-color="#a4a4a4"/><stop offset="0.0909" stop-color="#b0b0b0"/><stop offset="1" stop-color="#cfcfcf"/></linearGradient><linearGradient id="linear-gradient-5" x1="7.2481" y1="362.2791" x2="680.7519" y2="362.2791" gradientUnits="userSpaceOnUse"><stop offset="0.0055" stop-color="#f7f7f7"/><stop offset="0.0639" stop-color="#d0d0d0"/><stop offset="0.5025" stop-color="#f7f7f7"/><stop offset="0.8664" stop-color="#d0d0d0"/><stop offset="0.8728" stop-color="#d2d2d2"/><stop offset="0.9501" stop-color="#e8e8e8"/><stop offset="1" stop-color="#f0f0f0"/></linearGradient><linearGradient id="linear-gradient-6" x1="344" y1="367.6296" x2="680.7519" y2="367.6296" gradientUnits="userSpaceOnUse"><stop offset="0" stop-color="#cfcfcf"/><stop offset="0.9091" stop-color="#b0b0b0"/><stop offset="0.9293" stop-color="#a4a4a4"/><stop offset="0.9513" stop-color="#9c9c9c"/><stop offset="0.9729" stop-color="#b2b2b2"/><stop offset="0.9861" stop-color="#c1c1c1"/><stop offset="1" stop-color="#929292"/></linearGradient><linearGradient id="linear-gradient-7" x1="7.2481" y1="367.3286" x2="344" y2="367.3286" gradientUnits="userSpaceOnUse"><stop offset="0" stop-color="#666"/><stop offset="0.0139" stop-color="#d5d5d5"/><stop offset="0.021" stop-color="#bebebe"/><stop offset="0.0397" stop-color="#878787"/><stop offset="0.0487" stop-color="#717171"/><stop offset="0.0573" stop-color="#797979"/><stop offset="0.0707" stop-color="#8f8f8f"/><stop offset="0.0871" stop-color="#b3b3b3"/><stop offset="0.0909" stop-color="#bcbcbc"/><stop offset="1" stop-color="#f0f0f0"/></linearGradient><linearGradient id="linear-gradient-8" x1="344" y1="367.3286" x2="680.7519" y2="367.3286" gradientUnits="userSpaceOnUse"><stop offset="0" stop-color="#f0f0f0"/><stop offset="0.9091" stop-color="#bcbcbc"/><stop offset="0.9129" stop-color="#b3b3b3"/><stop offset="0.9293" stop-color="#8f8f8f"/><stop offset="0.9427" stop-color="#797979"/><stop offset="0.9513" stop-color="#717171"/><stop offset="0.9603" stop-color="#878787"/><stop offset="0.979" stop-color="#bebebe"/><stop offset="0.9861" stop-color="#d5d5d5"/><stop offset="1" stop-color="#666"/></linearGradient><linearGradient id="linear-gradient-9" x1="296.0689" y1="365.9298" x2="391.9311" y2="365.9298" gradientUnits="userSpaceOnUse"><stop offset="0" stop-color="#9f9f9f"/><stop offset="0.0395" stop-color="#adadad"/><stop offset="0.514" stop-color="#e5e5e5"/><stop offset="0.9628" stop-color="#adadad"/><stop offset="1" stop-color="#9f9f9f"/></linearGradient><filter id="luminosity-noclip-4" x="295.6909" y="362.0273" width="96.6181" height="8.3804" filterUnits="userSpaceOnUse" color-interpolation-filters="sRGB"><feFlood flood-color="#fff" result="bg"/><feBlend in="SourceGraphic" in2="bg"/></filter><mask id="mask-4" x="295.6909" y="362.0273" width="96.6181" height="8.3804" maskUnits="userSpaceOnUse"><g class="cls-3"><path class="cls-4" d="M391.9344,362.0273a7.8093,7.8093,0,0,1-7.8051,7.8051H303.8707a7.8038,7.8038,0,0,1-7.7985-7.8051h-.3813v.582a7.8039,7.8039,0,0,0,7.8052,7.7984h81.0078a7.8,7.8,0,0,0,7.8052-7.7984v-.582Z"/></g></mask><linearGradient id="linear-gradient-10" x1="295.6909" y1="366.2175" x2="392.3091" y2="366.2175" gradientUnits="userSpaceOnUse"><stop offset="0.0004" stop-color="#f6f6f6"/><stop offset="0.5247" stop-color="#f7f7f7"/><stop offset="1" stop-color="#f6f6f6"/></linearGradient><linearGradient id="linear-gradient-11" x1="344" y1="381.7083" x2="344" y2="372.726" gradientUnits="userSpaceOnUse"><stop offset="0" stop-color="#565656"/><stop offset="0.7389" stop-color="#b9b9b9"/><stop offset="0.8472" stop-color="#b6b6b6"/><stop offset="0.9363" stop-color="#acacac"/><stop offset="1" stop-color="#9f9f9f"/></linearGradient></defs><g class="cls-5"><g id="Layer_1" data-name="Layer 1"><g class="cls-6"><path class="cls-7" d="M628.7777,381.4617c0,5.96-101.9605,11.0383-287.6441,11.0383S59.2223,387.6684,59.2223,381.7083s96.2278-10.7917,281.9113-10.7917S628.7777,375.5016,628.7777,381.4617Z"/></g><path class="cls-8" d="M603.0785,1.8462H90.4526a16.5233,16.5233,0,0,0-16.6348,16.407V361.1471h2.3781V15.9048a13.9635,13.9635,0,0,1,.1642-2.133c.0341-.232.0766-.4612.1249-.69.0482-.2265.0991-.4529.1586-.6766s.1219-.4472.1928-.6653A13.9676,13.9676,0,0,1,79.668,6.73c.1474-.17.3-.3354.459-.4975.0765-.081.156-.1594.2382-.24a14.4714,14.4714,0,0,1,2.3922-1.901c.2891-.1817.5839-.3551.8871-.5172.3-.1622.6093-.3132.9239-.4529l.0029-.0028c.21-.0922.4223-.1789.6348-.2627l.0029-.0029A14.3792,14.3792,0,0,1,90.4185,1.88h512.626a14.32,14.32,0,0,1,6.774,1.6941c.3005.1621.5981.3355.8872.5172.3827.2433.7539.506,1.1139.78l.0028.0027c.1786.14.3543.2824.5244.4278l.0028.0027q.387.3314.7483.6878c.0822.081.1616.1594.238.24.1588.1621.3118.3271.4592.4975a13.8529,13.8529,0,0,1,3.4721,9.175V361.1471h2.4092V17.2216A16.537,16.537,0,0,0,603.0785,1.8462Z"/><path class="cls-9" d="M73.7839,15.9071A16.5233,16.5233,0,0,1,90.4186-.5h512.626a16.5208,16.5208,0,0,1,16.6318,16.4071v1.314A16.5369,16.5369,0,0,0,603.0786,1.8455H90.4527A16.5233,16.5233,0,0,0,73.8179,18.2526Z"/><rect x="76.1959" y="351.5467" width="541.0712" height="9.6004"/><path d="M617.2667,15.9835V351.5467H76.1953V15.9835A14.18,14.18,0,0,1,90.418,1.878H603.044A14.18,14.18,0,0,1,617.2667,15.9835Z"/><polygon points="619.676 361.147 619.676 362.025 617.267 362.025 617.267 362.022 76.196 362.022 76.196 362.025 73.818 362.025 73.818 361.147 619.676 361.147"/><rect class="cls-10" x="7.2481" y="362.5332" width="336.7519" height="10.1928"/><rect class="cls-11" x="7.2481" y="362.0249" width="673.5038" height="0.5083"/><rect class="cls-12" x="344" y="362.5332" width="336.7519" height="10.1928"/><rect class="cls-13" x="7.2481" y="362.5332" width="336.7519" height="9.5909"/><rect class="cls-14" x="344" y="362.5332" width="336.7519" height="9.5909"/><path class="cls-15" d="M391.9311,362.0273a7.81,7.81,0,0,1-7.8051,7.8051H303.8674a7.8038,7.8038,0,0,1-7.7985-7.8051Z"/><g class="cls-16"><path class="cls-17" d="M391.9344,362.0273a7.8093,7.8093,0,0,1-7.8051,7.8051H303.8707a7.8038,7.8038,0,0,1-7.7985-7.8051h-.3813v.582a7.8039,7.8039,0,0,0,7.8052,7.7984h81.0078a7.8,7.8,0,0,0,7.8052-7.7984v-.582Z"/></g><path class="cls-18" d="M7.2481,372.726a300.53,300.53,0,0,0,73.1472,8.9823H607.6047a300.53,300.53,0,0,0,73.1472-8.9823H7.2481Z"/><rect class="cls-19" x="87.3882" y="22.3194" width="518.6829" height="320.9293"/><rect class="cls-20" x="593.9553" y="22.3194" width="12.1158" height="320.9293"/><rect class="cls-20" x="87.3882" y="22.3194" width="12.1158" height="320.9293"/><path class="cls-21" d="M518.1927,73.9179a27.74,27.74,0,0,0-2.9662-7.1523l3.0194-4.5416-4.19-4.19-4.19-4.19-4.5417,3.02a27.7523,27.7523,0,0,0-7.152-2.9666l-1.0755-5.3422h-11.85l-1.0755,5.3422a27.7515,27.7515,0,0,0-7.1521,2.9666l-4.5416-3.02-4.19,4.19-4.19,4.19,3.0194,4.5416a27.7475,27.7475,0,0,0-2.9662,7.1523L458.81,74.9931v11.85l5.3426,1.0751a27.7482,27.7482,0,0,0,2.9662,7.1524l-3.0194,4.5416,4.19,4.19,4.19,4.19,4.5416-3.02a27.7515,27.7515,0,0,0,7.1521,2.9666l1.0755,5.3423h11.85l1.0755-5.3423a27.7523,27.7523,0,0,0,7.152-2.9666l4.5417,3.02,4.19-4.19,4.19-4.19-3.0194-4.5416a27.7412,27.7412,0,0,0,2.9662-7.1524l5.3427-1.0751v-11.85ZM491.172,101.68a20.7621,20.7621,0,1,1,20.7621-20.7621A20.7619,20.7619,0,0,1,491.172,101.68Z"/><path class="cls-21" d="M526.2763,124.3063a12.7024,12.7024,0,0,0-1.36-3.2787l1.3854-2.0823-1.9212-1.9208-1.92-1.9208-2.0824,1.3846a12.7078,12.7078,0,0,0-3.2791-1.36l-.4928-2.4491h-5.4327l-.4935,2.4491a12.7112,12.7112,0,0,0-3.2783,1.36l-2.0824-1.3846-1.92,1.9208-1.9213,1.9208,1.3847,2.0823a12.7342,12.7342,0,0,0-1.36,3.2787l-2.4483.4928v5.4326l2.4483.4932a12.7407,12.7407,0,0,0,1.36,3.2788l-1.3847,2.0823,1.9213,1.92,1.92,1.9212,2.0824-1.3845a12.7107,12.7107,0,0,0,3.2783,1.36l.4935,2.4492h5.4327l.4928-2.4492a12.7073,12.7073,0,0,0,3.2791-1.36l2.0824,1.3845,1.92-1.9212,1.9212-1.92-1.3854-2.0823a12.7089,12.7089,0,0,0,1.36-3.2788l2.4492-.4932v-5.4326ZM513.89,137.0336a9.5182,9.5182,0,1,1,9.5183-9.5182A9.5183,9.5183,0,0,1,513.89,137.0336Z"/><rect class="cls-21" x="354.1086" y="224.5417" width="29.148" height="88.5325" transform="translate(737.3652 537.6159) rotate(180)"/><path class="cls-21" d="M258.8177,89.6322H478.5472a15.9814,15.9814,0,0,1,15.9814,15.9814V251.207a15.9814,15.9814,0,0,1-15.9814,15.9814H258.8177a15.9815,15.9815,0,0,1-15.9815-15.9815V105.6137A15.9815,15.9815,0,0,1,258.8177,89.6322Z" transform="translate(737.3648 356.8206) rotate(180)"/><rect class="cls-19" x="252.6936" y="70.7343" width="231.9781" height="168.6293" transform="translate(737.3653 310.0978) rotate(180)"/><rect class="cls-22" x="252.6936" y="70.7343" width="231.9781" height="20.3674" transform="translate(737.3653 161.8359) rotate(180)"/><path class="cls-20" d="M360.564,252.096a8.1184,8.1184,0,1,0,8.1188-8.1189A8.1184,8.1184,0,0,0,360.564,252.096Z"/><path class="cls-23" d="M331.1927,105.5878h68.8851a3.0178,3.0178,0,0,1,3.0178,3.0178v0a3.0174,3.0174,0,0,1-3.0174,3.0174H331.1927a3.0174,3.0174,0,0,1-3.0174-3.0174v0a3.0174,3.0174,0,0,1,3.0174-3.0174Z" transform="translate(731.2709 217.211) rotate(-180)"/><path class="cls-23" d="M331.1927,116.473h68.885a3.0179,3.0179,0,0,1,3.0179,3.0179v0a3.0175,3.0175,0,0,1-3.0175,3.0175H331.1927a3.0175,3.0175,0,0,1-3.0175-3.0175v0a3.0175,3.0175,0,0,1,3.0175-3.0175Z" transform="translate(731.2709 238.9813) rotate(-180)"/><path class="cls-23" d="M331.1925,127.3578H400.078a3.0177,3.0177,0,0,1,3.0177,3.0177v0a3.0177,3.0177,0,0,1-3.0177,3.0177H331.1925a3.0172,3.0172,0,0,1-3.0172-3.0172v-.0009a3.0172,3.0172,0,0,1,3.0172-3.0172Z" transform="translate(731.2709 260.7509) rotate(180)"/><path class="cls-23" d="M363.54,227.4986h-86.957a13.1647,13.1647,0,0,1-13.15-13.15V161.4538a13.165,13.165,0,0,1,13.15-13.15H363.54a13.1648,13.1648,0,0,1,13.1494,13.15v52.8947A13.1645,13.1645,0,0,1,363.54,227.4986Zm-86.957-77.5468a11.5147,11.5147,0,0,0-11.5016,11.502v52.8947A11.5147,11.5147,0,0,0,276.5834,225.85H363.54a11.5146,11.5146,0,0,0,11.5012-11.5019V161.4538a11.5146,11.5146,0,0,0-11.5012-11.502Z"/><rect class="cls-23" x="277.6539" y="155.5186" width="84.8156" height="12.7199" rx="6.36" transform="translate(640.1234 323.7571) rotate(-180)"/><rect class="cls-21" x="303.1164" y="309.7324" width="131.1325" height="6.6834"/><path class="cls-24" d="M458.5834,165.683a18.88,18.88,0,0,1-12.9272,17.9182c-.1127.0383-.2268.0751-.3411.11a18.8788,18.8788,0,1,1,13.2683-18.0285Z"/><path class="cls-25" d="M435.1985,163.69s-1.2891-8.3406,5.6188-8.1865,6.8156,4.2781,6.692,8.3711-2.77,3.7856.2159,9.48-2.5853,5.6939-2.5853,5.6939l-4.3226-5.94Z"/><path class="cls-26" d="M440.0617,156.304s-4.6786.7384-4.8632,7.3862,1.2626,8.0637,5.3552,6.6787,5.3865-8.34,5.4787-9.4177S446.3711,155.5037,440.0617,156.304Z"/><path class="cls-27" d="M448.2767,179.4264a4.5234,4.5234,0,0,1-2.62,4.1748c-.1127.0383-.2268.0751-.3411.11a18.95,18.95,0,0,1-13.9972-1.1155c-.57-1.1354.2549-2.7468,1.9289-5.2206,1.1492-1.7,2.2772-3.4352,4.2053-4.2788,2.845-.4534,5.8574-.48,7.9788.7188C447.1221,174.7713,448.2493,176.5063,448.2767,179.4264Z"/><path class="cls-27" d="M434.1628,177.2753l-2.15,3.39c.0046-.0184.1478-.5316.391-2.0178.0463-.2824.0963-.6.1495-.9551a2.2452,2.2452,0,0,1,.0673-.3125v0c.9207-2.1226,3.7915-3.7012,3.8955-3.754Z"/><path class="cls-26" d="M449.2357,181.9812a18.8378,18.8378,0,0,1-3.5795,1.62c-.1127.0383-.2268.0751-.3411.11-.4771-1.2317-.8909-2.2974-.9809-2.5732-.0258-.08-.0876-.23-.1713-.4317a14.3144,14.3144,0,0,1-1.2664-4.6786c-.007-1.0572.3418-1.9243,1.4056-2.1707a2.7694,2.7694,0,0,1,1.1288-.0419,3.3126,3.3126,0,0,1,2.2677,2.2283c.0071.0164.0125.032.018.0476a7.3041,7.3041,0,0,1,.4239,1.5082s.0189.0743.0532.2077c.0665.264.194.7646.36,1.4213C448.7429,179.9818,448.9814,180.94,449.2357,181.9812Z"/><path class="cls-26" d="M443.1859,167.3745c-.406.7659-.8338,5.5194-.8338,5.5194s-5.7221,2.1625-5.1362.9391a4.6857,4.6857,0,0,0,.3489-1.8965,9.1634,9.1634,0,0,0-.0634-1.1546c-.0148-.1251-.0266-.1971-.0266-.1971S443.5911,166.6088,443.1859,167.3745Z"/><path class="cls-25" d="M438.1538,161.0744s2.4,3.9085,4.5855,5.4475,1.0771,2.77,1.0771,2.77,5.7017-12.0034.2808-12.8341-8.7446-.8926-8.8987,7.2325C435.1985,163.69,437.661,161.0126,438.1538,161.0744Z"/><path class="cls-28" d="M440.7641,170.2923c-.8784,1.2954-3.1985,1.6442-3.1985,1.6442h-.0008a9.1634,9.1634,0,0,0-.0634-1.1546A6.54,6.54,0,0,0,440.7641,170.2923Z"/><path class="cls-29" d="M432.6305,177.3543H432.63a4.7928,4.7928,0,0,0-.2262,1.293l.8425-1.2719s1.5051-2.1582,2.0213-2.72a7.9343,7.9343,0,0,1,1.2626-1.054S433.53,175.0263,432.6305,177.3543Z"/><path class="cls-27" d="M444.0158,180.5724a32.29,32.29,0,0,1,4.7591-1.5242s-.7384-5.8973-4.3461-5.2723S444.0158,180.5724,444.0158,180.5724Z"/><path class="cls-26" d="M437.4521,173.0966s-2.6956,4.1458-1.7835,4.5076,5.8527-.483,7.9538-4.4208A7.4013,7.4013,0,0,0,437.4521,173.0966Z"/><rect class="cls-30" x="209.4789" y="264.3132" width="29.415" height="2.6941" transform="translate(-2.0069 1.7066) rotate(-0.4342)"/><rect class="cls-30" x="227.2187" y="251.0906" width="29.4148" height="2.6939" transform="translate(-70.227 409.9603) rotate(-72.9951)"/><rect class="cls-22" x="289.4621" y="270.4095" width="2.295" height="70.7124"/><rect class="cls-22" x="203.3519" y="266.3889" width="100.8784" height="4.0207" transform="translate(507.5821 536.7984) rotate(180)"/><rect class="cls-22" x="216.2587" y="270.4095" width="2.2951" height="70.714" transform="translate(434.8124 611.5331) rotate(180)"/><rect class="cls-22" x="170.1491" y="294.6925" width="2.7593" height="34.8266"/><path class="cls-20" d="M206.1628,325.4116a14.8461,14.8461,0,0,0,.5265,3.3323c.366,1.3141,1.1021,6.4049,2.0416,7.1168s3.969,2.5985,3.5243,4.5369-.8217,3.2908-4.093,2.1425-5.4588-1.8046-6.087-4.6761a18.0148,18.0148,0,0,0-2.4186-5.4851l-2.3648,5.8817-1.2472-.5023s1.886-6.3524,1.7237-6.9188.8643-5.6141,4.8212-6.8641S206.1628,325.4116,206.1628,325.4116Z"/><path class="cls-20" d="M228.0157,327.2671a14.8359,14.8359,0,0,0,1.7314,2.8941c.83,1.0835,3.4118,5.5313,4.5491,5.841s4.6524.9309,4.9625,2.8951.4651,3.36-2.9983,3.5154-5.7376.3613-7.3917-2.0683a18.0024,18.0024,0,0,0-4.29-4.1865v6.3385h-1.344s-.62-6.5966-.982-7.062-1.2927-5.5312,1.9126-8.1673S228.0157,327.2671,228.0157,327.2671Z"/><path class="cls-26" d="M192.8,241.129s.77-2.73.8448-3.0867a5.7359,5.7359,0,0,1,1.7107-1.8007,6.6441,6.6441,0,0,1,2.6561-1.2711,1.0242,1.0242,0,0,1,.733.44,1.9671,1.9671,0,0,1,.3614.9293,1.1955,1.1955,0,0,1,.6336.9652,1.0407,1.0407,0,0,1,.4642,1.0615s.5551.3364.4275.8621a7.9585,7.9585,0,0,0-.923,1.05,16.5965,16.5965,0,0,1-3.5651,2.79S193.9048,244.721,192.8,241.129Z"/><path class="cls-31" d="M196.15,238.9654a5.8587,5.8587,0,0,1,.2617,1.5191c-.07.3692,2.6244.4231,2.6244.4231S197.5571,238.6,196.15,238.9654Z"/><path class="cls-20" d="M165.8151,245.8224c1.0881-1.7616,2.5392-2.5548,7.1489.6336s3.5271,2.5634,4.63,3.5741a51.3549,51.3549,0,0,0,5.94,3.538,43.24,43.24,0,0,0,4.18-4.8045c1.5273-2.2481,4.7153-8.2557,4.7153-8.2557l4.47,3.3277s-8.6844,15.7439-10.498,16.9079-7.2787-.783-10.1237-1.9814-5.857-2.75-7.1562-3.0726S162.9776,250.4173,165.8151,245.8224Z"/><rect class="cls-32" x="192.841" y="232.1217" width="10.1019" height="0.8544" transform="translate(-71.6623 376.0087) rotate(-77.6256)"/><path class="cls-33" d="M197.7663,235.155s-2.2533,1.9291-1.9876,2.33a.7558.7558,0,0,0,.607.3872l-.5676,1.2149s.0786,1.0161,1.1625.6335c0,0-.0251.9576.9774.4632,0,0,.2651.6382.77.492a9.88,9.88,0,0,0,1.9032-1.4479s.1717-.4068-.4275-.8621a1.0238,1.0238,0,0,0-.4642-1.0615,1.1252,1.1252,0,0,0-.6336-.9652s-.0266-1.2914-1.0944-1.3689C198.0115,234.9705,197.8606,235.0729,197.7663,235.155Z"/><path class="cls-26" d="M193.676,238.072a10.0909,10.0909,0,0,1,2.6611-1.749c.2605-.0868.5288-.1236.7076.086s.1029.7337-.521,1.3588a7.4491,7.4491,0,0,0-1.1436,1.7177S194.551,239.94,193.676,238.072Z"/><path class="cls-20" d="M187.3031,255.3852a10.3668,10.3668,0,0,0-.1615-5.8362,7.6284,7.6284,0,0,1-.7478,4.51C185.5576,255.418,187.3031,255.3852,187.3031,255.3852Z"/><path class="cls-34" d="M203.7719,255.8944s2.4332-18.03,6.6759-25.8919h-6.239s-6.9881,12.3132-5.6779,24.7491Z"/><path class="cls-26" d="M205.2656,242.3962s.7118-1.3267.8831-1.76.8707.3184.7654.8745S205.2656,242.3962,205.2656,242.3962Z"/><path class="cls-26" d="M210.7983,245.411a3.0884,3.0884,0,0,1-.4091.8941s-.4357.4122-.7279.725a2.9253,2.9253,0,0,0-.2151.25,5.65,5.65,0,0,1-1.1409,1.3915c-.6226.5015-3.0026,2.0495-3.0026,2.0495l-1.6791-1.7936L202.28,247.53s1.1361-4.2694,1.663-4.8037a1.7139,1.7139,0,0,1,.158-.1439,7.101,7.101,0,0,1,1.3072-.693c.1035-.0681,1.18-.67,1.5237-.5367a1.2047,1.2047,0,0,1,.8073.8487,2.8849,2.8849,0,0,1,1.2246,1.0037,1.79,1.79,0,0,1,1.0274,1.2007S210.8233,244.8524,210.7983,245.411Z"/><path class="cls-26" d="M221.8434,291.9719s-4.1227,9.2757-7.0651,15.8949c-.494,1.1147-.9559,2.1527-1.3587,3.0586-.4717,1.0623-.8636,1.9415-1.1331,2.5493-1.873,4.2139-6.48,13.4027-6.48,13.4027s-3.4665.1323-3.6675-2.8113c0,0,3.3261-6.3775,3.3261-10.859s.6015-17.6831,4.8827-20.5367C215.5683,289.191,218.9585,288.5316,221.8434,291.9719Z"/><path class="cls-26" d="M183.7237,274.3419a4.7879,4.7879,0,0,0,1.6055,1.07c.7356.201,13.0441,1.1381,18.73,3.0107s13.2447,3.0773,14.6492,4.6826,3.7462,10.4349,3.6793,12.1074,4.9969,29.8547,5.6278,32.0544c.3344,1.1654-4.58.72-4.58.72s-6.9822-16.653-8.4732-19.73c-2.74-5.6523-2.8766-12.5759-3.88-13.6468s-12.1746-3.4778-18.5964-3.4778-20.8035.5351-22.3422-.3348-11.1711-7.2247-7.1574-15.72S183.7237,274.3419,183.7237,274.3419Z"/><path class="cls-20" d="M211.5016,280.4253,201.3129,300.03s-3.0687-7.2749-8.4227-8.5271-26.7215-.58-26.7215-.58-9.8049-12.4031-1.4084-18.91,18.2018,1.0239,18.2018,1.0239,2.026,2.1958,3.0057,2.2443C193.0925,275.6357,200.69,276.9623,211.5016,280.4253Z"/><path class="cls-26" d="M234.2962,336.0022s-3.1016.776-4.2906,0c-1.1885-.7744-5.2307-7.6064-6.5695-8.0155,0,0,1.2973-2.6322,4.58-.72C228.0157,327.2671,233.4174,334.8657,234.2962,336.0022Z"/><path class="cls-26" d="M208.7309,335.8607s-3.1669-.4381-3.9808-1.6013-2.0154-9.009-3.1051-9.8882c0,0,2.1855-1.9587,4.5178,1.04C206.1628,325.4116,208.34,334.4768,208.7309,335.8607Z"/><path class="cls-26" d="M176.3722,212.7746a8.2891,8.2891,0,0,1,8.71,7.5971,20.18,20.18,0,0,1-.62,3.1219c-.4243,1.3727.8066,5.4232.4854,5.6235a8.9726,8.9726,0,0,1-1.6485.4544s-1.4273,4.4243-2.9807,4.3868a12.879,12.879,0,0,1-10.2027-6.757C167.3471,221.6976,166.4918,213.2525,176.3722,212.7746Z"/><path class="cls-26" d="M178.2206,231.94s-.1908.62-.4079,1.54c-.1111.4709-.2288,1.0185-.3313,1.602a10.9136,10.9136,0,0,0-.0289,4.7576s-3.434,1.19-6.1473-3.664c0,0,1.1652-5.2285-.3488-8.4C169.4424,224.6067,178.2206,231.94,178.2206,231.94Z"/><path class="cls-35" d="M185.0827,220.3717s-3.7539,3.37-7.7249,3.1031c-4.0328-.2715-6.65,4.7677-6.65,4.7677s-6.0025-7.5329-1.1636-13.6234C174.3825,208.5271,185.9408,212.8129,185.0827,220.3717Z"/><path class="cls-26" d="M175.5294,223.445a1.2134,1.2134,0,0,0-2.1211-.8659c-1.2508,1.0435.431,4.6715,1.4557,4.3164S175.5516,224.2335,175.5294,223.445Z"/><path class="cls-28" d="M177.8127,233.48c-.1111.4709-.2288,1.0185-.3313,1.602a17.0328,17.0328,0,0,1-4.7943-4.4837A19.3569,19.3569,0,0,0,177.8127,233.48Z"/><path class="cls-20" d="M187.122,252.03c-.7227,3.35-2.6247,3.5254-2.5094,6s.8542,2.687-.4255,6.5887a19.2155,19.2155,0,0,0-.5843,2.3115c-.018.0947-.0372.19-.0532.2855-.0837.4506-.1545.9042-.2163,1.3517-.1138.8284-.196,1.6372-.2531,2.3757a4.9265,4.9265,0,0,0,1.2677,3.412s-12.5209,7.5017-21.1168,6.4488c0,0,2.2254-9.3539,3.4512-12.5673s.8553-18.06-.0465-21.2464c-1.3307-4.7019,1.3278-11.7514,4.962-12.67l5.6352,2.6095s5.6764,6.7788,6.95,7.802S187.8561,248.6322,187.122,252.03Z"/><path class="cls-20" d="M168.4959,238.3036c1.5914-1.3252,3.8943-3.5936,7.2532.8932s5.8026,7.3781,6.5286,8.6868,7.04,10.424,7.04,10.424,3.3542-3.1141,5.2726-4.5753c2.1621-1.6473,8.0539-7.7863,8.0539-7.7863l3.8948,4.318s-13.51,14.9922-15.6,15.5195-7.9405-4.7365-10.2579-6.7773-8.8189-9.47-9.9484-10.1886S164.3462,241.76,168.4959,238.3036Z"/><path class="cls-28" d="M214.7783,307.8668c-.494,1.1147-.9559,2.1527-1.3587,3.0586-1.5164-4.8757-1.3916-13.0234-1.3916-13.0234A46.3067,46.3067,0,0,0,214.7783,307.8668Z"/><rect class="cls-35" x="149.4946" y="290.9221" width="43.3956" height="4.7756"/><path class="cls-35" d="M172.0758,275.69s-1.094,4.4244,4.057,5.43,11.486,2.2888,11.486,10.2355H169.7537Z"/><polygon class="cls-26" points="198.562 227.524 199.299 226.165 199.396 227.708 198.562 227.524"/><path class="cls-35" d="M149.4946,295.6977l-15.171-63.7607s27.4271-4.2851,30.6945,8.0311,8.6433,48.9014,15.1784,51.1637S149.4946,295.6977,149.4946,295.6977Z"/><path class="cls-20" d="M184.7722,262.4894s-.28,1.17-.578,2.1387l-6.6729-8.6538Z"/><path class="cls-35" d="M168.0438,222.8278s2.638,6.969,1.9207,8.8722a5.8793,5.8793,0,0,0,3.3656-6.3244C172.5788,220.81,168.0438,222.8278,168.0438,222.8278Z"/><polygon class="cls-20" points="177.558 237.317 177.558 235.938 171.703 233.087 169.677 235.427 177.558 237.317"/><path class="cls-22" d="M198.3134,338.51a2.2687,2.2687,0,1,1-2.2688-2.2685A2.2682,2.2682,0,0,1,198.3134,338.51Z"/><polygon class="cls-22" points="147.226 336.262 147.801 337.878 172.076 330.357 170.912 327.084 147.226 336.262"/><polygon class="cls-22" points="196.045 336.262 195.47 337.878 171.195 330.357 172.262 326.879 196.045 336.262"/><polygon class="cls-22" points="178.941 337.705 178.941 339.586 171.195 330.357 172.262 326.879 178.941 337.705"/><path class="cls-22" d="M179.1343,338.51a2.2687,2.2687,0,1,1-2.2689-2.2685A2.2684,2.2684,0,0,1,179.1343,338.51Z"/><circle class="cls-22" cx="147.2262" cy="338.5101" r="2.2685"/><path class="cls-24" d="M465.5554,110.6137a24.4645,24.4645,0,0,1-5.7548,15.8,24.7473,24.7473,0,0,1-2.7449,2.7828c-.2816.2433-.57.4819-.8621.7111q-.4962.392-1.0114.7584a24.4229,24.4229,0,0,1-11.17,4.3241q-1.09.135-2.21.1714-.4013.0128-.8065.0125-1.1921,0-2.3552-.1115a24.5548,24.5548,0,0,1-15.0745-7.1453c-.1509-.1522-.3-.3067-.4467-.4627a23.7251,23.7251,0,0,1-1.559-1.8241,24.5606,24.5606,0,1,1,43.9952-15.0166Z"/><path class="cls-36" d="M456.9939,124.1659l-1.8117,6.5a24.4229,24.4229,0,0,1-11.17,4.3241q-1.09.135-2.21.1714-.4013.0128-.8065.0125-1.1921,0-2.3552-.1115A24.4634,24.4634,0,0,1,426.0456,130.1c-.3473-2.1488-.72-4.5272-1.049-6.7519,1.8054-.6719,7.5509-2.6255,11.1766-3.8517.0508-.0175.1017-.034.151-.05.08-.0281.1579-.0547.2354-.08.2151-.0724.42-.1424.6156-.2081.1987-.0672.388-.1306.564-.1916.7423-.25,1.2664-.4259,1.4534-.4878l.0031-.0015c.0485-.0164.0735-.0255.0735-.0255l.0423.0028,4.8757.3649.8174.061.255.0192s.0375.0086.1111.0278c.2941.0746,1.1483.2991,2.2794.6437l.0055.0016C450.5428,120.4565,455.2276,122.1348,456.9939,124.1659Z"/><path class="cls-37" d="M442.2738,98.4179s5.8472.9867,4.8553,10.1412-6.1522,8.3472-6.4987,8.3339-5.191.1107-5.4467-11.0826C435.1837,105.81,435.1094,97.5348,442.2738,98.4179Z"/><path class="cls-37" d="M444.8357,114.2394s-.2011,3.7676.154,4.5873c.3568.82-4.6949,3.4149-7.8333.46a32.3889,32.3889,0,0,0,.4373-5.5726C437.3965,112.26,444.8357,114.2394,444.8357,114.2394Z"/><path class="cls-37" d="M447.2489,105.9715s.6484-.6782.876.018-1.0364,3.7817-.9574,3.9213c0,0-.12.2679-.2723.1182A33.5355,33.5355,0,0,1,447.2489,105.9715Z"/><path class="cls-37" d="M435.2509,105.7247s-.6211-.7044-.8769-.018.679,3.7672.7956,3.9577c0,0,.201.3161.36.173A33.8585,33.8585,0,0,0,435.2509,105.7247Z"/><path class="cls-35" d="M447.6227,105.1936c-.2026,1.2528-.3919,2.1836-.3919,2.1836l-.851,1.1112a22.4635,22.4635,0,0,0-.08-2.8434c-.0493-.1464-.1072-.4053-.1666-.6861-.0986-.4631-.198-.986-.2668-1.16-.11-.2785-5.0118-1.71-9.3782.3,0,0,.0375.3781.0344.8-.0008.49-.0547,1.04-.28,1.1229-.4185.1529-.2441,2.8759-.2441,2.8759l-.68-.7854s-.1972-1.4225-.39-3.0574l-.0015-.0117c-.0438-.3814-.0892-.7732-.1314-1.1624-.0978-1.6446.0649-4.63,2.2067-6.3846,1.4447-.6184,3.7516-1.144,7.597.0332a2.6468,2.6468,0,0,1,1.13.2969C448.1233,100.4623,447.6227,105.1936,447.6227,105.1936Z"/><path class="cls-38" d="M437.995,115.6692a3.7238,3.7238,0,0,0,3.1016,1.2473,4.22,4.22,0,0,0,3.1093-1.18,3.7831,3.7831,0,0,1-3.1195,2.1241A3.826,3.826,0,0,1,437.995,115.6692Z"/><path class="cls-37" d="M436.56,119.3653a6.368,6.368,0,0,0,4.54,2.9854c1.8867.1627,3.5192-2.2274,4.2843-3.4012A11.4218,11.4218,0,0,0,436.56,119.3653Z"/><path class="cls-34" d="M444.8426,118.0868a16.22,16.22,0,0,1-3.7421,3.2419l1.584,2.44,2.7-4.8194Z"/><path class="cls-34" d="M437.2754,118.4516a10.8774,10.8774,0,0,0,3.8251,2.8771l-1.7382,2.5137-3.0381-4.3969Z"/><path class="cls-39" d="M441.1005,121.3287l1.3571,2.0651a2.8245,2.8245,0,0,1-2.75-.0512Z"/><path class="cls-30" d="M458.5623,123.7818s-.0133.0469-.0392.1357c-.1494.53-.7219,2.5685-1.4674,5.2789-.2816.2433-.57.4819-.8621.7111q-.4962.392-1.0114.7584a24.4229,24.4229,0,0,1-11.17,4.3241c.3637-8.5016,1.3729-16.0409,1.3729-16.0409q1.1943.3139,2.2653.6223l.0055.0016a52.0582,52.0582,0,0,1,10.47,3.9542.2119.2119,0,0,1,.0234.0125C458.4308,123.6969,458.5623,123.7818,458.5623,123.7818Z"/><path class="cls-30" d="M436.0848,134.6819a24.5721,24.5721,0,0,1-12.5189-6.7648c-.1509-.1522-.3-.3067-.4467-.4627-.43-1.8253-.7157-3.0171-.7345-3.0945l-.0007-.004s3.0389-1.9966,13.7892-4.8654v.0062C436.1732,119.7428,436.1794,126.6393,436.0848,134.6819Z"/><path class="cls-39" d="M441.878,123.6211c-.1,2.2387-.11,6.5832-.0759,11.54q-.4013.0128-.8065.0125-1.1921,0-2.3552-.1115a75.2871,75.2871,0,0,1,1.6317-11.448c.1189-.4955.1916-.7427.1916-.7427l1.4409.2382C441.8944,123.2659,441.8858,123.4356,441.878,123.6211Z"/><path class="cls-30" d="M459.8006,126.4136a24.7473,24.7473,0,0,1-2.7449,2.7828c-.2816.2433-.57.4819-.8621.7111l1.9322-6.38.0007-.0027a.1664.1664,0,0,1,.0227.0152,1.5925,1.5925,0,0,1,.3739.3778A11.9866,11.9866,0,0,1,459.8006,126.4136Z"/><path class="cls-30" d="M423.5659,127.9171c-.1509-.1522-.3-.3067-.4467-.4627a23.7251,23.7251,0,0,1-1.559-1.8241,2.8371,2.8371,0,0,1,.8238-1.2744l.0007.004Z"/><rect class="cls-40" x="262.3823" y="77.0699" width="33.0869" height="7.6964" rx="3.4541"/><path class="cls-41" d="M276.0652,135.1711a15.8915,15.8915,0,0,0,20.9865-14.8518c.0051-.3567-.0023-.713-.02-1.0643a15.8925,15.8925,0,1,0-20.9662,15.9161Zm-6.8184-15.2093a11.917,11.917,0,0,1,23.1162-3.9159l.0031.0066a11.8893,11.8893,0,0,1,.6943,3.418c.0137.264.0179.53.016.7983a11.9158,11.9158,0,1,1-23.83-.307Z"/><path class="cls-21" d="M290.5826,127.4106l3.1446,2.4354a15.9142,15.9142,0,0,1-17.6624,5.3255l1.2758-3.7676a11.9341,11.9341,0,0,0,13.242-3.9933Z"/><path class="cls-42" d="M293.0592,119.47l3.9722-.2155c.0184.3517.0258.708.0207,1.0651a15.8174,15.8174,0,0,1-3.3249,9.5267l-3.1446-2.4354a11.8643,11.8643,0,0,0,2.493-7.1422Q293.08,119.866,293.0592,119.47Z"/><path class="cls-42" d="M293.06,119.4705a11.8893,11.8893,0,0,0-.6943-3.418l-.0031-.0066,3.7391-1.3584a15.81,15.81,0,0,1,.9293,4.5675Z"/><path class="cls-21" d="M271.6021,107.4194a15.8957,15.8957,0,0,1,24.5,7.2681l-3.736,1.365-.0031-.0066a11.9147,11.9147,0,0,0-18.429-5.4017Z"/><path class="cls-21" d="M390.0166,149.1277h8.454a4.625,4.625,0,0,1,4.625,4.625v8.4536a4.6245,4.6245,0,0,1-4.6245,4.6245h-8.454a4.625,4.625,0,0,1-4.625-4.625v-8.4536A4.6245,4.6245,0,0,1,390.0166,149.1277Z"/><path class="cls-43" d="M393.6838,161.8786l-4.4759-3.9018a.8816.8816,0,0,1,1.1585-1.3291l3.1649,2.7594,4.5126-5.0341a.8816.8816,0,1,1,1.3126,1.1773Z"/><path class="cls-21" d="M390.0166,171.8137h8.454a4.625,4.625,0,0,1,4.625,4.625v8.4533a4.6245,4.6245,0,0,1-4.6245,4.6245h-8.4541a4.625,4.625,0,0,1-4.625-4.625v-8.4532A4.6245,4.6245,0,0,1,390.0166,171.8137Z"/><path class="cls-43" d="M393.6838,184.5645l-4.4759-3.9017a.8816.8816,0,1,1,1.1585-1.3291l3.1649,2.7589,4.5126-5.0337a.8815.8815,0,1,1,1.3126,1.177Z"/><rect class="cls-21" x="385.3921" y="194.4993" width="17.7035" height="17.7035" rx="4.625"/><path d="M329.3064,317.0323s.5338,3.5881.892,5.1182,3.6672,5.92,3.6089,6.6669-1.4589,1.6263-2.1629,1.0247-5.38-5.4052-6.3794-7.4633-4.3059-4.7411-4.6442-5.6547,3.9-3.5874,4.9915-4.0137S329.3064,317.0323,329.3064,317.0323Z"/><path class="cls-26" d="M321.0194,253.19a13.2854,13.2854,0,0,0,.76,2.7112,19.9378,19.9378,0,0,1,1.28,2.85c.0879.2988.6226,2.4476.7133,2.719s-.52.6962-.9391.122a18.071,18.071,0,0,1-.9011-2.1965c-.1853-.449-.7552-1.8688-.9093-1.61a16.7752,16.7752,0,0,0-.142,2.6533,15.95,15.95,0,0,0,.4318,2.62c.1459.6235.9751,3.2377.6423,3.3785s-.6138.1025-1.0428-.5992c0,0-.68.38-1.0771-.48,0,0-.6086.2206-.9853-.9011a1.5115,1.5115,0,0,1-.6-.64,24.55,24.55,0,0,1-1.1448-5.2441c.0086-1.4018.3379-2.3795.278-3.3691a26.4614,26.4614,0,0,0-.5671-3.1077Z"/><polygon class="cls-26" points="326.886 312.148 325.612 312.71 329.306 317.032 330.53 315.677 326.886 312.148"/><path d="M339.7965,321.2039a13.5878,13.5878,0,0,1-1.5156,2.7676c-.6934.7861-3.3479,2.19-3.362,4.5236-.0157,2.5305,4.4747,1.8281,6.2308,1.7358s1.8891-1.4448,2.6284-2.877,1.4846-1.19,1.6235-2.3459a14.7135,14.7135,0,0,0-.5663-3.7415Z"/><path class="cls-26" d="M339.72,320.4718l-.1284,1.2007a9.1341,9.1341,0,0,0,5.3732.1032l-.1455-1.64Z"/><path d="M355.0383,289.981c0-3.1187-2.2771-30.3365-2.1734-31.3762.0688-.6781-.6556-7.1941-1.1683-11.6458l-.0133-.1134c0-.0094-.0023-.0188-.0023-.0274-.1456-1.25-.2715-2.3287-.356-3.0515-.0395-.3348-.07-.5945-.0891-.7587-.0169-.1362-.0246-.2081-.0246-.2081s-14.69-2.8966-22.3058-.16c-.3176.115-.6231.2385-.9149.3731l-.0516.3731c-.0767.5633-.2355,1.7374-.4474,3.3332q-.054.4035-.1127.8417c-1.0838,8.2064-.3876,17.1246,1.51,26.2548,1.8613,8.9558,2.8865,15.6541,3.0777,16.955.2527,1.7067.9993,6.4026,1.8265,11.552-4.0433,4.9867-7.49,9.2264-7.2329,9.6473.6387,1.0419,6.3111,6.9149,6.6232,5.8753,0,0,1.0243-1.16,2.6287-3.0085.51,3.15.8593,5.3.8593,5.3s6.2179,1.4846,8.506.1329c0,0-.8992-6.832-1.8375-14.26C349.048,299.1755,355.0383,291.6152,355.0383,289.981Zm-13.7876-2.2528c-.0775-4.1881-1.9411-27.6582-1.744-27.6582.9172,0,6.0814,22.3508,6.2731,25.4961.0395.6438-.7662,2.0854-2.0675,3.9816-.5858.8542-1.2719,1.7991-2.0267,2.8059l-.0012.0007C341.4278,290.0546,341.262,288.3626,341.2507,287.7282Z"/><path class="cls-36" d="M357.4914,203.8689l-3.95,14.1717c-.1353.4592-.2969,1.0247-.4689,1.6825l-.0067.0251-.0047.0172A55.6755,55.6755,0,0,0,351.343,230.42c-.1647,2.9162.3763,14.6411.3763,14.6411a39.4045,39.4045,0,0,1-14.9219,1.6653s-9.6207-.2244-8.8361-6.1233c2.0761-15.6118.0457-22.0488-.2261-23.6164,0,0-1.3055-7.583-2.2407-13.9362,2.7074-1.0075,14.2719-4.896,14.2719-4.896l5.9907.4481S354.8611,200.8448,357.4914,203.8689Z"/><path class="cls-37" d="M342.7713,178.1208s5.8476.9865,4.8557,10.1409-6.153,8.3473-6.4987,8.3344-5.1914.1106-5.4471-11.0828C335.6812,185.5133,335.6064,177.2377,342.7713,178.1208Z"/><path class="cls-37" d="M345.3336,193.9423s-.2019,3.7681.154,4.5878-4.6954,3.4145-7.834.4592a32.372,32.372,0,0,0,.4376-5.5731C337.8941,191.9621,345.3336,193.9423,345.3336,193.9423Z"/><path class="cls-37" d="M347.746,185.6741s.6488-.6778.8764.018-1.0364,3.7821-.9574,3.9217c0,0-.12.2679-.2726.1181A33.6019,33.6019,0,0,1,347.746,185.6741Z"/><path class="cls-37" d="M335.7485,185.4277s-.6207-.7044-.877-.018.679,3.7673.7956,3.9574c0,0,.2014.3164.36.1728A33.7772,33.7772,0,0,0,335.7485,185.4277Z"/><path class="cls-35" d="M348.12,184.8961c-.2019,1.2528-.392,2.1837-.392,2.1837l-.851,1.1115a22.3884,22.3884,0,0,0-.08-2.8434c-.0493-.1462-.1072-.4056-.1666-.686-.0978-.4631-.1976-.986-.2664-1.16-.11-.2781-5.0118-1.71-9.3778.3,0,0,.0372.3782.0344.8-.0015.49-.0555,1.04-.28,1.123-.4185.1529-.2437,2.8758-.2437,2.8758l-.68-.7857s-.1972-1.4221-.3908-3.057l-.0015-.0117c-.0438-.3814-.0888-.7736-.1314-1.1625-.0974-1.6446.0653-4.63,2.2063-6.3845,1.4447-.6187,3.752-1.1444,7.5978.0332a2.6467,2.6467,0,0,1,1.1291.2968C348.6205,180.1652,348.12,184.8961,348.12,184.8961Z"/><path class="cls-38" d="M338.4925,195.3722a3.7229,3.7229,0,0,0,3.1016,1.2469,4.219,4.219,0,0,0,3.1093-1.1792,3.7842,3.7842,0,0,1-3.1195,2.1242A3.8273,3.8273,0,0,1,338.4925,195.3722Z"/><path class="cls-37" d="M337.0575,199.0683a6.3692,6.3692,0,0,0,4.5405,2.985c1.8864.1635,3.5192-2.227,4.2842-3.4011A11.4232,11.4232,0,0,0,337.0575,199.0683Z"/><path class="cls-34" d="M345.34,197.7893a16.216,16.216,0,0,1-3.7422,3.2424l1.584,2.44,2.7-4.8193Z"/><path class="cls-34" d="M337.7728,198.1547a10.8689,10.8689,0,0,0,3.8252,2.877L339.86,203.545l-3.0386-4.3969Z"/><path d="M341.598,201.0317l1.3571,2.0651a2.8258,2.8258,0,0,1-2.75-.0517Z"/><path class="cls-35" d="M327.6335,247.7889s7.337,2.7065,23.93.1565l-.2206-3.0038s-9.6179,2.838-23.4157.4075Z"/><path class="cls-35" d="M345.8822,198.6522a182.9405,182.9405,0,0,0-1.48,23.87c.235,11.0545,8.5842,31.129,8.5842,31.129s3.6495-3.53,5.2382-5.528c0,0-5.6817-16.3941-5.5773-19.3517s6.412-25.2865,6.412-25.2865S355.5538,201.1983,345.8822,198.6522Z"/><path class="cls-35" d="M336.6711,199.1934s.0141,12.2749-.2214,23.3286-1.6908,31.6336-1.6908,31.6336-8.172-1.2939-9.76-3.2925c0,0,3.3105-19.1342,3.2065-22.0918s-5.3231-24.7116-5.3231-24.7116S325.92,202.0619,336.6711,199.1934Z"/><rect x="337.6403" y="245.867" width="4.5076" height="3.3519"/><path d="M340.9613,202.5742s-2.0139,6.872-2.19,20.5212.2476,17.5619.2476,17.5619l1.5715,3.11,2.0944-3.2455s-.6716-31.4067-.2828-37.7084Z"/><path class="cls-26" d="M352.5317,253.7668a2.7034,2.7034,0,0,0,.6273-.5617s.2084-.4419.3786-.7485a2.2374,2.2374,0,0,1,.1432-.2308,4.4187,4.4187,0,0,0,.8112-1.2469,26.1083,26.1083,0,0,0,.409-3.4247l-1.7291-.5076-1.5387-.6766a33.2935,33.2935,0,0,0-3.6506,3.1265,1.3478,1.3478,0,0,0-.0708.1589,4.9742,4.9742,0,0,0-.1608,1.1655c-.0235.0954-.1818,1.0646.045,1.2789a1.1814,1.1814,0,0,0,.99.3473,2.7036,2.7036,0,0,0,1.2594.61,1.756,1.756,0,0,0,1.3627.4075S352.0631,253.9483,352.5317,253.7668Z"/><path class="cls-35" d="M350.3262,246.0587a18.1584,18.1584,0,0,0,5.6129,3.16s10.8586-17.6942,10.9954-18.97c.1268-1.1819-5.3872-25.2419-7.8755-26.7641l-4.519,13.2323c.3-.0877,5.1432,10.0516,5.162,11.3557C359.7286,229.8211,350.3262,246.0587,350.3262,246.0587Z"/><path class="cls-35" d="M322.2979,255.5831a27.51,27.51,0,0,1-5.97.2543s1.3751-22.7115,1.2379-23.9888c-.1268-1.1812,2.8282-26.2659,5.3157-27.7889L327.32,217.43c-.3-.0876-2.9749,13.6774-2.994,14.9814C324.3,234.16,322.2979,255.5831,322.2979,255.5831Z"/><polygon points="347.484 248.573 354.461 252.191 351.719 257.269 345.78 250.919 347.484 248.573"/><path class="cls-44" d="M343.7123,289.5477l-.7051,13.808-1.3216-11.0014v-.0007C342.44,291.3468,343.1265,290.4019,343.7123,289.5477Z"/><rect class="cls-21" x="308.5947" y="121.7092" width="4.0723" height="13.3532"/><path class="cls-24" d="M458.5834,210.6657a18.8757,18.8757,0,1,1-18.8753-18.8765A18.8768,18.8768,0,0,1,458.5834,210.6657Z"/><rect class="cls-21" x="301.9195" y="125.4546" width="4.0727" height="9.6078"/><rect class="cls-21" x="315.2695" y="115.5207" width="4.0723" height="19.5418"/><rect class="cls-22" x="484.9384" y="264.7619" width="26.1939" height="1.5551" transform="translate(996.0707 531.0788) rotate(180)"/><rect class="cls-22" x="505.3265" y="270.3634" width="2.295" height="70.7132"/><rect class="cls-45" x="470.8308" y="264.3215" width="18.2072" height="2.2207" transform="translate(959.8689 530.8637) rotate(180)"/><rect class="cls-46" x="476.4872" y="245.3749" width="6.8946" height="20.942" transform="translate(959.8689 511.6919) rotate(180)"/><rect class="cls-22" x="419.6501" y="266.3427" width="100.8784" height="4.0207" transform="translate(940.1785 536.7062) rotate(180)"/><path class="cls-20" d="M539.89,242.0067s1.1029,15.4733-1.92,17.3249c-1.8938,1.16-9.4447,5.072-9.221,5.8057s4.264,6.5285,4.264,6.5285,14.5041-9.551,14.9719-12.561c.4568-2.94-.7142-22.6551-2.7073-23.5633-1.4932-.6805-2.2818-.1173-4.1631,1.28C538.4721,238.7823,539.89,242.0067,539.89,242.0067Z"/><path class="cls-47" d="M522.0436,331.4223s.4506,3.13.5077,3.6006,5.0173-.2769,5.0173-.2769l.4013-3.7273S522.6639,330.98,522.0436,331.4223Z"/><path class="cls-20" d="M522.4989,334.6247a13.3929,13.3929,0,0,1-3.0929,2.7089c-1.52.8221-3.9088,1.1483-4.8084,1.9993-.6485.6141-2.3632,3.2589,3.951,3.2057s9.3579.3731,10.0345-.6407-.9785-7.4851-.9785-7.4851A13.3682,13.3682,0,0,1,522.4989,334.6247Z"/><path class="cls-47" d="M490.2592,331.452s.4506,3.13.5069,3.6c.0563.4709,5.0172-.2769,5.0172-.2769l.4021-3.7265S490.88,331.01,490.2592,331.452Z"/><path class="cls-20" d="M490.7136,334.6544a13.3924,13.3924,0,0,1-3.0929,2.709c-1.52.822-7.1144,1.4979-8.0132,2.349-.6485.6132-1.728,3.0875,7.1559,2.8559,6.3118-.1643,9.3586.3731,10.0344-.6406.6775-1.0138-.9785-7.4852-.9785-7.4852S494.4105,335.0174,490.7136,334.6544Z"/><path d="M538.045,277.3433s-18.0367,3.0515-22.11,3.6906-26.1626,6.1366-28.9247,7.8114c-2.1988,1.3329,1.1531,33.3521,1.9361,45.5675h8.7l.6312-36.6438c10.44.2613,17.8905-2.4421,25.4931-1.2875s13.94,2.7956,18.7712-3.6844C542.5421,292.7971,542.7213,278.7576,538.045,277.3433Z"/><path d="M520.2673,334.4425l8.4786-.5249.826-36.1486a51.5741,51.5741,0,0,0,9.6731-.6133l6.8446-15.9122c-5.999,1.1992-25.2209,6.0474-27.7843,7.6018C516.1065,290.179,519.4842,322.2263,520.2673,334.4425Z"/><path class="cls-26" d="M529.7424,209.7348s-6.6115-1.8273-9.1349,3.3057c-2.5219,5.1331-1.3783,14.8633,1.954,15.7785s8.1235-.1385,9.5073-3.3331,2.4867-7.7339,2.1558-10.6736S531.4985,210.4372,529.7424,209.7348Z"/><path class="cls-26" d="M524.2887,227.7951s.0727,3.9033-.3575,4.7356,9.2069.6226,9.2069.6226-1.5183-4.6871-.6571-8.68C533.3336,220.52,524.2887,227.7951,524.2887,227.7951Z"/><path class="cls-35" d="M533,222.9953s-.5147,1.0466-3.0092.8776-5.7846-3.1782-6.843-3.4473-1.1225-.8714-1.1225-.8714l-.56.9958-1.0849.1658s.7368-3.0162-.87-4.0785.7236-9.6152,8.858-7.5525c0,0,6.2078,1.1366,6.2908,4.6034S534.2051,221.1585,533,222.9953Z"/><path class="cls-48" d="M523.4243,232.4306s.0274-1.59.7478-1.7429,7.576-1.0951,8.46-.7478l.38,2.1S531.3077,233.0892,523.4243,232.4306Z"/><path class="cls-26" d="M521.4414,218.8432c.1845-1.3033,1.6661-2.8,2.5148-.77s-.5725,4.9859-1.5245,4.8271S521.19,220.611,521.4414,218.8432Z"/><path class="cls-30" d="M494.7132,251.2167a.02.02,0,0,1,.0118-.0015C494.6756,251.237,494.6686,251.2386,494.7132,251.2167Z"/><path class="cls-49" d="M531.6706,210.6657s8.0617-.3794,1.4073,12.2052Z"/><polygon class="cls-22" points="549.633 338.73 549.033 340.417 523.694 332.567 524.909 329.15 549.633 338.73"/><rect class="cls-22" x="522.8251" y="303.8156" width="2.8802" height="27.5487" transform="translate(1048.5304 635.18) rotate(180)"/><rect class="cls-22" x="515.7717" y="302.3513" width="16.987" height="1.6239" transform="translate(1048.5304 606.3265) rotate(180)"/><polygon class="cls-22" points="498.674 338.73 499.274 340.417 524.613 332.567 523.5 328.936 498.674 338.73"/><polygon class="cls-22" points="516.528 340.237 516.528 342.199 524.613 332.567 523.5 328.936 516.528 340.237"/><path class="cls-22" d="M496.3066,341.0766a2.3683,2.3683,0,1,0,2.3678-2.3679A2.3681,2.3681,0,0,0,496.3066,341.0766Z"/><path class="cls-22" d="M516.3263,341.0766a2.3682,2.3682,0,1,0,2.3687-2.3679A2.3683,2.3683,0,0,0,516.3263,341.0766Z"/><path class="cls-50" d="M547.2645,341.0766a2.3682,2.3682,0,1,0,2.3686-2.3679A2.3682,2.3682,0,0,0,547.2645,341.0766Z"/><rect class="cls-22" x="504.0328" y="296.2029" width="40.242" height="6.1484" rx="3.0742" transform="translate(1048.3075 598.5543) rotate(-180)"/><rect class="cls-22" x="432.5569" y="270.3634" width="2.2942" height="70.7132" transform="translate(867.4081 611.44) rotate(180)"/><path class="cls-51" d="M453.9468,213.4645h51.9745a3.78,3.78,0,0,1,3.78,3.78v34.4385a3.78,3.78,0,0,1-3.78,3.78H453.9478a3.7813,3.7813,0,0,1-3.7813-3.7813V217.2448A3.78,3.78,0,0,1,453.9468,213.4645Z" transform="translate(959.8681 468.928) rotate(180)"/><rect class="cls-40" x="452.4984" y="215.7345" width="54.8721" height="33.1472" transform="translate(959.869 464.6163) rotate(180)"/><rect class="cls-52" x="452.4984" y="215.7345" width="54.8721" height="2.6377" transform="translate(959.869 434.1068) rotate(180)"/><path class="cls-52" d="M456.8663,220.3567h1.9367a2.34,2.34,0,0,1,2.34,2.34V244.5a2.34,2.34,0,0,1-2.34,2.34h-1.9355a2.34,2.34,0,0,1-2.34-2.34V222.6955A2.3388,2.3388,0,0,1,456.8663,220.3567Z" transform="translate(915.6704 467.1968) rotate(180)"/><path class="cls-52" d="M494.9759,220.3567h9.6162a1.2265,1.2265,0,0,1,1.2265,1.2265v0a1.2266,1.2266,0,0,1-1.2266,1.2266h-9.6153a1.2264,1.2264,0,0,1-1.2264-1.2264v-.0011a1.2256,1.2256,0,0,1,1.2256-1.2256Z" transform="translate(999.5689 443.1666) rotate(180)"/><path class="cls-52" d="M496.36,224.4549h6.8485a2.61,2.61,0,0,1,2.61,2.61v17.8421a2.6094,2.6094,0,0,1-2.6094,2.6094h-6.85a2.6093,2.6093,0,0,1-2.6093-2.6093V227.0643A2.6094,2.6094,0,0,1,496.36,224.4549Z" transform="translate(999.5689 471.9716) rotate(180)"/><path class="cls-53" d="M478.0141,251.977a1.92,1.92,0,1,0,1.92-1.92A1.92,1.92,0,0,0,478.0141,251.977Z"/><path class="cls-54" d="M467.61,266.3967v-.747s1.05-4.6489,8.4825-4.6489,7.2819,5.3959,7.2819,5.3959Z"/><path class="cls-26" d="M483.4646,261.6916a7.3422,7.3422,0,0,1-2.2066-.4827c-.5914-.3567-4.131-2.737-4.9617-2.3561s-6.3635,2.0761-6.1719,2.885.7041.7306,1.0944.5874a28.4171,28.4171,0,0,1,4.7623-.844s-3.9456,1.4392-3.9612,2.49.8252,1.3055,1.1991,1.7029.8236,1.3838,1.8406,1.4589,5.9786-1.65,6.9994-1.7288a24.9231,24.9231,0,0,0,3.0406-.1032A28.1226,28.1226,0,0,0,483.4646,261.6916Z"/><path class="cls-20" d="M512.8579,234.6342c5.1479-.9051,10.5664-2.2036,10.5664-2.2036l9.5879-.3912s8.7993,1.9369,12.2646,3.5021c.3286.1486.33,7.85,1.232,9.8695l-2.8723,6.0614s-1.6607,12.0066-2.0049,17.3461c-.158,2.4516.4474,23.6916.4474,23.6916s-.8612.4247-7.4046,1.1459-22.8921-.26-22.9953-1.0325c-.1033-.7737,3.1657-28.7785,3.3112-30.2287.2213-2.2254-.6438-12.5111-.6438-12.5111-1.232,1.656-4.3751,9.135-7.6518,12.6925-1.9267,2.0933-11.4691,3.377-13.2675,3.4373-3.9151.13-11.0576.91-11.2665.5287-.1658-.2284-.6219-6.3392-.1745-6.4886.3928-.1307,13.6547-.8941,17.0528-2.6972,1.243-.6594,4.9585-8.7625,4.9585-8.7625S510.0184,235.91,512.8579,234.6342Z"/><path class="cls-22" d="M533.2007,253.46H546.4a7.2763,7.2763,0,0,1,7.2763,7.2763V284.62a7.2764,7.2764,0,0,1-7.2764,7.2764H533.2007a7.2764,7.2764,0,0,1-7.2764-7.2764V260.7365A7.2764,7.2764,0,0,1,533.2007,253.46Z" transform="translate(1079.6007 545.3569) rotate(180)"/><path class="cls-22" d="M530.8415,300.8212a12.7143,12.7143,0,0,0,9.8647-4.084c5.5476-6.1249,4.55-16.8923,4.5057-17.3476a1.5443,1.5443,0,0,0-3.0735.3043c.0126.1228.8965,9.882-3.7273,14.9766a9.6271,9.6271,0,0,1-7.57,3.0633,1.5437,1.5437,0,1,0,0,3.0874Z"/><path class="cls-24" d="M480.7308,229.2829a7.7388,7.7388,0,0,1-2.6831,5.8636q-.1326.1161-.2714.2253c-.1049.0821-.2112.1611-.3192.2393a7.7052,7.7052,0,0,1-3.5247,1.3642q-.345.0423-.6977.054c-.0845.0023-.1691.0039-.2543.0039-.2511,0-.4991-.0125-.7432-.0352a7.7023,7.7023,0,0,1-3.9753-1.566,7.6165,7.6165,0,0,1-.7814-.6892c-.0477-.0469-.0954-.0962-.1408-.1454a7.5,7.5,0,0,1-.4928-.5758,7.7506,7.7506,0,1,1,13.8839-4.7387Z"/><path class="cls-36" d="M478.0281,233.5594l-.571,2.0517a7.7052,7.7052,0,0,1-3.5247,1.3642q-.345.0423-.6977.054c-.0845.0023-.1691.0039-.2543.0039-.2511,0-.4991-.0125-.7432-.0352a7.7023,7.7023,0,0,1-3.9753-1.566c-.11-.6775-.2268-1.4284-.33-2.13.57-.2128,2.3827-.8292,3.5272-1.2156.0156-.0055.0312-.011.0469-.0156.0258-.01.05-.0173.0743-.0259q.1022-.0341.194-.0657l.1784-.06c.2346-.079.4-.1346.4583-.1541l.0016-.0008.0235-.0078.0125.0008,1.5386.1149.2582.02.0806.0062.0351.0087c.0923.0243.3623.0946.7189.2034l.0016.0008A7.539,7.539,0,0,1,478.0281,233.5594Z"/><path class="cls-37" d="M473.384,225.4343s1.8445.3121,1.5317,3.2009-1.9415,2.633-2.0511,2.63c-.1079-.0047-1.638.0345-1.7186-3.4981C471.146,227.7669,471.1226,225.1557,473.384,225.4343Z"/><path class="cls-37" d="M474.1921,230.4273a6.6758,6.6758,0,0,0,.0485,1.4479c.1126.2589-1.4816,1.0771-2.4719.1447a10.1907,10.1907,0,0,0,.1377-1.7584C471.8446,229.8022,474.1921,230.4273,474.1921,230.4273Z"/><path class="cls-37" d="M474.9532,227.8185s.2049-.2143.2769.0055-.3269,1.1936-.3027,1.2375c0,0-.0375.0845-.0853.0367A10.5044,10.5044,0,0,1,474.9532,227.8185Z"/><path class="cls-37" d="M471.1672,227.74s-.1955-.2221-.2761-.0055a3.7061,3.7061,0,0,0,.2511,1.2485s.0633.1.1134.0547A10.6317,10.6317,0,0,0,471.1672,227.74Z"/><path class="cls-35" d="M475.0713,227.5729c-.0642.395-.1236.6884-.1236.6884l-.2683.3512a7.0038,7.0038,0,0,0-.0258-.8972c-.0149-.0462-.0337-.1283-.0524-.2167-.0305-.1463-.0618-.3105-.0837-.3661a3.9546,3.9546,0,0,0-2.9592.0947s.011.12.011.2526c-.0008.1549-.018.3278-.0892.3543-.1314.0485-.0767.9074-.0767.9074l-.2144-.248s-.0625-.4481-.1235-.9644v-.0039c-.0141-.1205-.0282-.2441-.0423-.3669a2.4166,2.4166,0,0,1,.6963-2.015,3.3291,3.3291,0,0,1,2.3975.0109.827.827,0,0,1,.3567.0939A3.4258,3.4258,0,0,1,475.0713,227.5729Z"/><path class="cls-38" d="M472.0332,230.8786a1.1777,1.1777,0,0,0,.9785.3935,1.3332,1.3332,0,0,0,.9817-.3724,1.1946,1.1946,0,0,1-.9849.67A1.2093,1.2093,0,0,1,472.0332,230.8786Z"/><path class="cls-37" d="M471.58,232.0449a2.0081,2.0081,0,0,0,1.4331.9418c.5953.0517,1.1107-.7024,1.3525-1.0732A3.6085,3.6085,0,0,0,471.58,232.0449Z"/><path class="cls-34" d="M474.1936,231.6413a5.1393,5.1393,0,0,1-1.18,1.0232l.5.77.8527-1.5207Z"/><path class="cls-34" d="M471.8063,231.7563a3.44,3.44,0,0,0,1.207.9082l-.5484.7931-.959-1.3876Z"/><path class="cls-39" d="M473.0133,232.6645l.4286.6515a.8922.8922,0,0,1-.8682-.0164Z"/><path class="cls-30" d="M478.5233,233.4389c-.007.0258-.4678,1.6818-.4756,1.7076q-.1326.1161-.2714.2253c-.1049.0821-.2112.1611-.3192.2393a7.7052,7.7052,0,0,1-3.5247,1.3642c.1142-2.683.4334-5.0618.4334-5.0618q.3765.0985.7141.1964l.0016.0008A17.2916,17.2916,0,0,1,478.5233,233.4389Z"/><path class="cls-30" d="M471.43,236.8783a7.7277,7.7277,0,0,1-3.1681-1.4463,7.6165,7.6165,0,0,1-.7814-.6892c-.0477-.0469-.0954-.0962-.1408-.1454-.1361-.5758-.226-.952-.2323-.9763V233.62a17.5024,17.5024,0,0,1,4.3516-1.5355v.0023C471.459,232.1638,471.4605,234.34,471.43,236.8783Z"/><path class="cls-39" d="M473.2589,233.388c-.0313.7056-.0344,2.0769-.0242,3.6413-.0845.0023-.1691.0039-.2543.0039-.2511,0-.4991-.0125-.7432-.0352a23.8654,23.8654,0,0,1,.5148-3.6123c.0375-.1564.06-.2347.06-.2347l.4553.0751C473.2644,233.2754,473.2613,233.3294,473.2589,233.388Z"/><path class="cls-30" d="M478.9144,234.2688a7.7926,7.7926,0,0,1-.8667.8777q-.1326.1161-.2714.2253l.747-1.9329C478.7181,233.55,478.8291,234.0631,478.9144,234.2688Z"/><path class="cls-30" d="M467.4805,234.7428c-.0477-.0469-.0954-.0962-.1408-.1454a7.5,7.5,0,0,1-.4928-.5758.8909.8909,0,0,1,.26-.402v.0015Z"/><path class="cls-55" d="M439.7073,218.1907a.95.95,0,0,1-.95-.9511v-13.15a.9508.9508,0,0,1,1.9016,0v13.15A.9506.9506,0,0,1,439.7073,218.1907Z"/><path class="cls-55" d="M446.2828,211.6153h-13.15a.9508.9508,0,0,1,0-1.9016h13.15a.9508.9508,0,0,1,0,1.9016Z"/></g></g></svg>