<svg id="Layer_1" data-name="Layer 1" xmlns="http://www.w3.org/2000/svg" viewBox="0 0 22 22"><defs><style>.cls-1{fill:#444ce7;}</style></defs><path class="cls-1" d="M2.7077,5.8173H7.89a.3455.3455,0,1,0,0-.691H2.7077a.3455.3455,0,0,0,0,.691Z"/><path class="cls-1" d="M2.7077,4.4353h3.11a.3455.3455,0,0,0,0-.691h-3.11a.3455.3455,0,0,0,0,.691Z"/><path class="cls-1" d="M8.2359,6.8539A.3455.3455,0,0,0,7.89,6.5083H2.7077a.3456.3456,0,0,0,0,.6911H7.89A.3455.3455,0,0,0,8.2359,6.8539Z"/><path class="cls-1" d="M21.3654,2.0167h-10.02V.98a.3455.3455,0,1,0-.691,0V2.0167H.6346V16.5282h9.5313L5.9186,20.7756a.3454.3454,0,1,0,.4885.4885l4.2474-4.2474v3.3121a.3455.3455,0,1,0,.691,0V17.0167l4.2474,4.2474a.3454.3454,0,0,0,.4885-.4885l-4.2473-4.2474h9.5313Zm-.6911,13.8205H1.3257V2.7077H20.6743Z"/><path class="cls-1" d="M10.3155,11.5414a1.3216,1.3216,0,0,0-1.16-.1105l-.66-.6593a1.3822,1.3822,0,1,0-2.5934,0l-.66.6593a1.3665,1.3665,0,0,0-.4623-.0854,1.3821,1.3821,0,1,0,1.382,1.3821,1.37,1.37,0,0,0-.3406-.8984l.4785-.4785a1.3563,1.3563,0,0,0,1.797,0l.4785.4785a1.3829,1.3829,0,1,0,2.2279.2008l2.4072-2.4069a1.3555,1.3555,0,0,0,1.7966,0l1.5155,1.5151a1.3691,1.3691,0,0,0-.3407.8983,1.3821,1.3821,0,1,0,1.382-1.382,1.3689,1.3689,0,0,0-.4623.0853L15.4063,9.0441a1.3821,1.3821,0,1,0-2.5934,0ZM4.7808,13.4186a.6911.6911,0,1,1,.691-.691A.6917.6917,0,0,1,4.7808,13.4186ZM7.1994,11a.691.691,0,1,1,.691-.691A.6918.6918,0,0,1,7.1994,11ZM9.618,13.4186a.6911.6911,0,1,1,.691-.691A.6918.6918,0,0,1,9.618,13.4186Zm8.6377-1.3821a.691.691,0,1,1-.691-.691A.6918.6918,0,0,1,18.2557,12.0365ZM14.11,7.89a.691.691,0,1,1-.691.691A.6917.6917,0,0,1,14.11,7.89Z"/></svg>