<svg id="Layer_1" data-name="Layer 1" xmlns="http://www.w3.org/2000/svg" viewBox="0 0 1920 1080"><defs><style>.cls-1{fill:#202c60;}.cls-2{fill:#fff;}</style></defs><path class="cls-1" d="M1359.5462,922.9972Q1283.92,729.06,1207.49,535.0868q-76.3927-193.937-166.831-392.8354,21.3418,3.2834,41.1149,5.7276a330.9418,330.9418,0,0,0,41.0785,2.4808,267.9794,267.9794,0,0,0,36.1534-2.4808c12.039-1.6417,24.1144-3.5387,36.1534-5.7276q50.9468,162.69,110.9775,319.69,59.976,156.9991,133.9609,321.3312,32.8337-67.3635,64.9011-145.4527,32.0675-78.0345,64.1349-161.906,32.0127-83.835,62.4567-168.4727,30.3711-84.6558,59.976-165.1893,29.6049,8.2083,50.965,8.2084,21.3418,0,50.965-8.2084-88.76,198.8619-174.2368,392.8354-85.4768,193.9917-156.1419,387.91a386.3453,386.3453,0,0,0-50.965-3.2834A423.8739,423.8739,0,0,0,1359.5462,922.9972Z"/><path class="cls-1" d="M772.5522,157.3558H908.6159V202.71L756.2246,525.6349C765.8756,708.88,808.18,836.0778,868.7039,844.931c14.428,2.1105,37.7763-1.3509,70.7531-34.47l41.67,50.7971c-83.104,67.96-178.7715,90.9266-235.7872,54.4255-36.7608-23.534-57.6862-71.9372-68.9389-97.9659A318.818,318.818,0,0,1,651.002,710.6814c-11.9233,30.8484-34.6851,78.2082-78.01,123.3645C540.9068,867.4878,468.5858,943.047,369.8038,937.4543c-106.4779-6.0285-170.7694-102.1882-188.86-129.2451-64.65-96.6958-56.4624-200.16-50.469-275.8973C137.4734,443.88,155.4732,342.3663,233.74,246.2508c70.1341-86.128,183.77-123.2031,288.455-94.3375,95.1053,26.2239,169.1417,103.1,193.721,200.3925Q744.2341,254.8309,772.5522,157.3558Z"/><path class="cls-2" d="M335.2021,285.7375c28.2253-45.3339,69.61-76.0674,130.0526-73.0626,90.6046,4.505,128.7252,88.8222,152.3141,164.4842,34.9563,112.1273,29.8421,230.6231-29.2822,333.5747-20.9713,36.5168-56.72,91.082-96.1137,110.9324-77.7412,39.1738-157.2314-3.133-188.6644-78.4439-27.5728-66.0621-29.191-142.0773-26.673-212.5934C279.3049,461.476,291.4265,356.047,335.2021,285.7375Z"/></svg>