<svg id="Layer_1" data-name="Layer 1" xmlns="http://www.w3.org/2000/svg" viewBox="0 0 1680.3575 406.9726"><defs><style>.cls-1{fill:#fff;}.cls-2{font-size:222.8755px;font-family:Optima-Regular, Optima;}.cls-2,.cls-3{fill:#202c60;}</style></defs><rect class="cls-1" x="35.8661" width="406.9726" height="406.9726" rx="40.5515"/><text class="cls-2" transform="translate(516.8856 267.5066)">AlphaValley</text><path class="cls-3" d="M323.7673,284.4047q-15.9781-40.9743-32.1259-81.9564-16.14-40.9744-35.2475-82.9971,4.509.6938,8.6866,1.21a69.9306,69.9306,0,0,0,8.6789.5241,56.6264,56.6264,0,0,0,7.6384-.5241c2.5435-.3469,5.0948-.7477,7.6384-1.21q10.7639,34.3728,23.4469,67.543,12.6715,33.17,28.3029,67.89,6.9369-14.2324,13.7121-30.7308,6.775-16.4869,13.55-34.207,6.7635-17.7124,13.1956-35.5944,6.4167-17.8859,12.6716-34.9007a34.2937,34.2937,0,0,0,21.5354,0q-18.7528,42.015-36.8122,82.9971-18.0592,40.9859-32.9891,81.9564a81.6369,81.6369,0,0,0-10.7678-.6937A89.5657,89.5657,0,0,0,323.7673,284.4047Z"/><path class="cls-3" d="M199.749,122.6424h28.7471v9.5824l-32.1967,68.2265c2.039,38.7154,10.977,65.5894,23.7643,67.46,3.0483.4458,7.9812-.2855,14.9485-7.2827l8.8038,10.7323C226.2581,285.7193,206.0457,290.5715,194,282.86c-7.7667-4.9722-12.1877-15.1987-14.5652-20.698a67.3578,67.3578,0,0,1-5.3661-22.6144,78.4463,78.4463,0,0,1-16.4817,26.0641c-6.7789,7.0655-22.0586,23.0294-42.929,21.8478-22.4963-1.2737-36.08-21.59-39.9016-27.3065-13.659-20.43-11.9292-42.2892-10.6629-58.2907,1.4785-18.6836,5.2814-40.1311,21.8174-60.4381,14.8177-18.1968,38.8263-26.03,60.9439-19.9313a58.6182,58.6182,0,0,1,40.9287,42.3383Q193.7662,143.2367,199.749,122.6424Z"/><path class="cls-1" d="M107.3471,149.7665c5.9634-9.578,14.707-16.0712,27.4771-15.4364,19.1426.9518,27.1966,18.7661,32.18,34.7517,7.3855,23.69,6.305,48.7253-6.1866,70.4766-4.4308,7.7151-11.9837,19.2435-20.3066,23.4374-16.4249,8.2766-33.2194-.6619-39.86-16.5733-5.8255-13.9574-6.1674-30.0177-5.6354-44.9161C95.5373,186.896,98.0983,164.6213,107.3471,149.7665Z"/></svg>