<svg id="Layer_1" data-name="Layer 1" xmlns="http://www.w3.org/2000/svg" viewBox="0 0 22 22"><defs><style>.cls-1{fill:#444ce7;}</style></defs><path class="cls-1" d="M18.4588,10.4618H10.3069a1.5293,1.5293,0,0,1,0-3.0586h8.1519a1.5293,1.5293,0,1,1,0,3.0586ZM10.3069,8.1193a.8132.8132,0,0,0,0,1.6263h8.1519a.8132.8132,0,0,0,0-1.6263Z"/><path class="cls-1" d="M18.4588,14.59H3.5412a1.5293,1.5293,0,0,1,0-3.0586H18.4588a1.5293,1.5293,0,0,1,0,3.0586ZM3.5412,12.2478a.8132.8132,0,0,0,0,1.6263H18.4588a.8132.8132,0,0,0,0-1.6263Z"/><path class="cls-1" d="M18.4588,6.34H10.3069a1.5293,1.5293,0,0,1,0-3.0586h8.1519a1.5293,1.5293,0,0,1,0,3.0586ZM10.3069,3.9979a.8132.8132,0,0,0,0,1.6263h8.1519a.8132.8132,0,0,0,0-1.6263Z"/><path class="cls-1" d="M18.4588,18.7188H3.5412a1.5293,1.5293,0,1,1,0-3.0586H18.4588a1.5293,1.5293,0,0,1,0,3.0586ZM3.5412,16.3764a.8131.8131,0,1,0,0,1.6262H18.4588a.8131.8131,0,1,0,0-1.6262Z"/><path class="cls-1" d="M13.1071,5.0385H10.372a.3581.3581,0,1,1,0-.7161h2.7351a.3581.3581,0,1,1,0,.7161Z"/><path class="cls-1" d="M14.7761,5.0385h-.4978a.3581.3581,0,1,1,0-.7161h.4978a.3581.3581,0,1,1,0,.7161Z"/><path class="cls-1" d="M5.3508,8.6291a.3581.3581,0,0,1-.3581-.3581V3.6393a.3581.3581,0,1,1,.7162,0V8.271A.3581.3581,0,0,1,5.3508,8.6291Z"/><path class="cls-1" d="M5.3508,10.457a.3571.3571,0,0,1-.2532-.1049l-2.51-2.51a.3581.3581,0,1,1,.5064-.5065l2.257,2.257,2.257-2.257a.3581.3581,0,1,1,.5065.5065l-2.51,2.51A.3575.3575,0,0,1,5.3508,10.457Z"/></svg>